<svg width="316" height="328" viewBox="0 0 316 328" fill="none" xmlns="http://www.w3.org/2000/svg">
<path d="M214.89 32.1047C209.079 26.304 201.682 22.346 193.627 20.7272C185.572 19.1084 177.218 19.9009 169.613 23.0053C168.174 23.5969 166.593 23.7511 165.067 23.4483C163.541 23.1456 162.139 22.3995 161.037 21.3037L156.231 16.5051C145.819 6.10713 131.696 0.265625 116.97 0.265625C102.244 0.265625 88.1209 6.10713 77.708 16.5051C67.2952 26.903 61.4453 41.0056 61.4453 55.7105C61.4453 70.4155 67.2952 84.5181 77.708 94.916L133.022 150.151C133.022 150.151 153.565 152.89 158.136 148.326L214.89 91.0193C222.713 83.2066 227.108 72.6105 227.108 61.562C227.108 50.5135 222.713 39.9174 214.89 32.1047Z" fill="#274D76"/>
<path d="M265.219 78.4907C240.757 68.4044 219.542 87.0372 201.321 100.778C185.558 112.668 144.882 144.284 143.144 145.637C141.406 144.284 100.721 112.668 84.9672 100.778C66.7465 87.0372 45.5309 68.4044 21.0648 78.4907C4.79094 85.1994 -5.73594 103.785 5.95822 124.052C26.9779 160.479 68.8766 228.766 68.8766 228.766C71.6845 233.444 75.6497 237.323 80.3915 240.03C85.1332 242.737 90.4923 244.182 95.9542 244.225C98.7531 244.25 120.834 244.225 143.144 244.225C165.455 244.225 187.535 244.25 190.338 244.225C195.799 244.181 201.156 242.736 205.896 240.029C210.637 237.322 214.6 233.443 217.407 228.766C217.407 228.766 259.306 160.479 280.326 124.048C292.02 103.785 281.493 85.1994 265.219 78.4907Z" fill="#6EE7B7"/>
<path d="M71.9311 321.682H10.8702C10.0346 321.682 9.20714 321.518 8.43518 321.199C7.66322 320.879 6.96185 320.411 6.37117 319.821C5.78049 319.23 5.31209 318.53 4.9927 317.759C4.67331 316.988 4.50921 316.161 4.50977 315.327V254.46C4.50977 250.441 6.10853 246.587 8.95434 243.745C11.8001 240.903 15.6599 239.307 19.6845 239.307H71.9311V321.682Z" fill="#D1D5DB"/>
<path d="M59.7724 266.558H22.9816C20.8763 266.557 18.8576 265.721 17.3693 264.234C15.881 262.747 15.0449 260.731 15.0449 258.629V251.01C15.0427 248.471 15.5414 245.957 16.5126 243.612C17.4838 241.266 18.9084 239.134 20.705 237.339C22.5016 235.543 24.635 234.119 26.9832 233.147C29.3314 232.175 31.8484 231.675 34.3904 231.675H48.3594C50.9002 231.674 53.4163 232.173 55.7639 233.144C58.1115 234.115 60.2446 235.537 62.0414 237.331C63.8383 239.125 65.2636 241.255 66.2361 243.599C67.2086 245.943 67.7091 248.455 67.7091 250.993V258.616C67.7108 259.658 67.5067 260.69 67.1087 261.653C66.7106 262.616 66.1264 263.492 65.3893 264.23C64.6522 264.967 63.7767 265.553 62.8129 265.952C61.8491 266.352 60.8159 266.558 59.7724 266.558Z" fill="black"/>
<path d="M21.0683 259.782C21.0109 259.782 20.9542 259.77 20.9015 259.747C20.8488 259.725 20.8012 259.692 20.7616 259.65C20.6822 259.57 20.6377 259.463 20.6377 259.35C20.6377 259.238 20.6822 259.13 20.7616 259.05C24.4349 255.553 29.319 253.609 34.3941 253.622H48.3632C53.1168 253.621 57.7116 255.331 61.3056 258.438C61.3869 258.513 61.4358 258.616 61.442 258.727C61.4481 258.837 61.411 258.946 61.3384 259.029C61.2659 259.113 61.1636 259.165 61.0533 259.174C60.943 259.184 60.8333 259.15 60.7475 259.08C57.308 256.108 52.9116 254.473 48.3632 254.473H34.3899C29.5388 254.463 24.871 256.322 21.358 259.663C21.2801 259.738 21.1765 259.78 21.0683 259.782Z" fill="white"/>
<path d="M218.72 225.541H78.897C77.0497 225.541 75.278 226.274 73.9717 227.578C72.6655 228.883 71.9316 230.652 71.9316 232.496V321.683H225.681V232.496C225.681 230.652 224.948 228.884 223.642 227.58C222.337 226.275 220.566 225.542 218.72 225.541Z" fill="#D1D5DB"/>
<path d="M204.397 227.843H88.3923C86.4983 227.843 84.9629 229.376 84.9629 231.267V266.78C84.9629 268.672 86.4983 270.205 88.3923 270.205H204.397C206.291 270.205 207.826 268.672 207.826 266.78V231.267C207.826 229.376 206.291 227.843 204.397 227.843Z" fill="#64748B"/>
<path d="M108.905 267.894C108.49 268.223 107.968 268.391 107.439 268.365C106.909 268.339 106.406 268.122 106.025 267.753C102.157 264.035 97.215 262.423 92.4223 260.862C87.7915 259.352 83.4163 257.927 80.8304 254.625C78.7557 251.984 78.121 247.223 79.1264 241.897C79.8885 237.824 81.5042 233.957 83.8675 230.551C86.2308 227.145 89.2884 224.276 92.8398 222.133L95.0637 225.685C86.3814 230.888 83.9531 239.298 83.3141 242.659C82.4365 247.274 83.1309 250.741 84.2045 252.09C85.998 254.379 89.5979 255.548 93.7643 256.91C98.8211 258.556 104.483 260.402 109.058 264.831C109.266 265.034 109.428 265.278 109.533 265.549C109.639 265.819 109.686 266.108 109.671 266.398C109.656 266.687 109.58 266.971 109.447 267.228C109.314 267.486 109.128 267.713 108.901 267.894H108.905Z" fill="white"/>
<path d="M308.251 217.037C307.024 217.01 305.81 217.287 304.717 217.844C303.624 218.401 302.687 219.22 301.989 220.227C297.03 227.723 293.089 237.086 285.527 237.086H225.681V301.361H300.66C301.249 301.36 301.838 301.325 302.423 301.255C302.941 301.325 303.464 301.36 303.987 301.361C307.173 301.36 310.228 300.096 312.48 297.846C314.733 295.597 315.999 292.546 316 289.365V224.818C316 222.761 315.185 220.789 313.733 219.331C312.281 217.873 310.31 217.048 308.251 217.037Z" fill="#64748B"/>
<path d="M92.9293 252.945C92.6468 252.951 92.378 253.067 92.1818 253.271C91.9857 253.474 91.8783 253.746 91.8834 254.028C91.8885 254.31 92.0056 254.579 92.2089 254.775C92.4123 254.97 92.6852 255.078 92.9677 255.073H93.0102C96.3289 254.953 107.755 255.498 115.564 267.835C115.66 267.986 115.794 268.111 115.952 268.197C116.11 268.283 116.287 268.328 116.467 268.328C116.667 268.329 116.864 268.273 117.033 268.167C117.152 268.092 117.254 267.995 117.335 267.881C117.416 267.767 117.473 267.638 117.504 267.501C117.535 267.365 117.539 267.224 117.515 267.086C117.491 266.949 117.44 266.817 117.366 266.699C108.93 253.396 96.5206 252.809 92.9293 252.945ZM99.4431 248.768C99.3032 248.749 99.161 248.758 99.0245 248.794C98.888 248.829 98.7599 248.892 98.6476 248.977C98.5352 249.063 98.4408 249.169 98.3697 249.291C98.2986 249.413 98.2522 249.547 98.2332 249.687C98.2142 249.827 98.2229 249.969 98.2588 250.105C98.2948 250.241 98.3573 250.369 98.4427 250.481C98.5282 250.593 98.6349 250.688 98.7569 250.759C98.8788 250.83 99.0135 250.876 99.1534 250.895C99.294 250.895 113.485 253.022 119.743 265.027C119.807 265.151 119.895 265.261 120.002 265.351C120.109 265.441 120.233 265.509 120.366 265.552C120.5 265.594 120.64 265.609 120.779 265.598C120.919 265.586 121.054 265.546 121.178 265.482C121.303 265.418 121.413 265.33 121.503 265.223C121.593 265.116 121.661 264.993 121.704 264.86C121.746 264.727 121.762 264.586 121.75 264.447C121.738 264.308 121.699 264.173 121.634 264.049C114.844 251.018 100.057 248.849 99.4303 248.764L99.4431 248.768ZM108.015 247.917C107.961 248.046 107.933 248.184 107.934 248.324C107.934 248.464 107.961 248.602 108.015 248.731C108.069 248.86 108.148 248.977 108.247 249.075C108.347 249.174 108.464 249.251 108.594 249.304C108.683 249.338 117.216 252.873 119.743 257.685C119.834 257.857 119.97 258 120.136 258.101C120.303 258.201 120.494 258.255 120.689 258.255C120.861 258.253 121.03 258.211 121.183 258.131C121.432 257.999 121.62 257.774 121.703 257.504C121.787 257.235 121.761 256.943 121.63 256.693C118.742 251.193 109.783 247.488 109.403 247.334C109.274 247.279 109.136 247.25 108.996 247.248C108.855 247.246 108.716 247.272 108.586 247.324C108.455 247.376 108.337 247.454 108.237 247.552C108.136 247.65 108.057 247.767 108.002 247.896L108.015 247.917ZM116.403 247.296C116.265 247.249 116.12 247.23 115.975 247.241C115.83 247.252 115.689 247.293 115.56 247.361C115.431 247.428 115.318 247.522 115.227 247.635C115.135 247.748 115.068 247.878 115.03 248.018C114.991 248.158 114.981 248.305 115.001 248.448C115.021 248.592 115.071 248.73 115.146 248.854C115.222 248.978 115.322 249.086 115.441 249.17C115.559 249.254 115.694 249.312 115.836 249.342C115.879 249.342 120.305 250.618 122.499 254.528C122.591 254.693 122.726 254.83 122.889 254.926C123.053 255.022 123.239 255.072 123.428 255.073C123.61 255.074 123.789 255.027 123.948 254.936C124.071 254.87 124.181 254.78 124.269 254.671C124.358 254.562 124.424 254.437 124.463 254.302C124.503 254.168 124.515 254.026 124.5 253.887C124.485 253.748 124.442 253.613 124.374 253.49C121.719 248.789 116.607 247.334 116.39 247.275L116.403 247.296ZM88.6691 262.253C88.5369 262.191 88.3934 262.157 88.2474 262.153C88.1013 262.148 87.956 262.174 87.8202 262.228C87.6845 262.281 87.5612 262.362 87.458 262.466C87.3548 262.569 87.2739 262.692 87.2202 262.828C87.1666 262.964 87.1413 263.109 87.1461 263.255C87.1508 263.4 87.1854 263.544 87.2477 263.676C87.31 263.807 87.3987 263.925 87.5084 264.022C87.618 264.118 87.7463 264.191 87.8853 264.236C87.9279 264.236 92.0773 265.903 94.5311 268.354C94.6288 268.453 94.7454 268.533 94.8742 268.587C95.003 268.641 95.1412 268.669 95.2809 268.669C95.4909 268.667 95.6958 268.604 95.87 268.486C96.0442 268.369 96.18 268.203 96.2604 268.01C96.3408 267.816 96.3623 267.603 96.3222 267.397C96.2822 267.191 96.1822 267.002 96.0349 266.852C93.2658 264.091 88.8481 262.33 88.6691 262.253ZM88.0003 246.815C88.1835 246.956 92.6439 250.146 101.697 243.901C105.923 240.987 110.958 239.992 115.517 241.174C117.339 241.621 119.041 242.459 120.505 243.631C121.969 244.803 123.158 246.281 123.99 247.96C124.079 248.137 124.216 248.287 124.386 248.391C124.555 248.495 124.75 248.551 124.949 248.551C125.111 248.552 125.272 248.514 125.417 248.44C125.543 248.379 125.655 248.293 125.748 248.188C125.84 248.083 125.911 247.961 125.956 247.828C126.001 247.696 126.02 247.556 126.011 247.417C126.001 247.277 125.965 247.141 125.903 247.015C124.936 245.061 123.553 243.342 121.851 241.978C120.149 240.613 118.169 239.636 116.049 239.116C110.894 237.78 105.22 238.886 100.487 242.153C92.8952 247.385 89.3593 245.169 89.2656 245.105C89.0396 244.936 88.7555 244.863 88.4759 244.903C88.1963 244.943 87.944 245.092 87.7745 245.318C87.605 245.544 87.5322 245.827 87.5722 246.106C87.6121 246.386 87.7615 246.638 87.9875 246.807L88.0003 246.815ZM118.175 236.18C118.256 236.218 126.056 240.034 128.906 244.782C128.978 244.902 129.073 245.006 129.185 245.09C129.298 245.173 129.425 245.233 129.561 245.267C129.697 245.301 129.838 245.308 129.976 245.288C130.115 245.267 130.248 245.22 130.368 245.148C130.488 245.076 130.592 244.981 130.676 244.869C130.759 244.757 130.819 244.629 130.853 244.494C130.887 244.358 130.894 244.218 130.874 244.079C130.853 243.941 130.806 243.808 130.734 243.689C127.56 238.405 119.449 234.432 119.108 234.266C118.982 234.205 118.845 234.169 118.706 234.16C118.566 234.152 118.426 234.171 118.294 234.217C118.161 234.262 118.039 234.334 117.934 234.426C117.83 234.519 117.744 234.632 117.683 234.757C117.622 234.883 117.586 235.019 117.577 235.159C117.569 235.299 117.588 235.438 117.634 235.57C117.68 235.703 117.751 235.824 117.844 235.929C117.937 236.034 118.049 236.119 118.175 236.18ZM125.383 234.228C125.426 234.253 129.69 236.503 130.845 239.958C130.885 240.095 130.952 240.223 131.043 240.334C131.134 240.444 131.246 240.536 131.373 240.602C131.5 240.668 131.639 240.709 131.782 240.72C131.924 240.732 132.068 240.714 132.204 240.669C132.34 240.624 132.465 240.552 132.573 240.457C132.68 240.362 132.767 240.247 132.829 240.118C132.89 239.988 132.925 239.848 132.931 239.705C132.937 239.562 132.915 239.42 132.864 239.286C131.441 235.032 126.576 232.449 126.367 232.343C126.118 232.226 125.834 232.209 125.573 232.297C125.312 232.384 125.095 232.569 124.968 232.813C124.841 233.057 124.813 233.34 124.89 233.604C124.968 233.867 125.144 234.091 125.383 234.228ZM175.461 252.15C169.536 242.298 161.296 237.091 151.639 237.091C141.614 237.091 133.789 242.327 129.009 252.239C126.784 256.944 125.369 261.989 124.821 267.163C124.799 267.445 124.89 267.724 125.074 267.939C125.258 268.154 125.52 268.287 125.803 268.309C126.085 268.331 126.365 268.24 126.58 268.056C126.796 267.872 126.929 267.611 126.951 267.328C127.499 262.401 128.853 257.597 130.96 253.107C135.424 243.889 142.386 239.218 151.651 239.218C160.632 239.218 168.023 243.923 173.621 253.201C176.246 257.646 178.197 262.456 179.411 267.473C179.46 267.713 179.59 267.929 179.781 268.084C179.971 268.239 180.209 268.324 180.454 268.324C180.528 268.332 180.602 268.332 180.676 268.324C180.814 268.295 180.945 268.238 181.062 268.158C181.178 268.078 181.277 267.976 181.354 267.857C181.43 267.738 181.482 267.606 181.507 267.467C181.532 267.328 181.529 267.185 181.498 267.048C180.245 261.81 178.21 256.791 175.461 252.158V252.15ZM151.076 243.957C150.799 243.957 150.522 243.957 150.224 243.986C144.341 244.412 139.114 248.036 135.101 254.524C131.769 259.909 130.414 265.363 130.253 267.163C130.242 267.302 130.258 267.443 130.302 267.576C130.345 267.709 130.415 267.832 130.506 267.939C130.597 268.045 130.708 268.133 130.833 268.196C130.958 268.26 131.095 268.298 131.235 268.309C131.374 268.32 131.515 268.303 131.648 268.26C131.782 268.216 131.905 268.147 132.012 268.056C132.119 267.965 132.206 267.854 132.27 267.729C132.333 267.604 132.372 267.468 132.383 267.328C132.51 265.763 133.827 260.645 136.924 255.638C139.48 251.542 143.851 246.56 150.382 246.105C162.638 245.254 174.115 267.503 174.239 267.728C174.328 267.903 174.464 268.05 174.632 268.152C174.799 268.254 174.992 268.308 175.189 268.307C175.356 268.308 175.522 268.269 175.67 268.192C175.922 268.065 176.113 267.842 176.201 267.574C176.289 267.306 176.267 267.014 176.139 266.763C175.653 265.823 164.364 243.965 151.076 243.965V243.957ZM151.251 250.07H151.225C146.872 250.07 142.841 253.048 139.574 258.671C138.07 261.289 136.87 264.07 135.995 266.958C135.956 267.092 135.945 267.233 135.96 267.372C135.976 267.51 136.02 267.644 136.088 267.766C136.156 267.888 136.248 267.995 136.357 268.082C136.467 268.168 136.593 268.231 136.728 268.269C136.822 268.295 136.92 268.309 137.018 268.311C137.25 268.311 137.476 268.234 137.662 268.094C137.847 267.953 137.981 267.756 138.044 267.533C138.087 267.38 142.462 252.218 151.251 252.218C156.704 252.218 161.961 263.342 163.529 267.631C163.625 267.896 163.823 268.112 164.08 268.231C164.336 268.35 164.629 268.363 164.894 268.267C165.16 268.17 165.376 267.972 165.495 267.717C165.615 267.461 165.628 267.168 165.531 266.903C165.28 266.201 159.307 250.078 151.251 250.078V250.07ZM151.213 259.556C145.721 260.177 143.361 267.214 143.263 267.524C143.176 267.792 143.199 268.084 143.326 268.335C143.454 268.586 143.677 268.777 143.945 268.864C144.052 268.901 144.164 268.92 144.277 268.92C144.502 268.919 144.72 268.847 144.901 268.715C145.083 268.583 145.218 268.397 145.287 268.184C145.308 268.124 147.306 262.139 151.451 261.671C155.315 261.22 156.989 268.052 156.989 268.098C157.054 268.373 157.226 268.611 157.466 268.759C157.707 268.908 157.997 268.955 158.272 268.89C158.547 268.825 158.785 268.654 158.933 268.413C159.082 268.173 159.129 267.884 159.064 267.609C159 267.26 156.951 258.901 151.213 259.565V259.556ZM178.081 250.759C178.091 251.034 178.208 251.295 178.407 251.486C178.605 251.678 178.871 251.784 179.147 251.784H179.185C179.467 251.774 179.733 251.653 179.925 251.447C180.118 251.242 180.221 250.968 180.212 250.687C179.973 244.025 178.256 237.444 177.528 234.921C177.449 234.65 177.266 234.421 177.018 234.284C176.771 234.148 176.479 234.115 176.207 234.194C175.935 234.272 175.706 234.455 175.569 234.702C175.433 234.95 175.4 235.241 175.479 235.512C176.186 237.967 177.851 244.344 178.081 250.767V250.759ZM184.429 238.15C184.15 238.192 183.9 238.342 183.731 238.567C183.562 238.792 183.488 239.075 183.526 239.354C184.229 244.246 186.508 260.577 186.465 265.304C186.464 265.586 186.575 265.857 186.772 266.058C186.97 266.26 187.239 266.375 187.522 266.38C187.803 266.38 188.073 266.269 188.272 266.071C188.472 265.874 188.585 265.605 188.587 265.325C188.638 260.577 186.534 245.369 185.626 239.047C185.584 238.772 185.435 238.524 185.211 238.357C184.987 238.191 184.706 238.119 184.429 238.158V238.15ZM191.139 238.575C190.862 238.627 190.616 238.786 190.457 239.018C190.297 239.25 190.236 239.536 190.287 239.813C190.312 239.962 193.03 254.915 192.92 259.161C192.914 259.443 193.02 259.716 193.214 259.921C193.409 260.125 193.677 260.245 193.959 260.254H193.985C194.263 260.254 194.53 260.146 194.729 259.952C194.928 259.758 195.043 259.494 195.05 259.216C195.169 254.753 192.494 240.073 192.383 239.43C192.329 239.154 192.168 238.91 191.935 238.751C191.702 238.593 191.416 238.533 191.139 238.584V238.575ZM199.992 239.545C199.968 239.407 199.918 239.276 199.843 239.157C199.769 239.039 199.672 238.937 199.557 238.856C199.443 238.775 199.314 238.718 199.178 238.687C199.042 238.656 198.9 238.652 198.762 238.675C198.625 238.699 198.493 238.749 198.374 238.823C198.256 238.898 198.153 238.995 198.072 239.109C197.991 239.223 197.934 239.351 197.903 239.488C197.872 239.624 197.868 239.765 197.891 239.903C197.891 240 199.565 249.789 199.685 254.009C199.693 254.286 199.808 254.549 200.007 254.742C200.206 254.935 200.472 255.043 200.75 255.043H200.78C201.062 255.034 201.329 254.914 201.523 254.709C201.717 254.504 201.822 254.231 201.815 253.949C201.687 249.589 200.064 239.962 199.992 239.554V239.545Z" fill="#F4F9F2"/>
<path d="M194.159 268.231C193.867 268.147 193.597 268 193.368 267.801C193.139 267.601 192.957 267.354 192.835 267.076C192.713 266.798 192.654 266.497 192.662 266.193C192.67 265.89 192.745 265.592 192.881 265.321C195.437 260.45 200.315 258.514 204.669 256.779C209.538 254.839 213.743 253.163 215.004 247.96C216.487 241.855 212.563 235.908 209.01 231.999C206.465 229.229 203.605 226.765 200.49 224.656L202.833 221.181C203.646 221.7 222.715 234.164 219.136 248.921C217.373 256.209 211.468 258.561 206.262 260.637C202.151 262.275 198.53 263.717 196.668 267.21C196.434 267.644 196.055 267.984 195.597 268.17C195.139 268.356 194.631 268.378 194.159 268.231Z" fill="white"/>
<path d="M308.251 237.358C307.024 237.331 305.81 237.609 304.717 238.166C303.624 238.722 302.687 239.541 301.988 240.549C297.03 248.044 293.089 257.408 285.527 257.408H224.402V321.682H300.659C301.249 321.681 301.838 321.646 302.423 321.576C302.941 321.646 303.464 321.682 303.986 321.682C307.172 321.681 310.227 320.417 312.48 318.167C314.733 315.918 315.999 312.867 316 309.686V245.139C316 243.083 315.185 241.11 313.733 239.652C312.281 238.194 310.31 237.369 308.251 237.358Z" fill="#D1D5DB"/>
<path d="M308.217 239.486C306.843 239.489 305.516 239.989 304.484 240.894C303.451 241.8 302.782 243.048 302.602 244.408L294.192 308.402C294.02 309.74 294.124 311.098 294.497 312.394C294.871 313.69 295.507 314.896 296.366 315.937C297.224 316.978 298.287 317.832 299.489 318.447C300.691 319.062 302.007 319.424 303.355 319.511C304.702 319.599 306.054 319.409 307.325 318.955C308.597 318.501 309.762 317.791 310.748 316.869C311.734 315.948 312.52 314.834 313.059 313.598C313.597 312.361 313.876 311.027 313.878 309.678V245.14C313.876 243.641 313.279 242.205 312.218 241.145C311.156 240.085 309.718 239.489 308.217 239.486Z" fill="white"/>
<path d="M293.63 318.412C292.496 317.121 291.65 315.603 291.15 313.96C290.649 312.317 290.506 310.586 290.729 308.883L298.534 249.475L299.386 249.585L291.581 308.993C291.372 310.576 291.504 312.185 291.968 313.712C292.433 315.24 293.219 316.651 294.274 317.85L293.63 318.412Z" fill="white"/>
<path d="M312.079 310.752C312.775 306.469 309.862 302.433 305.573 301.738C301.283 301.042 297.241 303.951 296.545 308.235C295.849 312.518 298.762 316.554 303.051 317.249C307.341 317.944 311.382 315.036 312.079 310.752Z" fill="#D1D5DB"/>
<path d="M310.265 295.296C312.963 292.601 312.963 288.233 310.265 285.538C307.566 282.843 303.191 282.843 300.493 285.538C297.794 288.233 297.794 292.601 300.493 295.296C303.191 297.991 307.566 297.991 310.265 295.296Z" fill="#D1D5DB"/>
<path d="M306.402 278.483C309.654 278.483 312.29 275.851 312.29 272.604C312.29 269.357 309.654 266.725 306.402 266.725C303.151 266.725 300.515 269.357 300.515 272.604C300.515 275.851 303.151 278.483 306.402 278.483Z" fill="#D1D5DB"/>
<path d="M312.14 258.858C312.748 256.287 311.154 253.712 308.58 253.105C306.006 252.499 303.427 254.091 302.82 256.661C302.212 259.231 303.806 261.806 306.38 262.413C308.954 263.019 311.533 261.428 312.14 258.858Z" fill="#D1D5DB"/>
<path d="M312.159 246.421C312.669 244.262 311.331 242.099 309.169 241.59C307.007 241.08 304.841 242.417 304.331 244.576C303.821 246.735 305.16 248.897 307.321 249.407C309.483 249.916 311.649 248.579 312.159 246.421Z" fill="#D1D5DB"/>
<path d="M210.041 284.281H182.146V322.917H210.041V284.281Z" fill="#64748B"/>
<path d="M179.505 279.521H92.7252C86.8784 279.521 82.1387 284.253 82.1387 290.092V316.305C82.1387 322.144 86.8784 326.877 92.7252 326.877H179.505C185.352 326.877 190.091 322.144 190.091 316.305V290.092C190.091 284.253 185.352 279.521 179.505 279.521Z" fill="white"/>
<path d="M179.508 278.67H92.7286C89.6959 278.673 86.7885 279.878 84.6441 282.019C82.4997 284.16 81.2934 287.064 81.29 290.092V316.306C81.2923 319.334 82.4982 322.238 84.6428 324.38C86.7875 326.521 89.6956 327.726 92.7286 327.728H179.508C182.541 327.724 185.448 326.52 187.593 324.379C189.737 322.237 190.943 319.334 190.947 316.306V290.092C190.942 287.064 189.736 284.161 187.591 282.02C185.447 279.879 182.54 278.674 179.508 278.67ZM190.095 316.306C190.095 319.109 188.979 321.798 186.994 323.781C185.009 325.763 182.316 326.877 179.508 326.877H92.7286C91.3382 326.878 89.9613 326.605 88.6766 326.073C87.392 325.542 86.2247 324.764 85.2415 323.782C84.2584 322.8 83.4786 321.635 82.9468 320.352C82.415 319.069 82.1415 317.694 82.1421 316.306V290.092C82.1421 287.288 83.2574 284.6 85.2428 282.617C87.2281 280.635 89.9209 279.521 92.7286 279.521H179.508C182.315 279.522 185.008 280.636 186.993 282.618C188.978 284.601 190.094 287.289 190.095 290.092V316.306Z" fill="#D1D5DB"/>
<path d="M226.515 245.343H225.663V321.72H226.515V245.343Z" fill="#64748B"/>
<path d="M244.071 297.234C244.071 295.668 243.448 294.166 242.339 293.059C241.23 291.951 239.726 291.329 238.158 291.329C239.726 291.329 241.23 290.707 242.339 289.6C243.448 288.492 244.071 286.991 244.071 285.425C244.071 283.859 243.448 282.357 242.339 281.249C241.23 280.142 239.726 279.52 238.158 279.52H227.895C229.677 277.332 230.583 274.562 230.438 271.746C230.293 268.93 229.108 266.268 227.112 264.273C226.626 263.789 225.968 263.518 225.282 263.518C224.596 263.518 223.938 263.789 223.452 264.273C223.452 264.273 213.087 273.135 207.085 277.886C203.003 281.124 198.943 284.731 198.943 290.079V316.292C198.943 319.096 200.059 321.785 202.044 323.767C204.029 325.75 206.722 326.863 209.53 326.863H222.183C222.729 326.863 223.274 326.822 223.814 326.74H238.158C239.726 326.74 241.23 326.118 242.339 325.011C243.448 323.903 244.071 322.401 244.071 320.835C244.071 319.269 243.448 317.768 242.339 316.66C241.23 315.553 239.726 314.931 238.158 314.931C239.726 314.931 241.23 314.309 242.339 313.201C243.448 312.094 244.071 310.592 244.071 309.026C244.071 307.46 243.448 305.958 242.339 304.851C241.23 303.744 239.726 303.122 238.158 303.122C239.724 303.122 241.225 302.502 242.333 301.398C243.442 300.294 244.067 298.797 244.071 297.234Z" fill="white"/>
<path d="M244.924 297.235C244.923 296.03 244.6 294.848 243.988 293.81C243.376 292.771 242.498 291.915 241.443 291.33C242.753 290.603 243.784 289.463 244.374 288.087C244.965 286.712 245.081 285.18 244.705 283.731C244.33 282.283 243.483 281 242.298 280.084C241.113 279.168 239.657 278.671 238.159 278.67H229.54C230.967 276.328 231.562 273.575 231.231 270.854C230.899 268.133 229.66 265.602 227.713 263.67C227.071 263.032 226.203 262.671 225.297 262.667C224.391 262.663 223.52 263.016 222.873 263.649C222.324 264.121 212.342 272.642 206.552 277.237C202.292 280.64 198.092 284.426 198.092 290.092V316.306C198.094 319.335 199.3 322.238 201.445 324.38C203.589 326.522 206.497 327.726 209.53 327.728H222.183C222.753 327.728 223.323 327.687 223.887 327.605H238.167C239.666 327.604 241.122 327.107 242.306 326.191C243.491 325.275 244.338 323.992 244.714 322.543C245.09 321.095 244.973 319.563 244.383 318.187C243.793 316.812 242.762 315.672 241.452 314.945C242.506 314.359 243.384 313.503 243.996 312.465C244.608 311.427 244.93 310.244 244.93 309.04C244.93 307.835 244.608 306.653 243.996 305.615C243.384 304.576 242.506 303.72 241.452 303.135C242.505 302.55 243.381 301.694 243.992 300.657C244.602 299.62 244.924 298.438 244.924 297.235ZM238.159 303.144C239.727 303.144 241.231 303.766 242.34 304.873C243.449 305.981 244.072 307.482 244.072 309.048C244.072 310.614 243.449 312.116 242.34 313.224C241.231 314.331 239.727 314.953 238.159 314.953C239.727 314.953 241.231 315.575 242.34 316.682C243.449 317.79 244.072 319.292 244.072 320.858C244.072 322.424 243.449 323.926 242.34 325.033C241.231 326.14 239.727 326.762 238.159 326.762H223.815C223.275 326.844 222.729 326.886 222.183 326.886H209.53C206.723 326.886 204.03 325.772 202.045 323.789C200.059 321.807 198.944 319.118 198.944 316.314V290.092C198.944 284.745 203.004 281.137 207.085 277.9C213.088 273.136 223.453 264.287 223.453 264.287C223.693 264.047 223.978 263.856 224.292 263.726C224.606 263.597 224.942 263.53 225.282 263.53C225.622 263.53 225.959 263.597 226.273 263.726C226.587 263.856 226.872 264.047 227.112 264.287C229.108 266.281 230.294 268.944 230.438 271.76C230.583 274.576 229.677 277.346 227.896 279.534H238.159C239.727 279.534 241.231 280.156 242.34 281.263C243.449 282.37 244.072 283.872 244.072 285.438C244.072 287.004 243.449 288.506 242.34 289.614C241.231 290.721 239.727 291.343 238.159 291.343C238.948 291.322 239.734 291.459 240.47 291.746C241.205 292.033 241.876 292.464 242.442 293.015C243.008 293.565 243.458 294.223 243.765 294.949C244.072 295.676 244.23 296.457 244.23 297.246C244.23 298.034 244.072 298.815 243.765 299.542C243.458 300.268 243.008 300.926 242.442 301.476C241.876 302.027 241.205 302.458 240.47 302.745C239.734 303.032 238.948 303.169 238.159 303.148V303.144Z" fill="#D1D5DB"/>
<path d="M139.694 324.354C151.394 324.354 160.879 314.882 160.879 303.198C160.879 291.515 151.394 282.043 139.694 282.043C127.993 282.043 118.508 291.515 118.508 303.198C118.508 314.882 127.993 324.354 139.694 324.354Z" fill="#64748B"/>
<path d="M146.136 309.634C149.695 306.08 149.695 300.319 146.136 296.765C142.578 293.211 136.808 293.211 133.249 296.765C129.691 300.318 129.691 306.08 133.249 309.634C136.808 313.187 142.578 313.187 146.136 309.634Z" fill="white"/>
<path d="M139.694 293.248C137.723 293.248 135.797 293.832 134.158 294.925C132.519 296.018 131.242 297.572 130.488 299.391C129.734 301.209 129.536 303.209 129.921 305.14C130.305 307.07 131.254 308.843 132.648 310.234C134.042 311.626 135.817 312.573 137.75 312.957C139.683 313.341 141.687 313.144 143.507 312.391C145.328 311.638 146.884 310.363 147.979 308.726C149.074 307.09 149.659 305.166 149.659 303.198C149.656 300.56 148.606 298.03 146.738 296.165C144.869 294.299 142.336 293.25 139.694 293.248ZM139.694 312.298C137.892 312.298 136.13 311.764 134.631 310.764C133.133 309.764 131.965 308.343 131.275 306.681C130.585 305.018 130.405 303.188 130.757 301.423C131.108 299.658 131.976 298.037 133.251 296.764C134.525 295.491 136.149 294.625 137.916 294.274C139.684 293.923 141.516 294.103 143.181 294.792C144.846 295.48 146.269 296.647 147.271 298.143C148.272 299.639 148.807 301.399 148.807 303.198C148.807 305.612 147.846 307.926 146.138 309.633C144.429 311.339 142.111 312.298 139.694 312.298Z" fill="#D1D5DB"/>
<path d="M4.50977 291.292V315.327C4.50921 316.162 4.67331 316.988 4.9927 317.759C5.31209 318.53 5.78049 319.231 6.37117 319.821C6.96185 320.411 7.66322 320.879 8.43518 321.199C9.20714 321.518 10.0346 321.683 10.8702 321.683H71.9311V276.139H19.6845C15.6599 276.139 11.8001 277.735 8.95434 280.577C6.10853 283.419 4.50977 287.273 4.50977 291.292Z" fill="white"/>
<path d="M19.6845 276.139C15.6599 276.139 11.8001 277.735 8.95434 280.577C6.10853 283.419 4.50977 287.273 4.50977 291.292V315.327C4.50921 316.162 4.67331 316.988 4.9927 317.759C5.31209 318.53 5.78049 319.231 6.37117 319.821C6.96185 320.411 7.66322 320.879 8.43518 321.199C9.20714 321.518 10.0346 321.683 10.8702 321.683H71.9311V276.139H19.6845ZM71.0791 320.832H10.8702C9.41095 320.824 8.01377 320.241 6.98232 319.211C5.95087 318.18 5.36851 316.784 5.3618 315.327V291.292C5.36631 287.5 6.87675 283.865 9.5618 281.183C12.2468 278.502 15.8872 276.994 19.6845 276.989H71.0791V320.832Z" fill="#D1D5DB"/>
<path d="M227.892 279.095H218.979V279.946H227.892V279.095Z" fill="#D1D5DB"/>
<path d="M240.799 290.832H231.542V291.53H240.799V290.832Z" fill="#D1D5DB"/>
<path d="M240.799 302.851H231.542V303.548H240.799V302.851Z" fill="#D1D5DB"/>
<path d="M240.799 314.872H231.542V315.57H240.799V314.872Z" fill="#D1D5DB"/>
<path d="M71.9731 245.306H71.1211V321.683H71.9731V245.306Z" fill="#64748B"/>
<path d="M155.231 225.12H133.998V225.971H155.231V225.12Z" fill="white"/>
<path d="M201.811 274.463H78.6582V275.314H201.811V274.463Z" fill="white"/>
<path d="M157.621 122.495V103.922H130.931V122.495C130.931 127.336 127.003 135.091 122.155 135.091L144.15 158.914L166.397 135.091C161.553 135.108 157.621 127.336 157.621 122.495Z" fill="#EC8C92"/>
<path d="M169.434 68.1325C168.589 68.1309 167.776 67.8082 167.16 67.2299C166.545 66.6515 166.173 65.8609 166.12 65.0185C165.694 58.0674 162.984 41.5531 147.652 37.0098C145.99 46.4527 141.461 55.1573 134.679 61.9441C127.897 68.7308 119.189 73.2718 109.736 74.9518C109.215 76.2415 108.947 77.6194 108.948 79.0102C108.948 81.8962 110.096 84.6641 112.14 86.7048C114.184 88.7456 116.956 89.8921 119.846 89.8921H123.177V96.9326C123.177 99.7427 123.879 102.509 125.217 104.98C126.556 107.452 128.49 109.552 130.846 111.09L135.391 114.068C138.148 115.868 141.371 116.826 144.665 116.826C147.96 116.826 151.182 115.868 153.94 114.068L158.528 111.09C160.887 109.55 162.824 107.447 164.165 104.971C165.505 102.496 166.206 99.7256 166.205 96.9113V89.8921H169.443C172.333 89.8921 175.105 88.7456 177.148 86.7048C179.192 84.6641 180.34 81.8962 180.34 79.0102C180.34 77.5806 180.058 76.1651 179.51 74.8445C178.961 73.524 178.158 72.3243 177.145 71.314C176.132 70.3038 174.93 69.5028 173.607 68.9569C172.284 68.411 170.866 68.1308 169.434 68.1325Z" fill="#F2BDBA"/>
<path d="M126.334 88.4157C122.97 88.4157 119.682 87.4197 116.885 85.5536C114.089 83.6876 111.909 81.0353 110.622 77.9322C109.335 74.8291 108.998 71.4146 109.654 68.1203C110.31 64.8261 111.93 61.8002 114.308 59.4252C116.687 57.0501 119.717 55.4328 123.016 54.7775C126.315 54.1222 129.734 54.4585 132.842 55.7439C135.949 57.0292 138.605 59.2059 140.474 61.9986C142.343 64.7913 143.34 68.0747 143.34 71.4334C143.331 75.9346 141.537 80.2489 138.349 83.4317C135.162 86.6146 130.841 88.4067 126.334 88.4157ZM126.334 55.302C123.139 55.302 120.015 56.2481 117.359 58.0206C114.702 59.7932 112.632 62.3126 111.409 65.2602C110.186 68.2078 109.866 71.4513 110.49 74.5805C111.113 77.7097 112.651 80.584 114.911 82.8401C117.17 85.0961 120.048 86.6325 123.182 87.2549C126.316 87.8773 129.564 87.5579 132.516 86.3369C135.468 85.116 137.991 83.0484 139.766 80.3956C141.541 77.7428 142.488 74.6239 142.488 71.4334C142.479 67.1579 140.774 63.06 137.747 60.0367C134.719 57.0134 130.615 55.311 126.334 55.302Z" fill="#131314"/>
<path d="M101.557 76.0918C98.4007 76.0927 95.2525 75.7792 92.1588 75.1559C92.1029 75.1447 92.0497 75.1226 92.0023 75.0909C91.9549 75.0592 91.9142 75.0185 91.8825 74.9711C91.8509 74.9237 91.8289 74.8706 91.8178 74.8147C91.8068 74.7588 91.8068 74.7013 91.818 74.6454C91.8292 74.5895 91.8513 74.5364 91.883 74.4891C91.9148 74.4417 91.9556 74.4011 92.003 74.3695C92.0505 74.3379 92.1037 74.3159 92.1597 74.3049C92.2157 74.2938 92.2733 74.2939 92.3292 74.3051C99.7186 75.7885 107.358 75.4535 114.589 73.329C121.82 71.2045 128.424 67.3544 133.831 62.1111C139.239 56.8678 143.286 50.3889 145.625 43.234C147.964 36.0791 148.524 28.4633 147.256 21.0441C147.246 20.9888 147.247 20.9321 147.259 20.8773C147.272 20.8224 147.295 20.7706 147.327 20.7247C147.36 20.6788 147.401 20.6398 147.449 20.61C147.496 20.5801 147.549 20.5599 147.605 20.5507C147.716 20.5322 147.83 20.5586 147.922 20.624C148.014 20.6894 148.076 20.7884 148.095 20.8995C149.256 27.6707 148.924 34.6134 147.122 41.2433C145.319 47.8731 142.09 54.0304 137.659 59.2855C133.228 64.5406 127.702 68.7669 121.466 71.6696C115.231 74.5723 108.436 76.0815 101.557 76.0918Z" fill="white"/>
<path d="M163.397 88.4157C160.034 88.4157 156.746 87.4197 153.949 85.5536C151.152 83.6876 148.972 81.0353 147.685 77.9322C146.398 74.8291 146.061 71.4146 146.717 68.1203C147.374 64.8261 148.993 61.8002 151.372 59.4252C153.75 57.0501 156.78 55.4328 160.079 54.7775C163.378 54.1222 166.798 54.4585 169.905 55.7439C173.013 57.0292 175.669 59.2059 177.538 61.9986C179.406 64.7913 180.404 68.0747 180.404 71.4334C180.395 75.9346 178.6 80.2489 175.413 83.4317C172.225 86.6146 167.905 88.4067 163.397 88.4157ZM163.397 55.302C160.202 55.302 157.079 56.2481 154.422 58.0206C151.766 59.7932 149.695 62.3126 148.472 65.2602C147.25 68.2078 146.93 71.4513 147.553 74.5805C148.176 77.7097 149.715 80.584 151.974 82.8401C154.233 85.0961 157.112 86.6325 160.246 87.2549C163.379 87.8773 166.627 87.5579 169.579 86.3369C172.531 85.116 175.054 83.0484 176.829 80.3956C178.604 77.7428 179.552 74.6239 179.552 71.4334C179.543 67.1579 177.838 63.06 174.81 60.0367C171.783 57.0134 167.679 55.311 163.397 55.302Z" fill="#131314"/>
<path d="M161.395 74.7007H158.749C158.253 74.7007 157.777 74.5039 157.427 74.1537C157.076 73.8034 156.879 73.3284 156.879 72.8331C156.878 72.4143 156.96 71.9996 157.121 71.6125C157.281 71.2254 157.516 70.8737 157.812 70.5773C158.108 70.281 158.46 70.0459 158.848 69.8855C159.235 69.7251 159.65 69.6426 160.07 69.6426C160.917 69.6426 161.73 69.9787 162.329 70.5771C162.928 71.1754 163.265 71.9869 163.265 72.8331C163.265 73.3284 163.068 73.8034 162.717 74.1537C162.366 74.5039 161.891 74.7007 161.395 74.7007Z" fill="black"/>
<path d="M131.11 74.7007H128.464C127.968 74.7007 127.492 74.5039 127.142 74.1537C126.791 73.8034 126.594 73.3284 126.594 72.8331C126.593 72.4143 126.675 71.9996 126.835 71.6125C126.996 71.2254 127.23 70.8737 127.527 70.5773C127.823 70.281 128.175 70.0459 128.563 69.8855C128.95 69.7251 129.365 69.6426 129.785 69.6426C130.632 69.6426 131.445 69.9787 132.044 70.5771C132.643 71.1754 132.98 71.9869 132.98 72.8331C132.979 73.3281 132.781 73.8024 132.431 74.1524C132.08 74.5024 131.605 74.6995 131.11 74.7007Z" fill="black"/>
<path d="M144.529 99.1445C142.87 99.1442 141.252 98.628 139.9 97.6674C138.548 96.7068 137.529 95.3496 136.984 93.7843L137.79 93.5078C138.276 94.9043 139.186 96.1149 140.393 96.9716C141.6 97.8283 143.044 98.2886 144.525 98.2886C146.006 98.2886 147.45 97.8283 148.657 96.9716C149.864 96.1149 150.774 94.9043 151.26 93.5078L152.065 93.7886C151.521 95.3517 150.503 96.707 149.153 97.6667C147.802 98.6263 146.187 99.1428 144.529 99.1445Z" fill="#131314"/>
<path d="M183.369 216.36L171.014 211.107C168.945 210.226 166.626 210.128 164.49 210.833C162.354 211.538 160.55 212.997 159.414 214.935L159.243 215.229C158.653 216.239 158.274 217.36 158.132 218.521C157.99 219.683 158.086 220.861 158.416 221.984C158.745 223.107 159.3 224.151 160.048 225.052C160.795 225.953 161.719 226.693 162.762 227.225L166.418 229.123C167.546 229.697 168.834 229.88 170.078 229.643C171.322 229.406 172.452 228.762 173.289 227.812L183.369 216.36Z" fill="#EC8C92"/>
<path d="M215.473 210.682C209.206 195.193 200.094 188.825 193.073 186.238C190.427 185.282 187.532 185.259 184.871 186.173C182.209 187.087 179.941 188.883 178.444 191.263C173.579 198.92 166.068 211.04 163.985 216.03C162.408 219.812 164.7 225.908 170.746 225.767C169.114 230.362 175.777 233.497 181.081 231.697C180.408 235.292 186.836 237.019 190.095 235.233C192.353 238.836 201.078 239.197 212.977 225.61C214.733 223.595 215.895 221.133 216.336 218.498C216.777 215.863 216.478 213.158 215.473 210.682Z" fill="#F2BDBA"/>
<path d="M225.807 114.151L185.08 179.999L185.805 180.446L226.532 114.598L225.807 114.151Z" fill="#131314"/>
<path d="M166.631 215.511C160.1 215.511 158.485 213.439 158.485 213.439C154.762 200.073 163.048 177.628 163.048 177.628C169.315 176.407 178.048 182.461 178.048 191.288L178.155 201.842C178.189 207.002 174.427 215.511 166.631 215.511Z" fill="#34D399"/>
<path d="M162.601 213.153C157.54 214.43 153.407 211.248 153.373 206.062L153.267 189.437C153.233 184.256 157.31 179.032 162.371 177.764C167.436 176.488 171.564 179.674 171.598 184.855L171.705 201.48C171.743 206.662 167.662 211.89 162.601 213.153Z" fill="#FFF3A1"/>
<path d="M166.844 189.207L157.782 191.262C157.666 191.29 157.545 191.291 157.43 191.263C157.314 191.235 157.206 191.18 157.116 191.102C157.026 191.024 156.956 190.926 156.912 190.815C156.867 190.705 156.85 190.585 156.862 190.467C156.864 190.192 156.954 189.925 157.12 189.706C157.286 189.487 157.518 189.327 157.782 189.25L166.844 187.208C166.96 187.18 167.081 187.181 167.196 187.209C167.312 187.238 167.42 187.293 167.51 187.371C167.6 187.45 167.67 187.548 167.714 187.659C167.758 187.769 167.775 187.889 167.764 188.008C167.758 188.279 167.666 188.542 167.501 188.758C167.335 188.974 167.105 189.131 166.844 189.207Z" fill="#74BAAB"/>
<path d="M166.843 199.816L157.782 201.858C157.665 201.887 157.544 201.887 157.428 201.859C157.312 201.831 157.204 201.775 157.113 201.697C157.023 201.618 156.953 201.519 156.909 201.408C156.865 201.297 156.849 201.177 156.861 201.058C156.864 200.784 156.955 200.519 157.121 200.3C157.287 200.082 157.518 199.923 157.782 199.846L166.843 197.804C166.959 197.775 167.08 197.775 167.197 197.803C167.313 197.831 167.421 197.887 167.511 197.965C167.601 198.044 167.671 198.143 167.715 198.254C167.759 198.365 167.776 198.485 167.763 198.604C167.76 198.878 167.669 199.143 167.504 199.362C167.338 199.58 167.106 199.739 166.843 199.816Z" fill="#74BAAB"/>
<path d="M164.739 188.509C164.739 190.092 163.662 191.619 162.298 191.913C160.935 192.206 159.827 191.172 159.815 189.59C159.802 188.007 160.897 186.48 162.256 186.187C163.615 185.893 164.727 186.923 164.739 188.509Z" fill="#274D76"/>
<path d="M164.739 199.375C164.739 200.957 163.662 202.484 162.298 202.778C160.935 203.071 159.827 202.038 159.815 200.455C159.802 198.873 160.897 197.345 162.256 197.052C163.615 196.758 164.727 197.788 164.739 199.375Z" fill="#274D76"/>
<path d="M106.013 216.36L118.367 211.107C120.436 210.226 122.756 210.128 124.891 210.833C127.027 211.538 128.832 212.997 129.968 214.935L130.142 215.229C130.732 216.24 131.11 217.36 131.252 218.521C131.394 219.682 131.298 220.861 130.968 221.983C130.639 223.106 130.084 224.15 129.337 225.051C128.59 225.953 127.666 226.692 126.623 227.225L122.96 229.123C121.832 229.698 120.545 229.881 119.301 229.644C118.057 229.406 116.928 228.762 116.092 227.812L106.013 216.36Z" fill="#EC8C92"/>
<path d="M173.783 225.214L173.446 224.444C176.601 223.133 179.382 221.064 181.541 218.42L182.201 218.96C179.954 221.706 177.062 223.855 173.783 225.214Z" fill="#131314"/>
<path d="M184.03 230.76L183.604 230.016C186.394 228.436 188.837 226.311 190.786 223.767L191.459 224.286C189.441 226.918 186.915 229.12 184.03 230.76Z" fill="#131314"/>
<path d="M192.255 234.526L191.804 233.803C194.241 232.222 196.428 230.287 198.292 228.06L198.94 228.613C197.019 230.905 194.766 232.898 192.255 234.526Z" fill="#131314"/>
<path d="M73.7202 211.145C79.9912 195.32 89.2145 188.85 96.2991 186.238C98.9472 185.285 101.842 185.263 104.504 186.177C107.166 187.09 109.435 188.884 110.937 191.262C115.798 198.919 123.313 211.039 125.392 216.029C126.968 219.811 124.68 225.907 118.631 225.766C120.263 230.361 113.604 233.496 108.296 231.697C108.973 235.291 102.54 237.018 99.2855 235.232C97.0063 238.865 88.1409 239.205 76.0761 225.235C74.4332 223.324 73.3451 221.002 72.9299 218.518C72.5146 216.034 72.7879 213.485 73.7202 211.145Z" fill="#F2BDBA"/>
<path d="M63.5529 114.161L62.8281 114.608L102.644 178.933L103.369 178.486L63.5529 114.161Z" fill="#131314"/>
<path d="M122.751 215.511C129.286 215.511 130.901 213.439 130.901 213.439C134.62 200.073 126.338 177.628 126.338 177.628C120.071 176.407 111.338 182.461 111.338 191.288L111.249 201.838C111.193 207.002 114.955 215.511 122.751 215.511Z" fill="#34D399"/>
<path d="M126.781 213.153C131.842 214.43 135.975 211.248 136.005 206.062L136.115 189.437C136.145 184.256 132.068 179.032 127.007 177.764C121.946 176.488 117.814 179.674 117.784 184.855L117.673 201.472C117.639 206.662 121.716 211.89 126.781 213.153Z" fill="#FFF3A1"/>
<path d="M114.805 224.869C111.678 223.414 108.944 221.236 106.83 218.513L107.503 217.99C109.534 220.609 112.163 222.704 115.172 224.099L114.805 224.869Z" fill="#131314"/>
<path d="M104.432 230.204C101.589 228.404 99.1278 226.064 97.1895 223.316L97.8839 222.827C99.7513 225.478 102.12 227.739 104.858 229.481L104.432 230.204Z" fill="#131314"/>
<path d="M96.0946 233.845C93.9835 232.326 92.0689 230.551 90.3945 228.562L91.0463 228.009C92.6702 229.946 94.5308 231.672 96.5846 233.148L96.0946 233.845Z" fill="#131314"/>
<path d="M128.976 213.861C128.199 213.859 127.427 213.76 126.675 213.567C121.444 212.261 117.213 206.837 117.247 201.473L117.358 184.848C117.358 182.215 118.393 179.985 120.229 178.565C122.066 177.144 124.524 176.697 127.114 177.344C132.345 178.654 136.576 184.074 136.542 189.434L136.431 206.059C136.431 208.688 135.396 210.921 133.559 212.342C132.246 213.348 130.631 213.882 128.976 213.861ZM126.884 212.746C129.214 213.325 131.395 212.946 133.035 211.678C134.676 210.411 135.566 208.424 135.592 206.063L135.702 189.438C135.732 184.448 131.792 179.398 126.918 178.177C124.592 177.595 122.406 177.973 120.766 179.245C119.126 180.517 118.236 182.495 118.21 184.861L118.099 201.473C118.069 206.463 122.01 211.512 126.884 212.733V212.746Z" fill="white"/>
<path d="M138.198 185.596C137.966 184.933 137.481 184.39 136.848 184.085C136.216 183.779 135.488 183.737 134.824 183.966L126.108 186.919C125.725 187.092 125.405 187.379 125.19 187.739C124.974 188.099 124.874 188.516 124.902 188.935C124.902 190.347 125.865 191.713 127.079 191.981C127.336 192.036 127.602 192.036 127.859 191.981C128.042 191.938 136.566 188.961 136.566 188.961C137.229 188.73 137.773 188.246 138.079 187.615C138.385 186.984 138.428 186.258 138.198 185.596Z" fill="#274D76"/>
<path d="M138.198 196.129C137.966 195.467 137.481 194.923 136.848 194.618C136.216 194.312 135.488 194.27 134.824 194.5C134.824 194.5 126.231 197.409 126.108 197.456C125.725 197.629 125.405 197.914 125.189 198.274C124.974 198.633 124.874 199.05 124.902 199.468C124.902 200.885 125.865 202.25 127.079 202.518C127.336 202.574 127.602 202.574 127.859 202.518C128.042 202.476 136.567 199.498 136.567 199.498C136.895 199.384 137.198 199.206 137.458 198.975C137.718 198.744 137.93 198.464 138.081 198.151C138.233 197.838 138.321 197.498 138.341 197.152C138.361 196.805 138.313 196.457 138.198 196.129Z" fill="#274D76"/>
<path d="M176.821 186.846C175.864 184.336 174.207 182.152 172.045 180.554L172.556 179.878C174.85 181.57 176.607 183.886 177.617 186.548L176.821 186.846Z" fill="white"/>
<path d="M112.339 187.492L111.525 187.237C112.354 184.661 113.88 182.364 115.935 180.601L116.497 181.239C114.558 182.898 113.118 185.063 112.339 187.492Z" fill="white"/>
<path d="M160.403 213.859C158.75 213.884 157.137 213.352 155.823 212.349C153.987 210.928 152.965 208.695 152.948 206.066L152.841 189.441C152.807 184.081 157.037 178.661 162.269 177.351C164.855 176.704 167.3 177.138 169.149 178.572C170.998 180.006 172.007 182.222 172.025 184.855L172.131 201.48C172.165 206.836 167.935 212.26 162.703 213.566C161.952 213.759 161.179 213.858 160.403 213.859ZM164.565 177.913C163.861 177.914 163.16 178.003 162.478 178.176C157.6 179.397 153.659 184.447 153.693 189.437L153.8 206.062C153.8 208.423 154.72 210.418 156.356 211.677C157.992 212.936 160.19 213.323 162.512 212.745C167.385 211.524 171.326 206.474 171.292 201.484L171.173 184.881C171.173 182.515 170.252 180.525 168.616 179.265C167.456 178.374 166.029 177.898 164.565 177.913Z" fill="white"/>
<path d="M110.089 75.1944C109.99 75.1964 109.892 75.1635 109.815 75.1013C109.737 75.0391 109.683 74.9516 109.663 74.8541C108.944 71.3608 109.344 67.73 110.807 64.4765C112.269 61.223 114.721 58.512 117.813 56.7279C120.906 54.9438 124.482 54.1772 128.036 54.5367C131.589 54.8963 134.939 56.3638 137.61 58.7312C137.658 58.766 137.698 58.8106 137.728 58.8619C137.758 58.9132 137.777 58.9702 137.783 59.0292C137.79 59.0882 137.784 59.1479 137.766 59.2044C137.748 59.261 137.718 59.3131 137.679 59.3575C137.639 59.4019 137.591 59.4376 137.537 59.4623C137.483 59.487 137.424 59.5001 137.365 59.5008C137.305 59.5015 137.246 59.4898 137.192 59.4664C137.137 59.443 137.088 59.4085 137.048 59.365C134.509 57.1209 131.328 55.7309 127.954 55.3917C124.58 55.0524 121.186 55.7811 118.25 57.4747C115.314 59.1682 112.985 61.7408 111.594 64.8285C110.203 67.9161 109.82 71.3624 110.498 74.6797C110.509 74.7344 110.51 74.7909 110.499 74.8457C110.488 74.9006 110.467 74.9528 110.436 74.9994C110.405 75.046 110.366 75.0861 110.319 75.1174C110.273 75.1487 110.221 75.1705 110.166 75.1817C110.141 75.1892 110.115 75.1935 110.089 75.1944Z" fill="white"/>
<path d="M179.641 75.1942C179.612 75.1982 179.584 75.1982 179.555 75.1942C179.501 75.183 179.449 75.1612 179.402 75.1299C179.356 75.0986 179.316 75.0585 179.285 75.0119C179.254 74.9653 179.233 74.9131 179.222 74.8582C179.212 74.8033 179.212 74.7469 179.223 74.6922C179.686 72.4207 179.654 70.0765 179.129 67.8185C178.605 65.5605 177.6 63.4415 176.184 61.6053C174.767 59.7691 172.971 58.2585 170.919 57.1761C168.866 56.0937 166.604 55.4648 164.287 55.3319C164.231 55.3289 164.176 55.3148 164.126 55.2906C164.075 55.2664 164.03 55.2325 163.993 55.1908C163.955 55.1491 163.926 55.1005 163.908 55.0477C163.889 54.9949 163.881 54.939 163.884 54.8831C163.888 54.8273 163.902 54.7725 163.926 54.7221C163.95 54.6717 163.984 54.6265 164.026 54.5892C164.068 54.5518 164.116 54.5231 164.169 54.5045C164.222 54.486 164.278 54.478 164.334 54.4811C166.773 54.6207 169.154 55.2825 171.315 56.4217C173.475 57.5608 175.366 59.1506 176.857 61.0832C178.348 63.0159 179.406 65.2462 179.958 67.6229C180.511 69.9996 180.545 72.4671 180.058 74.8581C180.038 74.9534 179.985 75.0388 179.909 75.1C179.833 75.1611 179.738 75.1944 179.641 75.1942Z" fill="white"/>
<path d="M114.953 126.38L114.323 126.953L148.8 164.669L149.429 164.095L114.953 126.38Z" fill="#131314"/>
<path d="M120.701 144.804L105.901 144.217L104.125 118.909L104.977 118.85L106.698 143.4L120.735 143.953L120.701 144.804Z" fill="#131314"/>
<path d="M155.021 171.374L116.087 157.999L118.285 150.844L119.099 151.095L117.139 157.463L155.297 170.57L155.021 171.374Z" fill="#131314"/>
<path d="M164.308 144.804L164.278 143.953L178.316 143.4L180.037 118.85L180.889 118.909L179.112 144.217L164.308 144.804Z" fill="#131314"/>
<path d="M151.831 163.87L151.554 163.066L167.87 157.463L165.744 150.55L166.562 150.304L168.927 157.999L151.831 163.87Z" fill="#131314"/>
<path d="M173.02 127.589L143.837 158.621L144.458 159.204L173.641 128.171L173.02 127.589Z" fill="#131314"/>
</svg>
