<svg width="522" height="480" viewBox="0 0 522 480" fill="none" xmlns="http://www.w3.org/2000/svg">
<g opacity="0.3">
<g opacity="0.504511">
<path fill-rule="evenodd" clip-rule="evenodd" d="M483.315 345.744C489.798 394.169 332.588 425.754 197.273 403.711C61.9587 381.668 -0.117211 295.589 64.4526 249.722C129.022 203.856 476.833 297.32 483.315 345.744Z" fill="#F2F2F2"/>
</g>
<path fill-rule="evenodd" clip-rule="evenodd" d="M288.838 143.958C291.284 142.09 295.079 143.281 297.541 144.383C298.49 144.808 300.915 146.167 302.713 147.697C302.476 146.637 302.264 145.567 302.078 144.488C301.318 140.054 300.794 135.535 300.542 131.042C300.476 129.87 300.561 128.561 300.648 127.235C300.677 126.786 300.707 126.334 300.731 125.885C300.632 125.779 300.566 125.633 300.538 125.435C300.527 125.517 300.522 125.583 300.517 125.633C300.51 125.715 300.506 125.756 300.493 125.759C300.48 125.763 300.457 125.728 300.412 125.659C300.394 125.632 300.373 125.599 300.348 125.562C298.528 122.843 297 119.779 296.79 116.411C296.612 113.555 298.961 108.15 302.291 111.892C303.781 113.563 303.394 125.297 301.156 126.017C301.754 129.905 302.506 133.787 303.447 137.62C303.588 137.595 303.732 137.592 303.874 137.612C303.861 136.659 303.859 135.619 303.898 135.262C304.234 132.182 306.809 125.929 310.908 127.143C314.058 128.076 312.128 131.917 311.056 133.598C309.33 136.304 307.378 137.476 304.906 138.883C304.856 139.465 304.481 139.803 304.038 139.913C305.693 146.103 307.868 152.139 310.714 157.841L310.79 157.479L310.79 157.478C311.151 155.748 311.572 153.73 311.839 153.306C313.234 151.088 316.322 148.379 319.169 149.691C325.15 152.452 318.659 160.385 313.567 161.248C313.355 161.54 313.131 161.776 312.893 161.91C313.882 163.632 314.94 165.317 316.071 166.959C317.768 169.429 319.591 171.891 321.503 174.338C321.562 172.424 322.319 168.157 322.533 167.698C323.839 164.914 327.602 162.05 330.655 164.027C334.088 166.257 330.975 170.471 329.016 172.378C328.214 173.16 324.243 176.025 322.843 176.038C327.462 181.81 332.56 187.482 337.743 192.95C337.313 190.502 336.753 183.762 336.815 183.014C337.137 179.152 339.677 172.975 344.68 174.48C349.535 175.938 347.387 182.355 345.725 185.413C344.719 187.264 343.327 189.145 341.649 190.437C341.346 190.669 340.951 190.859 340.557 191.049C340.081 191.277 339.607 191.505 339.297 191.807C339.02 192.076 338.935 192.386 338.851 192.692C338.762 193.016 338.674 193.336 338.362 193.604C341.163 196.546 343.984 199.427 346.764 202.228C348.076 203.55 349.412 204.846 350.761 206.126C351.499 205.82 352.551 206.222 352.496 207.267C352.488 207.418 352.453 207.549 352.406 207.669C353.428 208.62 354.457 209.563 355.494 210.497C355.47 210.225 355.477 209.841 355.525 209.312C354.778 210.373 354.809 208.827 354.833 207.649L354.833 207.649C354.842 207.233 354.849 206.862 354.821 206.669C354.711 205.912 354.569 205.162 354.428 204.413C354.125 202.814 353.823 201.22 353.838 199.57C353.871 196.067 356.091 190.195 360.762 192.281C365.058 194.195 363.495 199.387 361.874 202.642C360.849 204.702 359.445 206.541 357.978 208.302C357.716 208.616 357.426 209.042 357.139 209.463C356.712 210.089 356.291 210.705 355.981 210.934C359.969 214.507 364.051 217.975 368.133 221.444L368.133 221.444L368.134 221.445C369.963 222.998 371.791 224.551 373.611 226.114C373.69 225.771 373.756 225.431 373.812 225.113C373.698 225.241 373.543 225.301 373.344 225.289C373.291 225.026 373.215 224.677 373.123 224.257C371.999 219.134 368.575 203.529 377.846 206.554C384.638 208.776 379.844 222.364 374.778 227.116C377.852 229.77 380.897 232.458 383.871 235.226C386.023 237.229 388.111 239.3 390.12 241.44C389.081 238.669 388.101 235.081 388.744 232.226C389.68 228.07 394.066 224.147 398.348 226.511C403.686 229.472 399.579 233.515 395.728 237.306C393.762 239.242 391.862 241.112 391.32 242.739C397.706 249.761 403.158 257.561 406.801 266.446C410.763 276.109 414.441 289.093 412.407 299.904C412.783 295.15 411.176 289.181 410.048 284.99C409.895 284.419 409.75 283.881 409.62 283.384C407.925 276.883 405.517 270.557 402.344 264.637C397.261 255.155 390.548 247.105 382.796 239.797C381.031 240.412 379.114 241.551 377.527 242.493C376.553 243.072 375.703 243.577 375.088 243.842C372.122 245.121 366.428 246.955 364.538 242.925C362.681 238.963 367.422 236.747 370.361 235.859C373.201 235.002 375.762 235.105 378.411 235.808C374.308 232.171 370.105 228.649 365.903 225.128L365.902 225.127C365.13 224.48 364.357 223.832 363.585 223.184C362.517 224.06 361.337 225.326 360.084 226.67L360.084 226.67C356.109 230.935 351.399 235.989 347.192 231.86C340.844 225.629 352.985 219.296 358.158 219.791C358.793 219.851 359.407 219.985 360.006 220.167C354.731 215.69 349.538 211.12 344.626 206.229C343.745 206.39 342.342 207.687 340.656 209.245C336.868 212.746 331.653 217.566 327.725 213.771C324.889 211.031 325.86 206.765 328.601 204.325C331.353 201.875 335.342 201.879 338.733 202.704C340.199 203.059 341.551 203.737 342.812 204.562C342.866 204.565 342.917 204.568 342.968 204.571C338.135 199.707 333.273 194.734 328.589 189.592C328.508 189.618 328.424 189.645 328.34 189.673C328.057 190.02 327.582 190.147 327.148 190.07C326.909 190.152 326.664 190.236 326.415 190.322C322.705 191.603 317.937 193.248 314.24 192.539C311.518 192.016 309.049 189.804 311.353 187.081C313.225 184.866 318.306 185.184 320.784 185.708C321.993 185.965 323.31 186.707 324.63 187.453C325.185 187.766 325.741 188.079 326.29 188.357C326.432 188.07 326.681 187.885 326.964 187.796C322.34 182.629 317.927 177.282 313.924 171.704C312.713 171.891 311.369 172.424 309.983 172.972C306.648 174.293 303.07 175.71 300.501 172.658C296.709 168.15 303.84 165.519 307.23 165.947C308.375 166.092 309.504 166.416 310.594 166.845C307.681 162.252 305.457 157.342 303.894 152.186C303.886 152.191 303.877 152.195 303.869 152.2C303.863 152.203 303.857 152.206 303.851 152.21C303.829 152.222 303.807 152.235 303.78 152.246C303.794 152.238 303.808 152.23 303.821 152.222C303.829 152.217 303.837 152.212 303.845 152.207C303.86 152.197 303.875 152.187 303.891 152.178C303.735 151.662 303.586 151.144 303.443 150.624C303.179 150.476 302.931 150.368 302.813 150.323C304.353 151.385 297.855 151.905 296.638 152.002C293.947 152.217 290.343 152.297 288.37 150.093C286.712 148.242 286.809 145.507 288.838 143.958ZM412.697 299.918C412.583 301.485 412.3 302.92 411.771 304.103C412.167 302.756 412.472 301.356 412.697 299.918Z" fill="#F2F2F2"/>
<path opacity="0.2" fill-rule="evenodd" clip-rule="evenodd" d="M166.685 43.9086C164.9 42.5592 162.128 43.4212 160.33 44.2191C159.637 44.5269 157.866 45.5107 156.552 46.6178C156.726 45.8508 156.881 45.0772 157.017 44.2972C157.574 41.0901 157.958 37.8224 158.144 34.5737C158.192 33.7264 158.131 32.7798 158.068 31.8207C158.047 31.4958 158.025 31.1694 158.008 30.845C158.08 30.7683 158.129 30.6625 158.149 30.5191C158.157 30.5785 158.161 30.6262 158.164 30.6627C158.169 30.7217 158.172 30.7513 158.182 30.7537C158.191 30.7561 158.208 30.7311 158.241 30.6808C158.254 30.6613 158.269 30.6379 158.288 30.611C159.617 28.6442 160.734 26.4282 160.889 23.9927C161.02 21.9272 159.307 18.02 156.874 20.7266C155.786 21.9354 156.064 30.4207 157.697 30.9399C157.259 33.7519 156.709 36.5592 156.02 39.3309C155.917 39.3129 155.812 39.3114 155.708 39.3254C155.718 38.6364 155.72 37.8846 155.692 37.6261C155.448 35.3992 153.57 30.8787 150.576 31.758C148.276 32.4339 149.684 35.2103 150.467 36.4254C151.726 38.3818 153.15 39.2284 154.955 40.2452C154.991 40.6657 155.265 40.9101 155.588 40.9894C154.377 45.4657 152.787 49.8316 150.707 53.9558L150.652 53.6939L150.652 53.6937C150.389 52.4423 150.082 50.9833 149.887 50.6769C148.87 49.0735 146.616 47.1155 144.536 48.0656C140.169 50.0638 144.905 55.7982 148.623 56.4204C148.777 56.6316 148.941 56.8015 149.114 56.8989C148.391 58.1439 147.619 59.363 146.792 60.5507C145.552 62.3373 144.22 64.1181 142.823 65.8885C142.781 64.5042 142.23 61.4191 142.074 61.0877C141.122 59.075 138.375 57.005 136.145 58.4363C133.638 60.05 135.909 63.0959 137.338 64.4741C137.924 65.0392 140.822 67.1096 141.844 67.1185C138.47 71.2935 134.746 75.3973 130.959 79.3528C131.273 77.5827 131.686 72.7083 131.64 72.1674C131.407 69.3752 129.555 64.9099 125.901 66.0001C122.356 67.056 123.921 71.6949 125.133 73.906C125.868 75.2442 126.883 76.6038 128.108 77.5367C128.329 77.7048 128.617 77.842 128.905 77.9789C129.252 78.144 129.599 78.3088 129.825 78.527C130.027 78.7216 130.089 78.945 130.15 79.1666C130.215 79.4006 130.279 79.6325 130.507 79.8261C128.46 81.9545 126.4 84.0385 124.369 86.0647C123.41 87.0211 122.435 87.9589 121.449 88.885C120.911 88.6641 120.142 88.9554 120.182 89.7105C120.187 89.8202 120.213 89.9148 120.247 90.0016C119.501 90.6892 118.749 91.3719 117.992 92.0472C118.009 91.8506 118.004 91.5733 117.97 91.1904C118.515 91.9575 118.492 90.8398 118.475 89.9878C118.469 89.6868 118.464 89.4189 118.485 89.2791C118.565 88.7316 118.669 88.1894 118.773 87.6481C118.994 86.4916 119.215 85.3388 119.205 84.1455C119.182 81.6125 117.564 77.3672 114.152 78.8772C111.015 80.2633 112.154 84.0169 113.336 86.37C114.084 87.859 115.108 89.1884 116.179 90.4611C116.37 90.6883 116.582 90.9959 116.791 91.3004C117.103 91.7526 117.409 92.198 117.636 92.3638C114.723 94.949 111.741 97.4582 108.759 99.9676C107.424 101.092 106.088 102.216 104.758 103.347C104.7 103.099 104.653 102.853 104.612 102.623C104.695 102.716 104.808 102.759 104.953 102.75C104.992 102.56 105.048 102.308 105.115 102.004L105.115 102.004C105.938 98.2989 108.444 87.014 101.673 89.2044C96.7131 90.8138 100.209 100.637 103.906 104.072C101.66 105.992 99.4359 107.937 97.2634 109.939C95.6915 111.388 94.1659 112.887 92.6983 114.435C93.4584 112.431 94.1749 109.836 93.7065 107.772C93.0246 104.767 89.8239 101.932 86.6966 103.643C82.798 105.786 85.7949 108.708 88.6053 111.448C90.0403 112.847 91.4267 114.199 91.8216 115.375C87.1563 120.454 83.1727 126.097 80.5096 132.523C77.6131 139.512 74.9229 148.902 76.4041 156.718C76.1316 153.281 77.3066 148.965 78.1318 145.933L78.1319 145.933C78.2443 145.52 78.3501 145.131 78.445 144.772C79.6849 140.07 81.4454 135.495 83.7645 131.213C87.4792 124.355 92.3843 118.532 98.0464 113.244C99.3349 113.688 100.734 114.511 101.893 115.192C102.604 115.61 103.224 115.975 103.673 116.166C105.838 117.09 109.995 118.414 111.376 115.5C112.734 112.634 109.273 111.033 107.127 110.392C105.054 109.773 103.185 109.849 101.25 110.358C104.247 107.727 107.317 105.178 110.387 102.631L110.389 102.629C110.952 102.161 111.516 101.693 112.08 101.225C112.859 101.857 113.72 102.772 114.634 103.744C117.535 106.827 120.973 110.479 124.045 107.492C128.683 102.984 119.82 98.4093 116.043 98.7688C115.58 98.8126 115.131 98.9096 114.694 99.0415C118.547 95.802 122.34 92.496 125.928 88.9576C126.572 89.0735 127.596 90.0107 128.826 91.1365C131.591 93.6669 135.396 97.1501 138.266 94.4045C140.337 92.4225 139.63 89.3376 137.63 87.5745C135.621 85.8039 132.709 85.8083 130.232 86.4063C129.162 86.6635 128.175 87.1539 127.254 87.7514L127.195 87.7547L127.139 87.7577C130.67 84.239 134.222 80.6415 137.644 76.9212C137.683 76.9336 137.722 76.9462 137.762 76.9589C137.783 76.9657 137.804 76.9726 137.826 76.9795C138.032 77.2303 138.379 77.3218 138.696 77.2662C138.87 77.3254 139.049 77.3863 139.231 77.4485L139.231 77.4485C141.939 78.373 145.42 79.5612 148.12 79.0466C150.107 78.6679 151.911 77.0673 150.23 75.0989C148.863 73.498 145.153 73.7299 143.344 74.1101C142.461 74.2959 141.5 74.8334 140.535 75.3728C140.13 75.5993 139.724 75.8262 139.323 76.0275C139.219 75.8197 139.038 75.6862 138.831 75.6222C142.209 71.8838 145.433 68.0162 148.358 63.9808C149.242 64.1161 150.223 64.5004 151.235 64.8967C153.669 65.8505 156.282 66.8741 158.158 64.6658C160.929 61.4049 155.723 59.5052 153.247 59.816C152.411 59.9209 151.587 60.1559 150.791 60.4661C152.92 57.1439 154.546 53.5931 155.689 49.8642C155.7 49.8698 155.71 49.8754 155.72 49.8811C155.736 49.89 155.752 49.899 155.772 49.9075C155.755 49.8983 155.74 49.8887 155.725 49.8791C155.713 49.872 155.702 49.8649 155.69 49.8581C155.804 49.485 155.914 49.1103 156.018 48.7342C156.212 48.6275 156.392 48.549 156.479 48.5166C155.354 49.2851 160.098 49.6584 160.987 49.7283C162.951 49.8826 165.582 49.9393 167.024 48.3449C168.235 47.0056 168.166 45.028 166.685 43.9086ZM76.1105 156.41C76.1973 157.454 76.4551 158.406 76.9626 159.187C76.59 158.295 76.3106 157.365 76.1105 156.41Z" fill="#C1DEE2"/>
<g opacity="0.2">
<path fill-rule="evenodd" clip-rule="evenodd" d="M338.84 195.567C349.704 195.003 363.139 201.344 364.298 213.153C365.14 221.733 364.879 230.289 366.182 238.856C367.224 245.703 369.428 252.276 372.433 258.513C375.323 264.51 381.317 269.616 382.876 276.023C383.87 280.105 383.314 285.848 381.943 289.842C380.277 294.697 381.162 294.313 384.483 298.387C390.99 306.371 396.849 314.558 400.993 324.093C406.961 337.828 410.874 353.882 408.659 368.916C408.377 370.825 408.043 377.676 405.414 378.155C402.478 378.69 403.851 374.772 404.008 373.506C405.007 365.43 405.894 358.371 404.689 350.169C400.039 318.522 377.337 297.671 362.554 270.812C361.741 269.427 360.026 266.129 358.833 263.953C356.95 260.517 355.056 253.98 352.507 251.433C347.706 246.634 352.12 256.282 353.055 258.124C354.238 260.453 355.54 262.929 356.752 264.971C362.298 274.433 368.489 284.762 374.217 294.517C349.443 300.161 331.996 270.378 325.348 250.797C319.87 234.665 313.316 196.947 338.84 195.567" fill="#69A1AC"/>
<path fill-rule="evenodd" clip-rule="evenodd" d="M484.446 165.609C466.285 167.049 454.626 179.033 449.199 195.794C446.274 204.827 445.939 214.106 444.313 223.389C441.868 237.354 436.607 247.938 426.324 257.887C423.14 260.969 420.793 264.133 419.124 267.518C415.812 270.897 412.93 274.722 410.812 279.397C408.106 285.369 407.34 292.533 410.464 298.486C411.304 300.087 413.399 303.299 415.571 304.759C407.441 322.074 402.971 341.038 403.474 359.977C403.779 371.41 404.337 382.848 404.988 394.267C405.163 397.333 406.162 402.396 407.662 397.254C409.034 392.55 407.313 385.167 407.154 380.253C406.379 356.317 405.716 334.553 415.57 312.19C416.603 309.846 417.698 307.521 418.839 305.215C418.906 305.176 418.968 305.129 419.031 305.083C419.075 305.117 419.114 305.153 419.158 305.186C419.231 305.056 419.33 304.901 419.447 304.728C419.774 304.391 420.06 303.964 420.332 303.488C421.206 302.277 422.195 300.854 422.2 300.075C422.2 300.069 422.197 300.059 422.197 300.053C428.296 290.096 435.283 280.688 442.419 271.463C442.366 271.53 450.16 260.918 448.955 266.787C448.374 269.615 442.641 275.001 440.325 277.997C435.203 284.661 429.188 293.106 424.19 301.272C423.518 301.658 422.567 303.556 421.88 304.969C421.501 305.686 421.147 306.408 420.799 307.037C438.509 312.888 452.286 301.102 461.68 287.392C461.692 287.376 461.702 287.36 461.712 287.344C464.571 283.555 467.5 279.794 471.158 276.8C477.262 271.803 483.799 270.921 490.995 268.462C510.621 261.757 518.965 236.322 521.615 217.449C524.605 196.158 509.98 163.509 484.446 165.609" fill="#89C5CC"/>
<path fill-rule="evenodd" clip-rule="evenodd" d="M448.572 105.984C429.933 125.383 420.928 152.29 413.798 177.585C405.834 205.837 400.574 234.525 400.372 263.898C400.24 283.197 399.715 302.616 400.841 321.892C401.241 328.738 401.923 335.596 403.008 342.368C403.098 342.924 405.525 358.046 407.848 354.522C409.169 352.518 405.36 338.836 405.072 336.557C403.452 323.721 403.076 310.791 403.155 297.863C403.285 276.576 402.657 255.399 404.815 234.191C405.137 231.025 405.391 227.699 406.143 224.601C406.942 221.308 405.925 222.746 408.526 221.442C411.053 220.175 414.177 220.356 416.799 218.766C427.201 212.458 432.523 196.256 436.664 185.625C441.401 173.468 444.28 160.504 446.58 147.71C448.268 138.311 449.475 128.968 450.159 119.447C450.374 116.447 450.387 113.309 450.976 110.358C451.135 109.563 451.932 108.155 451.903 107.45C451.842 105.958 450.942 105.081 450.868 103.828C450.088 104.53 449.322 105.249 448.572 105.984" fill="#89C5CC"/>
<path fill-rule="evenodd" clip-rule="evenodd" d="M346.939 364.445C346.939 396.526 372.946 422.533 405.027 422.533C437.109 422.533 463.116 396.526 463.116 364.445" fill="#89C5CC"/>
<path fill-rule="evenodd" clip-rule="evenodd" d="M444.836 313.586C459.212 312.526 475.268 324.124 482.202 336.194C487.793 345.925 486.851 358.704 483.398 369.043C481.086 375.964 476.039 385.833 467.624 385.929C457.094 386.049 456.587 373.036 456.383 365.429C456.113 355.314 454.834 346.504 446.865 339.61C445.881 338.759 444.848 337.962 443.816 337.166C442.9 336.459 441.983 335.752 441.101 335.007C440.96 334.888 440.818 334.769 440.676 334.649C437.858 332.281 434.898 329.793 434.538 325.889C434.016 320.231 437.209 319.213 442.086 320.264C442.243 320.298 442.67 320.46 443.252 320.68C445.742 321.624 451.056 323.638 450.051 321.23C449.672 320.323 448.29 319.604 446.545 319.065C442.029 318.575 436.645 318.005 435.096 318.345C418.389 322.01 411.884 345.153 410.157 359.856C409.971 361.443 409.82 363.035 409.688 364.63H406.619C406.832 360.779 407.113 356.935 407.757 353.127C410.219 338.563 417.918 317.172 434.804 314.808C435.427 314.72 437.718 314.705 440.494 314.868C441.81 314.133 443.283 313.688 444.836 313.586Z" fill="#69A1AC"/>
</g>
<path fill-rule="evenodd" clip-rule="evenodd" d="M37.7318 392.658C37.7318 409.597 39.0685 423.329 57.0107 423.329C74.9528 423.329 76.2895 409.597 76.2895 392.658" fill="#F2F2F2"/>
<path fill-rule="evenodd" clip-rule="evenodd" d="M62.3483 382.09C61.6906 383.227 61.1042 384.387 60.5862 385.564C60.5679 383.14 60.702 380.697 61.0681 378.221C61.6939 373.981 62.6497 369.762 63.5478 365.55C64.1933 362.523 64.1525 357.086 66.6023 354.674C67.274 354.153 67.4357 355.175 67.4357 355.619C67.4442 355.713 67.4339 353.808 66.7818 354.14C62.9061 356.141 61.6503 362.435 60.4095 365.587C58.5991 370.186 57.0588 374.888 56.4246 379.674C56.2642 380.883 56.177 382.091 56.1569 383.298C56.0252 382.975 55.9014 382.65 55.7645 382.328C53.5276 377.082 50.5088 371.963 46.7437 367.241C45.817 366.08 34.1641 354.617 33.2518 356.372C33.3419 356.627 33.5303 356.838 33.8176 357.006C33.8345 357.025 33.835 357.015 33.8251 356.986C34.5095 358.092 36.4554 359.799 37.0615 360.768C38.5868 363.206 39.7723 365.793 40.977 368.33C43.5224 373.693 45.8835 379.109 48.1725 384.538C48.7055 385.802 49.261 387.059 49.8277 388.312C43.9855 379.886 36.1919 372.236 25.4634 367.857C29.1277 369.721 31.5301 373.228 34.0047 375.913C36.9893 379.152 40.1328 382.304 43.123 385.54C46.65 389.357 50.7999 393.376 54.1923 397.6C57.4783 404.499 60.6715 411.405 62.6427 418.657C61.835 416.152 62.5794 412.689 62.4411 410.059C62.3314 407.966 62.0867 405.89 61.7515 403.818C62.1659 404.753 62.5231 405.688 62.6848 406.558C62.5372 405.099 62.367 403.649 62.1842 402.207C62.6534 400.856 63.1142 399.596 63.4255 398.558C65.0207 393.234 66.9201 388.001 69.5067 382.9C71.9002 378.182 74.6457 373.524 77.6374 369.009C79.0329 366.903 80.4476 364.805 81.8534 362.704C82.7736 361.329 83.6497 359.126 84.9308 357.808C76.6497 365.379 67.6021 373.005 62.3483 382.09" fill="#F2F2F2"/>
<path fill-rule="evenodd" clip-rule="evenodd" d="M497.836 98.5333C495.463 90.6148 489.889 84.4172 484.103 78.7385C472.839 67.6835 466.781 60.8483 462.767 44.6769C460.406 35.1661 458.003 25.0876 450.515 18.1874C445.063 13.1625 435.679 8.94076 428.388 12.539C417.171 19.2342 414.158 32.9741 415.29 45.2773C416.692 60.5262 423.815 69.9287 437.499 75.5452C445.209 78.7085 450.335 82.8824 454.52 90.1553C457.868 95.971 459.82 103.253 464.027 108.525C470.317 116.407 478.188 119.91 487.89 118.601C478.803 101.881 468.185 85.0048 455.379 70.9278C454.181 69.5125 447.11 64.0956 448.536 61.6837C450.107 59.028 457.365 69.004 457.314 68.9437C461.036 73.2156 464.479 77.7551 467.861 82.3382C467.852 82.3427 467.842 82.3451 467.833 82.3499C471.315 87.0528 474.769 91.8249 478.157 96.6569C479.527 98.7009 480.861 100.771 482.138 102.893C484.011 106.007 486.985 114.844 490.051 116.758C490.706 117.168 491.313 117.397 491.88 117.491C493.972 120.916 496.007 124.369 497.943 127.862C502.998 136.986 507.337 146.619 509.329 156.92C509.91 159.927 509.499 171.173 511.551 173.344C515.303 177.313 514.204 169.669 513.98 167.361C512.116 148.253 505.256 131.973 495.296 115.909C498.356 111.913 498.798 101.742 497.836 98.5333" fill="#F2F2F2"/>
<path fill-rule="evenodd" clip-rule="evenodd" d="M369.323 107.766C373.279 103.105 382.788 102.314 388.604 102.626C395.8 103.012 403.192 104.764 410.039 106.882C421.317 110.371 432.276 116.739 442.209 122.901C443.406 123.644 458.154 132.513 456.848 134.069C455.555 135.611 441.078 125.076 437.851 123.261C430.966 119.385 424.652 114.802 417.062 112.242C409.204 109.592 400.893 108.542 392.63 108.615C391.569 108.624 388.11 107.885 388.035 109.454C387.962 110.988 393.686 110.187 394.696 110.197C398.865 110.235 403.059 110.627 407.169 111.35C414.869 112.703 422.108 115.43 428.703 119.612C426.863 123.891 422.451 125.863 417.824 124.793C413.825 123.867 409.926 121.584 406.01 120.924C403.312 120.47 400.612 120.74 397.996 121.5C391.097 123.505 387.119 127.612 379.533 124.755C373.587 122.516 363.642 114.469 369.323 107.766" fill="#F2F2F2"/>
<path fill-rule="evenodd" clip-rule="evenodd" d="M352.312 32.6658C343.529 32.0252 333.72 39.0352 329.483 46.3301C326.068 52.2117 326.643 59.935 328.753 66.1837C330.165 70.3671 333.249 76.3316 338.39 76.3898C344.823 76.4625 345.133 68.5973 345.257 63.9993C345.423 57.8864 346.204 52.5613 351.073 48.3946C351.674 47.8803 352.305 47.3989 352.935 46.9174C353.495 46.4901 354.055 46.0628 354.594 45.6127C354.68 45.5408 354.767 45.4688 354.854 45.3966C356.575 43.965 358.384 42.4614 358.604 40.1018C358.923 36.6821 356.972 36.0667 353.993 36.702C353.896 36.7225 353.635 36.8204 353.28 36.9536C351.759 37.5241 348.512 38.7414 349.126 37.2861C349.358 36.7378 350.202 36.3033 351.268 35.9777C354.027 35.681 357.317 35.3367 358.263 35.5424C368.47 37.7576 372.444 51.7447 373.499 60.6313C373.619 61.6376 373.714 62.6473 373.797 63.6585H375.669C375.538 61.2836 375.367 58.9125 374.966 56.5642C373.461 47.7617 368.758 34.8331 358.441 33.4044C358.061 33.3511 356.661 33.3422 354.965 33.4405C354.161 32.9963 353.261 32.7276 352.312 32.6658Z" fill="#F2F2F2"/>
</g>
<path d="M397.769 224.687C418.307 248.33 423.681 283.676 420.156 313.255C416.63 342.766 404.273 366.58 389.656 386.64C375.074 406.633 358.233 422.873 338.071 430.447C317.875 438.021 294.359 436.861 263.175 434.984C231.992 433.04 193.243 430.31 170.89 409.533C148.572 388.687 142.65 349.828 152.543 317.281C162.538 284.733 188.348 258.429 216.451 236.117C244.554 213.804 275.053 195.381 308.188 192.174C341.323 189.035 377.162 200.976 397.769 224.687Z" fill="#F7F7F7"/>
<path d="M215.424 372.789C193.928 372.789 173.732 364.43 158.533 349.282C143.335 334.135 134.949 314.006 134.949 292.58C134.949 271.155 143.335 250.992 158.533 235.844C173.732 220.696 193.928 212.337 215.424 212.337C236.921 212.337 257.117 220.696 272.315 235.844C287.513 250.992 295.9 271.121 295.9 292.546C295.9 313.971 287.513 334.1 272.315 349.248C257.117 364.396 236.921 372.789 215.424 372.789ZM215.424 213.395C171.644 213.395 136.01 248.91 136.01 292.546C136.01 336.182 171.644 371.697 215.424 371.697C259.205 371.697 294.839 336.182 294.839 292.546C294.839 248.91 259.205 213.395 215.424 213.395Z" fill="#E5E5E5"/>
<path d="M178.25 445.424C177.976 445.424 177.736 445.185 177.736 444.912C177.736 434.131 174.964 419.359 170.137 404.381C165.585 390.223 159.937 378.589 155.418 373.983C155.213 373.778 155.213 373.437 155.418 373.233C155.624 373.028 155.966 373.028 156.171 373.233C160.861 378.009 166.475 389.506 171.13 404.04C175.991 419.12 178.763 434.029 178.763 444.912C178.763 445.185 178.558 445.424 178.25 445.424Z" fill="#909090"/>
<path d="M179.38 447.846C179.106 447.846 178.866 447.608 178.866 447.335C178.866 431.402 190.573 412.638 197.522 402.846C207.928 388.278 220.627 375.553 229.904 370.503C230.143 370.367 230.485 370.469 230.622 370.708C230.759 370.947 230.657 371.288 230.417 371.424C211.419 381.796 179.927 422.429 179.927 447.335C179.893 447.608 179.688 447.846 179.38 447.846Z" fill="#909090"/>
<path d="M384.864 172.045H188.417V294.934H384.864V172.045Z" fill="#FEFDDB"/>
<path d="M375.382 263.956C365.045 263.956 359.91 254.881 354.981 246.113C350.052 237.379 345.397 229.157 336.086 229.157C326.775 229.157 322.12 237.379 317.191 246.113C312.227 254.881 307.127 263.956 296.79 263.956C286.452 263.956 281.317 254.881 276.388 246.113C271.459 237.379 266.804 229.157 257.527 229.157C248.217 229.157 243.561 237.379 238.666 246.113C233.703 254.881 228.603 263.956 218.265 263.956C207.928 263.956 202.793 254.881 197.864 246.113C192.935 237.379 188.279 229.157 179.003 229.157C178.524 229.157 178.113 228.747 178.113 228.27C178.113 227.792 178.524 227.383 179.003 227.383C189.341 227.383 194.475 236.458 199.404 245.226C204.333 253.96 208.989 262.182 218.265 262.182C227.542 262.182 232.231 253.96 237.126 245.226C242.09 236.458 247.19 227.383 257.527 227.383C267.865 227.383 272.999 236.458 277.929 245.226C282.858 253.96 287.513 262.182 296.79 262.182C306.1 262.182 310.756 253.96 315.685 245.226C320.648 236.458 325.748 227.383 336.086 227.383C346.424 227.383 351.558 236.458 356.487 245.226C361.416 253.96 366.072 262.182 375.382 262.182C375.862 262.182 376.272 262.591 376.272 263.069C376.272 263.547 375.862 263.956 375.382 263.956Z" fill="#9EF5EE"/>
<path d="M197.624 175.422L192.49 184.259H202.725L197.624 175.422Z" fill="#9EF5EE"/>
<path d="M210.529 184.361C213.233 184.361 215.424 182.177 215.424 179.482C215.424 176.788 213.233 174.604 210.529 174.604C207.826 174.604 205.634 176.788 205.634 179.482C205.634 182.177 207.826 184.361 210.529 184.361Z" fill="#FE697D"/>
<path d="M229.219 175.013H219.943V184.259H229.219V175.013Z" fill="#8CE08C"/>
<path d="M385.07 188.523H178.147C177.874 188.523 177.634 188.285 177.634 188.012C177.634 187.739 177.874 187.5 178.147 187.5H385.07C385.344 187.5 385.583 187.739 385.583 188.012C385.583 188.285 385.344 188.523 385.07 188.523Z" fill="#E5E5E5"/>
<path d="M380.106 338.297L386.644 465.007L372.85 465.792L344.575 367.125L380.106 338.297Z" fill="#777777"/>
<path d="M376.307 465.007C371.515 465.007 359.602 465.587 352.106 478.279C359.945 478.279 386.644 478.279 386.644 478.279V465.007H376.307Z" fill="#777777"/>
<path d="M382.571 386.129L380.106 338.263L344.575 367.092L357.138 410.932C365.25 401.55 374.972 391.178 382.571 386.129Z" fill="#383838"/>
<path fill-rule="evenodd" clip-rule="evenodd" d="M342.453 232.875C344.301 225.37 351.901 220.798 359.431 222.64C366.962 224.483 371.549 232.057 369.7 239.562C367.852 247.068 360.253 251.64 352.722 249.797C345.191 247.955 340.605 240.381 342.453 232.875Z" fill="#8CE08C"/>
<path fill-rule="evenodd" clip-rule="evenodd" d="M378.771 230.01C379.867 225.506 384.453 222.777 388.938 223.869C393.456 224.96 396.194 229.532 395.099 234.001C394.004 238.505 389.417 241.234 384.933 240.142C380.414 239.051 377.676 234.513 378.771 230.01Z" fill="#8CE08C"/>
<path fill-rule="evenodd" clip-rule="evenodd" d="M280.291 292.853C281.386 288.349 285.973 285.62 290.457 286.712C294.975 287.804 297.714 292.375 296.618 296.845C295.523 301.348 290.936 304.077 286.452 302.986C281.934 301.894 279.195 297.356 280.291 292.853Z" fill="#8CE08C"/>
<path d="M348.067 234.035C347.964 234.035 347.895 234.035 347.827 234.001C347.553 233.933 347.074 233.694 346.903 232.807C346.8 232.295 346.834 231.647 346.971 230.999C347.142 230.351 347.416 229.771 347.724 229.361C348.306 228.645 348.854 228.679 349.128 228.713C349.984 228.918 350.36 230.18 349.984 231.715C349.812 232.364 349.539 232.944 349.23 233.353C348.785 233.899 348.375 234.035 348.067 234.035ZM348.854 229.737C348.717 229.737 348.238 230.214 347.998 231.238C347.759 232.261 347.964 232.909 348.101 232.978C348.238 232.978 348.717 232.5 348.957 231.477C349.196 230.453 348.991 229.805 348.854 229.737Z" fill="#2B7C63"/>
<path d="M362.478 219.945C364.121 220.73 366.14 220.047 366.927 218.376L374.937 201.693C375.725 200.055 375.04 198.042 373.363 197.257C371.72 196.473 369.7 197.155 368.913 198.827L360.903 215.51C360.116 217.148 360.834 219.126 362.478 219.945Z" fill="#2B7C63"/>
<path d="M366.619 207.834C366.927 207.97 367.27 207.834 367.407 207.561L370.248 201.624C370.385 201.317 370.248 200.976 369.974 200.84C369.666 200.703 369.324 200.84 369.187 201.113L366.346 207.049C366.209 207.322 366.346 207.697 366.619 207.834Z" fill="white"/>
<path d="M299.152 425.943C294.359 425.943 282.447 426.523 274.951 439.215C282.789 439.215 309.489 439.215 309.489 439.215V425.943H299.152Z" fill="#C2C2C2"/>
<path d="M321.983 439.112H263.655V477.153H321.983V439.112Z" fill="#FE697D"/>
<path d="M355.221 255.631C383.906 255.631 385.035 323.217 380.757 327.004C376.478 330.791 338.551 330.791 334.58 327.004C330.541 323.217 330.438 255.631 355.221 255.631Z" fill="#FE697D"/>
<path fill-rule="evenodd" clip-rule="evenodd" d="M335.025 334.339C338.824 334.68 371.206 337.239 379.695 334.987C387.637 354.707 383.05 379.51 359.944 379.51C354.57 379.51 316.335 375.723 311.988 373.062C311.543 378.691 309.523 426.318 309.523 426.318H295.455C295.455 426.318 277.894 352.762 277.894 349.658C277.894 341.845 318.149 332.872 335.025 334.339Z" fill="#C2C2C2"/>
<path d="M307.025 231.613H281.694C279.538 231.613 277.826 229.873 277.826 227.758V214.452C277.826 212.303 279.572 210.597 281.694 210.597H307.025C309.181 210.597 310.893 212.337 310.893 214.452V227.758C310.893 229.873 309.147 231.613 307.025 231.613ZM281.694 211.928C280.291 211.928 279.195 213.053 279.195 214.418V227.724C279.195 229.123 280.325 230.214 281.694 230.214H307.025C308.428 230.214 309.523 229.088 309.523 227.724V214.418C309.523 213.019 308.394 211.928 307.025 211.928H281.694V211.928Z" fill="#2B7C63"/>
<path d="M326.365 221.242H301.034C298.878 221.242 297.166 219.502 297.166 217.386V204.081C297.166 201.931 298.912 200.226 301.034 200.226H326.365C328.521 200.226 330.233 201.966 330.233 204.081V217.386C330.267 219.502 328.521 221.242 326.365 221.242ZM301.069 201.556C299.665 201.556 298.57 202.682 298.57 204.047V217.352C298.57 218.751 299.699 219.843 301.069 219.843H326.399C327.802 219.843 328.898 218.717 328.898 217.352V204.047C328.898 202.648 327.768 201.556 326.399 201.556H301.069V201.556Z" fill="#FE697D"/>
<path d="M189.101 440.033C186.02 442.388 182.289 443.786 178.25 443.786C174.211 443.786 170.48 442.388 167.399 440.033C162.367 443.889 159.081 450.337 159.081 457.638C159.081 469.442 167.673 478.995 178.25 478.995C188.827 478.995 197.419 469.442 197.419 457.638C197.419 450.337 194.133 443.889 189.101 440.033Z" fill="#2B7C63"/>
<path d="M363.95 330.62C363.436 330.62 363.06 330.211 363.06 329.733L363.847 295.821C363.847 295.514 364.018 295.207 364.292 295.071C364.566 294.934 364.908 294.934 365.182 295.105L382.845 305.817C383.256 306.056 383.393 306.602 383.153 307.012C382.913 307.421 382.366 307.557 381.955 307.319L365.593 297.391L364.84 329.768C364.84 330.245 364.429 330.62 363.95 330.62Z" fill="#9EF5EE"/>
<path d="M332.903 301.996C332.663 301.996 332.458 301.894 332.287 301.723C331.944 301.382 331.944 300.836 332.287 300.495L363.847 269.039L343.001 263.478C342.521 263.342 342.248 262.864 342.384 262.421C342.521 261.943 343.001 261.67 343.446 261.807L365.764 267.777C366.072 267.845 366.311 268.084 366.38 268.391C366.448 268.698 366.38 269.005 366.14 269.244L333.485 301.792C333.348 301.928 333.142 301.996 332.903 301.996Z" fill="#9EF5EE"/>
<path d="M341.015 292.853C340.844 292.853 340.707 292.853 340.536 292.819C339.03 292.546 338.003 291.113 338.277 289.612C340.331 277.944 343.651 269.21 348.067 263.615C349.025 262.421 350.771 262.216 351.969 263.171C353.167 264.127 353.372 265.866 352.414 267.061C348.614 271.871 345.602 279.991 343.72 290.567C343.514 291.898 342.35 292.853 341.015 292.853Z" fill="white"/>
<path d="M149.189 385.583C155.654 385.583 160.895 380.359 160.895 373.915C160.895 367.471 155.654 362.247 149.189 362.247C142.723 362.247 137.482 367.471 137.482 373.915C137.482 380.359 142.723 385.583 149.189 385.583Z" fill="#9EF5EE"/>
<path d="M160.211 412.058C163.992 412.058 167.057 409.003 167.057 405.234C167.057 401.466 163.992 398.411 160.211 398.411C156.43 398.411 153.365 401.466 153.365 405.234C153.365 409.003 156.43 412.058 160.211 412.058Z" fill="#9EF5EE"/>
<path d="M179.414 411.205C182.306 411.205 184.651 408.868 184.651 405.985C184.651 403.102 182.306 400.765 179.414 400.765C176.521 400.765 174.177 403.102 174.177 405.985C174.177 408.868 176.521 411.205 179.414 411.205Z" fill="#9EF5EE"/>
<path d="M213.747 364.26L221.415 392.816L242.398 371.902L213.747 364.26Z" fill="#9EF5EE"/>
<path d="M197.967 407.247L207.038 417.687L211.556 404.654L197.967 407.247Z" fill="#9EF5EE"/>
<path d="M179.38 378.828L196.529 398.581L205.121 373.915L179.38 378.828Z" fill="#9EF5EE"/>
<path d="M397.769 224.642C418.307 248.285 423.681 283.631 420.156 313.21C416.63 342.721 404.273 366.535 389.656 386.596C375.074 406.588 358.233 422.828 338.071 430.402C317.875 437.976 294.359 436.816 263.175 434.939C231.992 432.995 193.243 430.265 170.89 409.488C148.572 388.643 142.65 349.783 152.543 317.236C162.538 284.688 188.348 258.384 216.451 236.072C244.554 213.759 275.053 195.336 308.188 192.129C341.323 188.99 377.162 200.931 397.769 224.642Z" fill="#F7F7F7"/>
<path d="M215.424 372.744C193.928 372.744 173.732 364.385 158.533 349.238C143.335 334.09 134.949 313.961 134.949 292.535C134.949 271.11 143.335 250.947 158.533 235.799C173.732 220.651 193.928 212.292 215.424 212.292C236.921 212.292 257.117 220.651 272.315 235.799C287.513 250.947 295.9 271.076 295.9 292.501C295.9 313.927 287.513 334.056 272.315 349.203C257.117 364.351 236.921 372.744 215.424 372.744ZM215.424 213.35C171.644 213.35 136.01 248.866 136.01 292.501C136.01 336.137 171.644 371.652 215.424 371.652C259.205 371.652 294.839 336.137 294.839 292.501C294.839 248.866 259.205 213.35 215.424 213.35Z" fill="#E5E5E5"/>
<path d="M178.25 445.379C177.976 445.379 177.736 445.14 177.736 444.867C177.736 434.086 174.964 419.314 170.137 404.336C165.585 390.178 159.937 378.544 155.418 373.938C155.213 373.733 155.213 373.392 155.418 373.188C155.624 372.983 155.966 372.983 156.171 373.188C160.861 377.964 166.475 389.461 171.13 403.995C175.991 419.075 178.763 433.984 178.763 444.867C178.763 445.14 178.558 445.379 178.25 445.379Z" fill="#909090"/>
<path d="M179.38 447.801C179.106 447.801 178.866 447.563 178.866 447.29C178.866 431.357 190.573 412.593 197.522 402.801C207.928 388.233 220.627 375.508 229.904 370.458C230.143 370.322 230.485 370.424 230.622 370.663C230.759 370.902 230.657 371.243 230.417 371.379C211.419 381.751 179.927 422.384 179.927 447.29C179.893 447.563 179.688 447.801 179.38 447.801Z" fill="#909090"/>
<path d="M384.864 172H188.417V294.889H384.864V172Z" fill="#FEFDDB"/>
<path d="M375.382 263.911C365.045 263.911 359.91 254.836 354.981 246.068C350.052 237.334 345.397 229.112 336.086 229.112C326.775 229.112 322.12 237.334 317.191 246.068C312.227 254.836 307.127 263.911 296.79 263.911C286.452 263.911 281.317 254.836 276.388 246.068C271.459 237.334 266.804 229.112 257.527 229.112C248.217 229.112 243.561 237.334 238.666 246.068C233.703 254.836 228.603 263.911 218.265 263.911C207.928 263.911 202.793 254.836 197.864 246.068C192.935 237.334 188.279 229.112 179.003 229.112C178.524 229.112 178.113 228.702 178.113 228.225C178.113 227.747 178.524 227.338 179.003 227.338C189.341 227.338 194.475 236.413 199.404 245.181C204.333 253.915 208.989 262.137 218.265 262.137C227.542 262.137 232.231 253.915 237.126 245.181C242.09 236.413 247.19 227.338 257.527 227.338C267.865 227.338 272.999 236.413 277.929 245.181C282.858 253.915 287.513 262.137 296.79 262.137C306.1 262.137 310.756 253.915 315.685 245.181C320.648 236.413 325.748 227.338 336.086 227.338C346.424 227.338 351.558 236.413 356.487 245.181C361.416 253.915 366.072 262.137 375.382 262.137C375.862 262.137 376.272 262.546 376.272 263.024C376.272 263.502 375.862 263.911 375.382 263.911Z" fill="#9EF5EE"/>
<path d="M197.624 175.378L192.49 184.214H202.725L197.624 175.378Z" fill="#9EF5EE"/>
<path d="M210.529 184.316C213.233 184.316 215.424 182.132 215.424 179.437C215.424 176.743 213.233 174.559 210.529 174.559C207.826 174.559 205.634 176.743 205.634 179.437C205.634 182.132 207.826 184.316 210.529 184.316Z" fill="#FE697D"/>
<path d="M229.219 174.968H219.943V184.214H229.219V174.968Z" fill="#8CE08C"/>
<path d="M385.07 188.478H178.147C177.874 188.478 177.634 188.24 177.634 187.967C177.634 187.694 177.874 187.455 178.147 187.455H385.07C385.344 187.455 385.583 187.694 385.583 187.967C385.583 188.24 385.344 188.478 385.07 188.478Z" fill="#E5E5E5"/>
<path d="M380.106 338.252L386.644 464.962L372.85 465.747L344.575 367.081L380.106 338.252Z" fill="#777777"/>
<path d="M376.307 464.962C371.515 464.962 359.602 465.542 352.106 478.234C359.945 478.234 386.644 478.234 386.644 478.234V464.962H376.307Z" fill="#777777"/>
<path d="M382.571 386.084L380.106 338.218L344.575 367.047L357.138 410.887C365.25 401.505 374.972 391.133 382.571 386.084Z" fill="#383838"/>
<path fill-rule="evenodd" clip-rule="evenodd" d="M342.453 232.83C344.301 225.325 351.901 220.753 359.431 222.595C366.962 224.438 371.549 232.012 369.7 239.517C367.852 247.023 360.253 251.595 352.722 249.752C345.191 247.91 340.605 240.336 342.453 232.83Z" fill="#8CE08C"/>
<path fill-rule="evenodd" clip-rule="evenodd" d="M378.771 229.965C379.867 225.461 384.453 222.732 388.938 223.824C393.456 224.915 396.194 229.487 395.099 233.956C394.004 238.46 389.417 241.189 384.933 240.097C380.414 239.006 377.676 234.468 378.771 229.965Z" fill="#8CE08C"/>
<path fill-rule="evenodd" clip-rule="evenodd" d="M280.291 292.808C281.386 288.305 285.973 285.575 290.457 286.667C294.975 287.759 297.714 292.33 296.618 296.8C295.523 301.303 290.936 304.032 286.452 302.941C281.934 301.849 279.195 297.311 280.291 292.808Z" fill="#8CE08C"/>
<path d="M348.067 233.99C347.964 233.99 347.895 233.99 347.827 233.956C347.553 233.888 347.074 233.649 346.903 232.762C346.8 232.25 346.834 231.602 346.971 230.954C347.142 230.306 347.416 229.726 347.724 229.316C348.306 228.6 348.854 228.634 349.128 228.668C349.984 228.873 350.36 230.135 349.984 231.67C349.812 232.319 349.539 232.899 349.23 233.308C348.785 233.854 348.375 233.99 348.067 233.99ZM348.854 229.692C348.717 229.692 348.238 230.169 347.998 231.193C347.759 232.216 347.964 232.865 348.101 232.933C348.238 232.933 348.717 232.455 348.957 231.432C349.196 230.408 348.991 229.76 348.854 229.692Z" fill="#2B7C63"/>
<path d="M362.478 219.9C364.121 220.685 366.14 220.003 366.927 218.331L374.937 201.648C375.725 200.01 375.04 197.997 373.363 197.212C371.72 196.428 369.7 197.11 368.913 198.782L360.903 215.465C360.116 217.103 360.834 219.081 362.478 219.9Z" fill="#2B7C63"/>
<path d="M366.619 207.789C366.927 207.925 367.27 207.789 367.407 207.516L370.248 201.579C370.385 201.272 370.248 200.931 369.974 200.795C369.666 200.658 369.324 200.795 369.187 201.068L366.346 207.004C366.209 207.277 366.346 207.652 366.619 207.789Z" fill="white"/>
<path d="M299.152 425.898C294.359 425.898 282.447 426.478 274.951 439.17C282.789 439.17 309.489 439.17 309.489 439.17V425.898H299.152Z" fill="#C2C2C2"/>
<path d="M321.983 439.067H263.655V477.108H321.983V439.067Z" fill="#FE697D"/>
<path d="M355.221 255.586C383.906 255.586 385.035 323.172 380.757 326.959C376.478 330.746 338.551 330.746 334.58 326.959C330.541 323.172 330.438 255.586 355.221 255.586Z" fill="#FE697D"/>
<path fill-rule="evenodd" clip-rule="evenodd" d="M335.025 334.294C338.824 334.635 371.206 337.194 379.695 334.943C387.637 354.662 383.05 379.465 359.944 379.465C354.57 379.465 316.335 375.678 311.988 373.017C311.543 378.646 309.523 426.274 309.523 426.274H295.455C295.455 426.274 277.894 352.717 277.894 349.613C277.894 341.8 318.149 332.827 335.025 334.294Z" fill="#C2C2C2"/>
<path d="M307.025 231.568H281.694C279.538 231.568 277.826 229.828 277.826 227.713V214.407C277.826 212.258 279.572 210.552 281.694 210.552H307.025C309.181 210.552 310.893 212.292 310.893 214.407V227.713C310.893 229.828 309.147 231.568 307.025 231.568ZM281.694 211.883C280.291 211.883 279.195 213.009 279.195 214.373V227.679C279.195 229.078 280.325 230.169 281.694 230.169H307.025C308.428 230.169 309.523 229.044 309.523 227.679V214.373C309.523 212.974 308.394 211.883 307.025 211.883H281.694V211.883Z" fill="#2B7C63"/>
<path d="M326.365 221.197H301.034C298.878 221.197 297.166 219.457 297.166 217.341V204.036C297.166 201.886 298.912 200.181 301.034 200.181H326.365C328.521 200.181 330.233 201.921 330.233 204.036V217.341C330.267 219.457 328.521 221.197 326.365 221.197ZM301.069 201.511C299.665 201.511 298.57 202.637 298.57 204.002V217.307C298.57 218.706 299.699 219.798 301.069 219.798H326.399C327.802 219.798 328.898 218.672 328.898 217.307V204.002C328.898 202.603 327.768 201.511 326.399 201.511H301.069V201.511Z" fill="#FE697D"/>
<path d="M189.101 439.989C186.02 442.343 182.289 443.741 178.25 443.741C174.211 443.741 170.48 442.343 167.399 439.989C162.367 443.844 159.081 450.292 159.081 457.593C159.081 469.397 167.673 478.95 178.25 478.95C188.827 478.95 197.419 469.397 197.419 457.593C197.419 450.292 194.133 443.844 189.101 439.989Z" fill="#2B7C63"/>
<path d="M363.95 330.576C363.436 330.576 363.06 330.166 363.06 329.689L363.847 295.776C363.847 295.469 364.018 295.162 364.292 295.026C364.566 294.889 364.908 294.889 365.182 295.06L382.845 305.773C383.256 306.011 383.393 306.557 383.153 306.967C382.913 307.376 382.366 307.512 381.955 307.274L365.593 297.346L364.84 329.723C364.84 330.2 364.429 330.576 363.95 330.576Z" fill="#9EF5EE"/>
<path d="M332.903 301.951C332.663 301.951 332.458 301.849 332.287 301.678C331.944 301.337 331.944 300.791 332.287 300.45L363.847 268.994L343.001 263.433C342.521 263.297 342.248 262.819 342.384 262.376C342.521 261.898 343.001 261.625 343.446 261.762L365.764 267.732C366.072 267.8 366.311 268.039 366.38 268.346C366.448 268.653 366.38 268.96 366.14 269.199L333.485 301.747C333.348 301.883 333.142 301.951 332.903 301.951Z" fill="#9EF5EE"/>
<path d="M341.015 292.808C340.844 292.808 340.707 292.808 340.536 292.774C339.03 292.501 338.003 291.068 338.277 289.567C340.331 277.899 343.651 269.165 348.067 263.57C349.025 262.376 350.771 262.171 351.969 263.126C353.167 264.082 353.372 265.822 352.414 267.016C348.614 271.826 345.602 279.946 343.72 290.522C343.514 291.853 342.35 292.808 341.015 292.808Z" fill="white"/>
<path d="M149.189 385.538C155.654 385.538 160.895 380.314 160.895 373.87C160.895 367.426 155.654 362.202 149.189 362.202C142.723 362.202 137.482 367.426 137.482 373.87C137.482 380.314 142.723 385.538 149.189 385.538Z" fill="#9EF5EE"/>
<path d="M160.211 412.013C163.992 412.013 167.057 408.958 167.057 405.189C167.057 401.421 163.992 398.366 160.211 398.366C156.43 398.366 153.365 401.421 153.365 405.189C153.365 408.958 156.43 412.013 160.211 412.013Z" fill="#9EF5EE"/>
<path d="M179.414 411.16C182.306 411.16 184.651 408.823 184.651 405.94C184.651 403.057 182.306 400.72 179.414 400.72C176.521 400.72 174.177 403.057 174.177 405.94C174.177 408.823 176.521 411.16 179.414 411.16Z" fill="#9EF5EE"/>
<path d="M213.747 364.215L221.415 392.771L242.398 371.857L213.747 364.215Z" fill="#9EF5EE"/>
<path d="M197.967 407.202L207.038 417.642L211.556 404.609L197.967 407.202Z" fill="#9EF5EE"/>
<path d="M179.38 378.783L196.529 398.537L205.121 373.87L179.38 378.783Z" fill="#9EF5EE"/>
</svg>
