<svg width="20" height="21" viewBox="0 0 20 21" fill="none" xmlns="http://www.w3.org/2000/svg">
<path d="M9 2.5C8.46957 2.5 7.96086 2.71071 7.58579 3.08579C7.21071 3.46086 7 3.96957 7 4.5V12.5C7 13.0304 7.21071 13.5391 7.58579 13.9142C7.96086 14.2893 8.46957 14.5 9 14.5H15C15.5304 14.5 16.0391 14.2893 16.4142 13.9142C16.7893 13.5391 17 13.0304 17 12.5V6.914C16.9999 6.38361 16.7891 5.87499 16.414 5.5L14 3.086C13.625 2.7109 13.1164 2.50011 12.586 2.5H9Z" fill="#3F3F46"/>
<path d="M3 8.5C3 7.96957 3.21071 7.46086 3.58579 7.08579C3.96086 6.71071 4.46957 6.5 5 6.5V16.5H13C13 17.0304 12.7893 17.5391 12.4142 17.9142C12.0391 18.2893 11.5304 18.5 11 18.5H5C4.46957 18.5 3.96086 18.2893 3.58579 17.9142C3.21071 17.5391 3 17.0304 3 16.5V8.5Z" fill="#3F3F46"/>
</svg>
