<svg width="19" height="21" viewBox="0 0 19 21" fill="none" xmlns="http://www.w3.org/2000/svg">
<path d="M7.55784 9.38588V15.3409M11.5279 9.38588V15.3409M1.60278 5.41584H17.4829M16.4904 5.41584L15.6299 17.4669C15.5943 17.9677 15.3702 18.4364 15.0028 18.7786C14.6354 19.1207 14.1519 19.311 13.6499 19.311H5.43585C4.93378 19.311 4.45036 19.1207 4.08295 18.7786C3.71554 18.4364 3.49145 17.9677 3.4558 17.4669L2.59529 5.41584H16.4904ZM12.5204 5.41584V2.43831C12.5204 2.17508 12.4158 1.92263 12.2297 1.7365C12.0436 1.55037 11.7911 1.4458 11.5279 1.4458H7.55784C7.29461 1.4458 7.04216 1.55037 6.85603 1.7365C6.6699 1.92263 6.56533 2.17508 6.56533 2.43831V5.41584H12.5204Z" stroke="#EF4444" stroke-width="1.98502" stroke-linecap="round" stroke-linejoin="round"/>
</svg>
