<svg width="216" height="140" viewBox="0 0 216 140" fill="none" xmlns="http://www.w3.org/2000/svg">
<path fill-rule="evenodd" clip-rule="evenodd" d="M39 95C39 98.866 42.134 102 46 102H192C195.866 102 199 98.866 199 95C199 91.134 195.866 88 192 88H186C182.134 88 179 84.866 179 81C179 77.134 182.134 74 186 74H205C208.866 74 212 70.866 212 67C212 63.134 208.866 60 205 60H183C186.866 60 190 56.866 190 53C190 49.134 186.866 46 183 46H119C122.866 46 126 42.866 126 39C126 35.134 122.866 32 119 32H62C58.134 32 55 35.134 55 39C55 42.866 58.134 46 62 46H22C18.134 46 15 49.134 15 53C15 56.866 18.134 60 22 60H47C50.866 60 54 63.134 54 67C54 70.866 50.866 74 47 74H7C3.13401 74 0 77.134 0 81C0 84.866 3.13401 88 7 88H46C42.134 88 39 91.134 39 95ZM209 102C212.866 102 216 98.866 216 95C216 91.134 212.866 88 209 88C205.134 88 202 91.134 202 95C202 98.866 205.134 102 209 102Z" fill="#DFEFDC"/>
<path fill-rule="evenodd" clip-rule="evenodd" d="M139.873 110.119C142.911 108.164 145.613 105.725 147.37 103.756ZM150.206 100.483V100.483C151.659 98.7028 152.966 96.8409 154.125 94.9138C156.675 90.6754 158.513 86.1219 159.637 81.4272C160.773 76.6793 161.178 71.7869 160.849 66.9302C160.562 62.6922 159.717 58.4814 158.31 54.4173C156.915 50.3853 154.968 46.4977 152.467 42.8714C150.977 40.7105 149.291 38.6424 147.407 36.6917C144.641 33.8278 141.608 31.3795 138.385 29.3481C134.921 27.1655 131.239 25.4643 127.435 24.2464C122.671 22.7211 117.715 21.9539 112.759 21.9483C108.903 21.9439 105.046 22.4007 101.279 23.3203C97.0376 24.3556 92.9094 25.9774 89.0225 28.1883C85.6057 30.1319 82.3752 32.5306 79.4182 35.3861C75.7021 38.9747 72.6921 43.02 70.3907 47.3493C68.1375 51.5878 66.5637 56.0987 65.6717 60.7197C64.7528 65.4806 64.5576 70.3585 65.0889 75.1762C65.7776 81.4206 67.6868 87.5638 70.8225 93.2201C72.829 96.8394 75.3377 100.259 78.3502 103.379C83.1326 108.331 88.716 112.041 94.696 114.501C101.968 117.492 109.827 118.634 117.545 117.913C124.023 117.308 130.402 115.391 136.251 112.154" fill="white"/>
<path d="M139.197 109.068C138.616 109.442 138.449 110.215 138.822 110.796C139.196 111.376 139.969 111.544 140.55 111.17L139.197 109.068ZM148.303 104.588C148.762 104.073 148.717 103.283 148.202 102.823C147.687 102.363 146.897 102.408 146.437 102.923L148.303 104.588ZM154.125 94.9138L153.054 94.2694L153.054 94.2694L154.125 94.9138ZM159.637 81.4272L160.852 81.7181L160.852 81.7181L159.637 81.4272ZM160.849 66.9302L162.096 66.8457L160.849 66.9302ZM158.31 54.4173L157.129 54.826L158.31 54.4173ZM152.467 42.8714L151.438 43.581L152.467 42.8714ZM147.407 36.6917L146.508 37.5601L147.407 36.6917ZM138.385 29.3481L139.051 28.2906L138.385 29.3481ZM127.435 24.2464L127.054 25.4368L127.054 25.4368L127.435 24.2464ZM112.759 21.9483L112.758 23.1983L112.758 23.1983L112.759 21.9483ZM101.279 23.3203L101.575 24.5346L101.279 23.3203ZM89.0225 28.1883L88.4045 27.1018L89.0225 28.1883ZM79.4182 35.3861L80.2865 36.2853L79.4182 35.3861ZM70.3907 47.3493L69.2869 46.7625L70.3907 47.3493ZM65.6717 60.7197L64.4444 60.4828L64.4444 60.4828L65.6717 60.7197ZM65.0889 75.1762L63.8464 75.3133L65.0889 75.1762ZM70.8225 93.2201L71.9158 92.6141L70.8225 93.2201ZM78.3502 103.379L79.2494 102.511L78.3502 103.379ZM94.696 114.501L94.2205 115.657L94.2205 115.657L94.696 114.501ZM117.545 117.913L117.429 116.669L117.545 117.913ZM136.857 113.247C137.461 112.913 137.679 112.152 137.345 111.548C137.011 110.944 136.25 110.726 135.646 111.06L136.857 113.247ZM140.55 111.17C143.69 109.15 146.476 106.635 148.303 104.588L146.437 102.923C144.749 104.815 142.133 107.179 139.197 109.068L140.55 111.17ZM151.174 101.274C152.665 99.4468 154.006 97.536 155.196 95.5582L153.054 94.2694C151.925 96.1457 150.653 97.9587 149.237 99.6926L151.174 101.274ZM155.196 95.5582C157.814 91.2081 159.7 86.5351 160.852 81.7181L158.421 81.1364C157.327 85.7088 155.537 90.1428 153.054 94.2694L155.196 95.5582ZM160.852 81.7181C162.018 76.8467 162.434 71.8278 162.096 66.8457L159.602 67.0146C159.922 71.746 159.528 76.5118 158.421 81.1364L160.852 81.7181ZM162.096 66.8457C161.802 62.4984 160.935 58.1784 159.492 54.0085L157.129 54.826C158.499 58.7843 159.323 62.886 159.602 67.0146L162.096 66.8457ZM159.492 54.0085C158.06 49.8714 156.062 45.8824 153.496 42.1618L151.438 43.581C153.874 47.113 155.77 50.8992 157.129 54.826L159.492 54.0085ZM153.496 42.1618C151.968 39.9447 150.237 37.8235 148.306 35.8234L146.508 37.5601C148.344 39.4613 149.987 41.4763 151.438 43.581L153.496 42.1618ZM148.306 35.8234C145.47 32.8868 142.358 30.3751 139.051 28.2906L137.718 30.4056C140.857 32.3839 143.812 34.7689 146.508 37.5601L148.306 35.8234ZM139.051 28.2906C135.497 26.051 131.719 24.3055 127.816 23.0559L127.054 25.4368C130.759 26.6231 134.345 28.2799 137.718 30.4056L139.051 28.2906ZM127.816 23.0559C122.928 21.491 117.845 20.704 112.761 20.6983L112.758 23.1983C117.586 23.2037 122.413 23.9512 127.054 25.4368L127.816 23.0559ZM112.761 20.6983C108.805 20.6938 104.848 21.1624 100.983 22.1059L101.575 24.5346C105.244 23.639 109.001 23.1941 112.758 23.1983L112.761 20.6983ZM100.983 22.1059C96.6305 23.1682 92.3938 24.8326 88.4045 27.1018L89.6405 29.2749C93.425 27.1222 97.4447 25.5429 101.575 24.5346L100.983 22.1059ZM88.4045 27.1018C84.8975 29.0966 81.5828 31.5581 78.5499 34.487L80.2865 36.2853C83.1677 33.503 86.3139 31.1671 89.6405 29.2749L88.4045 27.1018ZM78.5499 34.487C74.7382 38.1678 71.6491 42.3188 69.2869 46.7625L71.4944 47.936C73.735 43.7211 76.666 39.7816 80.2865 36.2853L78.5499 34.487ZM69.2869 46.7625C66.9744 51.1128 65.3595 55.7417 64.4444 60.4828L66.8991 60.9566C67.7679 56.4556 69.3006 52.0629 71.4944 47.936L69.2869 46.7625ZM64.4444 60.4828C63.5016 65.3672 63.3014 70.3712 63.8464 75.3133L66.3314 75.0392C65.8138 70.3458 66.004 65.594 66.8991 60.9566L64.4444 60.4828ZM63.8464 75.3133C64.5529 81.7189 66.5116 88.0221 69.7293 93.8262L71.9158 92.6141C68.8619 87.1055 67.0022 81.1222 66.3314 75.0392L63.8464 75.3133ZM69.7293 93.8262C71.7883 97.5402 74.362 101.048 77.4511 104.247L79.2494 102.511C76.3134 99.4703 73.8698 96.1387 71.9158 92.6141L69.7293 93.8262ZM77.4511 104.247C82.3555 109.326 88.0839 113.133 94.2205 115.657L95.1715 113.345C89.3481 110.949 83.9097 107.337 79.2494 102.511L77.4511 104.247ZM94.2205 115.657C101.682 118.726 109.744 119.897 117.661 119.158L117.429 116.669C109.91 117.371 102.254 116.258 95.1715 113.345L94.2205 115.657ZM117.661 119.158C124.307 118.537 130.853 116.57 136.857 113.247L135.646 111.06C129.951 114.212 123.739 116.079 117.429 116.669L117.661 119.158Z" fill="#74BA67"/>
<path d="M159.5 13V19" stroke="#89C47F" stroke-width="2.5" stroke-linecap="round" stroke-linejoin="round"/>
<path d="M159.5 27V33" stroke="#89C47F" stroke-width="2.5" stroke-linecap="round" stroke-linejoin="round"/>
<path d="M149.5 23H155.5" stroke="#89C47F" stroke-width="2.5" stroke-linecap="round" stroke-linejoin="round"/>
<path d="M163.5 23H169.5" stroke="#89C47F" stroke-width="2.5" stroke-linecap="round" stroke-linejoin="round"/>
<path d="M76.5 116V120" stroke="#89C47F" stroke-width="2.5" stroke-linecap="round" stroke-linejoin="round"/>
<path d="M76.5 128V132" stroke="#89C47F" stroke-width="2.5" stroke-linecap="round" stroke-linejoin="round"/>
<path d="M68.5 124H72.5" stroke="#89C47F" stroke-width="2.5" stroke-linecap="round" stroke-linejoin="round"/>
<path d="M80.5 124H84.5" stroke="#89C47F" stroke-width="2.5" stroke-linecap="round" stroke-linejoin="round"/>
<path fill-rule="evenodd" clip-rule="evenodd" d="M98.1824 30.701C96.1436 31.4658 94.1521 32.3953 92.2281 33.4896C89.2384 35.1902 86.4118 37.2891 83.8243 39.7877C82.7637 40.812 81.7688 41.8787 80.8397 42.9827M77.9648 46.8266C77.2261 47.943 76.5462 49.0874 75.9253 50.2555C75.4667 51.1181 75.0403 51.9937 74.646 52.8804" fill="white"/>
<path d="M98.6215 31.8713C99.2679 31.6288 99.5953 30.9083 99.3528 30.2619C99.1103 29.6155 98.3897 29.2881 97.7433 29.5306L98.6215 31.8713ZM92.2281 33.4896L92.8462 34.5762L92.2281 33.4896ZM83.8243 39.7877L82.956 38.8886L83.8243 39.7877ZM79.8833 42.1779C79.4388 42.7061 79.5067 43.4946 80.0349 43.9391C80.5631 44.3837 81.3516 44.3158 81.7961 43.7876L79.8833 42.1779ZM79.0073 47.5164C79.3882 46.9407 79.2304 46.1652 78.6547 45.7842C78.0789 45.4032 77.3034 45.5611 76.9224 46.1368L79.0073 47.5164ZM75.9253 50.2555L77.029 50.8422L77.029 50.8422L75.9253 50.2555ZM73.5038 52.3726C73.2234 53.0034 73.5074 53.7421 74.1382 54.0226C74.769 54.3031 75.5077 54.0191 75.7882 53.3882L73.5038 52.3726ZM97.7433 29.5306C95.6434 30.3184 93.592 31.2758 91.6101 32.4031L92.8462 34.5762C94.7122 33.5147 96.6439 32.6132 98.6215 31.8713L97.7433 29.5306ZM91.6101 32.4031C88.5302 34.155 85.6193 36.3166 82.956 38.8886L84.6927 40.6869C87.2042 38.2616 89.9466 36.2255 92.8462 34.5762L91.6101 32.4031ZM82.956 38.8886C81.8644 39.9427 80.8401 41.041 79.8833 42.1779L81.7961 43.7876C82.6976 42.7164 83.6631 41.6812 84.6927 40.6869L82.956 38.8886ZM76.9224 46.1368C76.1615 47.2867 75.4611 48.4655 74.8215 49.6687L77.029 50.8422C77.6313 49.7093 78.2907 48.5993 79.0073 47.5164L76.9224 46.1368ZM74.8215 49.6687C74.3492 50.5574 73.9099 51.4592 73.5038 52.3726L75.7882 53.3882C76.1706 52.5282 76.5842 51.6789 77.029 50.8422L74.8215 49.6687Z" fill="#89C47F"/>
<path d="M93.9802 69.3685C92.5239 68.0567 90.2649 68.1574 88.9346 69.5935C87.6043 71.0295 87.7064 73.2572 89.1627 74.569L105.971 89.7098C108.01 91.5463 111.172 91.4053 113.035 89.3948C113.113 89.3094 113.113 89.3094 113.188 89.2217L137.175 60.7735C138.436 59.2779 138.228 57.0574 136.712 55.8139C135.195 54.5704 132.943 54.7747 131.682 56.2703L109.131 83.0162L93.9802 69.3685Z" fill="#CAE4C5" stroke="#74BA67" stroke-width="2.5"/>
</svg>
