<svg width="128" height="103" viewBox="0 0 128 103" fill="none" xmlns="http://www.w3.org/2000/svg">
<path fill-rule="evenodd" clip-rule="evenodd" d="M47.6165 69.1213H90.1125C92.0918 69.1213 93.6965 67.5167 93.6965 65.5373C93.6965 63.5579 92.0918 61.9533 90.1125 61.9533C90.1125 61.9533 87.0405 60.3486 87.0405 58.3693C87.0405 56.3899 89.0637 54.7853 91.5594 54.7853H96.7685C98.7478 54.7853 100.352 53.1806 100.352 51.2013C100.352 49.2219 98.7478 47.6173 96.7685 47.6173H85.5045C87.4838 47.6173 89.0885 46.0126 89.0885 44.0333C89.0885 42.0539 87.4838 40.4493 85.5045 40.4493H105.984C107.964 40.4493 109.568 38.8446 109.568 36.8653C109.568 34.8859 107.964 33.2812 105.984 33.2812H55.8085C53.8291 33.2812 52.2245 34.8859 52.2245 36.8653C52.2245 38.8446 53.8291 40.4493 55.8085 40.4493H35.3285C33.3491 40.4493 31.7445 42.0539 31.7445 44.0333C31.7445 46.0126 33.3491 47.6173 35.3285 47.6173H48.1285C50.1078 47.6173 51.7125 49.2219 51.7125 51.2013C51.7125 53.1806 50.1078 54.7853 48.1285 54.7853H27.6485C25.6691 54.7853 24.0645 56.3899 24.0645 58.3693C24.0645 60.3486 25.6691 61.9533 27.6485 61.9533H47.6165C45.6371 61.9533 44.0325 63.5579 44.0325 65.5373C44.0325 67.5167 45.6371 69.1213 47.6165 69.1213ZM102.4 51.2012C102.4 53.1806 104.005 54.7852 105.984 54.7852C107.964 54.7852 109.568 53.1806 109.568 51.2012C109.568 49.2218 107.964 47.6172 105.984 47.6172C104.005 47.6172 102.4 49.2218 102.4 51.2012Z" fill="#DFEFDC"/>
<path fill-rule="evenodd" clip-rule="evenodd" d="M60.4771 58.0117C60.4371 58.295 60.4164 58.5844 60.4164 58.8787C60.4164 62.272 63.1671 65.0227 66.5604 65.0227C69.9536 65.0227 72.7044 62.272 72.7044 58.8787C72.7044 58.5844 72.6837 58.295 72.6437 58.0117H87.5524V71.6787C87.5524 72.527 86.8647 73.2147 86.0164 73.2147H47.1044C46.2561 73.2147 45.5684 72.527 45.5684 71.6787V58.0117H60.4771Z" fill="white"/>
<path fill-rule="evenodd" clip-rule="evenodd" d="M73.2164 57.8564C73.2164 61.5324 70.2364 64.5124 66.5604 64.5124C62.8844 64.5124 59.9044 61.5324 59.9044 57.8564C59.9044 57.7373 59.9075 57.6189 59.9137 57.5014H45.5684L50.4633 43.0283C50.6743 42.4043 51.2597 41.9844 51.9183 41.9844L81.2024 41.9844C81.861 41.9844 82.4464 42.4043 82.6574 43.0283L87.5524 57.5014H73.2071C73.2132 57.6189 73.2164 57.7373 73.2164 57.8564Z" fill="white"/>
<path fill-rule="evenodd" clip-rule="evenodd" d="M72.2417 58.3465C72.2417 61.187 69.6978 64.0018 66.5598 64.0018C63.4217 64.0018 60.8778 61.187 60.8778 58.3465C60.8778 58.2545 60.8805 57.651 60.8858 57.5602H50.1758L54.3544 47.4004C54.5345 46.9183 55.0342 46.5938 55.5965 46.5938H77.5231C78.0853 46.5938 78.585 46.9183 78.7652 47.4004L82.9438 57.5602H72.2338C72.2391 57.651 72.2417 58.2545 72.2417 58.3465Z" fill="#CAE4C5"/>
<path d="M52.9687 42.5144H80.1521C81.2112 42.5144 82.1525 43.1897 82.4919 44.193L87.0224 57.5886V69.7044C87.0224 71.0685 85.9165 72.1744 84.5524 72.1744H48.5684C47.2042 72.1744 46.0984 71.0685 46.0984 69.7044V57.5886L50.6289 44.193C50.9682 43.1897 51.9095 42.5144 52.9687 42.5144Z" stroke="#74BA67" stroke-width="1.06" stroke-linejoin="round"/>
<path d="M52.7352 56.8125H53.2652C53.2652 56.5198 53.028 56.2825 52.7352 56.2825V56.8125ZM52.7352 57.8725V58.4025C53.028 58.4025 53.2652 58.1652 53.2652 57.8725H52.7352ZM52.7353 57.8725L52.2053 57.8725C52.2053 58.1652 52.4426 58.4025 52.7353 58.4025V57.8725ZM59.5757 57.9258L59.816 57.4534L59.816 57.4534L59.5757 57.9258ZM59.6398 57.9845L59.1785 58.2454L59.1785 58.2454L59.6398 57.9845ZM73.3735 57.9845L73.8348 58.2454L73.8348 58.2454L73.3735 57.9845ZM73.4376 57.9258L73.1973 57.4534L73.1973 57.4534L73.4376 57.9258ZM72.4507 57.4628L71.9894 57.202L71.9894 57.202L72.4507 57.4628ZM72.262 58.3446L72.792 58.3432L72.792 58.3431L72.262 58.3446ZM60.7513 58.3446L61.2813 58.3461L61.2813 58.3461L60.7513 58.3446ZM60.5626 57.4628L61.0239 57.202L61.0239 57.202L60.5626 57.4628ZM52.7353 56.8125V56.2825C52.4426 56.2825 52.2053 56.5198 52.2053 56.8125L52.7353 56.8125ZM48.9333 56.2834C48.3479 56.2834 47.8733 56.758 47.8733 57.3434H48.9333V56.2834ZM50.1756 56.2834H48.9333V57.3434H50.1756V56.2834ZM51.2356 57.3434C51.2356 56.758 50.761 56.2834 50.1756 56.2834V57.3434H51.2356ZM50.1756 58.4034C50.761 58.4034 51.2356 57.9289 51.2356 57.3434H50.1756V58.4034ZM48.9333 58.4034H50.1756V57.3434H48.9333V58.4034ZM47.8733 57.3434C47.8733 57.9289 48.3479 58.4034 48.9333 58.4034V57.3434H47.8733ZM52.7352 56.2825C52.1498 56.2825 51.6752 56.7571 51.6752 57.3425H52.7352V56.2825ZM53.2652 57.3425V56.8125H52.2052V57.3425H53.2652ZM53.2652 57.8725V57.3425H52.2052V57.8725H53.2652ZM51.6752 57.3425C51.6752 57.9279 52.1498 58.4025 52.7352 58.4025V57.3425H51.6752ZM52.2052 57.3425L52.2053 57.8725L53.2653 57.8725L53.2652 57.3425L52.2052 57.3425ZM52.7353 58.4025H52.7354V57.3425H52.7353V58.4025ZM52.7354 58.4025H52.7356V57.3425H52.7354V58.4025ZM52.7356 58.4025H52.7358V57.3425H52.7356V58.4025ZM52.7358 58.4025H52.7361V57.3425H52.7358V58.4025ZM52.7361 58.4025H52.7365V57.3425H52.7361V58.4025ZM52.7365 58.4025H52.7369V57.3425H52.7365V58.4025ZM52.7369 58.4025H52.7374V57.3425H52.7369V58.4025ZM52.7374 58.4025H52.738V57.3425H52.7374V58.4025ZM52.738 58.4025H52.7387V57.3425H52.738V58.4025ZM52.7387 58.4025H52.7394V57.3425H52.7387V58.4025ZM52.7394 58.4025H52.7402V57.3425H52.7394V58.4025ZM52.7402 58.4025H52.741V57.3425H52.7402V58.4025ZM52.741 58.4025H52.742V57.3425H52.741V58.4025ZM52.742 58.4025H52.743V57.3425H52.742V58.4025ZM52.743 58.4025H52.744V57.3425H52.743V58.4025ZM52.744 58.4025H52.7451V57.3425H52.744V58.4025ZM52.7451 58.4025H52.7463V57.3425H52.7451V58.4025ZM52.7463 58.4025H52.7476V57.3425H52.7463V58.4025ZM52.7476 58.4025H52.7489V57.3425H52.7476V58.4025ZM52.7489 58.4025H52.7503V57.3425H52.7489V58.4025ZM52.7503 58.4025H52.7518V57.3425H52.7503V58.4025ZM52.7518 58.4025H52.7533V57.3425H52.7518V58.4025ZM52.7533 58.4025H52.7549V57.3425H52.7533V58.4025ZM52.7549 58.4025H52.7566V57.3425H52.7549V58.4025ZM52.7566 58.4025H52.7583V57.3425H52.7566V58.4025ZM52.7583 58.4025H52.7601V57.3425H52.7583V58.4025ZM52.7601 58.4025H52.762V57.3425H52.7601V58.4025ZM52.762 58.4025H52.7639V57.3425H52.762V58.4025ZM52.7639 58.4025H52.7659V57.3425H52.7639V58.4025ZM52.7659 58.4025H52.7679V57.3425H52.7659V58.4025ZM52.7679 58.4025H52.77V57.3425H52.7679V58.4025ZM52.77 58.4025H52.7722V57.3425H52.77V58.4025ZM52.7722 58.4025H52.7745V57.3425H52.7722V58.4025ZM52.7745 58.4025H52.7768V57.3425H52.7745V58.4025ZM52.7768 58.4025H52.7792V57.3425H52.7768V58.4025ZM52.7792 58.4025H52.7816V57.3425H52.7792V58.4025ZM52.7816 58.4025H52.7842V57.3425H52.7816V58.4025ZM52.7842 58.4025H52.7867V57.3425H52.7842V58.4025ZM52.7867 58.4025H52.7894V57.3425H52.7867V58.4025ZM52.7894 58.4025H52.7921V57.3425H52.7894V58.4025ZM52.7921 58.4025H52.7949V57.3425H52.7921V58.4025ZM52.7949 58.4025H52.7977V57.3425H52.7949V58.4025ZM52.7977 58.4025H52.8006V57.3425H52.7977V58.4025ZM52.8006 58.4025H52.8036V57.3425H52.8006V58.4025ZM52.8036 58.4025H52.8066V57.3425H52.8036V58.4025ZM52.8066 58.4025H52.8097V57.3425H52.8066V58.4025ZM52.8097 58.4025H52.8129V57.3425H52.8097V58.4025ZM52.8129 58.4025H52.8161V57.3425H52.8129V58.4025ZM52.8161 58.4025H52.8194V57.3425H52.8161V58.4025ZM52.8194 58.4025H52.8227V57.3425H52.8194V58.4025ZM52.8227 58.4025H52.8261V57.3425H52.8227V58.4025ZM52.8261 58.4025H52.8296V57.3425H52.8261V58.4025ZM52.8296 58.4025H52.8331V57.3425H52.8296V58.4025ZM52.8331 58.4025H52.8367V57.3425H52.8331V58.4025ZM52.8367 58.4025H52.8404V57.3425H52.8367V58.4025ZM52.8404 58.4025H52.8441V57.3425H52.8404V58.4025ZM52.8441 58.4025H52.8479V57.3425H52.8441V58.4025ZM52.8479 58.4025H52.8518V57.3425H52.8479V58.4025ZM52.8518 58.4025H52.8557V57.3425H52.8518V58.4025ZM52.8557 58.4025H52.8597V57.3425H52.8557V58.4025ZM52.8597 58.4025H52.8637V57.3425H52.8597V58.4025ZM52.8637 58.4025H52.8678V57.3425H52.8637V58.4025ZM52.8678 58.4025H52.872V57.3425H52.8678V58.4025ZM52.872 58.4025H52.8762V57.3425H52.872V58.4025ZM52.8762 58.4025H52.8805V57.3425H52.8762V58.4025ZM52.8805 58.4025H52.8849V57.3425H52.8805V58.4025ZM52.8849 58.4025H52.8893V57.3425H52.8849V58.4025ZM52.8893 58.4025H52.8937V57.3425H52.8893V58.4025ZM52.8937 58.4025H52.8983V57.3425H52.8937V58.4025ZM52.8983 58.4025H52.9029V57.3425H52.8983V58.4025ZM52.9029 58.4025H52.9075V57.3425H52.9029V58.4025ZM52.9075 58.4025H52.9122V57.3425H52.9075V58.4025ZM52.9122 58.4025H52.917V57.3425H52.9122V58.4025ZM52.917 58.4025H52.9219V57.3425H52.917V58.4025ZM52.9219 58.4025H52.9268V57.3425H52.9219V58.4025ZM52.9268 58.4025H52.9317V57.3425H52.9268V58.4025ZM52.9317 58.4025H52.9367V57.3425H52.9317V58.4025ZM52.9367 58.4025H52.9418V57.3425H52.9367V58.4025ZM52.9418 58.4025H52.947V57.3425H52.9418V58.4025ZM52.947 58.4025H52.9522V57.3425H52.947V58.4025ZM52.9522 58.4025H52.9574V57.3425H52.9522V58.4025ZM52.9574 58.4025H52.9628V57.3425H52.9574V58.4025ZM52.9628 58.4025H52.9681V57.3425H52.9628V58.4025ZM52.9681 58.4025H52.9736V57.3425H52.9681V58.4025ZM52.9736 58.4025H52.9791V57.3425H52.9736V58.4025ZM52.9791 58.4025H52.9846V57.3425H52.9791V58.4025ZM52.9846 58.4025H52.9903V57.3425H52.9846V58.4025ZM52.9903 58.4025H52.9959V57.3425H52.9903V58.4025ZM52.9959 58.4025H53.0017V57.3425H52.9959V58.4025ZM53.0017 58.4025H53.0075V57.3425H53.0017V58.4025ZM53.0075 58.4025H53.0133V57.3425H53.0075V58.4025ZM53.0133 58.4025H53.0192V57.3425H53.0133V58.4025ZM53.0192 58.4025H53.0252V57.3425H53.0192V58.4025ZM53.0252 58.4025H53.0312V57.3425H53.0252V58.4025ZM53.0312 58.4025H53.0373V57.3425H53.0312V58.4025ZM53.0373 58.4025H53.0435V57.3425H53.0373V58.4025ZM53.0435 58.4025H53.0497V57.3425H53.0435V58.4025ZM53.0497 58.4025H53.0559V57.3425H53.0497V58.4025ZM53.0559 58.4025H53.0623V57.3425H53.0559V58.4025ZM53.0623 58.4025H53.0687V57.3425H53.0623V58.4025ZM53.0687 58.4025H53.0751V57.3425H53.0687V58.4025ZM53.0751 58.4025H53.0816V57.3425H53.0751V58.4025ZM53.0816 58.4025H53.0881V57.3425H53.0816V58.4025ZM53.0881 58.4025H53.0947V57.3425H53.0881V58.4025ZM53.0947 58.4025H53.1014V57.3425H53.0947V58.4025ZM53.1014 58.4025H53.1081V57.3425H53.1014V58.4025ZM53.1081 58.4025H53.1149V57.3425H53.1081V58.4025ZM53.1149 58.4025H53.1218V57.3425H53.1149V58.4025ZM53.1218 58.4025H53.1287V57.3425H53.1218V58.4025ZM53.1287 58.4025H53.1356V57.3425H53.1287V58.4025ZM53.1356 58.4025H53.1426V57.3425H53.1356V58.4025ZM53.1426 58.4025H53.1497V57.3425H53.1426V58.4025ZM53.1497 58.4025H53.1568V57.3425H53.1497V58.4025ZM53.1568 58.4025H53.164V57.3425H53.1568V58.4025ZM53.164 58.4025H53.1712V57.3425H53.164V58.4025ZM53.1712 58.4025H53.1785V57.3425H53.1712V58.4025ZM53.1785 58.4025H53.1858V57.3425H53.1785V58.4025ZM53.1858 58.4025H53.1932V57.3425H53.1858V58.4025ZM53.1932 58.4025H53.2007V57.3425H53.1932V58.4025ZM53.2007 58.4025H53.2082V57.3425H53.2007V58.4025ZM53.2082 58.4025H53.2158V57.3425H53.2082V58.4025ZM53.2158 58.4025H53.2234V57.3425H53.2158V58.4025ZM53.2234 58.4025H53.2311V57.3425H53.2234V58.4025ZM53.2311 58.4025H53.2388V57.3425H53.2311V58.4025ZM53.2388 58.4025H53.2466V57.3425H53.2388V58.4025ZM53.2466 58.4025H53.2545V57.3425H53.2466V58.4025ZM53.2545 58.4025H53.2624V57.3425H53.2545V58.4025ZM53.2624 58.4025H53.2703V57.3425H53.2624V58.4025ZM53.2703 58.4025H53.2783V57.3425H53.2703V58.4025ZM53.2783 58.4025H53.2864V57.3425H53.2783V58.4025ZM53.2864 58.4025H53.2945V57.3425H53.2864V58.4025ZM53.2945 58.4025H53.3027V57.3425H53.2945V58.4025ZM53.3027 58.4025H53.3109V57.3425H53.3027V58.4025ZM53.3109 58.4025H53.3192V57.3425H53.3109V58.4025ZM53.3192 58.4025H53.3275V57.3425H53.3192V58.4025ZM53.3275 58.4025H53.3359V57.3425H53.3275V58.4025ZM53.3359 58.4025H53.3443V57.3425H53.3359V58.4025ZM53.3443 58.4025H53.3528V57.3425H53.3443V58.4025ZM53.3528 58.4025H53.3614V57.3425H53.3528V58.4025ZM53.3614 58.4025H53.37V57.3425H53.3614V58.4025ZM53.37 58.4025H53.3786V57.3425H53.37V58.4025ZM53.3786 58.4025H53.3873V57.3425H53.3786V58.4025ZM53.3873 58.4025H53.3961V57.3425H53.3873V58.4025ZM53.3961 58.4025H53.4049V57.3425H53.3961V58.4025ZM53.4049 58.4025H53.4138V57.3425H53.4049V58.4025ZM53.4138 58.4025H53.4227V57.3425H53.4138V58.4025ZM53.4227 58.4025H53.4316V57.3425H53.4227V58.4025ZM53.4316 58.4025H53.4407V57.3425H53.4316V58.4025ZM53.4407 58.4025H53.4497V57.3425H53.4407V58.4025ZM53.4497 58.4025H53.4589V57.3425H53.4497V58.4025ZM53.4589 58.4025H53.468V57.3425H53.4589V58.4025ZM53.468 58.4025H53.4773V57.3425H53.468V58.4025ZM53.4773 58.4025H53.4865V57.3425H53.4773V58.4025ZM53.4865 58.4025H53.4959V57.3425H53.4865V58.4025ZM53.4959 58.4025H53.5053V57.3425H53.4959V58.4025ZM53.5053 58.4025H53.5147V57.3425H53.5053V58.4025ZM53.5147 58.4025H53.5242V57.3425H53.5147V58.4025ZM53.5242 58.4025H53.5337V57.3425H53.5242V58.4025ZM53.5337 58.4025H53.5433V57.3425H53.5337V58.4025ZM53.5433 58.4025H53.553V57.3425H53.5433V58.4025ZM53.553 58.4025H53.5627V57.3425H53.553V58.4025ZM53.5627 58.4025H53.5724V57.3425H53.5627V58.4025ZM53.5724 58.4025H53.5822V57.3425H53.5724V58.4025ZM53.5822 58.4025H53.592V57.3425H53.5822V58.4025ZM53.592 58.4025H53.6019V57.3425H53.592V58.4025ZM53.6019 58.4025H53.6119V57.3425H53.6019V58.4025ZM53.6119 58.4025H53.6219V57.3425H53.6119V58.4025ZM53.6219 58.4025H53.6319V57.3425H53.6219V58.4025ZM53.6319 58.4025H53.642V57.3425H53.6319V58.4025ZM53.642 58.4025H53.6522V57.3425H53.642V58.4025ZM53.6522 58.4025H53.6623V57.3425H53.6522V58.4025ZM53.6623 58.4025H53.6726V57.3425H53.6623V58.4025ZM53.6726 58.4025H53.6829V57.3425H53.6726V58.4025ZM53.6829 58.4025H53.6932V57.3425H53.6829V58.4025ZM53.6932 58.4025H53.7036V57.3425H53.6932V58.4025ZM53.7036 58.4025H53.7141V57.3425H53.7036V58.4025ZM53.7141 58.4025H53.7246V57.3425H53.7141V58.4025ZM53.7246 58.4025H53.7351V57.3425H53.7246V58.4025ZM53.7351 58.4025H53.7457V57.3425H53.7351V58.4025ZM53.7457 58.4025H53.7563V57.3425H53.7457V58.4025ZM53.7563 58.4025H53.767V57.3425H53.7563V58.4025ZM53.767 58.4025H53.7777V57.3425H53.767V58.4025ZM53.7777 58.4025H53.7885V57.3425H53.7777V58.4025ZM53.7885 58.4025H53.7994V57.3425H53.7885V58.4025ZM53.7994 58.4025H53.8102V57.3425H53.7994V58.4025ZM53.8102 58.4025H53.8212V57.3425H53.8102V58.4025ZM53.8212 58.4025H53.8321V57.3425H53.8212V58.4025ZM53.8321 58.4025H53.8432V57.3425H53.8321V58.4025ZM53.8432 58.4025H53.8542V57.3425H53.8432V58.4025ZM53.8542 58.4025H53.8653V57.3425H53.8542V58.4025ZM53.8653 58.4025H53.8765V57.3425H53.8653V58.4025ZM53.8765 58.4025H53.8877V57.3425H53.8765V58.4025ZM53.8877 58.4025H53.899V57.3425H53.8877V58.4025ZM53.899 58.4025H53.9103V57.3425H53.899V58.4025ZM53.9103 58.4025H53.9216V57.3425H53.9103V58.4025ZM53.9216 58.4025H53.933V57.3425H53.9216V58.4025ZM53.933 58.4025H53.9445V57.3425H53.933V58.4025ZM53.9445 58.4025H53.956V57.3425H53.9445V58.4025ZM53.956 58.4025H53.9675V57.3425H53.956V58.4025ZM53.9675 58.4025H53.9791V57.3425H53.9675V58.4025ZM53.9791 58.4025H53.9908V57.3425H53.9791V58.4025ZM53.9908 58.4025H54.0024V57.3425H53.9908V58.4025ZM54.0024 58.4025H54.0142V57.3425H54.0024V58.4025ZM54.0142 58.4025H54.0259V57.3425H54.0142V58.4025ZM54.0259 58.4025H54.0378V57.3425H54.0259V58.4025ZM54.0378 58.4025H54.0496V57.3425H54.0378V58.4025ZM54.0496 58.4025H54.0615V57.3425H54.0496V58.4025ZM54.0615 58.4025H54.0735V57.3425H54.0615V58.4025ZM54.0735 58.4025H54.0855V57.3425H54.0735V58.4025ZM54.0855 58.4025H54.0975V57.3425H54.0855V58.4025ZM54.0975 58.4025H54.1096V57.3425H54.0975V58.4025ZM54.1096 58.4025H54.1218V57.3425H54.1096V58.4025ZM54.1218 58.4025H54.1339V57.3425H54.1218V58.4025ZM54.1339 58.4025H54.1462V57.3425H54.1339V58.4025ZM54.1462 58.4025H54.1584V57.3425H54.1462V58.4025ZM54.1584 58.4025H54.1707V57.3425H54.1584V58.4025ZM54.1707 58.4025H54.1831V57.3425H54.1707V58.4025ZM54.1831 58.4025H54.1955V57.3425H54.1831V58.4025ZM54.1955 58.4025H54.208V57.3425H54.1955V58.4025ZM54.208 58.4025H54.2205V57.3425H54.208V58.4025ZM54.2205 58.4025H54.233V57.3425H54.2205V58.4025ZM54.233 58.4025H54.2456V57.3425H54.233V58.4025ZM54.2456 58.4025H54.2582V57.3425H54.2456V58.4025ZM54.2582 58.4025H54.2709V57.3425H54.2582V58.4025ZM54.2709 58.4025H54.2836V57.3425H54.2709V58.4025ZM54.2836 58.4025H54.2963V57.3425H54.2836V58.4025ZM54.2963 58.4025H54.3091V57.3425H54.2963V58.4025ZM54.3091 58.4025H54.322V57.3425H54.3091V58.4025ZM54.322 58.4025H54.3349V57.3425H54.322V58.4025ZM54.3349 58.4025H54.3478V57.3425H54.3349V58.4025ZM54.3478 58.4025H54.3608V57.3425H54.3478V58.4025ZM54.3608 58.4025H54.3738V57.3425H54.3608V58.4025ZM54.3738 58.4025H54.3868V57.3425H54.3738V58.4025ZM54.3868 58.4025H54.3999V57.3425H54.3868V58.4025ZM54.3999 58.4025H54.4131V57.3425H54.3999V58.4025ZM54.4131 58.4025H54.4263V57.3425H54.4131V58.4025ZM54.4263 58.4025H54.4395V57.3425H54.4263V58.4025ZM54.4395 58.4025H54.4527V57.3425H54.4395V58.4025ZM54.4527 58.4025H54.4661V57.3425H54.4527V58.4025ZM54.4661 58.4025H54.4794V57.3425H54.4661V58.4025ZM54.4794 58.4025H54.4928V57.3425H54.4794V58.4025ZM54.4928 58.4025H54.5062V57.3425H54.4928V58.4025ZM54.5062 58.4025H54.5197V57.3425H54.5062V58.4025ZM54.5197 58.4025H54.5332V57.3425H54.5197V58.4025ZM54.5332 58.4025H54.5468V57.3425H54.5332V58.4025ZM54.5468 58.4025H54.5604V57.3425H54.5468V58.4025ZM54.5604 58.4025H54.574V57.3425H54.5604V58.4025ZM54.574 58.4025H54.5877V57.3425H54.574V58.4025ZM54.5877 58.4025H54.6015V57.3425H54.5877V58.4025ZM54.6015 58.4025H54.6152V57.3425H54.6015V58.4025ZM54.6152 58.4025H54.629V57.3425H54.6152V58.4025ZM54.629 58.4025H54.6429V57.3425H54.629V58.4025ZM54.6429 58.4025H54.6568V57.3425H54.6429V58.4025ZM54.6568 58.4025H54.6707V57.3425H54.6568V58.4025ZM54.6707 58.4025H54.6846V57.3425H54.6707V58.4025ZM54.6846 58.4025H54.6987V57.3425H54.6846V58.4025ZM54.6987 58.4025H54.7127V57.3425H54.6987V58.4025ZM54.7127 58.4025H54.7268V57.3425H54.7127V58.4025ZM54.7268 58.4025H54.7409V57.3425H54.7268V58.4025ZM54.7409 58.4025H54.7551V57.3425H54.7409V58.4025ZM54.7551 58.4025H54.7693V57.3425H54.7551V58.4025ZM54.7693 58.4025H54.7835V57.3425H54.7693V58.4025ZM54.7835 58.4025H54.7978V57.3425H54.7835V58.4025ZM54.7978 58.4025H54.8121V57.3425H54.7978V58.4025ZM54.8121 58.4025H54.8265V57.3425H54.8121V58.4025ZM54.8265 58.4025H54.8409V57.3425H54.8265V58.4025ZM54.8409 58.4025H54.8553V57.3425H54.8409V58.4025ZM54.8553 58.4025H54.8698V57.3425H54.8553V58.4025ZM54.8698 58.4025H54.8843V57.3425H54.8698V58.4025ZM54.8843 58.4025H54.8989V57.3425H54.8843V58.4025ZM54.8989 58.4025H54.9135V57.3425H54.8989V58.4025ZM54.9135 58.4025H54.9281V57.3425H54.9135V58.4025ZM54.9281 58.4025H54.9428V57.3425H54.9281V58.4025ZM54.9428 58.4025H54.9575V57.3425H54.9428V58.4025ZM54.9575 58.4025H54.9723V57.3425H54.9575V58.4025ZM54.9723 58.4025H54.987V57.3425H54.9723V58.4025ZM54.987 58.4025H55.0019V57.3425H54.987V58.4025ZM55.0019 58.4025H55.0167V57.3425H55.0019V58.4025ZM55.0167 58.4025H55.0316V57.3425H55.0167V58.4025ZM55.0316 58.4025H55.0466V57.3425H55.0316V58.4025ZM55.0466 58.4025H55.0615V57.3425H55.0466V58.4025ZM55.0615 58.4025H55.0765V57.3425H55.0615V58.4025ZM55.0765 58.4025H55.0916V57.3425H55.0765V58.4025ZM55.0916 58.4025H55.1067V57.3425H55.0916V58.4025ZM55.1067 58.4025H55.1218V57.3425H55.1067V58.4025ZM55.1218 58.4025H55.1369V57.3425H55.1218V58.4025ZM55.1369 58.4025H55.1521V57.3425H55.1369V58.4025ZM55.1521 58.4025H55.1674V57.3425H55.1521V58.4025ZM55.1674 58.4025H55.1826V57.3425H55.1674V58.4025ZM55.1826 58.4025H55.1979V57.3425H55.1826V58.4025ZM55.1979 58.4025H55.2133V57.3425H55.1979V58.4025ZM55.2133 58.4025H55.2287V57.3425H55.2133V58.4025ZM55.2287 58.4025H55.2441V57.3425H55.2287V58.4025ZM55.2441 58.4025H55.2595V57.3425H55.2441V58.4025ZM55.2595 58.4025H55.275V57.3425H55.2595V58.4025ZM55.275 58.4025H55.2905V57.3425H55.275V58.4025ZM55.2905 58.4025H55.3061V57.3425H55.2905V58.4025ZM55.3061 58.4025H55.3216V57.3425H55.3061V58.4025ZM55.3216 58.4025H55.3373V57.3425H55.3216V58.4025ZM55.3373 58.4025H55.3529V57.3425H55.3373V58.4025ZM55.3529 58.4025H55.3686V57.3425H55.3529V58.4025ZM55.3686 58.4025H55.3844V57.3425H55.3686V58.4025ZM55.3844 58.4025H55.4001V57.3425H55.3844V58.4025ZM55.4001 58.4025H55.4159V57.3425H55.4001V58.4025ZM55.4159 58.4025H55.4317V57.3425H55.4159V58.4025ZM55.4317 58.4025H55.4476V57.3425H55.4317V58.4025ZM55.4476 58.4025H55.4635V57.3425H55.4476V58.4025ZM55.4635 58.4025H55.4794V57.3425H55.4635V58.4025ZM55.4794 58.4025H55.4954V57.3425H55.4794V58.4025ZM55.4954 58.4025H55.5114V57.3425H55.4954V58.4025ZM55.5114 58.4025H55.5275V57.3425H55.5114V58.4025ZM55.5275 58.4025H55.5435V57.3425H55.5275V58.4025ZM55.5435 58.4025H55.5596V57.3425H55.5435V58.4025ZM55.5596 58.4025H55.5758V57.3425H55.5596V58.4025ZM55.5758 58.4025H55.5919V57.3425H55.5758V58.4025ZM55.5919 58.4025H55.6081V57.3425H55.5919V58.4025ZM55.6081 58.4025H55.6244V57.3425H55.6081V58.4025ZM55.6244 58.4025H55.6406V57.3425H55.6244V58.4025ZM55.6406 58.4025H55.6569V57.3425H55.6406V58.4025ZM55.6569 58.4025H55.6733V57.3425H55.6569V58.4025ZM55.6733 58.4025H55.6897V57.3425H55.6733V58.4025ZM55.6897 58.4025H55.7061V57.3425H55.6897V58.4025ZM55.7061 58.4025H55.7225V57.3425H55.7061V58.4025ZM55.7225 58.4025H55.739V57.3425H55.7225V58.4025ZM55.739 58.4025H55.7555V57.3425H55.739V58.4025ZM55.7555 58.4025H55.772V57.3425H55.7555V58.4025ZM55.772 58.4025H55.7885V57.3425H55.772V58.4025ZM55.7885 58.4025H55.8051V57.3425H55.7885V58.4025ZM55.8051 58.4025H55.8218V57.3425H55.8051V58.4025ZM55.8218 58.4025H55.8384V57.3425H55.8218V58.4025ZM55.8384 58.4025H55.8551V57.3425H55.8384V58.4025ZM55.8551 58.4025H55.8718V57.3425H55.8551V58.4025ZM55.8718 58.4025H55.8886V57.3425H55.8718V58.4025ZM55.8886 58.4025H55.9054V57.3425H55.8886V58.4025ZM55.9054 58.4025H55.9222V57.3425H55.9054V58.4025ZM55.9222 58.4025H55.939V57.3425H55.9222V58.4025ZM55.939 58.4025H55.9559V57.3425H55.939V58.4025ZM55.9559 58.4025H55.9728V57.3425H55.9559V58.4025ZM55.9728 58.4025H55.9897V57.3425H55.9728V58.4025ZM55.9897 58.4025H56.0067V57.3425H55.9897V58.4025ZM56.0067 58.4025H56.0237V57.3425H56.0067V58.4025ZM56.0237 58.4025H56.0407V57.3425H56.0237V58.4025ZM56.0407 58.4025H56.0578V57.3425H56.0407V58.4025ZM56.0578 58.4025H56.0749V57.3425H56.0578V58.4025ZM56.0749 58.4025H56.092V57.3425H56.0749V58.4025ZM56.092 58.4025H56.1092V57.3425H56.092V58.4025ZM56.1092 58.4025H56.1263V57.3425H56.1092V58.4025ZM56.1263 58.4025H56.1435V57.3425H56.1263V58.4025ZM56.1435 58.4025H56.1608V57.3425H56.1435V58.4025ZM56.1608 58.4025H56.178V57.3425H56.1608V58.4025ZM56.178 58.4025H56.1953V57.3425H56.178V58.4025ZM56.1953 58.4025H56.2127V57.3425H56.1953V58.4025ZM56.2127 58.4025H56.23V57.3425H56.2127V58.4025ZM56.23 58.4025H56.2474V57.3425H56.23V58.4025ZM56.2474 58.4025H56.2648V57.3425H56.2474V58.4025ZM56.2648 58.4025H56.2823V57.3425H56.2648V58.4025ZM56.2823 58.4025H56.2997V57.3425H56.2823V58.4025ZM56.2997 58.4025H56.3172V57.3425H56.2997V58.4025ZM56.3172 58.4025H56.3348V57.3425H56.3172V58.4025ZM56.3348 58.4025H56.3523V57.3425H56.3348V58.4025ZM56.3523 58.4025H56.3699V57.3425H56.3523V58.4025ZM56.3699 58.4025H56.3875V57.3425H56.3699V58.4025ZM56.3875 58.4025H56.4051V57.3425H56.3875V58.4025ZM56.4051 58.4025H56.4228V57.3425H56.4051V58.4025ZM56.4228 58.4025H56.4405V57.3425H56.4228V58.4025ZM56.4405 58.4025H56.4582V57.3425H56.4405V58.4025ZM56.4582 58.4025H56.476V57.3425H56.4582V58.4025ZM56.476 58.4025H56.4937V57.3425H56.476V58.4025ZM56.4937 58.4025H56.5115V57.3425H56.4937V58.4025ZM56.5115 58.4025H56.5294V57.3425H56.5115V58.4025ZM56.5294 58.4025H56.5472V57.3425H56.5294V58.4025ZM56.5472 58.4025H56.5651V57.3425H56.5472V58.4025ZM56.5651 58.4025H56.583V57.3425H56.5651V58.4025ZM56.583 58.4025H56.601V57.3425H56.583V58.4025ZM56.601 58.4025H56.6189V57.3425H56.601V58.4025ZM56.6189 58.4025H56.6369V57.3425H56.6189V58.4025ZM56.6369 58.4025H56.6549V57.3425H56.6369V58.4025ZM56.6549 58.4025H56.673V57.3425H56.6549V58.4025ZM56.673 58.4025H56.6911V57.3425H56.673V58.4025ZM56.6911 58.4025H56.7092V57.3425H56.6911V58.4025ZM56.7092 58.4025H56.7273V57.3425H56.7092V58.4025ZM56.7273 58.4025H56.7454V57.3425H56.7273V58.4025ZM56.7454 58.4025H56.7636V57.3425H56.7454V58.4025ZM56.7636 58.4025H56.7818V57.3425H56.7636V58.4025ZM56.7818 58.4025H56.8V57.3425H56.7818V58.4025ZM56.8 58.4025H56.8183V57.3425H56.8V58.4025ZM56.8183 58.4025H56.8365V57.3425H56.8183V58.4025ZM56.8365 58.4025H56.8548V57.3425H56.8365V58.4025ZM56.8548 58.4025H56.8732V57.3425H56.8548V58.4025ZM56.8732 58.4025H56.8915V57.3425H56.8732V58.4025ZM56.8915 58.4025H56.9099V57.3425H56.8915V58.4025ZM56.9099 58.4025H56.9283V57.3425H56.9099V58.4025ZM56.9283 58.4025H56.9467V57.3425H56.9283V58.4025ZM56.9467 58.4025H56.9652V57.3425H56.9467V58.4025ZM56.9652 58.4025H56.9836V57.3425H56.9652V58.4025ZM56.9836 58.4025H57.0021V57.3425H56.9836V58.4025ZM57.0021 58.4025H57.0206V57.3425H57.0021V58.4025ZM57.0206 58.4025H57.0392V57.3425H57.0206V58.4025ZM57.0392 58.4025H57.0577V57.3425H57.0392V58.4025ZM57.0577 58.4025H57.0763V57.3425H57.0577V58.4025ZM57.0763 58.4025H57.095V57.3425H57.0763V58.4025ZM57.095 58.4025H57.1136V57.3425H57.095V58.4025ZM57.1136 58.4025H57.1323V57.3425H57.1136V58.4025ZM57.1323 58.4025H57.1509V57.3425H57.1323V58.4025ZM57.1509 58.4025H57.1696V57.3425H57.1509V58.4025ZM57.1696 58.4025H57.1884V57.3425H57.1696V58.4025ZM57.1884 58.4025H57.2071V57.3425H57.1884V58.4025ZM57.2071 58.4025H57.2259V57.3425H57.2071V58.4025ZM57.2259 58.4025H57.2447V57.3425H57.2259V58.4025ZM57.2447 58.4025H57.2635V57.3425H57.2447V58.4025ZM57.2635 58.4025H57.2824V57.3425H57.2635V58.4025ZM57.2824 58.4025H57.3012V57.3425H57.2824V58.4025ZM57.3012 58.4025H57.3201V57.3425H57.3012V58.4025ZM57.3201 58.4025H57.339V57.3425H57.3201V58.4025ZM57.339 58.4025H57.358V57.3425H57.339V58.4025ZM57.358 58.4025H57.3769V57.3425H57.358V58.4025ZM57.3769 58.4025H57.3959V57.3425H57.3769V58.4025ZM57.3959 58.4025H57.4149V57.3425H57.3959V58.4025ZM57.4149 58.4025H57.4339V57.3425H57.4149V58.4025ZM57.4339 58.4025H57.453V57.3425H57.4339V58.4025ZM57.453 58.4025H57.472V57.3425H57.453V58.4025ZM57.472 58.4025H57.4911V57.3425H57.472V58.4025ZM57.4911 58.4025H57.5102V57.3425H57.4911V58.4025ZM57.5102 58.4025H57.5293V57.3425H57.5102V58.4025ZM57.5293 58.4025H57.5485V57.3425H57.5293V58.4025ZM57.5485 58.4025H57.5677V57.3425H57.5485V58.4025ZM57.5677 58.4025H57.5868V57.3425H57.5677V58.4025ZM57.5868 58.4025H57.6061V57.3425H57.5868V58.4025ZM57.6061 58.4025H57.6253V57.3425H57.6061V58.4025ZM57.6253 58.4025H57.6445V57.3425H57.6253V58.4025ZM57.6445 58.4025H57.6638V57.3425H57.6445V58.4025ZM57.6638 58.4025H57.6831V57.3425H57.6638V58.4025ZM57.6831 58.4025H57.7024V57.3425H57.6831V58.4025ZM57.7024 58.4025H57.7217V57.3425H57.7024V58.4025ZM57.7217 58.4025H57.7411V57.3425H57.7217V58.4025ZM57.7411 58.4025H57.7604V57.3425H57.7411V58.4025ZM57.7604 58.4025H57.7798V57.3425H57.7604V58.4025ZM57.7798 58.4025H57.7992V57.3425H57.7798V58.4025ZM57.7992 58.4025H57.8187V57.3425H57.7992V58.4025ZM57.8187 58.4025H57.8381V57.3425H57.8187V58.4025ZM57.8381 58.4025H57.8576V57.3425H57.8381V58.4025ZM57.8576 58.4025H57.8771V57.3425H57.8576V58.4025ZM57.8771 58.4025H57.8966V57.3425H57.8771V58.4025ZM57.8966 58.4025H57.9161V57.3425H57.8966V58.4025ZM57.9161 58.4025H57.9356V57.3425H57.9161V58.4025ZM57.9356 58.4025H57.9552V57.3425H57.9356V58.4025ZM57.9552 58.4025H57.9748V57.3425H57.9552V58.4025ZM57.9748 58.4025H57.9944V57.3425H57.9748V58.4025ZM57.9944 58.4025H58.014V57.3425H57.9944V58.4025ZM58.014 58.4025H58.0336V57.3425H58.014V58.4025ZM58.0336 58.4025H58.0532V57.3425H58.0336V58.4025ZM58.0532 58.4025H58.0729V57.3425H58.0532V58.4025ZM58.0729 58.4025H58.0926V57.3425H58.0729V58.4025ZM58.0926 58.4025H58.1123V57.3425H58.0926V58.4025ZM58.1123 58.4025H58.132V57.3425H58.1123V58.4025ZM58.132 58.4025H58.1518V57.3425H58.132V58.4025ZM58.1518 58.4025H58.1715V57.3425H58.1518V58.4025ZM58.1715 58.4025H58.1913V57.3425H58.1715V58.4025ZM58.1913 58.4025H58.2111V57.3425H58.1913V58.4025ZM58.2111 58.4025H58.2309V57.3425H58.2111V58.4025ZM58.2309 58.4025H58.2507V57.3425H58.2309V58.4025ZM58.2507 58.4025H58.2705V57.3425H58.2507V58.4025ZM58.2705 58.4025H58.2904V57.3425H58.2705V58.4025ZM58.2904 58.4025H58.3103V57.3425H58.2904V58.4025ZM58.3103 58.4025H58.3301V57.3425H58.3103V58.4025ZM58.3301 58.4025H58.3501V57.3425H58.3301V58.4025ZM58.3501 58.4025H58.37V57.3425H58.3501V58.4025ZM58.37 58.4025H58.3899V57.3425H58.37V58.4025ZM58.3899 58.4025H58.4099V57.3425H58.3899V58.4025ZM58.4099 58.4025H58.4298V57.3425H58.4099V58.4025ZM58.4298 58.4025H58.4498V57.3425H58.4298V58.4025ZM58.4498 58.4025H58.4698V57.3425H58.4498V58.4025ZM58.4698 58.4025H58.4898V57.3425H58.4698V58.4025ZM58.4898 58.4025H58.5099V57.3425H58.4898V58.4025ZM58.5099 58.4025H58.5299V57.3425H58.5099V58.4025ZM58.5299 58.4025H58.55V57.3425H58.5299V58.4025ZM58.55 58.4025H58.57V57.3425H58.55V58.4025ZM58.57 58.4025H58.5901V57.3425H58.57V58.4025ZM58.5901 58.4025H58.6102V57.3425H58.5901V58.4025ZM58.6102 58.4025H58.6303V57.3425H58.6102V58.4025ZM58.6303 58.4025H58.6505V57.3425H58.6303V58.4025ZM58.6505 58.4025H58.6706V57.3425H58.6505V58.4025ZM58.6706 58.4025H58.6908V57.3425H58.6706V58.4025ZM58.6908 58.4025H58.711V57.3425H58.6908V58.4025ZM58.711 58.4025H58.7312V57.3425H58.711V58.4025ZM58.7312 58.4025H58.7514V57.3425H58.7312V58.4025ZM58.7514 58.4025H58.7716V57.3425H58.7514V58.4025ZM58.7716 58.4025H58.7918V57.3425H58.7716V58.4025ZM58.7918 58.4025H58.812V57.3425H58.7918V58.4025ZM58.812 58.4025H58.8323V57.3425H58.812V58.4025ZM58.8323 58.4025H58.8526V57.3425H58.8323V58.4025ZM58.8526 58.4025H58.8729V57.3425H58.8526V58.4025ZM58.8729 58.4025H58.8932V57.3425H58.8729V58.4025ZM58.8932 58.4025H58.9135V57.3425H58.8932V58.4025ZM58.9135 58.4025H58.9338V57.3425H58.9135V58.4025ZM58.9338 58.4025H58.9541V57.3425H58.9338V58.4025ZM58.9541 58.4025H58.9745V57.3425H58.9541V58.4025ZM58.9745 58.4025H58.9948V57.3425H58.9745V58.4025ZM58.9948 58.4025H59.0152V57.3425H58.9948V58.4025ZM59.0152 58.4025H59.0356V57.3425H59.0152V58.4025ZM59.0356 58.4025H59.056V57.3425H59.0356V58.4025ZM59.056 58.4025H59.0764V57.3425H59.056V58.4025ZM59.0764 58.4025H59.0968V57.3425H59.0764V58.4025ZM59.0968 58.4025H59.1173V57.3425H59.0968V58.4025ZM59.1173 58.4025H59.1377V57.3425H59.1173V58.4025ZM59.1377 58.4025H59.1582V57.3425H59.1377V58.4025ZM59.1582 58.4025H59.1786V57.3425H59.1582V58.4025ZM59.1786 58.4025H59.1991V57.3425H59.1786V58.4025ZM59.1991 58.4025H59.2196V57.3425H59.1991V58.4025ZM59.2196 58.4025H59.2401V57.3425H59.2196V58.4025ZM59.2401 58.4025H59.2606V57.3425H59.2401V58.4025ZM59.2606 58.4025C59.3799 58.4025 59.3855 58.4237 59.3353 58.3982L59.816 57.4534C59.6811 57.3848 59.5011 57.3425 59.2606 57.3425V58.4025ZM59.3353 58.3982C59.3155 58.3881 59.2825 58.3682 59.2475 58.3342C59.2113 58.299 59.1893 58.2646 59.1785 58.2454L60.1012 57.7237C60.0408 57.6168 59.9504 57.5218 59.816 57.4534L59.3353 58.3982ZM59.1785 58.2454C59.1508 58.1965 59.1514 58.166 59.155 58.1951C59.1565 58.2073 59.1582 58.2267 59.1595 58.2565C59.1607 58.286 59.1613 58.3219 59.1613 58.3665H60.2213C60.2213 58.2642 60.2188 58.1599 60.2069 58.0639C60.195 57.9689 60.1699 57.8451 60.1012 57.7237L59.1785 58.2454ZM59.1613 58.3665C59.1613 62.368 62.4731 65.5705 66.5066 65.5705V64.5105C63.0351 64.5105 60.2213 61.7595 60.2213 58.3665H59.1613ZM66.5066 65.5705C70.5402 65.5705 73.852 62.368 73.852 58.3665H72.792C72.792 61.7595 69.9782 64.5105 66.5066 64.5105V65.5705ZM73.852 58.3665C73.852 58.3219 73.8526 58.286 73.8538 58.2565C73.8551 58.2267 73.8568 58.2073 73.8583 58.1951C73.8619 58.166 73.8625 58.1965 73.8348 58.2454L72.9121 57.7237C72.8434 57.8451 72.8183 57.9689 72.8064 58.0639C72.7945 58.1599 72.792 58.2642 72.792 58.3665H73.852ZM73.8348 58.2454C73.824 58.2645 73.802 58.299 73.7658 58.3342C73.7308 58.3682 73.6978 58.3881 73.678 58.3982L73.1973 57.4534C73.0629 57.5218 72.9725 57.6168 72.9121 57.7237L73.8348 58.2454ZM73.678 58.3982C73.6278 58.4237 73.6334 58.4025 73.7527 58.4025V57.3425C73.5122 57.3425 73.3322 57.3848 73.1973 57.4534L73.678 58.3982ZM73.7527 58.4025H86.5272V57.3425H73.7527V58.4025ZM86.5272 58.4025C87.1127 58.4025 87.5872 57.9279 87.5872 57.3425H86.5272H86.5272V58.4025ZM87.5872 57.3425C87.5872 56.7571 87.1127 56.2825 86.5272 56.2825V57.3425H86.5272H87.5872ZM86.5272 56.2825H73.7527V57.3425H86.5272V56.2825ZM73.7527 56.2825C72.9908 56.2825 72.3423 56.5777 71.9894 57.202L72.9121 57.7237C73.0313 57.5128 73.2702 57.3425 73.7527 57.3425V56.2825ZM71.9894 57.202C71.723 57.6731 71.7315 58.182 71.732 58.3461L72.792 58.3431C72.7915 58.1731 72.7979 57.9256 72.9121 57.7237L71.9894 57.202ZM71.732 58.346C71.732 58.354 71.732 58.3605 71.732 58.3665H72.792C72.792 58.3588 72.792 58.3507 72.792 58.3432L71.732 58.346ZM71.732 58.3665C71.732 61.152 69.4151 63.4505 66.5066 63.4505V64.5105C69.9783 64.5105 72.792 61.7594 72.792 58.3665H71.732ZM66.5066 63.4505C63.5982 63.4505 61.2813 61.152 61.2813 58.3665H60.2213C60.2213 61.7594 63.035 64.5105 66.5066 64.5105V63.4505ZM61.2813 58.3665C61.2813 58.3606 61.2813 58.3541 61.2813 58.3461L60.2213 58.3431C60.2213 58.3507 60.2213 58.3588 60.2213 58.3665H61.2813ZM61.2813 58.3461C61.2818 58.182 61.2903 57.6731 61.0239 57.202L60.1012 57.7237C60.2154 57.9256 60.2218 58.1731 60.2213 58.3431L61.2813 58.3461ZM61.0239 57.202C60.671 56.5777 60.0225 56.2825 59.2606 56.2825V57.3425C59.7431 57.3425 59.982 57.5128 60.1012 57.7237L61.0239 57.202ZM59.2606 56.2825H59.2401V57.3425H59.2606V56.2825ZM59.2401 56.2825H59.2196V57.3425H59.2401V56.2825ZM59.2196 56.2825H59.1991V57.3425H59.2196V56.2825ZM59.1991 56.2825H59.1786V57.3425H59.1991V56.2825ZM59.1786 56.2825H59.1582V57.3425H59.1786V56.2825ZM59.1582 56.2825H59.1377V57.3425H59.1582V56.2825ZM59.1377 56.2825H59.1173V57.3425H59.1377V56.2825ZM59.1173 56.2825H59.0968V57.3425H59.1173V56.2825ZM59.0968 56.2825H59.0764V57.3425H59.0968V56.2825ZM59.0764 56.2825H59.056V57.3425H59.0764V56.2825ZM59.056 56.2825H59.0356V57.3425H59.056V56.2825ZM59.0356 56.2825H59.0152V57.3425H59.0356V56.2825ZM59.0152 56.2825H58.9948V57.3425H59.0152V56.2825ZM58.9948 56.2825H58.9745V57.3425H58.9948V56.2825ZM58.9745 56.2825H58.9541V57.3425H58.9745V56.2825ZM58.9541 56.2825H58.9338V57.3425H58.9541V56.2825ZM58.9338 56.2825H58.9135V57.3425H58.9338V56.2825ZM58.9135 56.2825H58.8932V57.3425H58.9135V56.2825ZM58.8932 56.2825H58.8729V57.3425H58.8932V56.2825ZM58.8729 56.2825H58.8526V57.3425H58.8729V56.2825ZM58.8526 56.2825H58.8323V57.3425H58.8526V56.2825ZM58.8323 56.2825H58.812V57.3425H58.8323V56.2825ZM58.812 56.2825H58.7918V57.3425H58.812V56.2825ZM58.7918 56.2825H58.7716V57.3425H58.7918V56.2825ZM58.7716 56.2825H58.7514V57.3425H58.7716V56.2825ZM58.7514 56.2825H58.7312V57.3425H58.7514V56.2825ZM58.7312 56.2825H58.711V57.3425H58.7312V56.2825ZM58.711 56.2825H58.6908V57.3425H58.711V56.2825ZM58.6908 56.2825H58.6706V57.3425H58.6908V56.2825ZM58.6706 56.2825H58.6505V57.3425H58.6706V56.2825ZM58.6505 56.2825H58.6303V57.3425H58.6505V56.2825ZM58.6303 56.2825H58.6102V57.3425H58.6303V56.2825ZM58.6102 56.2825H58.5901V57.3425H58.6102V56.2825ZM58.5901 56.2825H58.57V57.3425H58.5901V56.2825ZM58.57 56.2825H58.55V57.3425H58.57V56.2825ZM58.55 56.2825H58.5299V57.3425H58.55V56.2825ZM58.5299 56.2825H58.5099V57.3425H58.5299V56.2825ZM58.5099 56.2825H58.4898V57.3425H58.5099V56.2825ZM58.4898 56.2825H58.4698V57.3425H58.4898V56.2825ZM58.4698 56.2825H58.4498V57.3425H58.4698V56.2825ZM58.4498 56.2825H58.4298V57.3425H58.4498V56.2825ZM58.4298 56.2825H58.4099V57.3425H58.4298V56.2825ZM58.4099 56.2825H58.3899V57.3425H58.4099V56.2825ZM58.3899 56.2825H58.37V57.3425H58.3899V56.2825ZM58.37 56.2825H58.3501V57.3425H58.37V56.2825ZM58.3501 56.2825H58.3301V57.3425H58.3501V56.2825ZM58.3301 56.2825H58.3103V57.3425H58.3301V56.2825ZM58.3103 56.2825H58.2904V57.3425H58.3103V56.2825ZM58.2904 56.2825H58.2705V57.3425H58.2904V56.2825ZM58.2705 56.2825H58.2507V57.3425H58.2705V56.2825ZM58.2507 56.2825H58.2309V57.3425H58.2507V56.2825ZM58.2309 56.2825H58.2111V57.3425H58.2309V56.2825ZM58.2111 56.2825H58.1913V57.3425H58.2111V56.2825ZM58.1913 56.2825H58.1715V57.3425H58.1913V56.2825ZM58.1715 56.2825H58.1518V57.3425H58.1715V56.2825ZM58.1518 56.2825H58.132V57.3425H58.1518V56.2825ZM58.132 56.2825H58.1123V57.3425H58.132V56.2825ZM58.1123 56.2825H58.0926V57.3425H58.1123V56.2825ZM58.0926 56.2825H58.0729V57.3425H58.0926V56.2825ZM58.0729 56.2825H58.0532V57.3425H58.0729V56.2825ZM58.0532 56.2825H58.0336V57.3425H58.0532V56.2825ZM58.0336 56.2825H58.014V57.3425H58.0336V56.2825ZM58.014 56.2825H57.9944V57.3425H58.014V56.2825ZM57.9944 56.2825H57.9748V57.3425H57.9944V56.2825ZM57.9748 56.2825H57.9552V57.3425H57.9748V56.2825ZM57.9552 56.2825H57.9356V57.3425H57.9552V56.2825ZM57.9356 56.2825H57.9161V57.3425H57.9356V56.2825ZM57.9161 56.2825H57.8966V57.3425H57.9161V56.2825ZM57.8966 56.2825H57.8771V57.3425H57.8966V56.2825ZM57.8771 56.2825H57.8576V57.3425H57.8771V56.2825ZM57.8576 56.2825H57.8381V57.3425H57.8576V56.2825ZM57.8381 56.2825H57.8187V57.3425H57.8381V56.2825ZM57.8187 56.2825H57.7992V57.3425H57.8187V56.2825ZM57.7992 56.2825H57.7798V57.3425H57.7992V56.2825ZM57.7798 56.2825H57.7604V57.3425H57.7798V56.2825ZM57.7604 56.2825H57.7411V57.3425H57.7604V56.2825ZM57.7411 56.2825H57.7217V57.3425H57.7411V56.2825ZM57.7217 56.2825H57.7024V57.3425H57.7217V56.2825ZM57.7024 56.2825H57.6831V57.3425H57.7024V56.2825ZM57.6831 56.2825H57.6638V57.3425H57.6831V56.2825ZM57.6638 56.2825H57.6445V57.3425H57.6638V56.2825ZM57.6445 56.2825H57.6253V57.3425H57.6445V56.2825ZM57.6253 56.2825H57.6061V57.3425H57.6253V56.2825ZM57.6061 56.2825H57.5868V57.3425H57.6061V56.2825ZM57.5868 56.2825H57.5677V57.3425H57.5868V56.2825ZM57.5677 56.2825H57.5485V57.3425H57.5677V56.2825ZM57.5485 56.2825H57.5293V57.3425H57.5485V56.2825ZM57.5293 56.2825H57.5102V57.3425H57.5293V56.2825ZM57.5102 56.2825H57.4911V57.3425H57.5102V56.2825ZM57.4911 56.2825H57.472V57.3425H57.4911V56.2825ZM57.472 56.2825H57.453V57.3425H57.472V56.2825ZM57.453 56.2825H57.4339V57.3425H57.453V56.2825ZM57.4339 56.2825H57.4149V57.3425H57.4339V56.2825ZM57.4149 56.2825H57.3959V57.3425H57.4149V56.2825ZM57.3959 56.2825H57.3769V57.3425H57.3959V56.2825ZM57.3769 56.2825H57.358V57.3425H57.3769V56.2825ZM57.358 56.2825H57.339V57.3425H57.358V56.2825ZM57.339 56.2825H57.3201V57.3425H57.339V56.2825ZM57.3201 56.2825H57.3012V57.3425H57.3201V56.2825ZM57.3012 56.2825H57.2824V57.3425H57.3012V56.2825ZM57.2824 56.2825H57.2635V57.3425H57.2824V56.2825ZM57.2635 56.2825H57.2447V57.3425H57.2635V56.2825ZM57.2447 56.2825H57.2259V57.3425H57.2447V56.2825ZM57.2259 56.2825H57.2071V57.3425H57.2259V56.2825ZM57.2071 56.2825H57.1884V57.3425H57.2071V56.2825ZM57.1884 56.2825H57.1696V57.3425H57.1884V56.2825ZM57.1696 56.2825H57.1509V57.3425H57.1696V56.2825ZM57.1509 56.2825H57.1323V57.3425H57.1509V56.2825ZM57.1323 56.2825H57.1136V57.3425H57.1323V56.2825ZM57.1136 56.2825H57.095V57.3425H57.1136V56.2825ZM57.095 56.2825H57.0763V57.3425H57.095V56.2825ZM57.0763 56.2825H57.0577V57.3425H57.0763V56.2825ZM57.0577 56.2825H57.0392V57.3425H57.0577V56.2825ZM57.0392 56.2825H57.0206V57.3425H57.0392V56.2825ZM57.0206 56.2825H57.0021V57.3425H57.0206V56.2825ZM57.0021 56.2825H56.9836V57.3425H57.0021V56.2825ZM56.9836 56.2825H56.9652V57.3425H56.9836V56.2825ZM56.9652 56.2825H56.9467V57.3425H56.9652V56.2825ZM56.9467 56.2825H56.9283V57.3425H56.9467V56.2825ZM56.9283 56.2825H56.9099V57.3425H56.9283V56.2825ZM56.9099 56.2825H56.8915V57.3425H56.9099V56.2825ZM56.8915 56.2825H56.8732V57.3425H56.8915V56.2825ZM56.8732 56.2825H56.8548V57.3425H56.8732V56.2825ZM56.8548 56.2825H56.8365V57.3425H56.8548V56.2825ZM56.8365 56.2825H56.8183V57.3425H56.8365V56.2825ZM56.8183 56.2825H56.8V57.3425H56.8183V56.2825ZM56.8 56.2825H56.7818V57.3425H56.8V56.2825ZM56.7818 56.2825H56.7636V57.3425H56.7818V56.2825ZM56.7636 56.2825H56.7454V57.3425H56.7636V56.2825ZM56.7454 56.2825H56.7273V57.3425H56.7454V56.2825ZM56.7273 56.2825H56.7092V57.3425H56.7273V56.2825ZM56.7092 56.2825H56.6911V57.3425H56.7092V56.2825ZM56.6911 56.2825H56.673V57.3425H56.6911V56.2825ZM56.673 56.2825H56.6549V57.3425H56.673V56.2825ZM56.6549 56.2825H56.6369V57.3425H56.6549V56.2825ZM56.6369 56.2825H56.6189V57.3425H56.6369V56.2825ZM56.6189 56.2825H56.601V57.3425H56.6189V56.2825ZM56.601 56.2825H56.583V57.3425H56.601V56.2825ZM56.583 56.2825H56.5651V57.3425H56.583V56.2825ZM56.5651 56.2825H56.5472V57.3425H56.5651V56.2825ZM56.5472 56.2825H56.5294V57.3425H56.5472V56.2825ZM56.5294 56.2825H56.5115V57.3425H56.5294V56.2825ZM56.5115 56.2825H56.4937V57.3425H56.5115V56.2825ZM56.4937 56.2825H56.476V57.3425H56.4937V56.2825ZM56.476 56.2825H56.4582V57.3425H56.476V56.2825ZM56.4582 56.2825H56.4405V57.3425H56.4582V56.2825ZM56.4405 56.2825H56.4228V57.3425H56.4405V56.2825ZM56.4228 56.2825H56.4051V57.3425H56.4228V56.2825ZM56.4051 56.2825H56.3875V57.3425H56.4051V56.2825ZM56.3875 56.2825H56.3699V57.3425H56.3875V56.2825ZM56.3699 56.2825H56.3523V57.3425H56.3699V56.2825ZM56.3523 56.2825H56.3348V57.3425H56.3523V56.2825ZM56.3348 56.2825H56.3172V57.3425H56.3348V56.2825ZM56.3172 56.2825H56.2997V57.3425H56.3172V56.2825ZM56.2997 56.2825H56.2823V57.3425H56.2997V56.2825ZM56.2823 56.2825H56.2648V57.3425H56.2823V56.2825ZM56.2648 56.2825H56.2474V57.3425H56.2648V56.2825ZM56.2474 56.2825H56.23V57.3425H56.2474V56.2825ZM56.23 56.2825H56.2127V57.3425H56.23V56.2825ZM56.2127 56.2825H56.1953V57.3425H56.2127V56.2825ZM56.1953 56.2825H56.178V57.3425H56.1953V56.2825ZM56.178 56.2825H56.1608V57.3425H56.178V56.2825ZM56.1608 56.2825H56.1435V57.3425H56.1608V56.2825ZM56.1435 56.2825H56.1263V57.3425H56.1435V56.2825ZM56.1263 56.2825H56.1092V57.3425H56.1263V56.2825ZM56.1092 56.2825H56.092V57.3425H56.1092V56.2825ZM56.092 56.2825H56.0749V57.3425H56.092V56.2825ZM56.0749 56.2825H56.0578V57.3425H56.0749V56.2825ZM56.0578 56.2825H56.0407V57.3425H56.0578V56.2825ZM56.0407 56.2825H56.0237V57.3425H56.0407V56.2825ZM56.0237 56.2825H56.0067V57.3425H56.0237V56.2825ZM56.0067 56.2825H55.9897V57.3425H56.0067V56.2825ZM55.9897 56.2825H55.9728V57.3425H55.9897V56.2825ZM55.9728 56.2825H55.9559V57.3425H55.9728V56.2825ZM55.9559 56.2825H55.939V57.3425H55.9559V56.2825ZM55.939 56.2825H55.9222V57.3425H55.939V56.2825ZM55.9222 56.2825H55.9054V57.3425H55.9222V56.2825ZM55.9054 56.2825H55.8886V57.3425H55.9054V56.2825ZM55.8886 56.2825H55.8718V57.3425H55.8886V56.2825ZM55.8718 56.2825H55.8551V57.3425H55.8718V56.2825ZM55.8551 56.2825H55.8384V57.3425H55.8551V56.2825ZM55.8384 56.2825H55.8218V57.3425H55.8384V56.2825ZM55.8218 56.2825H55.8051V57.3425H55.8218V56.2825ZM55.8051 56.2825H55.7885V57.3425H55.8051V56.2825ZM55.7885 56.2825H55.772V57.3425H55.7885V56.2825ZM55.772 56.2825H55.7555V57.3425H55.772V56.2825ZM55.7555 56.2825H55.739V57.3425H55.7555V56.2825ZM55.739 56.2825H55.7225V57.3425H55.739V56.2825ZM55.7225 56.2825H55.7061V57.3425H55.7225V56.2825ZM55.7061 56.2825H55.6897V57.3425H55.7061V56.2825ZM55.6897 56.2825H55.6733V57.3425H55.6897V56.2825ZM55.6733 56.2825H55.6569V57.3425H55.6733V56.2825ZM55.6569 56.2825H55.6406V57.3425H55.6569V56.2825ZM55.6406 56.2825H55.6244V57.3425H55.6406V56.2825ZM55.6244 56.2825H55.6081V57.3425H55.6244V56.2825ZM55.6081 56.2825H55.5919V57.3425H55.6081V56.2825ZM55.5919 56.2825H55.5758V57.3425H55.5919V56.2825ZM55.5758 56.2825H55.5596V57.3425H55.5758V56.2825ZM55.5596 56.2825H55.5435V57.3425H55.5596V56.2825ZM55.5435 56.2825H55.5275V57.3425H55.5435V56.2825ZM55.5275 56.2825H55.5114V57.3425H55.5275V56.2825ZM55.5114 56.2825H55.4954V57.3425H55.5114V56.2825ZM55.4954 56.2825H55.4794V57.3425H55.4954V56.2825ZM55.4794 56.2825H55.4635V57.3425H55.4794V56.2825ZM55.4635 56.2825H55.4476V57.3425H55.4635V56.2825ZM55.4476 56.2825H55.4317V57.3425H55.4476V56.2825ZM55.4317 56.2825H55.4159V57.3425H55.4317V56.2825ZM55.4159 56.2825H55.4001V57.3425H55.4159V56.2825ZM55.4001 56.2825H55.3844V57.3425H55.4001V56.2825ZM55.3844 56.2825H55.3686V57.3425H55.3844V56.2825ZM55.3686 56.2825H55.3529V57.3425H55.3686V56.2825ZM55.3529 56.2825H55.3373V57.3425H55.3529V56.2825ZM55.3373 56.2825H55.3216V57.3425H55.3373V56.2825ZM55.3216 56.2825H55.3061V57.3425H55.3216V56.2825ZM55.3061 56.2825H55.2905V57.3425H55.3061V56.2825ZM55.2905 56.2825H55.275V57.3425H55.2905V56.2825ZM55.275 56.2825H55.2595V57.3425H55.275V56.2825ZM55.2595 56.2825H55.2441V57.3425H55.2595V56.2825ZM55.2441 56.2825H55.2287V57.3425H55.2441V56.2825ZM55.2287 56.2825H55.2133V57.3425H55.2287V56.2825ZM55.2133 56.2825H55.1979V57.3425H55.2133V56.2825ZM55.1979 56.2825H55.1826V57.3425H55.1979V56.2825ZM55.1826 56.2825H55.1674V57.3425H55.1826V56.2825ZM55.1674 56.2825H55.1521V57.3425H55.1674V56.2825ZM55.1521 56.2825H55.1369V57.3425H55.1521V56.2825ZM55.1369 56.2825H55.1218V57.3425H55.1369V56.2825ZM55.1218 56.2825H55.1067V57.3425H55.1218V56.2825ZM55.1067 56.2825H55.0916V57.3425H55.1067V56.2825ZM55.0916 56.2825H55.0765V57.3425H55.0916V56.2825ZM55.0765 56.2825H55.0615V57.3425H55.0765V56.2825ZM55.0615 56.2825H55.0466V57.3425H55.0615V56.2825ZM55.0466 56.2825H55.0316V57.3425H55.0466V56.2825ZM55.0316 56.2825H55.0167V57.3425H55.0316V56.2825ZM55.0167 56.2825H55.0019V57.3425H55.0167V56.2825ZM55.0019 56.2825H54.987V57.3425H55.0019V56.2825ZM54.987 56.2825H54.9723V57.3425H54.987V56.2825ZM54.9723 56.2825H54.9575V57.3425H54.9723V56.2825ZM54.9575 56.2825H54.9428V57.3425H54.9575V56.2825ZM54.9428 56.2825H54.9281V57.3425H54.9428V56.2825ZM54.9281 56.2825H54.9135V57.3425H54.9281V56.2825ZM54.9135 56.2825H54.8989V57.3425H54.9135V56.2825ZM54.8989 56.2825H54.8843V57.3425H54.8989V56.2825ZM54.8843 56.2825H54.8698V57.3425H54.8843V56.2825ZM54.8698 56.2825H54.8553V57.3425H54.8698V56.2825ZM54.8553 56.2825H54.8409V57.3425H54.8553V56.2825ZM54.8409 56.2825H54.8265V57.3425H54.8409V56.2825ZM54.8265 56.2825H54.8121V57.3425H54.8265V56.2825ZM54.8121 56.2825H54.7978V57.3425H54.8121V56.2825ZM54.7978 56.2825H54.7835V57.3425H54.7978V56.2825ZM54.7835 56.2825H54.7693V57.3425H54.7835V56.2825ZM54.7693 56.2825H54.7551V57.3425H54.7693V56.2825ZM54.7551 56.2825H54.7409V57.3425H54.7551V56.2825ZM54.7409 56.2825H54.7268V57.3425H54.7409V56.2825ZM54.7268 56.2825H54.7127V57.3425H54.7268V56.2825ZM54.7127 56.2825H54.6987V57.3425H54.7127V56.2825ZM54.6987 56.2825H54.6846V57.3425H54.6987V56.2825ZM54.6846 56.2825H54.6707V57.3425H54.6846V56.2825ZM54.6707 56.2825H54.6568V57.3425H54.6707V56.2825ZM54.6568 56.2825H54.6429V57.3425H54.6568V56.2825ZM54.6429 56.2825H54.629V57.3425H54.6429V56.2825ZM54.629 56.2825H54.6152V57.3425H54.629V56.2825ZM54.6152 56.2825H54.6015V57.3425H54.6152V56.2825ZM54.6015 56.2825H54.5877V57.3425H54.6015V56.2825ZM54.5877 56.2825H54.574V57.3425H54.5877V56.2825ZM54.574 56.2825H54.5604V57.3425H54.574V56.2825ZM54.5604 56.2825H54.5468V57.3425H54.5604V56.2825ZM54.5468 56.2825H54.5332V57.3425H54.5468V56.2825ZM54.5332 56.2825H54.5197V57.3425H54.5332V56.2825ZM54.5197 56.2825H54.5062V57.3425H54.5197V56.2825ZM54.5062 56.2825H54.4928V57.3425H54.5062V56.2825ZM54.4928 56.2825H54.4794V57.3425H54.4928V56.2825ZM54.4794 56.2825H54.4661V57.3425H54.4794V56.2825ZM54.4661 56.2825H54.4527V57.3425H54.4661V56.2825ZM54.4527 56.2825H54.4395V57.3425H54.4527V56.2825ZM54.4395 56.2825H54.4263V57.3425H54.4395V56.2825ZM54.4263 56.2825H54.4131V57.3425H54.4263V56.2825ZM54.4131 56.2825H54.3999V57.3425H54.4131V56.2825ZM54.3999 56.2825H54.3868V57.3425H54.3999V56.2825ZM54.3868 56.2825H54.3738V57.3425H54.3868V56.2825ZM54.3738 56.2825H54.3608V57.3425H54.3738V56.2825ZM54.3608 56.2825H54.3478V57.3425H54.3608V56.2825ZM54.3478 56.2825H54.3349V57.3425H54.3478V56.2825ZM54.3349 56.2825H54.322V57.3425H54.3349V56.2825ZM54.322 56.2825H54.3091V57.3425H54.322V56.2825ZM54.3091 56.2825H54.2963V57.3425H54.3091V56.2825ZM54.2963 56.2825H54.2836V57.3425H54.2963V56.2825ZM54.2836 56.2825H54.2709V57.3425H54.2836V56.2825ZM54.2709 56.2825H54.2582V57.3425H54.2709V56.2825ZM54.2582 56.2825H54.2456V57.3425H54.2582V56.2825ZM54.2456 56.2825H54.233V57.3425H54.2456V56.2825ZM54.233 56.2825H54.2205V57.3425H54.233V56.2825ZM54.2205 56.2825H54.208V57.3425H54.2205V56.2825ZM54.208 56.2825H54.1955V57.3425H54.208V56.2825ZM54.1955 56.2825H54.1831V57.3425H54.1955V56.2825ZM54.1831 56.2825H54.1707V57.3425H54.1831V56.2825ZM54.1707 56.2825H54.1584V57.3425H54.1707V56.2825ZM54.1584 56.2825H54.1462V57.3425H54.1584V56.2825ZM54.1462 56.2825H54.1339V57.3425H54.1462V56.2825ZM54.1339 56.2825H54.1218V57.3425H54.1339V56.2825ZM54.1218 56.2825H54.1096V57.3425H54.1218V56.2825ZM54.1096 56.2825H54.0975V57.3425H54.1096V56.2825ZM54.0975 56.2825H54.0855V57.3425H54.0975V56.2825ZM54.0855 56.2825H54.0735V57.3425H54.0855V56.2825ZM54.0735 56.2825H54.0615V57.3425H54.0735V56.2825ZM54.0615 56.2825H54.0496V57.3425H54.0615V56.2825ZM54.0496 56.2825H54.0378V57.3425H54.0496V56.2825ZM54.0378 56.2825H54.0259V57.3425H54.0378V56.2825ZM54.0259 56.2825H54.0142V57.3425H54.0259V56.2825ZM54.0142 56.2825H54.0024V57.3425H54.0142V56.2825ZM54.0024 56.2825H53.9908V57.3425H54.0024V56.2825ZM53.9908 56.2825H53.9791V57.3425H53.9908V56.2825ZM53.9791 56.2825H53.9675V57.3425H53.9791V56.2825ZM53.9675 56.2825H53.956V57.3425H53.9675V56.2825ZM53.956 56.2825H53.9445V57.3425H53.956V56.2825ZM53.9445 56.2825H53.933V57.3425H53.9445V56.2825ZM53.933 56.2825H53.9216V57.3425H53.933V56.2825ZM53.9216 56.2825H53.9103V57.3425H53.9216V56.2825ZM53.9103 56.2825H53.899V57.3425H53.9103V56.2825ZM53.899 56.2825H53.8877V57.3425H53.899V56.2825ZM53.8877 56.2825H53.8765V57.3425H53.8877V56.2825ZM53.8765 56.2825H53.8653V57.3425H53.8765V56.2825ZM53.8653 56.2825H53.8542V57.3425H53.8653V56.2825ZM53.8542 56.2825H53.8432V57.3425H53.8542V56.2825ZM53.8432 56.2825H53.8321V57.3425H53.8432V56.2825ZM53.8321 56.2825H53.8212V57.3425H53.8321V56.2825ZM53.8212 56.2825H53.8102V57.3425H53.8212V56.2825ZM53.8102 56.2825H53.7994V57.3425H53.8102V56.2825ZM53.7994 56.2825H53.7885V57.3425H53.7994V56.2825ZM53.7885 56.2825H53.7777V57.3425H53.7885V56.2825ZM53.7777 56.2825H53.767V57.3425H53.7777V56.2825ZM53.767 56.2825H53.7563V57.3425H53.767V56.2825ZM53.7563 56.2825H53.7457V57.3425H53.7563V56.2825ZM53.7457 56.2825H53.7351V57.3425H53.7457V56.2825ZM53.7351 56.2825H53.7246V57.3425H53.7351V56.2825ZM53.7246 56.2825H53.7141V57.3425H53.7246V56.2825ZM53.7141 56.2825H53.7036V57.3425H53.7141V56.2825ZM53.7036 56.2825H53.6932V57.3425H53.7036V56.2825ZM53.6932 56.2825H53.6829V57.3425H53.6932V56.2825ZM53.6829 56.2825H53.6726V57.3425H53.6829V56.2825ZM53.6726 56.2825H53.6623V57.3425H53.6726V56.2825ZM53.6623 56.2825H53.6522V57.3425H53.6623V56.2825ZM53.6522 56.2825H53.642V57.3425H53.6522V56.2825ZM53.642 56.2825H53.6319V57.3425H53.642V56.2825ZM53.6319 56.2825H53.6219V57.3425H53.6319V56.2825ZM53.6219 56.2825H53.6119V57.3425H53.6219V56.2825ZM53.6119 56.2825H53.6019V57.3425H53.6119V56.2825ZM53.6019 56.2825H53.592V57.3425H53.6019V56.2825ZM53.592 56.2825H53.5822V57.3425H53.592V56.2825ZM53.5822 56.2825H53.5724V57.3425H53.5822V56.2825ZM53.5724 56.2825H53.5627V57.3425H53.5724V56.2825ZM53.5627 56.2825H53.553V57.3425H53.5627V56.2825ZM53.553 56.2825H53.5433V57.3425H53.553V56.2825ZM53.5433 56.2825H53.5337V57.3425H53.5433V56.2825ZM53.5337 56.2825H53.5242V57.3425H53.5337V56.2825ZM53.5242 56.2825H53.5147V57.3425H53.5242V56.2825ZM53.5147 56.2825H53.5053V57.3425H53.5147V56.2825ZM53.5053 56.2825H53.4959V57.3425H53.5053V56.2825ZM53.4959 56.2825H53.4865V57.3425H53.4959V56.2825ZM53.4865 56.2825H53.4773V57.3425H53.4865V56.2825ZM53.4773 56.2825H53.468V57.3425H53.4773V56.2825ZM53.468 56.2825H53.4589V57.3425H53.468V56.2825ZM53.4589 56.2825H53.4497V57.3425H53.4589V56.2825ZM53.4497 56.2825H53.4407V57.3425H53.4497V56.2825ZM53.4407 56.2825H53.4316V57.3425H53.4407V56.2825ZM53.4316 56.2825H53.4227V57.3425H53.4316V56.2825ZM53.4227 56.2825H53.4138V57.3425H53.4227V56.2825ZM53.4138 56.2825H53.4049V57.3425H53.4138V56.2825ZM53.4049 56.2825H53.3961V57.3425H53.4049V56.2825ZM53.3961 56.2825H53.3873V57.3425H53.3961V56.2825ZM53.3873 56.2825H53.3786V57.3425H53.3873V56.2825ZM53.3786 56.2825H53.37V57.3425H53.3786V56.2825ZM53.37 56.2825H53.3614V57.3425H53.37V56.2825ZM53.3614 56.2825H53.3528V57.3425H53.3614V56.2825ZM53.3528 56.2825H53.3443V57.3425H53.3528V56.2825ZM53.3443 56.2825H53.3359V57.3425H53.3443V56.2825ZM53.3359 56.2825H53.3275V57.3425H53.3359V56.2825ZM53.3275 56.2825H53.3192V57.3425H53.3275V56.2825ZM53.3192 56.2825H53.3109V57.3425H53.3192V56.2825ZM53.3109 56.2825H53.3027V57.3425H53.3109V56.2825ZM53.3027 56.2825H53.2945V57.3425H53.3027V56.2825ZM53.2945 56.2825H53.2864V57.3425H53.2945V56.2825ZM53.2864 56.2825H53.2783V57.3425H53.2864V56.2825ZM53.2783 56.2825H53.2703V57.3425H53.2783V56.2825ZM53.2703 56.2825H53.2624V57.3425H53.2703V56.2825ZM53.2624 56.2825H53.2545V57.3425H53.2624V56.2825ZM53.2545 56.2825H53.2466V57.3425H53.2545V56.2825ZM53.2466 56.2825H53.2388V57.3425H53.2466V56.2825ZM53.2388 56.2825H53.2311V57.3425H53.2388V56.2825ZM53.2311 56.2825H53.2234V57.3425H53.2311V56.2825ZM53.2234 56.2825H53.2158V57.3425H53.2234V56.2825ZM53.2158 56.2825H53.2082V57.3425H53.2158V56.2825ZM53.2082 56.2825H53.2007V57.3425H53.2082V56.2825ZM53.2007 56.2825H53.1932V57.3425H53.2007V56.2825ZM53.1932 56.2825H53.1858V57.3425H53.1932V56.2825ZM53.1858 56.2825H53.1785V57.3425H53.1858V56.2825ZM53.1785 56.2825H53.1712V57.3425H53.1785V56.2825ZM53.1712 56.2825H53.164V57.3425H53.1712V56.2825ZM53.164 56.2825H53.1568V57.3425H53.164V56.2825ZM53.1568 56.2825H53.1497V57.3425H53.1568V56.2825ZM53.1497 56.2825H53.1426V57.3425H53.1497V56.2825ZM53.1426 56.2825H53.1356V57.3425H53.1426V56.2825ZM53.1356 56.2825H53.1287V57.3425H53.1356V56.2825ZM53.1287 56.2825H53.1218V57.3425H53.1287V56.2825ZM53.1218 56.2825H53.1149V57.3425H53.1218V56.2825ZM53.1149 56.2825H53.1081V57.3425H53.1149V56.2825ZM53.1081 56.2825H53.1014V57.3425H53.1081V56.2825ZM53.1014 56.2825H53.0947V57.3425H53.1014V56.2825ZM53.0947 56.2825H53.0881V57.3425H53.0947V56.2825ZM53.0881 56.2825H53.0816V57.3425H53.0881V56.2825ZM53.0816 56.2825H53.0751V57.3425H53.0816V56.2825ZM53.0751 56.2825H53.0687V57.3425H53.0751V56.2825ZM53.0687 56.2825H53.0623V57.3425H53.0687V56.2825ZM53.0623 56.2825H53.0559V57.3425H53.0623V56.2825ZM53.0559 56.2825H53.0497V57.3425H53.0559V56.2825ZM53.0497 56.2825H53.0435V57.3425H53.0497V56.2825ZM53.0435 56.2825H53.0373V57.3425H53.0435V56.2825ZM53.0373 56.2825H53.0312V57.3425H53.0373V56.2825ZM53.0312 56.2825H53.0252V57.3425H53.0312V56.2825ZM53.0252 56.2825H53.0192V57.3425H53.0252V56.2825ZM53.0192 56.2825H53.0133V57.3425H53.0192V56.2825ZM53.0133 56.2825H53.0075V57.3425H53.0133V56.2825ZM53.0075 56.2825H53.0017V57.3425H53.0075V56.2825ZM53.0017 56.2825H52.9959V57.3425H53.0017V56.2825ZM52.9959 56.2825H52.9903V57.3425H52.9959V56.2825ZM52.9903 56.2825H52.9846V57.3425H52.9903V56.2825ZM52.9846 56.2825H52.9791V57.3425H52.9846V56.2825ZM52.9791 56.2825H52.9736V57.3425H52.9791V56.2825ZM52.9736 56.2825H52.9681V57.3425H52.9736V56.2825ZM52.9681 56.2825H52.9628V57.3425H52.9681V56.2825ZM52.9628 56.2825H52.9574V57.3425H52.9628V56.2825ZM52.9574 56.2825H52.9522V57.3425H52.9574V56.2825ZM52.9522 56.2825H52.947V57.3425H52.9522V56.2825ZM52.947 56.2825H52.9418V57.3425H52.947V56.2825ZM52.9418 56.2825H52.9367V57.3425H52.9418V56.2825ZM52.9367 56.2825H52.9317V57.3425H52.9367V56.2825ZM52.9317 56.2825H52.9268V57.3425H52.9317V56.2825ZM52.9268 56.2825H52.9219V57.3425H52.9268V56.2825ZM52.9219 56.2825H52.917V57.3425H52.9219V56.2825ZM52.917 56.2825H52.9122V57.3425H52.917V56.2825ZM52.9122 56.2825H52.9075V57.3425H52.9122V56.2825ZM52.9075 56.2825H52.9029V57.3425H52.9075V56.2825ZM52.9029 56.2825H52.8983V57.3425H52.9029V56.2825ZM52.8983 56.2825H52.8937V57.3425H52.8983V56.2825ZM52.8937 56.2825H52.8893V57.3425H52.8937V56.2825ZM52.8893 56.2825H52.8849V57.3425H52.8893V56.2825ZM52.8849 56.2825H52.8805V57.3425H52.8849V56.2825ZM52.8805 56.2825H52.8762V57.3425H52.8805V56.2825ZM52.8762 56.2825H52.872V57.3425H52.8762V56.2825ZM52.872 56.2825H52.8678V57.3425H52.872V56.2825ZM52.8678 56.2825H52.8637V57.3425H52.8678V56.2825ZM52.8637 56.2825H52.8597V57.3425H52.8637V56.2825ZM52.8597 56.2825H52.8557V57.3425H52.8597V56.2825ZM52.8557 56.2825H52.8518V57.3425H52.8557V56.2825ZM52.8518 56.2825H52.8479V57.3425H52.8518V56.2825ZM52.8479 56.2825H52.8441V57.3425H52.8479V56.2825ZM52.8441 56.2825H52.8404V57.3425H52.8441V56.2825ZM52.8404 56.2825H52.8367V57.3425H52.8404V56.2825ZM52.8367 56.2825H52.8331V57.3425H52.8367V56.2825ZM52.8331 56.2825H52.8296V57.3425H52.8331V56.2825ZM52.8296 56.2825H52.8261V57.3425H52.8296V56.2825ZM52.8261 56.2825H52.8227V57.3425H52.8261V56.2825ZM52.8227 56.2825H52.8194V57.3425H52.8227V56.2825ZM52.8194 56.2825H52.8161V57.3425H52.8194V56.2825ZM52.8161 56.2825H52.8129V57.3425H52.8161V56.2825ZM52.8129 56.2825H52.8097V57.3425H52.8129V56.2825ZM52.8097 56.2825H52.8066V57.3425H52.8097V56.2825ZM52.8066 56.2825H52.8036V57.3425H52.8066V56.2825ZM52.8036 56.2825H52.8006V57.3425H52.8036V56.2825ZM52.8006 56.2825H52.7977V57.3425H52.8006V56.2825ZM52.7977 56.2825H52.7949V57.3425H52.7977V56.2825ZM52.7949 56.2825H52.7921V57.3425H52.7949V56.2825ZM52.7921 56.2825H52.7894V57.3425H52.7921V56.2825ZM52.7894 56.2825H52.7867V57.3425H52.7894V56.2825ZM52.7867 56.2825H52.7842V57.3425H52.7867V56.2825ZM52.7842 56.2825H52.7816V57.3425H52.7842V56.2825ZM52.7816 56.2825H52.7792V57.3425H52.7816V56.2825ZM52.7792 56.2825H52.7768V57.3425H52.7792V56.2825ZM52.7768 56.2825H52.7745V57.3425H52.7768V56.2825ZM52.7745 56.2825H52.7722V57.3425H52.7745V56.2825ZM52.7722 56.2825H52.77V57.3425H52.7722V56.2825ZM52.77 56.2825H52.7679V57.3425H52.77V56.2825ZM52.7679 56.2825H52.7659V57.3425H52.7679V56.2825ZM52.7659 56.2825H52.7639V57.3425H52.7659V56.2825ZM52.7639 56.2825H52.762V57.3425H52.7639V56.2825ZM52.762 56.2825H52.7601V57.3425H52.762V56.2825ZM52.7601 56.2825H52.7583V57.3425H52.7601V56.2825ZM52.7583 56.2825H52.7566V57.3425H52.7583V56.2825ZM52.7566 56.2825H52.7549V57.3425H52.7566V56.2825ZM52.7549 56.2825H52.7533V57.3425H52.7549V56.2825ZM52.7533 56.2825H52.7518V57.3425H52.7533V56.2825ZM52.7518 56.2825H52.7503V57.3425H52.7518V56.2825ZM52.7503 56.2825H52.7489V57.3425H52.7503V56.2825ZM52.7489 56.2825H52.7476V57.3425H52.7489V56.2825ZM52.7476 56.2825H52.7463V57.3425H52.7476V56.2825ZM52.7463 56.2825H52.7451V57.3425H52.7463V56.2825ZM52.7451 56.2825H52.744V57.3425H52.7451V56.2825ZM52.744 56.2825H52.743V57.3425H52.744V56.2825ZM52.743 56.2825H52.742V57.3425H52.743V56.2825ZM52.742 56.2825H52.741V57.3425H52.742V56.2825ZM52.741 56.2825H52.7402V57.3425H52.741V56.2825ZM52.7402 56.2825H52.7394V57.3425H52.7402V56.2825ZM52.7394 56.2825H52.7387V57.3425H52.7394V56.2825ZM52.7387 56.2825H52.738V57.3425H52.7387V56.2825ZM52.738 56.2825H52.7374V57.3425H52.738V56.2825ZM52.7374 56.2825H52.7369V57.3425H52.7374V56.2825ZM52.7369 56.2825H52.7365V57.3425H52.7369V56.2825ZM52.7365 56.2825H52.7361V57.3425H52.7365V56.2825ZM52.7361 56.2825H52.7358V57.3425H52.7361V56.2825ZM52.7358 56.2825H52.7356V57.3425H52.7358V56.2825ZM52.7356 56.2825H52.7354V57.3425H52.7356V56.2825ZM52.7354 56.2825H52.7353V57.3425H52.7354V56.2825ZM52.2053 56.8125L52.2052 57.3425L53.2652 57.3425L53.2653 56.8125L52.2053 56.8125Z" fill="#74BA67"/>
<path d="M53.1327 30.0107L53.5283 29.6581L53.1327 30.0107ZM52.3844 29.9677L52.737 30.3634L52.737 30.3634L52.3844 29.9677ZM58.8157 36.3867L59.2113 36.0341L59.2113 36.0341L58.8157 36.3867ZM58.7727 37.135L58.42 36.7394L58.42 36.7394L58.7727 37.135ZM58.0244 37.092L57.6287 37.4447L57.6287 37.4447L58.0244 37.092ZM52.3414 30.716L52.737 30.3634L52.737 30.3634L52.3414 30.716ZM79.7644 29.9677L80.1171 29.5721L80.1171 29.5721L79.7644 29.9677ZM79.0161 30.0107L78.6205 29.6581L78.6205 29.6581L79.0161 30.0107ZM79.8074 30.716L80.2031 31.0687L80.2031 31.0687L79.8074 30.716ZM74.1244 37.092L73.7288 36.7394L73.7288 36.7394L74.1244 37.092ZM73.3331 36.3867L73.7288 36.7394L73.7288 36.7394L73.3331 36.3867ZM67.1598 28.1589C67.1598 27.5735 66.6852 27.0989 66.0998 27.0989V28.1589H66.0998H67.1598ZM67.1598 36.7379V28.1589H66.0998V36.7379H67.1598ZM66.0998 37.7979C66.6852 37.7979 67.1598 37.3233 67.1598 36.7379H66.0998L66.0998 36.7379V37.7979ZM65.0398 36.7379C65.0398 37.3233 65.5143 37.7979 66.0998 37.7979V36.7379L66.0998 36.7379H65.0398ZM65.0398 28.1589V36.7379H66.0998V28.1589H65.0398ZM66.0998 27.0989C65.5143 27.0989 65.0398 27.5735 65.0398 28.1589H66.0998H66.0998V27.0989ZM53.5283 29.6581C53.1388 29.2211 52.4688 29.1825 52.0317 29.5721L52.737 30.3634L52.737 30.3634L53.5283 29.6581ZM59.2113 36.0341L53.5283 29.6581L52.737 30.3634L58.42 36.7394L59.2113 36.0341ZM59.1253 37.5307C59.5624 37.1412 59.6009 36.4711 59.2113 36.0341L58.42 36.7394L58.42 36.7394L59.1253 37.5307ZM57.6287 37.4447C58.0183 37.8817 58.6883 37.9202 59.1253 37.5307L58.42 36.7394L58.42 36.7394L57.6287 37.4447ZM51.9457 31.0687L57.6287 37.4447L58.42 36.7394L52.737 30.3634L51.9457 31.0687ZM52.0317 29.5721C51.5947 29.9616 51.5562 30.6316 51.9457 31.0687L52.737 30.3634L52.737 30.3634L52.0317 29.5721ZM80.1171 29.5721C79.68 29.1825 79.01 29.2211 78.6205 29.6581L79.4118 30.3634L79.4118 30.3634L80.1171 29.5721ZM80.2031 31.0687C80.5926 30.6316 80.5541 29.9616 80.1171 29.5721L79.4118 30.3634L79.4118 30.3634L80.2031 31.0687ZM74.5201 37.4447L80.2031 31.0687L79.4118 30.3634L73.7288 36.7394L74.5201 37.4447ZM73.0235 37.5307C73.4605 37.9202 74.1305 37.8817 74.5201 37.4447L73.7288 36.7394L73.7288 36.7394L73.0235 37.5307ZM72.9375 36.0341C72.5479 36.4711 72.5864 37.1412 73.0235 37.5307L73.7288 36.7394L73.7288 36.7394L72.9375 36.0341ZM78.6205 29.6581L72.9375 36.0341L73.7288 36.7394L79.4118 30.3634L78.6205 29.6581Z" fill="#89C47F"/>
</svg>
