<svg width="522" height="345" viewBox="0 0 522 345" fill="none" xmlns="http://www.w3.org/2000/svg">
<path fill-rule="evenodd" clip-rule="evenodd" d="M244.821 116.143C244.937 114.481 245.437 98.9734 246.322 69.6205C246.544 62.2737 241.455 55.8299 234.256 54.3429C233.774 54.2432 233.532 54.1934 233.532 54.1934C224.844 53.5859 217.112 59.666 215.653 68.2521L208.204 112.083" fill="white"/>
<path d="M233.616 54.5305L234.317 54.6752C241.346 56.1273 246.316 62.4201 246.1 69.5947C245.215 98.9276 244.714 114.449 244.599 116.103C244.585 116.298 244.732 116.468 244.928 116.481C245.123 116.495 245.293 116.348 245.306 116.152C245.423 114.483 245.923 98.989 246.809 69.616C247.035 62.097 241.827 55.5022 234.46 53.9804L233.736 53.8309L233.689 53.8244C224.819 53.2041 216.924 59.4116 215.435 68.1775L207.986 112.009C207.953 112.202 208.083 112.385 208.276 112.418C208.469 112.451 208.652 112.321 208.685 112.127L216.134 68.2963C217.561 59.8978 225.119 53.9483 233.616 54.5305Z" fill="#10B981"/>
<path fill-rule="evenodd" clip-rule="evenodd" d="M250.598 112.285L254.404 82.6967C254.77 79.8482 252.758 77.242 249.909 76.8756C249.689 76.8473 249.468 76.8331 249.246 76.8331C245.72 76.8331 242.593 79.1008 241.498 82.4528L231.747 112.305L250.598 112.285Z" fill="white"/>
<path d="M250.904 112.423C251.083 112.423 251.233 112.29 251.256 112.113L255.061 82.5251C255.453 79.4823 253.303 76.6983 250.261 76.3069C250.026 76.2767 249.789 76.2615 249.552 76.2615C245.872 76.2615 242.61 78.6279 241.467 82.1258L231.716 111.978C231.641 112.207 231.812 112.442 232.053 112.442L250.904 112.423ZM250.592 111.714L232.542 111.732L242.141 82.3461C243.189 79.14 246.179 76.971 249.552 76.971C249.759 76.971 249.965 76.9842 250.17 77.0106C252.824 77.352 254.699 79.7804 254.358 82.4346L250.592 111.714Z" fill="#10B981"/>
<path fill-rule="evenodd" clip-rule="evenodd" d="M156.784 184.903L192.904 173.129C196.998 171.794 199.985 168.258 200.615 163.999L208.336 111.832H250.192L242.786 178.115C241.482 189.79 235.193 200.331 225.538 207.025L184.452 235.509L156.784 184.903Z" fill="#D1FAE5"/>
<path fill-rule="evenodd" clip-rule="evenodd" d="M243.57 172.133C235.214 176.705 229.145 181.907 225.361 187.74C221.578 193.574 218.346 202.323 215.666 213.989C217.98 212.302 219.951 210.883 221.578 209.733C228.24 205.025 233.36 200.742 236.476 195.781C240.732 189.002 243.097 181.119 243.57 172.133Z" fill="#6EE7B7"/>
<path d="M198.106 169.102C198.109 169.098 198.112 169.093 198.115 169.089C198.125 169.076 198.134 169.064 198.145 169.053C199.285 167.586 200.056 165.827 200.338 163.917L208.052 111.799C208.078 111.625 208.227 111.497 208.403 111.497H250.259C250.471 111.497 250.635 111.68 250.612 111.891L247.395 140.677C247.45 140.746 247.48 140.836 247.471 140.93C247.462 141.03 247.412 141.117 247.339 141.175L243.21 178.133C241.892 189.934 235.525 200.585 225.755 207.334L184.89 235.564C184.759 235.655 184.583 235.647 184.461 235.545C178.837 230.854 174.157 224.905 170.421 217.7C166.695 210.513 162.51 199.381 157.864 184.298C157.807 184.112 157.91 183.915 158.095 183.855L192.803 172.783C194.941 172.101 196.771 170.8 198.106 169.102ZM169.751 180.882L158.645 184.424C163.239 199.3 167.376 210.285 171.051 217.373C174.699 224.408 179.251 230.225 184.709 234.827L195.123 227.632L169.751 180.882ZM170.439 180.662L195.71 227.227L225.352 206.75C234.953 200.118 241.209 189.651 242.505 178.054L246.622 141.21L204.993 137.468C204.986 137.467 204.978 137.467 204.97 137.465L201.04 164.021C200.756 165.939 200.01 167.714 198.907 169.22L223.677 186.979C223.836 187.093 223.873 187.315 223.759 187.474C223.644 187.633 223.423 187.67 223.264 187.556L198.471 169.78C197.069 171.47 195.193 172.765 193.018 173.459L170.439 180.662ZM205.074 136.763L246.701 140.505L249.862 112.206H208.709L205.074 136.763Z" fill="#10B981"/>
<path fill-rule="evenodd" clip-rule="evenodd" d="M91.7524 192.234C91.7524 192.234 80.7168 197.988 58.6457 209.496L68.0378 226.739L96.4819 207.585C93.3289 197.351 91.7524 192.234 91.7524 192.234Z" fill="#6EE7B7"/>
<path fill-rule="evenodd" clip-rule="evenodd" d="M311.202 270.507L304.345 214.699L307.892 213.043L322.553 191.288L325.155 190.578C326.096 190.353 326.805 190.353 327.283 190.578C327.761 190.803 328.391 191.434 329.175 192.47V258.683C328.654 259.936 328.181 260.803 327.756 261.285C327.33 261.767 326.621 262.24 325.628 262.703L311.202 270.507ZM248.063 319.694L292.994 303.141L295.122 309.289L324.445 316.857L325.628 318.985C325.361 320.548 325.045 321.652 324.682 322.295C324.318 322.939 323.608 323.649 322.553 324.424L261.306 338.849C260.039 338.976 259.014 338.818 258.232 338.376C257.449 337.934 256.661 337.067 255.867 335.775L248.063 319.694Z" fill="white"/>
<path d="M91.4192 191.939L58.3126 209.202C58.1366 209.293 58.0701 209.511 58.1651 209.686L67.5572 226.929C67.6572 227.112 67.8934 227.17 68.0668 227.053L96.5109 207.899C96.6406 207.811 96.6978 207.65 96.6518 207.5L91.9222 192.149C91.857 191.937 91.6157 191.836 91.4192 191.939ZM95.8963 207.457L67.9938 226.247L58.9608 209.664L91.3696 192.765L95.8963 207.457Z" fill="#10B981"/>
<path fill-rule="evenodd" clip-rule="evenodd" d="M193.201 250.88V251.609L160.804 188.923L114.928 208.314C115.783 236.31 119.702 254.913 126.684 264.122C133.667 273.332 146.065 276.248 163.878 272.872H189.654L193.201 250.88Z" fill="#D1FAE5"/>
<path d="M193.623 250.88V251.609C193.623 251.745 193.556 251.848 193.462 251.907L190.071 272.928C190.044 273.1 189.895 273.227 189.721 273.227H163.979C146.064 276.616 133.542 273.665 126.469 264.337C119.429 255.052 115.497 236.39 114.64 208.325C114.636 208.178 114.722 208.044 114.857 207.987L160.733 188.596C160.904 188.524 161.101 188.595 161.186 188.76L193.122 250.553C193.332 250.465 193.623 250.584 193.623 250.88ZM193.531 251.473L193.548 251.376L193.494 251.272C193.526 251.334 193.539 251.404 193.531 251.473ZM160.707 189.377L115.357 208.546C116.225 236.338 120.129 254.801 127.034 263.908C133.922 272.992 146.185 275.877 163.879 272.523L163.945 272.517H189.419L192.81 251.494L160.707 189.377Z" fill="#10B981"/>
<path fill-rule="evenodd" clip-rule="evenodd" d="M184.688 235.509L187.053 240.002C179.786 245.734 174.032 249.754 169.79 252.062C165.548 254.37 160.898 256.498 155.838 258.447L153 253.481C157.612 251.49 162.027 249.283 166.243 246.86C170.46 244.437 176.608 240.653 184.688 235.509Z" fill="#6EE7B7"/>
<path fill-rule="evenodd" clip-rule="evenodd" d="M198.641 331.755L310.73 270.98L304.582 214.935L193.438 269.561" fill="#6EE7B7"/>
<path d="M184.489 234.978C176.175 240.582 169.719 244.677 165.123 247.26C160.536 249.838 156.221 251.799 152.178 253.144C151.993 253.206 151.892 253.407 151.954 253.593C152.016 253.779 152.217 253.879 152.402 253.818C156.49 252.457 160.846 250.478 165.47 247.878C170.086 245.284 176.557 241.18 184.886 235.566C185.048 235.457 185.091 235.236 184.982 235.074C184.872 234.912 184.652 234.869 184.489 234.978Z" fill="#10B981"/>
<path d="M187.009 239.719C179.29 245.572 172.548 250.056 166.784 253.169C161.046 256.268 157.134 257.911 155.097 258.094C154.902 258.111 154.758 258.283 154.776 258.479C154.793 258.674 154.966 258.818 155.161 258.8C157.327 258.606 161.297 256.939 167.121 253.793C172.92 250.661 179.691 246.158 187.437 240.284C187.593 240.166 187.624 239.944 187.505 239.787C187.387 239.631 187.165 239.601 187.009 239.719Z" fill="#10B981"/>
<path d="M310.469 270.659C310.456 270.629 310.448 270.597 310.444 270.564L304.298 215.246L193.425 269.88C193.249 269.966 193.036 269.894 192.95 269.718C192.863 269.542 192.936 269.33 193.111 269.243L307.245 213.003L321.845 191.478C322.359 190.721 323.22 190.273 324.135 190.285C324.46 190.29 324.77 190.351 325.057 190.46C325.076 190.427 325.109 190.388 325.155 190.342C325.313 190.184 325.497 190.084 325.708 190.042C325.921 190 326.138 189.978 326.355 189.978C328.191 189.975 329.682 191.461 329.685 193.298L329.784 256.817C329.789 259.548 328.427 262.237 325.814 262.897L325.813 262.945C325.811 263.073 325.74 263.191 325.627 263.252L198.64 332.066C198.467 332.16 198.252 332.096 198.159 331.924C198.065 331.751 198.129 331.536 198.302 331.443L310.469 270.659ZM311.129 270.302L325.107 262.727L326.106 193.034C326.122 191.924 325.235 191.011 324.125 190.995C323.448 190.985 322.812 191.317 322.433 191.877L307.78 213.479C307.745 213.53 307.698 213.571 307.643 213.598L304.907 214.946C304.958 215 304.992 215.07 305.001 215.15L311.129 270.302ZM325.787 190.875C326.424 191.381 326.828 192.167 326.816 193.044L325.824 262.158C328.001 261.498 329.078 259.158 329.075 256.819L328.976 193.299C328.973 191.854 327.8 190.685 326.356 190.687C326.185 190.688 326.015 190.705 325.847 190.738C325.826 190.79 325.806 190.836 325.787 190.875Z" fill="#10B981"/>
<path fill-rule="evenodd" clip-rule="evenodd" d="M109.252 262.248L112.866 281.875L139.822 329.453C146.914 341.972 162.032 347.509 175.533 342.531L184.98 339.048C194.069 335.697 201.91 329.636 207.443 321.684L231.86 286.588L248.064 319.694L292.994 303.141L261.408 228.439C257.947 220.254 249.923 214.935 241.036 214.935C231.647 214.935 222.639 218.655 215.986 225.281L173.641 267.45" fill="#D1FAE5"/>
<path fill-rule="evenodd" clip-rule="evenodd" d="M214.248 226.995C221.815 232.829 229.698 237.006 237.896 239.529C246.093 242.051 255.158 241.499 265.09 237.873C262.873 230.529 260.43 225.405 257.76 222.502C254.578 219.044 248.646 215.966 245.226 215.172C240.738 214.13 232.45 215.335 225.835 218.482C222.653 219.996 218.791 222.834 214.248 226.995Z" fill="#6EE7B7"/>
<path d="M325.515 318.222L325.642 318.191L325.648 318.213C326.384 321.268 324.505 324.342 321.449 325.078L262.375 339.319C259.71 339.962 256.954 338.734 255.642 336.344C255.53 336.327 255.43 336.255 255.378 336.148L231.805 287.272L207.734 321.869C202.16 329.881 194.26 335.988 185.103 339.364L175.655 342.847C161.992 347.884 146.691 342.281 139.513 329.611L112.558 282.033C112.538 281.999 112.524 281.961 112.517 281.922L108.903 262.295C108.868 262.102 108.995 261.917 109.188 261.882C109.38 261.846 109.565 261.974 109.601 262.166L113.204 281.735L140.13 329.261C147.137 341.629 162.073 347.099 175.41 342.181L184.857 338.698C193.878 335.372 201.661 329.356 207.152 321.464L231.569 286.368C231.724 286.145 232.062 286.172 232.18 286.416L248.05 319.321L292.474 302.955L265.814 239.797V239.797C250.039 247.487 232.405 243.799 212.958 228.78L173.891 267.684C173.752 267.823 173.527 267.822 173.389 267.683C173.251 267.544 173.251 267.32 173.39 267.182L215.736 225.012C222.455 218.321 231.553 214.563 241.036 214.563C250.065 214.563 258.215 219.97 261.726 228.288L293.201 302.853C293.257 302.893 293.301 302.949 293.327 303.018C293.348 303.076 293.354 303.137 293.345 303.194L295.684 308.735L323.466 315.749C324.458 316 325.226 316.787 325.452 317.786C325.485 317.932 325.506 318.078 325.515 318.222ZM325.088 319.855C324.716 320.435 324.125 320.874 323.4 321.038L256.38 336.203C257.578 338.181 259.931 339.179 262.209 338.63L321.283 324.388C323.462 323.863 324.957 321.981 325.088 319.855ZM248.36 319.963L255.895 335.586L323.243 320.347C324.326 320.102 325.005 319.025 324.76 317.942C324.593 317.204 324.026 316.622 323.292 316.437L295.339 309.38C295.231 309.352 295.142 309.276 295.099 309.174L292.75 303.609L248.36 319.963ZM265.538 239.143L261.073 228.564C257.673 220.509 249.779 215.273 241.036 215.273C231.74 215.273 222.823 218.956 216.236 225.515L213.465 228.275C232.702 243.106 250.045 246.713 265.538 239.143V239.143Z" fill="#10B981"/>
<path fill-rule="evenodd" clip-rule="evenodd" d="M132.427 184.193L43.9768 240.68C23.8576 253.528 16.4674 279.356 26.7449 300.902L33.0878 314.2C44.3334 337.775 72.5616 347.771 96.1374 336.525C97.3964 335.925 98.6282 335.269 99.8292 334.559L140.293 310.658C147.828 306.207 153.981 299.752 158.066 292.012L158.558 291.081C162.791 283.059 162.924 273.495 158.914 265.359L148.98 245.204C134.236 256.197 126.274 263.765 125.096 267.906C124.046 271.599 112.023 279.207 89.0288 290.729C84.0417 293.228 77.9712 291.477 75.0815 286.706C72.7603 282.873 73.9856 277.885 77.8182 275.564C78.2563 275.298 78.7185 275.075 79.1987 274.897L122.258 258.92" fill="#D1FAE5"/>
<path fill-rule="evenodd" clip-rule="evenodd" d="M25.539 298.648C26.7214 301.959 31.8555 312.323 33.8157 315.674C35.8779 319.2 38.0722 322.532 40.9099 325.843C43.7201 329.121 47.5009 332.363 53.2067 335.302C55.1158 336.285 57.1653 337.31 59.3551 338.376C57.8822 325.947 56.2269 317.277 54.3891 312.364C52.8992 308.381 51.3838 304.388 49.1866 301.249C43.6688 293.367 34.7505 285.399 22.4316 277.346C21.3502 282.719 22.386 289.82 25.539 298.648Z" fill="#6EE7B7"/>
<path fill-rule="evenodd" clip-rule="evenodd" d="M126.751 263.413L127.224 269.561C132.914 280.332 136.413 286.835 137.72 289.069C139.094 291.42 141.823 297.214 145.906 306.452C150.48 302.489 154.106 298.39 156.783 294.155C159.46 289.92 161.116 285.663 161.749 281.385C162.38 275.71 160.804 269.325 157.02 262.231C155.133 258.692 152.374 252.78 148.743 244.495C138.453 249.944 131.28 254.437 127.224 257.974C123.168 261.511 123.011 263.324 126.751 263.413Z" fill="white"/>
<path d="M158.426 265.299C162.385 273.333 162.254 282.778 158.074 290.698L157.582 291.63C153.528 299.312 147.421 305.718 139.942 310.136L99.3341 334.123C98.1858 334.801 97.0092 335.43 95.8073 336.008C72.4448 347.245 44.3962 337.416 33.1591 314.053L27.051 301.354C16.8389 280.123 23.947 254.61 43.6666 241.718L131.202 184.49C131.366 184.383 131.412 184.163 131.305 183.999C131.197 183.835 130.978 183.789 130.814 183.896L43.2784 241.125C23.2608 254.211 16.0453 280.109 26.4117 301.662L32.5198 314.361C43.9267 338.076 72.3992 348.054 96.1148 336.647C97.3348 336.061 98.5293 335.422 99.6949 334.734L140.303 310.747C147.895 306.262 154.094 299.759 158.21 291.961L158.701 291.029C162.988 282.908 163.122 273.223 159.062 264.986L149.129 244.831C149.044 244.659 148.839 244.586 148.665 244.664C136.904 249.937 129.687 253.883 126.976 256.538C125.736 257.752 125.049 259.286 124.767 261.146C124.592 262.306 124.579 263.308 124.651 265.1C124.714 266.674 124.709 267.157 124.585 267.592C123.578 271.132 111.541 278.75 88.6999 290.195C83.8781 292.612 78.0089 290.919 75.2149 286.305C73.0296 282.697 74.1831 278 77.7915 275.815C78.2359 275.546 78.7065 275.323 79.1962 275.149L124.032 259.254C124.217 259.189 124.313 258.986 124.248 258.801C124.182 258.617 123.979 258.52 123.795 258.586L78.9591 274.48C78.424 274.67 77.9096 274.914 77.424 275.208C73.4805 277.596 72.2198 282.729 74.6081 286.673C77.5936 291.602 83.8653 293.412 89.0178 290.83C112.166 279.23 124.174 271.631 125.267 267.786C125.422 267.244 125.427 266.751 125.36 265.072C125.29 263.322 125.302 262.355 125.469 261.252C125.728 259.534 126.353 258.141 127.472 257.045C130.078 254.494 137.148 250.618 148.643 245.451L158.426 265.299Z" fill="#10B981"/>
<path fill-rule="evenodd" clip-rule="evenodd" d="M160.871 188.875C152.607 170.517 147.641 158.322 145.973 152.288C140.563 132.73 136.788 115.671 116.582 115.671C96.3759 115.671 79.9956 132.052 79.9956 152.258C79.9956 158.014 84.9616 176.469 94.8936 207.624C109.542 207.565 121.393 206.835 130.446 205.435C139.5 204.035 149.641 198.515 160.871 188.875Z" fill="#D1FAE5" stroke="#10B981" stroke-width="0.842617" stroke-linecap="round" stroke-linejoin="round"/>
<path fill-rule="evenodd" clip-rule="evenodd" d="M160.803 188.819C152.54 170.461 147.574 158.265 145.905 152.232C140.496 132.674 136.721 115.615 116.515 115.615C96.3088 115.615 79.9286 131.995 79.9286 152.202C79.9286 157.957 84.8946 176.412 94.8266 207.567C109.475 207.508 121.326 206.779 130.379 205.379C139.433 203.979 149.574 198.459 160.803 188.819Z" fill="#D1FAE5"/>
<path fill-rule="evenodd" clip-rule="evenodd" d="M160.803 188.819C152.54 170.461 147.574 158.265 145.905 152.232C140.496 132.674 136.721 115.615 116.515 115.615C96.3088 115.615 79.9286 131.995 79.9286 152.202C79.9286 157.957 84.8946 176.412 94.8266 207.567C109.475 207.508 121.326 206.779 130.379 205.379C139.433 203.979 149.574 198.459 160.803 188.819Z" stroke="#10B981" stroke-width="0.842617" stroke-linecap="round" stroke-linejoin="round"/>
<path d="M161.127 188.673C152.872 170.333 147.91 158.148 146.248 152.138C146.03 151.351 145.066 147.838 144.806 146.902C141.623 135.416 139.421 129.551 135.875 124.623C131.397 118.4 125.272 115.26 116.515 115.26C96.1134 115.26 79.5744 131.8 79.5744 152.202C79.5744 158.013 84.5408 176.469 94.4892 207.675C94.5362 207.823 94.6736 207.922 94.8285 207.922C109.493 207.864 121.36 207.133 130.434 205.73C139.563 204.318 149.76 198.768 161.035 189.088C161.154 188.986 161.192 188.817 161.127 188.673ZM130.325 205.029C121.345 206.418 109.598 207.146 95.086 207.212C85.223 176.258 80.2838 157.888 80.2838 152.202C80.2838 132.192 96.5053 115.97 116.515 115.97C125.044 115.97 130.955 118.999 135.299 125.037C138.78 129.874 140.962 135.685 144.123 147.091C144.382 148.027 145.346 151.539 145.564 152.327C147.232 158.357 152.166 170.483 160.372 188.722C149.268 198.217 139.25 203.649 130.325 205.029Z" fill="#10B981"/>
<path d="M99.4028 169.039C99.4028 169.039 119.158 176.796 149.174 166.247C149.69 166.066 150.256 165.742 150.873 165.275C149.321 162.17 148.375 160.042 148.035 158.89C146.651 154.202 146.523 151.224 144.961 148.249C143.951 146.326 143.597 143.044 142.596 139.972C142.056 138.315 141.031 135.713 139.522 132.169C138.022 129.192 136.997 127.221 136.448 126.257C135.606 124.78 135.605 123.339 134.508 123.498C128.575 124.362 122.178 128.209 115.315 135.042C99.3684 150.918 99.4028 169.039 99.4028 169.039Z" fill="#10B981"/>
<path fill-rule="evenodd" clip-rule="evenodd" d="M112.09 138.553C113.745 136.662 114.661 135.477 116.11 134.06C117.559 132.644 119.421 130.986 122.731 128.621C124.466 133.193 126.2 138.159 128.407 144.938C131.718 155.107 126.475 156.71 120.13 149.904C115.9 145.367 113.378 141.741 112.09 138.553ZM130.847 137.966C132.027 138.048 132.669 143.166 133.03 144.045C133.231 144.534 132.996 145.094 132.507 145.295C132.059 145.478 131.545 145.3 131.308 144.879C129.926 142.426 129.24 140.953 129.25 140.462C129.276 139.218 129.668 137.883 130.847 137.966Z" fill="white"/>
<path d="M124.218 257.974C140.151 257.974 153.068 245.057 153.068 229.124C153.068 213.19 140.151 200.274 124.218 200.274C108.284 200.274 95.3677 213.19 95.3677 229.124C95.3677 245.057 108.284 257.974 124.218 257.974Z" fill="#10B981"/>
<path d="M99.7331 166.616C97.239 155.549 100.902 145.027 110.754 135.019C120.608 125.008 127.57 120.158 131.521 120.462C131.716 120.477 131.466 120.54 131.481 120.345C131.496 120.149 131.44 120.123 131.244 120.108C131.131 120.1 131.347 119.741 131.23 119.74C126.949 119.694 119.992 124.623 110.249 134.521C100.237 144.692 96.4902 155.453 99.041 166.772C99.0841 166.963 99.2739 167.083 99.465 167.04C99.6561 166.997 99.7761 166.807 99.7331 166.616Z" fill="#10B981"/>
<path fill-rule="evenodd" clip-rule="evenodd" d="M105.536 251.589L116.177 224.377L142.866 216.641C143.87 216.35 144.919 216.928 145.21 217.932C145.385 218.536 145.248 219.187 144.846 219.67L129.656 237.873L128.407 257.974L105.536 251.589Z" fill="white"/>
<path fill-rule="evenodd" clip-rule="evenodd" d="M116.118 224.394C112.487 228.36 110.179 230.967 109.193 232.215C104.016 238.769 104.206 241.245 106.659 242.84C111.388 245.914 116.287 252.079 119.598 246.404C121.805 242.62 120.645 235.284 116.118 224.394Z" fill="#D1FAE5"/>
<path d="M115.915 224.138C116.09 223.946 116.404 224.002 116.504 224.241C121.072 235.228 122.246 242.652 119.963 246.565C118.661 248.797 117.003 249.469 114.972 248.822C113.504 248.355 112.393 247.596 109.442 245.275C108.735 244.72 108.321 244.4 107.877 244.069C107.387 243.704 106.945 243.393 106.524 243.12C103.551 241.187 104.094 238.155 108.973 231.978C109.967 230.721 112.278 228.11 115.915 224.138ZM119.35 246.208C121.448 242.612 120.371 235.536 116.061 225.028C112.654 228.757 110.474 231.222 109.53 232.418C104.874 238.311 104.411 240.9 106.911 242.525C107.345 242.807 107.799 243.127 108.301 243.5C108.751 243.836 109.169 244.159 109.88 244.718C112.751 246.975 113.836 247.716 115.187 248.146C116.897 248.69 118.213 248.157 119.35 246.208ZM130.48 236.962C130.591 236.801 130.812 236.761 130.973 236.873C131.134 236.984 131.174 237.205 131.062 237.366C129.688 239.345 128.424 240.356 127.224 240.356C127.028 240.356 126.869 240.198 126.869 240.002C126.869 239.806 127.028 239.647 127.224 239.647C128.126 239.647 129.226 238.767 130.48 236.962Z" fill="#10B981"/>
<path d="M98.137 173.315C100.096 173.315 101.684 171.727 101.684 169.768C101.684 167.809 100.096 166.221 98.137 166.221C96.178 166.221 94.5898 167.809 94.5898 169.768C94.5898 171.727 96.178 173.315 98.137 173.315Z" fill="white"/>
<path d="M97.9687 173.67C100.124 173.67 101.871 171.923 101.871 169.768C101.871 167.613 100.124 165.866 97.9687 165.866C95.8138 165.866 94.0669 167.613 94.0669 169.768C94.0669 171.923 95.8138 173.67 97.9687 173.67ZM97.9687 172.961C96.2056 172.961 94.7763 171.531 94.7763 169.768C94.7763 168.005 96.2056 166.576 97.9687 166.576C99.7319 166.576 101.161 168.005 101.161 169.768C101.161 171.531 99.7319 172.961 97.9687 172.961Z" fill="#10B981"/>
<path d="M97.9682 171.778C99.1992 171.778 100.215 170.89 100.215 169.768C100.215 168.647 99.1992 167.758 97.9682 167.758C96.7373 167.758 95.7217 168.647 95.7217 169.768C95.7217 170.89 96.7373 171.778 97.9682 171.778ZM97.9682 171.069C97.1096 171.069 96.4311 170.475 96.4311 169.768C96.4311 169.061 97.1096 168.468 97.9682 168.468C98.8269 168.468 99.5053 169.061 99.5053 169.768C99.5053 170.475 98.8269 171.069 97.9682 171.069Z" fill="#10B981"/>
<path fill-rule="evenodd" clip-rule="evenodd" d="M128.407 256.319L127.055 269.561L106.955 281.385L91.0437 289.662L83.24 279.257C89.7648 278.879 93.4696 277.854 94.3544 276.183C96.9731 271.236 100.678 263.117 105.469 251.826L128.407 256.319Z" fill="white"/>
<path d="M128.475 255.734C128.655 255.769 128.779 255.936 128.76 256.118L127.408 269.361C127.397 269.473 127.333 269.573 127.235 269.631L107.119 281.463L91.2077 289.74C91.0537 289.82 90.8644 289.777 90.7603 289.638L82.9565 279.233C82.7868 279.007 82.9373 278.683 83.2198 278.666C89.6127 278.296 93.2408 277.292 94.0412 275.78C96.654 270.844 100.355 262.733 105.143 251.451C105.208 251.296 105.373 251.209 105.537 251.241L128.475 255.734ZM105.683 251.993C100.943 263.154 97.2722 271.193 94.6682 276.112C93.7315 277.882 90.1672 278.918 83.9186 279.334L91.1473 288.972L106.775 280.843L126.721 269.11L128.022 256.368L105.683 251.993ZM126.876 269.019L126.702 269.289L126.721 269.11L126.876 269.019Z" fill="#10B981"/>
<path fill-rule="evenodd" clip-rule="evenodd" d="M42.0925 159.6C39.7417 159.6 37.8359 157.694 37.8359 155.343C37.8359 152.992 39.7417 151.087 42.0925 151.087C44.4434 151.087 46.3491 152.992 46.3491 155.343C46.3491 157.694 44.4434 159.6 42.0925 159.6ZM83.7123 170.241L84.8278 174.498C84.5602 174.588 84.2953 174.687 84.0334 174.793C76.5557 177.82 72.9474 186.335 75.9741 193.813L78.2064 199.328L73.9499 201.693L71.4317 193.495C68.7155 184.652 72.9693 175.165 81.3786 171.311L83.7123 170.241Z" fill="white"/>
<path d="M51.9022 175.259C51.913 175.187 51.9009 175.112 51.8677 175.047L43.8275 159.203C43.7388 159.028 43.5253 158.958 43.3506 159.047C43.1759 159.136 43.1062 159.349 43.1948 159.524L51.1839 175.267L50.2546 181.54C50.2308 181.701 50.3189 181.857 50.4685 181.919L56.9541 184.634L67.5559 204.335C67.6487 204.508 67.8638 204.572 68.0363 204.479C68.2088 204.387 68.2734 204.171 68.1806 203.999L57.5192 184.187C57.4807 184.115 57.4188 184.059 57.3438 184.028L50.9967 181.371L51.9022 175.259Z" fill="#10B981"/>
<path d="M41.9233 159.955C39.3766 159.955 37.312 157.89 37.312 155.343C37.312 152.797 39.3766 150.732 41.9233 150.732C44.47 150.732 46.5346 152.797 46.5346 155.343C46.5346 157.89 44.47 159.955 41.9233 159.955ZM41.9233 159.245C44.0782 159.245 45.8252 157.498 45.8252 155.343C45.8252 153.188 44.0782 151.441 41.9233 151.441C39.7684 151.441 38.0214 153.188 38.0214 155.343C38.0214 157.498 39.7684 159.245 41.9233 159.245ZM83.3953 169.919C83.5957 169.827 83.8304 169.938 83.8863 170.151L85.0017 174.408C85.0489 174.588 84.9487 174.774 84.7724 174.834C84.5113 174.922 84.2528 175.018 83.9973 175.122C76.7012 178.075 73.1805 186.384 76.1337 193.68L78.366 199.195C78.4332 199.361 78.3661 199.551 78.2095 199.638L73.9529 202.003C73.7558 202.112 73.5078 202.012 73.4416 201.797L70.9235 193.599C68.155 184.586 72.4906 174.917 81.0616 170.988L83.3953 169.919ZM81.3571 171.633C73.1096 175.414 68.9376 184.718 71.6016 193.391L73.9912 201.17L77.5907 199.17L75.4761 193.946C72.3759 186.287 76.0718 177.564 83.7311 174.464C83.8971 174.397 84.0643 174.333 84.2326 174.272L83.307 170.74L81.3571 171.633Z" fill="#10B981"/>
<path d="M50.9277 298.805C57.1221 307.249 61.068 320.743 62.7824 339.289L62.076 339.354C60.3474 320.654 56.3447 307.155 50.0858 298.862C44.9696 292.083 39.4761 286.499 33.82 281.998C29.6686 278.694 25.7841 276.245 22.3815 274.538L22.6997 273.904C26.1449 275.632 30.0708 278.107 34.2618 281.443C39.9069 285.935 45.3889 291.495 50.498 298.231L74.3206 285.33C74.4929 285.236 74.7081 285.301 74.8014 285.473C74.8947 285.645 74.8307 285.86 74.6584 285.954L50.9277 298.805ZM84.7683 292.098C84.6744 291.926 84.7377 291.711 84.9097 291.617C85.0816 291.523 85.2971 291.586 85.391 291.758L106.489 330.402C106.583 330.574 106.519 330.79 106.347 330.884C106.175 330.977 105.96 330.914 105.866 330.742L84.7683 292.098ZM77.0273 275.79C77.1137 275.966 77.0411 276.178 76.8653 276.265C76.6894 276.351 76.4769 276.278 76.3905 276.103L55.4895 233.537C55.4031 233.361 55.4757 233.148 55.6515 233.062C55.8274 232.976 56.0399 233.048 56.1263 233.224L77.0273 275.79Z" fill="#10B981"/>
<path d="M95.0628 207.841L105.535 229.124" stroke="#10B981" stroke-width="0.842617" stroke-linecap="round" stroke-linejoin="round"/>
<path d="M127.173 269.443L145.906 306.287" stroke="#10B981" stroke-width="0.842617" stroke-linecap="round" stroke-linejoin="round"/>
<path d="M422.96 100.849C423.148 100.796 423.344 100.905 423.398 101.094C423.451 101.283 423.341 101.478 423.152 101.532L393.052 110.01C385.698 112.082 381.416 119.723 383.488 127.077C383.97 128.791 384.78 130.396 385.871 131.803L390.285 137.495C394.564 143.014 393.559 150.956 388.04 155.235C385.563 157.156 382.459 158.088 379.333 157.85L364.155 156.694C356.449 156.108 348.926 159.23 343.901 165.1L336.539 173.7C336.411 173.849 336.187 173.867 336.039 173.739C335.89 173.612 335.872 173.388 336 173.239L343.362 164.639C348.534 158.597 356.278 155.383 364.209 155.987L379.386 157.143C382.338 157.368 385.267 156.488 387.606 154.674C392.815 150.635 393.763 143.139 389.724 137.93L385.31 132.238C384.163 130.758 383.312 129.071 382.805 127.269C380.627 119.538 385.129 111.505 392.86 109.328L422.96 100.849ZM370.795 203.584V197.436C370.795 197.175 371.007 196.963 371.268 196.963C371.529 196.963 371.741 197.175 371.741 197.436V203.584H377.889C378.15 203.584 378.362 203.796 378.362 204.057C378.362 204.319 378.15 204.53 377.889 204.53H371.741V210.679C371.741 210.94 371.529 211.152 371.268 211.152C371.007 211.152 370.795 210.94 370.795 210.679V204.53H364.646C364.385 204.53 364.173 204.319 364.173 204.057C364.173 203.796 364.385 203.584 364.646 203.584H370.795ZM149.453 52.2396V46.0912C149.453 45.83 149.665 45.6182 149.926 45.6182C150.187 45.6182 150.399 45.83 150.399 46.0912V52.2396H156.547C156.809 52.2396 157.02 52.4513 157.02 52.7125C157.02 52.9737 156.809 53.1855 156.547 53.1855H150.399V59.3339C150.399 59.5951 150.187 59.8068 149.926 59.8068C149.665 59.8068 149.453 59.5951 149.453 59.3339V53.1855H143.305C143.043 53.1855 142.832 52.9737 142.832 52.7125C142.832 52.4513 143.043 52.2396 143.305 52.2396H149.453ZM349.985 79.6708V73.5224C349.985 73.2612 350.197 73.0495 350.458 73.0495C350.719 73.0495 350.931 73.2612 350.931 73.5224V79.6708H357.079C357.34 79.6708 357.552 79.8826 357.552 80.1438C357.552 80.405 357.34 80.6167 357.079 80.6167H350.931V86.7651C350.931 87.0263 350.719 87.2381 350.458 87.2381C350.197 87.2381 349.985 87.0263 349.985 86.7651V80.6167H343.837C343.575 80.6167 343.364 80.405 343.364 80.1438C343.364 79.8826 343.575 79.6708 343.837 79.6708H349.985ZM5.20248 203.584V198.855C5.20248 198.594 5.41423 198.382 5.67543 198.382C5.93664 198.382 6.14838 198.594 6.14838 198.855V203.584H10.8779C11.1391 203.584 11.3509 203.796 11.3509 204.057C11.3509 204.319 11.1391 204.53 10.8779 204.53H6.14838V209.26C6.14838 209.521 5.93664 209.733 5.67543 209.733C5.41423 209.733 5.20248 209.521 5.20248 209.26V204.53H0.472953C0.211748 204.53 0 204.319 0 204.057C0 203.796 0.211748 203.584 0.472953 203.584H5.20248ZM295.359 135.006V130.513C295.359 130.252 295.571 130.04 295.832 130.04C296.093 130.04 296.305 130.252 296.305 130.513V135.006H300.798C301.059 135.006 301.271 135.218 301.271 135.479C301.271 135.74 301.059 135.952 300.798 135.952H296.305V140.445C296.305 140.706 296.093 140.918 295.832 140.918C295.571 140.918 295.359 140.706 295.359 140.445V135.952H290.866C290.605 135.952 290.393 135.74 290.393 135.479C290.393 135.218 290.605 135.006 290.866 135.006H295.359ZM175.229 121.054V116.561C175.229 116.3 175.441 116.088 175.702 116.088C175.963 116.088 176.175 116.3 176.175 116.561V121.054H180.668C180.929 121.054 181.141 121.266 181.141 121.527C181.141 121.788 180.929 122 180.668 122H176.175V126.493C176.175 126.754 175.963 126.966 175.702 126.966C175.441 126.966 175.229 126.754 175.229 126.493V122H170.736C170.475 122 170.263 121.788 170.263 121.527C170.263 121.266 170.475 121.054 170.736 121.054H175.229Z" fill="#10B981"/>
<path fill-rule="evenodd" clip-rule="evenodd" d="M128.723 224.149C126.425 222.502 124.546 222.091 123.084 222.914C120.891 224.149 118.071 226.619 119.638 229.707C121.204 232.795 122.457 235.265 124.024 235.265C125.59 235.265 128.409 235.574 129.976 232.177C131.02 229.913 130.602 227.237 128.723 224.149Z" fill="#D1FAE5"/>
<path fill-rule="evenodd" clip-rule="evenodd" d="M128.594 225.569C128.432 227.244 127.874 228.323 126.921 228.807C126.087 229.23 124.783 229.476 123.008 229.546C122.225 229.577 121.566 228.967 121.535 228.184C121.524 227.915 121.59 227.65 121.725 227.417C122.7 225.731 123.565 224.697 124.32 224.314C125.111 223.912 126.144 223.819 127.418 224.034C128.152 224.157 128.666 224.828 128.594 225.569Z" fill="white"/>
<path d="M128.005 226.13C127.767 226.504 127.295 226.759 126.751 226.759C125.967 226.759 125.332 226.23 125.332 225.577C125.332 224.939 125.937 224.42 126.695 224.395C125.719 224.291 124.925 224.398 124.31 224.711C123.633 225.054 122.805 226.044 121.861 227.675C121.761 227.85 121.711 228.049 121.719 228.25C121.742 228.837 122.237 229.295 122.824 229.272C124.552 229.204 125.811 228.966 126.59 228.571C127.323 228.199 127.8 227.396 128.005 226.13ZM127.338 224.5C127.456 224.538 127.565 224.596 127.66 224.669C127.563 224.601 127.455 224.544 127.338 224.5ZM128.777 225.684C128.604 227.468 127.99 228.656 126.911 229.204C126.023 229.654 124.673 229.909 122.852 229.981C121.873 230.019 121.049 229.257 121.01 228.278C120.997 227.943 121.079 227.611 121.247 227.32C122.255 225.579 123.157 224.5 123.989 224.078C124.856 223.638 125.964 223.538 127.306 223.764C128.225 223.919 128.867 224.757 128.777 225.684Z" fill="#10B981"/>
<path fill-rule="evenodd" clip-rule="evenodd" d="M143.541 216.477C142.434 216.2 141.267 216.391 140.039 217.048L140.039 217.048C139.809 217.171 139.722 217.458 139.845 217.688C139.871 217.736 139.905 217.78 139.946 217.817C140.415 218.237 140.983 218.476 141.649 218.533C142.532 218.608 143.557 218.608 144.724 218.533C145.196 217.478 144.802 216.792 143.541 216.477Z" fill="#D1FAE5"/>
<path d="M143.864 216.083C142.667 215.783 141.41 215.988 140.108 216.685C139.705 216.9 139.553 217.402 139.769 217.805C139.815 217.89 139.875 217.966 139.947 218.031C140.474 218.503 141.114 218.772 141.856 218.836C142.758 218.913 143.8 218.913 144.983 218.836C145.114 218.828 145.23 218.747 145.284 218.627C145.852 217.359 145.329 216.449 143.864 216.083ZM141.916 218.129C141.325 218.078 140.831 217.87 140.42 217.503C140.41 217.493 140.401 217.482 140.395 217.47C140.364 217.413 140.386 217.341 140.443 217.31C141.597 216.693 142.676 216.517 143.692 216.771C144.665 217.014 144.967 217.423 144.715 218.142C143.657 218.202 142.724 218.198 141.916 218.129Z" fill="#10B981"/>
<path fill-rule="evenodd" clip-rule="evenodd" d="M437.481 79.6708L432.751 80.8532L444.812 92.677L446.231 87.9475" fill="white"/>
<path d="M256.104 320.404C258.063 320.404 259.651 318.816 259.651 316.857C259.651 314.898 258.063 313.309 256.104 313.309C254.145 313.309 252.557 314.898 252.557 316.857C252.557 318.816 254.145 320.404 256.104 320.404Z" fill="white"/>
<path d="M255.934 320.758C258.089 320.758 259.836 319.012 259.836 316.857C259.836 314.702 258.089 312.955 255.934 312.955C253.779 312.955 252.032 314.702 252.032 316.857C252.032 319.012 253.779 320.758 255.934 320.758ZM255.934 320.049C254.171 320.049 252.741 318.62 252.741 316.857C252.741 315.093 254.171 313.664 255.934 313.664C257.697 313.664 259.126 315.093 259.126 316.857C259.126 318.62 257.697 320.049 255.934 320.049Z" fill="#10B981"/>
<path d="M309.547 264.122C311.506 264.122 313.094 262.534 313.094 260.575C313.094 258.616 311.506 257.028 309.547 257.028C307.588 257.028 306 258.616 306 260.575C306 262.534 307.588 264.122 309.547 264.122Z" fill="white"/>
<path d="M309.548 264.477C311.703 264.477 313.45 262.73 313.45 260.575C313.45 258.42 311.703 256.673 309.548 256.673C307.393 256.673 305.646 258.42 305.646 260.575C305.646 262.73 307.393 264.477 309.548 264.477ZM309.548 263.768C307.785 263.768 306.355 262.338 306.355 260.575C306.355 258.812 307.785 257.383 309.548 257.383C311.311 257.383 312.74 258.812 312.74 260.575C312.74 262.338 311.311 263.768 309.548 263.768Z" fill="#10B981"/>
<path d="M255.934 318.867C257.165 318.867 258.181 317.978 258.181 316.857C258.181 315.735 257.165 314.846 255.934 314.846C254.703 314.846 253.688 315.735 253.688 316.857C253.688 317.978 254.703 318.867 255.934 318.867ZM255.934 318.157C255.076 318.157 254.397 317.564 254.397 316.857C254.397 316.15 255.076 315.556 255.934 315.556C256.793 315.556 257.471 316.15 257.471 316.857C257.471 317.564 256.793 318.157 255.934 318.157Z" fill="#10B981"/>
<path d="M309.547 262.585C310.778 262.585 311.794 261.697 311.794 260.575C311.794 259.454 310.778 258.565 309.547 258.565C308.316 258.565 307.301 259.454 307.301 260.575C307.301 261.697 308.316 262.585 309.547 262.585ZM309.547 261.876C308.689 261.876 308.01 261.282 308.01 260.575C308.01 259.868 308.689 259.275 309.547 259.275C310.406 259.275 311.084 259.868 311.084 260.575C311.084 261.282 310.406 261.876 309.547 261.876Z" fill="#10B981"/>
<path d="M101.276 170.03C104.991 173.422 113.104 174.933 125.644 174.616C138.16 174.299 147.047 172.395 152.318 168.881C152.481 168.772 152.525 168.552 152.416 168.389C152.307 168.226 152.087 168.182 151.924 168.291C146.79 171.714 138.02 173.593 125.626 173.907C113.258 174.22 105.291 172.736 101.754 169.506C101.609 169.374 101.385 169.384 101.253 169.529C101.121 169.674 101.131 169.898 101.276 170.03Z" fill="#10B981"/>
<path fill-rule="evenodd" clip-rule="evenodd" d="M509.973 10.1936C498.226 14.235 486.253 21.404 474.054 31.7007C461.471 42.3215 447.898 56.9023 433.335 75.443L449.701 91.2476C467.831 75.8451 481.93 61.7714 491.996 49.0266C501.758 36.6661 508.558 24.5046 512.395 12.5423C512.613 11.8633 512.426 11.1195 511.913 10.6241C511.399 10.1273 510.649 9.96096 509.973 10.1936Z" fill="#D1FAE5"/>
<path fill-rule="evenodd" clip-rule="evenodd" d="M491.398 19.1329L503.931 30.7202C510.71 18.4235 513.39 11.6445 511.971 10.3833C510.553 9.12207 503.695 12.0386 491.398 19.1329Z" fill="#6EE7B7"/>
<path fill-rule="evenodd" clip-rule="evenodd" d="M442.807 90.972L435.353 100.008L436.062 93.15L430.15 94.5688L432.515 89.3663H425.657L434.25 82.5826L432.051 80.4263L437.395 79.0902L437.567 79.7785L433.452 80.8071L444.641 91.7761L445.891 87.6091L446.57 87.8129L444.983 93.1049L442.807 90.972Z" fill="#10B981"/>
<path d="M473.818 31.2704C461.214 41.9085 447.625 56.5064 433.049 75.0647C432.936 75.2078 432.95 75.4126 433.081 75.539L449.447 91.3436C449.578 91.4703 449.784 91.4768 449.923 91.3588C468.07 75.9422 482.184 61.8525 492.267 49.0873C502.054 36.6951 508.875 24.4969 512.726 12.4915C512.985 11.6838 512.762 10.799 512.152 10.2098C511.542 9.62032 510.652 9.42302 509.85 9.69909C498.059 13.7557 486.049 20.9471 473.818 31.2704ZM433.804 75.2512C448.278 56.8479 461.77 42.3682 474.276 31.8126C486.443 21.5426 498.379 14.396 510.081 10.3699C510.631 10.1806 511.241 10.3159 511.659 10.7201C512.075 11.1216 512.227 11.7244 512.05 12.2748C508.227 24.1942 501.447 36.3187 491.71 48.6476C481.705 61.3146 467.705 75.3029 449.709 90.61L433.804 75.2512Z" fill="#10B981"/>
<path fill-rule="evenodd" clip-rule="evenodd" d="M457.672 50.3478L455.562 54.1037L433.576 75.3L417.121 76.2787L415.725 74.9309L457.672 50.3478ZM474.271 66.2417L450.424 108.611L449.052 107.239L449.743 90.7696L470.552 68.4168L474.271 66.2417Z" fill="white"/>
<path d="M457.262 50.2102C457.574 50.0272 457.928 50.3744 457.751 50.69L455.641 54.446L455.578 54.5276L433.592 75.7239C433.531 75.7826 433.451 75.8176 433.366 75.8226L416.911 76.8013C416.812 76.8072 416.715 76.7713 416.644 76.7024L415.248 75.3545C415.079 75.1914 415.113 74.9121 415.315 74.7933L457.262 50.2102ZM416.077 75.169L417.025 76.0839L433.193 75.1222L455.048 54.053L456.491 51.4846L416.077 75.169ZM455.085 54.0169L455.022 54.0985L455.048 54.053L455.085 54.0169ZM473.861 66.104C474.174 65.9213 474.527 66.2688 474.349 66.5842L450.502 108.954C450.387 109.158 450.108 109.197 449.942 109.03L448.57 107.658C448.5 107.588 448.463 107.492 448.467 107.393L449.158 90.9233C449.162 90.8388 449.195 90.7583 449.253 90.6964L470.062 68.3436L470.143 68.2791L473.861 66.104ZM470.546 68.8651L449.861 91.0839L449.182 107.267L450.113 108.198L473.089 67.3778L470.546 68.8651Z" fill="#10B981"/>
<path d="M484.303 46.5642C488.221 46.5642 491.397 43.388 491.397 39.4699C491.397 35.5518 488.221 32.3756 484.303 32.3756C480.385 32.3756 477.209 35.5518 477.209 39.4699C477.209 43.388 480.385 46.5642 484.303 46.5642Z" fill="white"/>
<path d="M484.399 46.7534C488.513 46.7534 491.848 43.4183 491.848 39.3043C491.848 35.1904 488.513 31.8553 484.399 31.8553C480.285 31.8553 476.95 35.1904 476.95 39.3043C476.95 43.4183 480.285 46.7534 484.399 46.7534ZM484.399 46.0439C480.677 46.0439 477.659 43.0265 477.659 39.3043C477.659 35.5822 480.677 32.5648 484.399 32.5648C488.121 32.5648 491.139 35.5822 491.139 39.3043C491.139 43.0265 488.121 46.0439 484.399 46.0439Z" fill="#10B981"/>
<path d="M484.304 43.1353C482.279 43.1353 480.638 41.4942 480.638 39.4699C480.638 37.4456 482.279 35.8045 484.304 35.8045C486.328 35.8045 487.969 37.4456 487.969 39.4699C487.969 41.4942 486.328 43.1353 484.304 43.1353ZM484.304 42.4258C485.936 42.4258 487.26 41.1024 487.26 39.4699C487.26 37.8374 485.936 36.5139 484.304 36.5139C482.671 36.5139 481.348 37.8374 481.348 39.4699C481.348 41.1024 482.671 42.4258 484.304 42.4258ZM491.156 19.1555L491.64 18.6374L504.282 30.4612L503.798 30.9793L491.156 19.1555Z" fill="#10B981"/>
<path d="M243.382 169.468C233.604 175.624 226.868 181.488 223.175 187.072C219.485 192.65 216.162 202.066 213.192 215.331L213.885 215.486C216.837 202.298 220.135 192.953 223.766 187.463C227.395 181.978 234.059 176.176 243.76 170.068L243.382 169.468Z" fill="#10B981"/>
<path fill-rule="evenodd" clip-rule="evenodd" d="M106.363 249.72C110.175 251.076 113.703 252.107 116.944 252.811C120.117 253.501 123.844 254.097 128.126 254.598C129.034 254.705 129.684 255.527 129.578 256.436C129.57 256.506 129.557 256.575 129.54 256.644L129.494 256.829C129.259 257.77 128.352 258.381 127.392 258.245C123.41 257.678 119.691 257.05 116.235 256.358C112.729 255.657 109.19 254.446 105.617 252.726C104.839 252.351 104.431 251.481 104.641 250.643C104.817 249.936 105.534 249.506 106.241 249.683C106.282 249.694 106.323 249.706 106.363 249.72Z" fill="white"/>
<path d="M120.377 254.142C119.166 253.929 118.018 253.704 116.934 253.468C115.613 253.181 114.236 252.81 112.804 252.356L112.293 254.57C113.725 254.998 115.132 255.35 116.514 255.626C117.612 255.846 118.736 256.059 119.887 256.266L120.377 254.142ZM121.078 254.263L120.587 256.39C122.835 256.786 125.183 257.158 127.632 257.506C128.232 257.591 128.799 257.209 128.945 256.621L128.992 256.436C129.001 256.396 129.009 256.357 129.013 256.317C129.074 255.798 128.703 255.327 128.184 255.267C125.618 254.966 123.249 254.632 121.078 254.263ZM112.127 252.136C110.283 251.525 108.349 250.778 106.325 249.896C106.28 249.877 106.234 249.861 106.187 249.85C105.719 249.733 105.245 250.018 105.129 250.486L105.054 250.785C104.914 251.345 105.2 251.925 105.731 252.155C107.735 253.025 109.696 253.761 111.613 254.362L112.127 252.136ZM106.608 249.246C110.432 250.912 113.924 252.088 117.084 252.775C120.257 253.465 123.984 254.06 128.266 254.562C129.174 254.668 129.824 255.491 129.718 256.399C129.71 256.469 129.697 256.539 129.68 256.607L129.634 256.793C129.399 257.734 128.492 258.345 127.532 258.208C123.55 257.642 119.831 257.013 116.375 256.322C112.882 255.623 109.239 254.451 105.448 252.806C104.6 252.438 104.142 251.51 104.366 250.613L104.44 250.314C104.652 249.466 105.511 248.95 106.359 249.161C106.444 249.183 106.528 249.211 106.608 249.246Z" fill="#10B981"/>
<path fill-rule="evenodd" clip-rule="evenodd" d="M64.322 210.915L67.6327 209.496L70.9434 216.354L67.6327 218.482L64.322 210.915ZM75.4364 213.516C74.5532 213.516 73.6653 213.371 73.0716 212.807C72.4363 212.204 72.1257 211.151 72.1257 210.206C72.1257 209.449 72.408 208.399 72.8352 207.841C73.4402 207.051 74.3646 206.895 75.4364 206.895C76.3907 206.895 77.197 206.959 77.8012 207.605C78.3546 208.196 78.7471 209.332 78.7471 210.206C78.7471 211.297 78.3795 212.44 77.5647 213.043C77.0146 213.451 76.1733 213.516 75.4364 213.516Z" fill="#D1FAE5"/>
<path d="M64.0898 210.73L68.0407 209.037L71.6353 216.483L67.7105 219.006L64.0898 210.73ZM68.0269 217.959L70.7234 216.226L67.6967 209.956L65.0263 211.1L68.0269 217.959ZM75.6724 213.871C74.5403 213.871 73.6731 213.643 73.0634 213.064C72.3878 212.423 72.007 211.315 72.007 210.206C72.007 209.337 72.3296 208.226 72.7896 207.625C73.4104 206.815 74.2887 206.54 75.6724 206.54C76.9902 206.54 77.6863 206.71 78.2963 207.362C78.9026 208.011 79.3378 209.226 79.3378 210.206C79.3378 211.5 78.8743 212.69 78.0117 213.329C77.4602 213.737 76.7198 213.871 75.6724 213.871ZM75.6724 213.162C76.5772 213.162 77.1965 213.049 77.5897 212.758C78.2479 212.271 78.6284 211.294 78.6284 210.206C78.6284 209.398 78.2556 208.357 77.7781 207.847C77.341 207.379 76.8092 207.25 75.6724 207.25C74.4875 207.25 73.8083 207.462 73.3528 208.057C72.9951 208.524 72.7165 209.483 72.7165 210.206C72.7165 211.136 73.0333 212.057 73.5519 212.55C74.0017 212.977 74.7047 213.162 75.6724 213.162Z" fill="#10B981"/>
<path d="M249.718 111.359H208.572C207.788 111.359 207.153 111.994 207.153 112.778C207.153 113.561 207.788 114.196 208.572 114.196H249.718C250.502 114.196 251.137 113.561 251.137 112.778C251.137 111.994 250.502 111.359 249.718 111.359Z" fill="white"/>
<path d="M208.572 111.359H249.718C250.502 111.359 251.137 111.994 251.137 112.778C251.137 113.561 250.502 114.196 249.718 114.196H208.572C207.788 114.196 207.153 113.561 207.153 112.778C207.153 111.994 207.788 111.359 208.572 111.359ZM208.572 112.068C208.18 112.068 207.862 112.386 207.862 112.778C207.862 113.169 208.18 113.487 208.572 113.487H249.718C250.11 113.487 250.428 113.169 250.428 112.778C250.428 112.386 250.11 112.068 249.718 112.068H208.572Z" fill="#10B981"/>
<path d="M146.735 305.618L128.055 268.956C127.788 268.432 127.147 268.224 126.624 268.491C126.1 268.757 125.892 269.398 126.158 269.922L144.839 306.584C145.106 307.108 145.746 307.316 146.27 307.049C146.794 306.782 147.002 306.142 146.735 305.618Z" fill="white" stroke="#10B981" stroke-width="0.842617"/>
<path fill-rule="evenodd" clip-rule="evenodd" d="M135.319 211.297C133.972 212.439 127.657 207.591 126.306 207.019C125.58 206.712 125.24 205.875 125.548 205.149C125.829 204.483 126.564 204.133 127.258 204.333C131.407 205.531 133.746 206.4 134.274 206.939C135.615 208.306 136.666 210.155 135.319 211.297Z" fill="white"/>
<path fill-rule="evenodd" clip-rule="evenodd" d="M167.107 243.537L181.232 234.59C181.453 234.45 181.745 234.516 181.885 234.736C181.888 234.742 181.892 234.747 181.895 234.753L187.3 244.105C187.426 244.323 187.359 244.602 187.147 244.739L173.273 253.69C173.054 253.831 172.761 253.768 172.619 253.549C172.617 253.545 172.614 253.541 172.612 253.537L166.955 244.182C166.822 243.961 166.889 243.675 167.107 243.537Z" fill="white"/>
<path d="M166.442 243.681L181.282 234.408C181.504 234.269 181.796 234.337 181.934 234.558L187.949 244.184C188.088 244.406 188.02 244.697 187.799 244.836L172.958 254.109C172.737 254.247 172.445 254.18 172.307 253.959L166.292 244.333C166.153 244.111 166.221 243.819 166.442 243.681ZM167.019 244.157L172.783 253.382L187.222 244.36L181.458 235.135L167.019 244.157Z" fill="#10B981"/>
<path d="M170.017 243.825L179.643 237.81C179.865 237.672 180.156 237.739 180.295 237.961L184.305 244.378C184.443 244.6 184.376 244.892 184.154 245.03L174.528 251.045C174.307 251.183 174.015 251.116 173.877 250.895L169.867 244.477C169.728 244.256 169.796 243.964 170.017 243.825ZM174.353 250.318L183.578 244.554L179.819 238.537L170.594 244.302L174.353 250.318Z" fill="#10B981"/>
</svg>
