<svg width="18" height="18" viewBox="0 0 18 18" fill="none" xmlns="http://www.w3.org/2000/svg">
<path d="M17 10V3C17 2.46957 16.7893 1.96086 16.4142 1.58579C16.0391 1.21071 15.5304 1 15 1H3C2.46957 1 1.96086 1.21071 1.58579 1.58579C1.21071 1.96086 1 2.46957 1 3V10M17 10V15C17 15.5304 16.7893 16.0391 16.4142 16.4142C16.0391 16.7893 15.5304 17 15 17H3C2.46957 17 1.96086 16.7893 1.58579 16.4142C1.21071 16.0391 1 15.5304 1 15V10M17 10H14.414C14.1488 10.0001 13.8945 10.1055 13.707 10.293L11.293 12.707C11.1055 12.8945 10.8512 12.9999 10.586 13H7.414C7.1488 12.9999 6.89449 12.8945 6.707 12.707L4.293 10.293C4.10551 10.1055 3.85119 10.0001 3.586 10H1" stroke="#9CA3AF" stroke-width="2" stroke-linecap="round" stroke-linejoin="round"/>
</svg>
