<svg width="417" height="319" viewBox="0 0 417 319" fill="none" xmlns="http://www.w3.org/2000/svg">
<path d="M335.058 94.332H334.966L282.31 116.816L210.266 147.58C209.984 147.698 209.682 147.76 209.377 147.762C209.071 147.763 208.769 147.705 208.486 147.589L134.157 116.752L80.2072 94.3687L80.1248 94.332H80.033C79.1818 94.333 78.3657 94.6715 77.7637 95.2735C77.1618 95.8754 76.8232 96.6915 76.8223 97.5428V236.981C76.8232 237.832 77.1618 238.648 77.7637 239.25C78.3657 239.852 79.1818 240.191 80.033 240.192H335.058C335.909 240.191 336.726 239.852 337.328 239.25C337.929 238.648 338.268 237.832 338.269 236.981V97.5428C338.268 96.6915 337.929 95.8754 337.328 95.2735C336.726 94.6715 335.909 94.333 335.058 94.332Z" fill="white"/>
<path d="M335.287 95.2498C335.194 95.2499 335.102 95.2212 335.025 95.1676L208.174 6.82456C207.788 6.55696 207.329 6.41395 206.859 6.41475C206.39 6.41555 205.931 6.56012 205.546 6.82903L79.6085 95.1667C79.5089 95.2361 79.3858 95.2631 79.2663 95.2419C79.1468 95.2207 79.0405 95.153 78.9708 95.0536C78.9011 94.9542 78.8737 94.8313 78.8945 94.7117C78.9152 94.5921 78.9825 94.4856 79.0816 94.4156L205.02 6.07789C205.559 5.70148 206.2 5.49913 206.858 5.49805C207.516 5.49697 208.158 5.6972 208.698 6.07184L335.55 94.4147C335.63 94.4705 335.69 94.5505 335.722 94.6429C335.753 94.7354 335.754 94.8355 335.725 94.9286C335.696 95.0218 335.638 95.1032 335.559 95.161C335.48 95.2187 335.385 95.2499 335.287 95.2498H335.287Z" fill="#3F3D56"/>
<path d="M86.8047 98.3811L206.983 9.31348L328.075 104.718L213.176 172.832L150.796 158.613L86.8047 98.3811Z" fill="#E6E6E6"/>
<path d="M156.062 214.903H96.69C95.9544 214.904 95.2484 214.613 94.7274 214.094C94.2065 213.574 93.9132 212.869 93.9121 212.133C93.911 211.398 94.2022 210.692 94.7216 210.171C95.241 209.65 95.9462 209.357 96.6818 209.355H156.062C156.797 209.354 157.503 209.646 158.024 210.165C158.545 210.684 158.838 211.39 158.839 212.125C158.84 212.861 158.549 213.567 158.03 214.088C157.51 214.609 156.805 214.902 156.07 214.903H156.062Z" fill="#417837"/>
<path d="M117.991 202.977H96.69C95.9547 202.978 95.2492 202.686 94.7287 202.167C94.2082 201.648 93.9152 200.943 93.9141 200.208C93.913 199.472 94.2039 198.767 94.7229 198.246C95.2419 197.725 95.9465 197.431 96.6818 197.43H117.991C118.356 197.429 118.717 197.5 119.054 197.639C119.391 197.778 119.697 197.981 119.955 198.239C120.213 198.496 120.418 198.801 120.558 199.138C120.698 199.474 120.77 199.835 120.771 200.199C120.772 200.564 120.7 200.925 120.561 201.262C120.422 201.598 120.218 201.905 119.961 202.163C119.703 202.421 119.398 202.625 119.061 202.765C118.725 202.905 118.364 202.977 117.999 202.977H117.991Z" fill="#417837"/>
<path d="M208.673 147.99C208.222 147.99 207.775 147.903 207.357 147.732L133.239 116.978V20.7137C133.24 19.8624 133.579 19.0464 134.181 18.4444C134.783 17.8425 135.599 17.5039 136.45 17.5029H278.64C279.492 17.5039 280.308 17.8425 280.91 18.4444C281.511 19.0464 281.85 19.8624 281.851 20.7137V117.046L281.712 117.105L210.029 147.717C209.6 147.898 209.139 147.99 208.673 147.99Z" fill="white"/>
<path d="M208.673 148.219C208.192 148.219 207.715 148.126 207.27 147.944L133.01 117.131V20.7135C133.011 19.8015 133.374 18.9271 134.018 18.2822C134.663 17.6372 135.538 17.2745 136.45 17.2734H278.64C279.552 17.2745 280.427 17.6372 281.072 18.2822C281.716 18.9271 282.079 19.8015 282.08 20.7135V117.197L210.119 147.928C209.662 148.12 209.17 148.219 208.673 148.219ZM133.927 116.519L207.62 147.096C208.307 147.375 209.077 147.371 209.761 147.083L281.163 116.591V20.7135C281.162 20.0447 280.896 19.4035 280.423 18.9306C279.95 18.4577 279.309 18.1916 278.64 18.1908H136.45C135.781 18.1916 135.14 18.4577 134.667 18.9306C134.194 19.4035 133.928 20.0447 133.927 20.7135L133.927 116.519Z" fill="#3F3D56"/>
<path d="M334.37 94.332H334.278L281.622 116.816L209.577 147.58C209.296 147.698 208.994 147.76 208.688 147.762C208.383 147.763 208.08 147.705 207.797 147.589L133.469 116.752L79.5188 94.3687L79.4364 94.332H79.3445C78.4933 94.333 77.6772 94.6715 77.0752 95.2735C76.4733 95.8754 76.1347 96.6915 76.1338 97.5428V236.981C76.1347 237.832 76.4733 238.648 77.0752 239.25C77.6772 239.852 78.4933 240.191 79.3445 240.192H334.37C335.221 240.191 336.037 239.852 336.639 239.25C337.241 238.648 337.58 237.832 337.58 236.981V97.5428C337.58 96.6915 337.241 95.8754 336.639 95.2735C336.037 94.6715 335.221 94.333 334.37 94.332ZM336.663 236.981C336.663 237.589 336.421 238.172 335.991 238.602C335.561 239.032 334.978 239.274 334.37 239.274H79.3445C78.7363 239.274 78.1531 239.032 77.7231 238.602C77.2931 238.172 77.0514 237.589 77.0512 236.981V97.5428C77.052 96.9497 77.282 96.3799 77.6932 95.9525C78.1043 95.5251 78.6648 95.2732 79.2574 95.2494L133.469 117.743L207.444 148.438C208.245 148.764 209.142 148.759 209.94 148.424L281.622 117.812L334.462 95.2494C335.053 95.2749 335.612 95.5276 336.022 95.9547C336.432 96.3819 336.662 96.9507 336.663 97.5428V236.981Z" fill="#3F3D56"/>
<path d="M197.135 53.4873H146.68C145.708 53.4859 144.776 53.0987 144.089 52.4107C143.402 51.7227 143.016 50.7902 143.016 49.8179C143.016 48.8456 143.402 47.913 144.089 47.225C144.776 46.537 145.708 46.1498 146.68 46.1484H197.135C198.107 46.1498 199.039 46.537 199.726 47.225C200.413 47.913 200.799 48.8456 200.799 49.8179C200.799 50.7902 200.413 51.7227 199.726 52.4107C199.039 53.0987 198.107 53.4859 197.135 53.4873Z" fill="#417837"/>
<path d="M170.99 37.8926H146.68C145.707 37.8926 144.774 37.506 144.085 36.8178C143.397 36.1297 143.011 35.1963 143.011 34.2231C143.011 33.2499 143.397 32.3166 144.085 31.6285C144.774 30.9403 145.707 30.5537 146.68 30.5537H170.99C171.963 30.5537 172.897 30.9403 173.585 31.6285C174.273 32.3166 174.66 33.2499 174.66 34.2231C174.66 35.1963 174.273 36.1297 173.585 36.8178C172.897 37.506 171.963 37.8926 170.99 37.8926Z" fill="#417837"/>
<path d="M245.282 90.1816H168.224C167.251 90.1803 166.32 89.793 165.632 89.105C164.945 88.417 164.56 87.4845 164.56 86.5122C164.56 85.5399 164.945 84.6074 165.632 83.9194C166.32 83.2314 167.251 82.8442 168.224 82.8428H245.282C246.254 82.8442 247.186 83.2314 247.873 83.9194C248.56 84.6074 248.946 85.5399 248.946 86.5122C248.946 87.4845 248.56 88.417 247.873 89.105C247.186 89.793 246.254 90.1803 245.282 90.1816Z" fill="#CCCCCC"/>
<path d="M245.282 107.153H168.224C167.251 107.153 166.318 106.767 165.629 106.079C164.941 105.39 164.555 104.457 164.555 103.484C164.555 102.511 164.941 101.577 165.629 100.889C166.318 100.201 167.251 99.8145 168.224 99.8145H245.282C246.255 99.8145 247.189 100.201 247.877 100.889C248.565 101.577 248.952 102.511 248.952 103.484C248.952 104.457 248.565 105.39 247.877 106.079C247.189 106.767 246.255 107.153 245.282 107.153Z" fill="#CCCCCC"/>
<path d="M332.947 130.553C352.217 130.553 367.839 114.932 367.839 95.662C367.839 76.392 352.217 60.7705 332.947 60.7705C313.677 60.7705 298.056 76.392 298.056 95.662C298.056 114.932 313.677 130.553 332.947 130.553Z" fill="#FECACA"/>
<path d="M8.48417 34.823C8.246 34.6823 7.97298 34.6114 7.69641 34.6187C7.41984 34.6259 7.15088 34.7109 6.92041 34.864C6.68994 35.0171 6.50726 35.232 6.39331 35.4841C6.27935 35.7362 6.23876 36.0153 6.27615 36.2894L7.41326 44.6297C7.42889 44.7526 7.4205 44.8775 7.38853 44.9972C7.35287 45.1151 7.29337 45.2245 7.21372 45.3184L0.844954 52.8634C0.632193 53.1063 0.507271 53.4136 0.490277 53.736C0.473283 54.0584 0.565214 54.3772 0.751267 54.6411L0.757942 54.6508C0.936173 54.9175 1.19851 55.1169 1.50319 55.2173C1.80787 55.3176 2.13737 55.3132 2.43924 55.2046L7.03862 53.6435C7.19109 53.5931 7.3544 53.5851 7.51108 53.6203C7.66776 53.6556 7.81191 53.7328 7.92809 53.8436C8.01476 53.9239 8.08388 54.0213 8.13109 54.1296C8.17829 54.2379 8.20256 54.3548 8.20239 54.4729L8.38216 70.8604C8.38403 71.0976 8.44365 71.3308 8.55583 71.5399C8.668 71.7489 8.82939 71.9275 9.02604 72.0602C9.22197 72.1926 9.44683 72.276 9.68172 72.3033C9.9166 72.3307 10.1546 72.3012 10.3757 72.2174L44.7043 59.0887C44.9632 58.9902 45.189 58.8207 45.3558 58.5996C45.5225 58.3785 45.6235 58.1148 45.6471 57.8388C45.6707 57.5629 45.6159 57.2859 45.4891 57.0397C45.3622 56.7935 45.1685 56.5881 44.9301 56.4471L44.4627 56.1695L8.48417 34.823V34.823ZM6.85731 36.2093C6.83523 36.0447 6.85995 35.8772 6.92864 35.726C6.99732 35.5748 7.10721 35.4459 7.24571 35.3543C7.3842 35.2626 7.54571 35.2118 7.71174 35.2076C7.87777 35.2035 8.04162 35.2462 8.18452 35.3308L44.1515 56.6709L44.6303 56.9548C44.7726 57.0398 44.8881 57.1631 44.9637 57.3106C45.0393 57.458 45.0719 57.6238 45.0579 57.7889C45.0439 57.9541 44.9838 58.1119 44.8844 58.2446C44.785 58.3772 44.6504 58.4792 44.4958 58.5391L10.1673 71.6678C10.0345 71.7183 9.89153 71.736 9.75045 71.7194C9.60937 71.7028 9.47439 71.6524 9.35696 71.5725C9.23953 71.4925 9.14312 71.3854 9.07594 71.2603C9.00876 71.1351 8.97281 70.9956 8.9711 70.8535L8.79137 54.4662C8.79148 54.304 8.76363 54.143 8.70903 53.9903L43.6587 58.006C43.795 58.023 43.9329 57.9919 44.0487 57.918C44.1644 57.8441 44.2507 57.732 44.2926 57.6012C44.3345 57.4704 44.3294 57.3291 44.2782 57.2017C44.2269 57.0742 44.1327 56.9687 44.0119 56.9034C43.9826 56.8871 43.9518 56.8737 43.9198 56.8633L8.00494 44.8749C8.01365 44.7664 8.01012 44.6572 7.99442 44.5495L6.85729 36.2093L6.85731 36.2093Z" fill="#F1F1F1"/>
<path d="M8.48417 34.823C8.246 34.6823 7.97298 34.6114 7.69641 34.6187C7.41984 34.6259 7.15088 34.7109 6.92041 34.864C6.68994 35.0171 6.50726 35.232 6.39331 35.4841C6.27935 35.7362 6.23876 36.0153 6.27615 36.2894L7.41326 44.6297C7.42889 44.7526 7.4205 44.8775 7.38853 44.9972C7.35287 45.1151 7.29337 45.2245 7.21372 45.3184L0.844954 52.8634C0.632193 53.1063 0.507271 53.4136 0.490277 53.736C0.473283 54.0584 0.565214 54.3772 0.751267 54.6411L0.757942 54.6508C0.936173 54.9175 1.19851 55.1169 1.50319 55.2173C1.80787 55.3176 2.13737 55.3132 2.43924 55.2046L7.03862 53.6435C7.19109 53.5931 7.3544 53.5851 7.51108 53.6203C7.66776 53.6556 7.81191 53.7328 7.92809 53.8436C8.01476 53.9239 8.08388 54.0213 8.13109 54.1296C8.17829 54.2379 8.20256 54.3548 8.20239 54.4729L8.38216 70.8604C8.38403 71.0976 8.44365 71.3308 8.55583 71.5399C8.668 71.7489 8.82939 71.9275 9.02604 72.0602C9.22197 72.1926 9.44683 72.276 9.68172 72.3033C9.9166 72.3307 10.1546 72.3012 10.3757 72.2174L44.7043 59.0887C44.9632 58.9902 45.189 58.8207 45.3558 58.5996C45.5225 58.3785 45.6235 58.1148 45.6471 57.8388C45.6707 57.5629 45.6159 57.2859 45.4891 57.0397C45.3622 56.7935 45.1685 56.5881 44.9301 56.4471L44.4627 56.1695L8.48417 34.823V34.823ZM6.85731 36.2093C6.83523 36.0447 6.85995 35.8772 6.92864 35.726C6.99732 35.5748 7.10721 35.4459 7.24571 35.3543C7.3842 35.2626 7.54571 35.2118 7.71174 35.2076C7.87777 35.2035 8.04162 35.2462 8.18452 35.3308L44.1515 56.6709L44.6303 56.9548C44.7726 57.0398 44.8881 57.1631 44.9637 57.3106C45.0393 57.458 45.0719 57.6238 45.0579 57.7889C45.0439 57.9541 44.9838 58.1119 44.8844 58.2446C44.785 58.3772 44.6504 58.4792 44.4958 58.5391L10.1673 71.6678C10.0345 71.7183 9.89153 71.736 9.75045 71.7194C9.60937 71.7028 9.47438 71.6524 9.35696 71.5724C9.23953 71.4925 9.14314 71.3854 9.07596 71.2602C9.00879 71.1351 8.97281 70.9955 8.9711 70.8535L8.79135 54.4661C8.79145 54.304 8.76361 54.143 8.70901 53.9903C8.6321 53.7704 8.50267 53.5727 8.33197 53.4141C8.30875 53.3909 8.28311 53.3693 8.25741 53.3477L8.25577 53.3453C8.06293 53.1861 7.83262 53.0788 7.58667 53.0336C7.34073 52.9884 7.0873 53.0068 6.85046 53.0871L2.24869 54.6498C2.06731 54.7157 1.869 54.7183 1.68594 54.6573C1.50288 54.5963 1.3458 54.4752 1.24016 54.3138L1.23681 54.3089C1.12389 54.1512 1.06799 53.9598 1.07832 53.7661C1.08864 53.5724 1.16458 53.388 1.29363 53.2432L7.66249 45.6983C7.73058 45.6193 7.78956 45.5329 7.83834 45.4407L7.84076 45.439C7.88783 45.3507 7.92538 45.2577 7.95277 45.1615C7.98032 45.0681 7.99781 44.972 8.00496 44.8749C8.01367 44.7664 8.01014 44.6573 7.99444 44.5496L6.85731 36.2093V36.2093Z" fill="#E5E5E5"/>
<path d="M8.00434 44.874L43.9192 56.8624C43.9511 56.8728 43.982 56.8862 44.0113 56.9025C44.1321 56.9678 44.2262 57.0733 44.2775 57.2008C44.3288 57.3282 44.3339 57.4695 44.292 57.6003C44.2501 57.7311 44.1638 57.8431 44.048 57.9171C43.9323 57.991 43.7943 58.0221 43.6581 58.0051L8.70839 53.9894L8.0912 53.9191L8.15953 53.3354L8.25515 53.3444L8.25677 53.3467L43.7247 57.419L7.84014 45.4381L7.83771 45.4397L7.68262 45.3862L7.86889 44.8281L8.00434 44.874Z" fill="#E5E5E5"/>
<path d="M409.004 0.204906L373.026 21.5513L372.558 21.8289C372.32 21.9699 372.126 22.1753 371.999 22.4215C371.872 22.6677 371.818 22.9447 371.841 23.2207C371.865 23.4966 371.966 23.7603 372.133 23.9814C372.299 24.2025 372.525 24.372 372.784 24.4705L407.113 37.5992C407.334 37.683 407.572 37.7125 407.807 37.6852C408.042 37.6578 408.266 37.5744 408.462 37.442C408.659 37.3093 408.82 37.1307 408.933 36.9217C409.045 36.7127 409.104 36.4795 409.106 36.2422L409.286 19.8547C409.286 19.7366 409.31 19.6197 409.357 19.5114C409.405 19.4031 409.474 19.3057 409.56 19.2255C409.677 19.1146 409.821 19.0374 409.977 19.0022C410.134 18.9669 410.297 18.9749 410.45 19.0254L415.049 20.5865C415.351 20.695 415.681 20.6995 415.985 20.5991C416.29 20.4987 416.552 20.2993 416.73 20.0326L416.737 20.0229C416.923 19.759 417.015 19.4403 416.998 19.1179C416.981 18.7954 416.856 18.4881 416.643 18.2452L410.275 10.7003C410.195 10.6063 410.136 10.497 410.1 10.3791C410.068 10.2593 410.06 10.1345 410.075 10.0115L411.212 1.67127C411.25 1.39714 411.209 1.11802 411.095 0.865911C410.981 0.613798 410.798 0.398899 410.568 0.245838C410.337 0.0927774 410.069 0.00774535 409.792 0.000504434C409.515 -0.00673648 409.242 0.0641034 409.004 0.204895V0.204906ZM410.631 1.59117L409.494 9.93136C409.478 10.0391 409.475 10.1482 409.483 10.2568L373.569 22.2452C373.537 22.2555 373.506 22.2689 373.477 22.2852C373.356 22.3506 373.262 22.4561 373.21 22.5835C373.159 22.7109 373.154 22.8522 373.196 22.983C373.238 23.1138 373.324 23.2259 373.44 23.2998C373.556 23.3737 373.693 23.4048 373.83 23.3878L408.779 19.3722C408.725 19.5249 408.697 19.6858 408.697 19.848L408.517 36.2353C408.516 36.3774 408.48 36.5169 408.413 36.6421C408.345 36.7672 408.249 36.8743 408.131 36.9543C408.014 37.0342 407.879 37.0846 407.738 37.1012C407.597 37.1178 407.454 37.1001 407.321 37.0496L372.993 23.9209C372.838 23.8611 372.703 23.759 372.604 23.6264C372.505 23.4938 372.445 23.3359 372.431 23.1707C372.417 23.0056 372.449 22.8399 372.525 22.6924C372.6 22.5449 372.716 22.4216 372.858 22.3366L373.337 22.0527L409.304 0.712646C409.447 0.628006 409.611 0.58532 409.777 0.589468C409.943 0.593615 410.104 0.644433 410.243 0.736101C410.381 0.82777 410.491 0.956581 410.56 1.10779C410.628 1.25901 410.653 1.42651 410.631 1.59112V1.59117Z" fill="#F1F1F1"/>
<path d="M409.004 0.204906L373.026 21.5513L372.558 21.8289C372.32 21.9699 372.126 22.1753 371.999 22.4215C371.872 22.6677 371.818 22.9447 371.841 23.2207C371.865 23.4966 371.966 23.7603 372.133 23.9814C372.299 24.2025 372.525 24.372 372.784 24.4705L407.113 37.5992C407.334 37.683 407.572 37.7125 407.807 37.6852C408.042 37.6578 408.266 37.5744 408.462 37.442C408.659 37.3093 408.82 37.1307 408.933 36.9217C409.045 36.7127 409.104 36.4795 409.106 36.2422L409.286 19.8547C409.286 19.7366 409.31 19.6197 409.357 19.5114C409.405 19.4031 409.474 19.3057 409.56 19.2255C409.677 19.1146 409.821 19.0374 409.977 19.0022C410.134 18.9669 410.297 18.9749 410.45 19.0254L415.049 20.5865C415.351 20.695 415.681 20.6995 415.985 20.5991C416.29 20.4987 416.552 20.2993 416.73 20.0326L416.737 20.0229C416.923 19.759 417.015 19.4403 416.998 19.1179C416.981 18.7954 416.856 18.4881 416.643 18.2452L410.275 10.7003C410.195 10.6063 410.136 10.497 410.1 10.3791C410.068 10.2593 410.06 10.1345 410.075 10.0115L411.212 1.67127C411.25 1.39714 411.209 1.11802 411.095 0.865911C410.981 0.613798 410.798 0.398899 410.568 0.245838C410.337 0.0927774 410.069 0.00774535 409.792 0.000504434C409.515 -0.00673648 409.242 0.0641034 409.004 0.204895V0.204906ZM410.631 1.59117L409.494 9.93138C409.478 10.0391 409.475 10.1483 409.483 10.2568C409.491 10.3539 409.508 10.4499 409.536 10.5433C409.563 10.6395 409.601 10.7326 409.648 10.8209L409.65 10.8225C409.699 10.9147 409.758 11.0011 409.826 11.0802L416.195 18.625C416.324 18.7698 416.4 18.9542 416.41 19.1479C416.42 19.3416 416.365 19.533 416.252 19.6907L416.248 19.6956C416.143 19.8571 415.986 19.9781 415.802 20.0391C415.619 20.1001 415.421 20.0975 415.24 20.0317L410.638 18.4689C410.401 18.3886 410.148 18.3702 409.902 18.4154C409.656 18.4606 409.425 18.5679 409.233 18.7271L409.231 18.7295C409.205 18.7512 409.18 18.7727 409.156 18.796C408.986 18.9545 408.856 19.1523 408.779 19.3721C408.725 19.5248 408.697 19.6858 408.697 19.848L408.517 36.2353C408.516 36.3774 408.48 36.5169 408.412 36.6421C408.345 36.7672 408.249 36.8743 408.131 36.9543C408.014 37.0342 407.879 37.0846 407.738 37.1012C407.597 37.1178 407.454 37.1001 407.321 37.0496L372.993 23.9209C372.838 23.8611 372.703 23.759 372.604 23.6264C372.505 23.4938 372.445 23.3359 372.431 23.1708C372.416 23.0056 372.449 22.8399 372.525 22.6924C372.6 22.5449 372.716 22.4216 372.858 22.3366L373.337 22.0527L409.304 0.712657C409.447 0.628017 409.611 0.585331 409.777 0.589479C409.943 0.593626 410.104 0.644444 410.243 0.736113C410.381 0.827782 410.491 0.956592 410.56 1.10781C410.628 1.25902 410.653 1.42653 410.631 1.59113V1.59117Z" fill="#E5E5E5"/>
<path d="M409.619 10.2109L409.805 10.769L409.65 10.8226L409.648 10.8209L373.763 22.8018L409.231 18.7295L409.233 18.7272L409.328 18.7182L409.397 19.3019L408.78 19.3722L373.83 23.3879C373.694 23.4049 373.556 23.3738 373.44 23.2999C373.324 23.226 373.238 23.1139 373.196 22.9831C373.154 22.8523 373.159 22.711 373.211 22.5836C373.262 22.4561 373.356 22.3506 373.477 22.2853C373.506 22.269 373.537 22.2556 373.569 22.2453L409.484 10.2568L409.619 10.2109Z" fill="#E5E5E5"/>
<path d="M101.134 298.466C100.888 298.593 100.682 298.785 100.541 299.023C100.399 299.261 100.327 299.533 100.333 299.81C100.34 300.087 100.424 300.356 100.576 300.587C100.728 300.818 100.942 301.001 101.194 301.116L108.851 304.612C108.963 304.665 109.064 304.739 109.148 304.83C109.229 304.923 109.29 305.032 109.326 305.149L112.3 314.564C112.391 314.874 112.584 315.144 112.848 315.331C113.111 315.517 113.43 315.61 113.752 315.594L113.764 315.593C114.085 315.585 114.394 315.47 114.641 315.266C114.889 315.062 115.061 314.781 115.131 314.468L116.269 309.746C116.308 309.591 116.389 309.448 116.502 309.335C116.616 309.221 116.758 309.14 116.914 309.102C117.028 309.071 117.147 309.065 117.264 309.083C117.381 309.101 117.493 309.143 117.592 309.206L131.539 317.812C131.741 317.937 131.97 318.011 132.207 318.028C132.443 318.045 132.68 318.004 132.898 317.909C133.114 317.814 133.305 317.668 133.454 317.485C133.602 317.301 133.704 317.084 133.752 316.852L141.001 280.821C141.056 280.549 141.034 280.268 140.936 280.009C140.838 279.75 140.669 279.523 140.449 279.356C140.228 279.188 139.965 279.087 139.689 279.062C139.413 279.038 139.136 279.092 138.889 279.218L138.405 279.465L101.134 298.466ZM101.437 300.582C101.286 300.513 101.157 300.403 101.066 300.264C100.975 300.125 100.925 299.963 100.922 299.797C100.918 299.631 100.962 299.467 101.047 299.325C101.132 299.182 101.256 299.067 101.404 298.991L138.662 279.996L139.158 279.743C139.306 279.668 139.472 279.636 139.637 279.651C139.802 279.666 139.959 279.727 140.091 279.827C140.224 279.927 140.325 280.063 140.384 280.217C140.443 280.372 140.457 280.541 140.425 280.703L133.176 316.735C133.147 316.874 133.086 317.004 132.997 317.114C132.907 317.225 132.792 317.312 132.662 317.369C132.532 317.425 132.39 317.449 132.248 317.439C132.106 317.429 131.969 317.385 131.848 317.31L117.901 308.705C117.764 308.618 117.613 308.555 117.455 308.52L139.527 281.126C139.614 281.02 139.662 280.887 139.661 280.749C139.661 280.612 139.612 280.479 139.524 280.374C139.436 280.268 139.313 280.197 139.178 280.172C139.043 280.148 138.904 280.171 138.784 280.238C138.755 280.254 138.727 280.273 138.701 280.294L109.374 304.243C109.287 304.178 109.193 304.123 109.094 304.078L101.437 300.582Z" fill="#F1F1F1"/>
<path d="M101.134 298.466C100.888 298.593 100.682 298.785 100.541 299.023C100.399 299.261 100.327 299.533 100.333 299.81C100.34 300.087 100.424 300.356 100.576 300.587C100.728 300.818 100.942 301.001 101.194 301.116L108.851 304.612C108.963 304.665 109.064 304.739 109.148 304.83C109.229 304.923 109.29 305.032 109.326 305.149L112.3 314.564C112.391 314.874 112.584 315.144 112.848 315.331C113.111 315.517 113.43 315.61 113.752 315.594L113.764 315.593C114.085 315.585 114.394 315.47 114.641 315.266C114.889 315.062 115.061 314.781 115.131 314.468L116.269 309.746C116.308 309.591 116.389 309.448 116.502 309.335C116.616 309.221 116.758 309.14 116.914 309.102C117.028 309.071 117.147 309.065 117.264 309.083C117.381 309.101 117.493 309.143 117.592 309.206L131.539 317.812C131.741 317.937 131.97 318.011 132.207 318.028C132.443 318.045 132.68 318.004 132.898 317.909C133.114 317.814 133.305 317.668 133.454 317.485C133.602 317.301 133.704 317.084 133.752 316.852L141.001 280.821C141.056 280.549 141.034 280.268 140.936 280.009C140.838 279.75 140.669 279.523 140.449 279.356C140.228 279.188 139.965 279.087 139.689 279.062C139.413 279.038 139.136 279.092 138.889 279.218L138.405 279.465L101.134 298.466ZM101.437 300.582C101.286 300.513 101.157 300.403 101.066 300.264C100.975 300.125 100.925 299.963 100.922 299.797C100.918 299.631 100.962 299.467 101.047 299.325C101.132 299.182 101.256 299.067 101.404 298.991L138.662 279.996L139.158 279.743C139.306 279.668 139.472 279.636 139.637 279.651C139.802 279.666 139.959 279.727 140.091 279.827C140.224 279.927 140.325 280.063 140.384 280.217C140.443 280.372 140.457 280.541 140.425 280.703L133.176 316.735C133.147 316.874 133.086 317.004 132.997 317.114C132.907 317.225 132.792 317.312 132.662 317.369C132.532 317.425 132.39 317.449 132.248 317.439C132.106 317.429 131.969 317.385 131.848 317.31L117.901 308.705C117.764 308.618 117.613 308.555 117.455 308.52C117.228 308.467 116.992 308.471 116.767 308.531C116.735 308.538 116.703 308.548 116.671 308.558L116.668 308.558C116.43 308.636 116.216 308.773 116.047 308.957C115.877 309.141 115.757 309.365 115.698 309.608L114.56 314.333C114.519 314.521 114.415 314.69 114.266 314.812C114.116 314.934 113.93 315.003 113.737 315.006L113.731 315.006C113.537 315.017 113.346 314.962 113.188 314.85C113.029 314.737 112.914 314.575 112.861 314.388L109.887 304.973C109.857 304.873 109.815 304.777 109.764 304.687L109.763 304.684C109.714 304.597 109.655 304.515 109.589 304.441C109.524 304.367 109.453 304.301 109.374 304.243C109.287 304.178 109.193 304.123 109.094 304.078L101.437 300.582Z" fill="#E5E5E5"/>
<path d="M109.375 304.244L138.701 280.295C138.727 280.273 138.755 280.254 138.784 280.238C138.904 280.171 139.044 280.148 139.179 280.173C139.314 280.198 139.436 280.269 139.524 280.374C139.612 280.479 139.661 280.612 139.662 280.749C139.662 280.887 139.615 281.02 139.528 281.126L117.456 308.52L117.066 309.004L116.61 308.635L116.668 308.559L116.671 308.558L139.068 280.757L109.764 304.684L109.764 304.687L109.636 304.789L109.264 304.334L109.375 304.244Z" fill="#E5E5E5"/>
<path d="M338.507 95.7526L349.444 84.8152C350.653 83.6067 350.653 81.6475 349.444 80.4409L347.986 78.9828C346.777 77.774 344.818 77.774 343.611 78.9828L332.674 89.9198L321.737 78.9806C320.529 77.7721 318.569 77.7721 317.363 78.9806L315.902 80.4387C314.694 81.6475 314.694 83.6067 315.902 84.8133L326.842 95.7526L315.905 106.69C314.696 107.898 314.696 109.858 315.905 111.064L317.363 112.522C318.571 113.731 320.53 113.731 321.737 112.522L332.674 101.585L343.611 112.522C344.82 113.731 346.78 113.731 347.986 112.522L349.444 111.064C350.653 109.855 350.653 107.896 349.444 106.69L338.507 95.7526Z" fill="#EF4444"/>
</svg>
