<svg width="299" height="206" viewBox="0 0 299 206" fill="none" xmlns="http://www.w3.org/2000/svg">
<path d="M125.097 192.232C125.097 192.232 92.1554 192.232 81.3567 192.232C70.5581 192.232 68.4954 194.78 73.0454 196.661C77.5954 198.542 55.8161 197.632 52.1154 200.968C48.3541 204.305 57.9394 205.579 68.3134 205.579C78.6874 205.579 143.358 205.579 151.669 205.579C159.981 205.579 157.918 199.512 152.943 198.724C147.969 197.935 161.012 199.027 165.987 197.268C170.961 195.508 167.382 192.232 125.097 192.232Z" fill="#F4F9F2"/>
<path d="M188.919 203.335C187.645 205.094 183.398 205.519 176.179 205.337C170.719 205.155 165.016 204.73 165.016 202.182C165.016 199.634 178.909 199.937 183.762 200.483C187.948 200.969 189.647 202.303 188.919 203.335Z" fill="#F4F9F2"/>
<path d="M63.2174 194.841C62.3681 196.115 59.4561 196.479 54.3601 196.479C50.5381 196.479 46.5341 196.297 46.4127 194.538C46.2914 192.718 56.0587 192.657 59.5167 192.961C62.4287 193.203 63.7027 194.053 63.2174 194.841Z" fill="#F4F9F2"/>
<path d="M276.825 190.717H255.167C253.468 190.717 252.073 189.321 252.073 187.623V165.237C252.073 163.538 253.468 162.143 255.167 162.143H276.825C278.524 162.143 279.919 163.538 279.919 165.237V187.623C279.919 189.321 278.524 190.717 276.825 190.717Z" fill="#C5DFFF"/>
<path d="M275.794 189.685H254.985C253.347 189.685 252.012 188.351 252.012 186.713V165.115C252.012 163.477 253.347 162.143 254.985 162.143H275.794C277.432 162.143 278.766 163.477 278.766 165.115V186.713C278.766 188.351 277.432 189.685 275.794 189.685Z" fill="#E1ECFF"/>
<path d="M265.602 184.893C270.426 184.893 274.338 180.982 274.338 176.157C274.338 171.332 270.426 167.421 265.602 167.421C260.777 167.421 256.866 171.332 256.866 176.157C256.866 180.982 260.777 184.893 265.602 184.893Z" fill="#C5DFFF"/>
<path d="M262.144 180.1C261.84 180.1 261.598 179.858 261.598 179.554V172.82C261.598 172.517 261.84 172.274 262.144 172.274C262.447 172.274 262.69 172.517 262.69 172.82V179.554C262.69 179.858 262.447 180.1 262.144 180.1Z" fill="#417837"/>
<path d="M268.453 180.1C268.15 180.1 267.907 179.858 267.907 179.554V172.82C267.907 172.517 268.15 172.274 268.453 172.274C268.756 172.274 268.999 172.517 268.999 172.82V179.554C268.999 179.858 268.756 180.1 268.453 180.1Z" fill="#417837"/>
<path d="M212.7 152.861C212.275 152.861 211.851 152.861 211.426 152.8C202.023 152.133 195.592 148.918 184.793 132.477C181.032 126.774 178.484 120.95 175.997 115.308C171.75 105.662 168.11 97.2904 159.859 93.4078C147.18 87.4624 134.743 97.2904 134.622 97.4118C134.076 97.8364 133.287 97.7757 132.863 97.2297C132.438 96.6837 132.499 95.8951 133.045 95.4704C133.591 95.0457 146.816 84.5504 160.891 91.1631C169.991 95.4097 173.995 104.57 178.241 114.277C180.668 119.858 183.216 125.622 186.856 131.082C197.109 146.612 202.993 149.646 211.608 150.313C218.039 150.798 221.497 146.916 224.833 143.094C226.047 141.759 227.139 140.485 228.413 139.393C233.327 135.207 238.483 134.418 238.726 134.418C239.393 134.297 240.061 134.782 240.121 135.45C240.243 136.117 239.757 136.784 239.09 136.845C239.029 136.845 234.419 137.573 230.051 141.274C228.898 142.244 227.867 143.458 226.714 144.732C223.317 148.614 219.555 152.861 212.7 152.861Z" fill="#417837"/>
<path d="M248.008 130.232L253.104 125.925C253.65 125.5 254.378 125.561 254.803 126.107C255.167 126.592 255.106 127.26 254.621 127.684L249.464 132.234L248.008 130.232Z" fill="#417837"/>
<path d="M244.853 126.592L249.949 122.285C250.495 121.86 251.223 121.921 251.648 122.467C252.012 122.952 251.951 123.62 251.466 124.044L246.309 128.594L244.853 126.592Z" fill="#417837"/>
<path d="M251.587 132.477C251.587 132.477 249.585 134.843 246.491 137.573C243.397 140.243 239.393 139.757 237.573 137.695C237.452 137.573 237.391 137.452 237.27 137.331C235.693 135.147 235.632 132.174 237.998 130.051C240.485 127.745 244.611 124.469 244.611 124.469L249.585 130.233L251.587 132.477Z" fill="#E1ECFF"/>
<path d="M251.587 132.477C251.587 132.477 249.585 134.843 246.491 137.573C243.397 140.243 239.393 139.757 237.573 137.695C237.452 137.573 237.391 137.452 237.27 137.331C238.726 137.331 241.213 137.027 243.458 135.511C245.339 134.237 247.765 131.992 249.525 130.233L251.587 132.477Z" fill="#C5DFFF"/>
<path d="M158.767 178.947C158.707 178.947 158.585 178.947 158.525 178.947C154.399 178.886 143.661 170.818 140.931 167.056C138.141 163.295 135.653 158.502 139.051 155.408C139.718 154.802 140.689 154.377 141.781 154.195C143.419 153.892 145.421 154.256 147.119 155.348C150.031 157.228 158.221 166.753 160.527 170.818C162.771 174.822 162.711 178.886 158.767 178.947Z" fill="#417837"/>
<path d="M158.767 178.947C159.374 178.583 159.799 177.976 160.163 176.763C160.769 174.64 158.646 170.393 151.669 162.264C147.483 157.35 143.904 155.166 141.781 154.195C143.419 153.892 145.421 154.256 147.119 155.348C150.031 157.228 158.221 166.753 160.527 170.818C162.771 174.822 162.711 178.886 158.767 178.947Z" fill="#417837"/>
<path d="M138.262 158.017C138.869 156.318 142.387 156.622 145.421 159.594C148.454 162.567 153.065 168.452 151.912 171C150.759 173.548 146.391 171.485 142.812 167.966C139.233 164.448 137.291 160.747 138.262 158.017Z" fill="#142966"/>
<path d="M145.906 165.6C145.785 167.542 145.057 168.755 145.057 168.755C145.057 168.755 128.737 176.52 108.293 162.264C87.484 147.764 87.4233 129.686 87.4233 129.504C98.1007 119.069 110.113 130.535 110.113 130.535C110.113 130.535 110.841 137.026 114.117 143.578C115.997 147.34 118.727 151.162 122.61 153.71C132.317 160.08 142.387 158.138 142.387 158.138C142.387 158.138 144.329 158.745 145.481 162.446C145.906 163.538 146.027 164.69 145.906 165.6Z" fill="#E1ECFF"/>
<path d="M145.906 165.6C145.785 167.542 145.057 168.755 145.057 168.755C145.057 168.755 128.737 176.52 108.293 162.264C87.484 147.764 87.4233 129.686 87.4233 129.504C98.1007 119.069 110.113 130.535 110.113 130.535C110.113 130.535 110.841 137.026 114.117 143.578C112.479 144.792 110.416 146.066 108.839 146.551C105.502 147.522 101.923 147.522 101.923 147.522C101.923 147.522 112.175 162.87 127.342 165.661C135.532 167.056 141.841 166.45 145.906 165.6Z" fill="#C5DFFF"/>
<path d="M123.035 168.695C122.731 168.695 122.428 168.513 122.307 168.149C122.125 167.724 122.367 167.299 122.792 167.117C122.853 167.117 126.129 165.843 127.099 163.174C128.131 160.444 127.281 158.26 127.281 158.26C127.099 157.835 127.342 157.411 127.706 157.229C128.131 157.047 128.555 157.289 128.737 157.653C128.798 157.775 129.769 160.444 128.555 163.72C127.281 167.117 123.459 168.513 123.277 168.573C123.217 168.695 123.095 168.695 123.035 168.695Z" fill="#C5DFFF"/>
<path d="M108.96 162.446C108.535 162.446 108.171 162.143 108.171 161.718C108.171 161.293 108.475 160.929 108.899 160.869C108.96 160.869 113.207 160.565 115.33 157.775C117.453 154.984 117.332 152.133 117.332 152.072C117.271 151.647 117.635 151.223 118.06 151.223C118.485 151.162 118.909 151.526 118.909 151.951C118.909 152.072 119.152 155.409 116.604 158.745C113.995 162.082 109.203 162.385 108.96 162.446Z" fill="#C5DFFF"/>
<path d="M80.2041 150.979C79.9615 151.525 79.6581 152.071 79.2334 152.617C78.4448 153.648 77.5348 154.255 76.6854 154.68C75.4721 155.286 74.5014 155.408 74.5014 155.408C74.5014 155.408 65.9474 147.096 58.4854 132.294C51.0234 117.552 50.4774 100.565 50.4774 100.565C51.1448 100.201 51.8121 99.8978 52.4188 99.6551C54.7241 98.7451 56.8474 98.6845 58.6068 98.9271C61.2761 99.2911 62.9748 100.444 62.9748 100.444C62.9748 100.444 63.4601 114.518 68.4348 127.198C73.4094 139.938 80.6894 147.46 80.6894 147.46C80.6894 147.46 80.9928 149.098 80.2041 150.979Z" fill="#E1ECFF"/>
<path d="M80.2041 150.979C77.5348 148.613 72.4388 143.214 67.5248 132.779C61.6401 120.282 59.2741 104.205 58.6674 98.9271C61.3368 99.2911 63.0354 100.444 63.0354 100.444C63.0354 100.444 63.5208 114.518 68.4954 127.198C73.4701 139.938 80.7501 147.46 80.7501 147.46C80.7501 147.46 80.9928 149.098 80.2041 150.979Z" fill="#F8FBFF"/>
<path d="M76.6854 154.68C75.4721 155.287 74.5014 155.408 74.5014 155.408C74.5014 155.408 65.9474 147.097 58.4854 132.294C51.0234 117.552 50.4774 100.565 50.4774 100.565C51.1448 100.201 51.8121 99.898 52.4188 99.6554C52.8434 105.115 54.8454 123.073 63.3388 137.147C69.1628 146.733 73.8341 151.95 76.6854 154.68Z" fill="#C5DFFF"/>
<path d="M93.6114 163.416C93.6114 163.416 90.4567 165.297 86.7561 164.447C83.0554 163.598 81.6601 162.385 81.6601 162.385C81.6601 162.385 80.4467 160.565 81.3567 159.533C81.4174 159.473 81.4174 159.473 81.4781 159.412C82.6307 158.381 84.2081 158.199 84.2081 158.199C84.2081 158.199 86.3921 159.897 87.9694 160.443C89.5467 160.989 92.3374 160.443 93.3687 161.111C93.8541 161.414 93.9147 161.96 93.8541 162.445C93.8541 162.991 93.6114 163.416 93.6114 163.416Z" fill="#E1ECFF"/>
<path d="M93.6114 163.416C93.6114 163.416 90.4567 165.297 86.7561 164.448C83.0554 163.598 81.6601 162.385 81.6601 162.385C81.6601 162.385 80.4467 160.565 81.3567 159.534C82.4487 160.565 85.0574 162.81 88.0907 163.174C90.5781 163.477 92.6407 162.931 93.8541 162.446C93.8541 162.992 93.6114 163.416 93.6114 163.416Z" fill="#C5DFFF"/>
<path d="M92.4587 161.717C89.3041 162.203 87.0594 161.353 85.3607 160.443C83.6621 159.533 82.9947 158.381 82.9947 158.381C82.9947 158.381 82.9947 156.985 83.9047 156.257C84.3901 155.833 85.1787 155.651 86.3921 156.015C86.3921 156.015 88.7581 158.077 92.7014 156.682C96.6447 155.287 96.4021 154.437 97.2514 154.195C97.8581 154.013 98.6467 154.923 98.8287 155.954C98.9501 156.439 98.8894 156.925 98.7074 157.349C98.0401 158.684 95.6134 161.171 92.4587 161.717Z" fill="#E1ECFF"/>
<path d="M92.4587 161.718C89.3041 162.203 87.0594 161.354 85.3607 160.444C83.6621 159.534 82.9947 158.381 82.9947 158.381C82.9947 158.381 82.9947 156.986 83.9047 156.258C85.3607 157.714 88.5154 160.323 91.9734 159.655C95.3707 158.988 97.7974 156.986 98.8894 155.955C99.0107 156.44 98.9501 156.925 98.7681 157.35C98.0401 158.685 95.6134 161.172 92.4587 161.718Z" fill="#C5DFFF"/>
<path d="M91.7913 157.713C88.758 158.199 86.6347 157.349 85.0573 156.5C83.4193 155.651 82.8127 154.559 82.8127 154.559C82.8127 154.559 82.8127 153.224 83.662 152.496C84.1473 152.071 84.8753 151.889 86.028 152.253C86.028 152.253 88.2727 154.195 92.034 152.86C95.7953 151.525 95.5526 150.737 96.3413 150.494C96.8873 150.312 97.676 151.222 97.858 152.193C97.9793 152.617 97.9186 153.103 97.7366 153.527C97.0693 154.862 94.764 157.228 91.7913 157.713Z" fill="#E1ECFF"/>
<path d="M91.7913 157.714C88.758 158.199 86.6347 157.35 85.0573 156.5C83.4193 155.651 82.8127 154.559 82.8127 154.559C82.8127 154.559 82.8127 153.224 83.662 152.496C84.9967 153.892 88.03 156.379 91.306 155.712C94.5213 155.044 96.8266 153.164 97.858 152.193C97.9793 152.618 97.9186 153.103 97.7366 153.528C97.0693 154.862 94.764 157.228 91.7913 157.714Z" fill="#C5DFFF"/>
<path d="M91.3667 154.68C88.7581 155.529 86.6954 155.105 85.1787 154.559C83.6014 154.013 82.9341 153.163 82.9341 153.163C82.9341 153.163 82.7521 151.95 83.4801 151.222C83.8441 150.797 84.5114 150.555 85.6034 150.676C85.6034 150.676 87.8481 152.071 91.0634 150.433C94.2787 148.735 93.9754 148.067 94.6427 147.703C95.128 147.461 95.9167 148.128 96.22 148.977C96.3414 149.341 96.4021 149.766 96.2807 150.191C95.7954 151.404 93.9754 153.831 91.3667 154.68Z" fill="#E1ECFF"/>
<path d="M91.3667 154.68C88.7581 155.529 86.6954 155.104 85.1787 154.558C83.6014 154.012 82.9341 153.163 82.9341 153.163C82.9341 153.163 82.7521 151.95 83.4801 151.222C84.8754 152.253 87.848 154.073 90.6994 153.042C93.5507 152.01 95.3707 150.008 96.1594 148.977C96.2807 149.341 96.3414 149.766 96.2201 150.19C95.7954 151.404 93.9754 153.83 91.3667 154.68Z" fill="#C5DFFF"/>
<path d="M89.2434 151.768C89.2434 151.768 89.0614 152.799 88.6367 154.195C88.1514 155.772 87.4234 157.713 86.3314 159.23C85.846 159.837 85.3607 160.383 84.8754 160.807C83.2374 162.324 81.7207 162.627 81.7207 162.627C81.7207 162.627 77.0494 158.138 75.7147 156.621C74.38 155.165 73.288 153.588 73.288 153.588C73.288 153.588 72.924 151.889 73.288 150.069C73.47 149.099 73.834 148.067 74.562 147.279C74.926 146.915 75.3507 146.611 75.7147 146.369C77.7167 145.337 80.022 146.126 80.022 146.126C80.022 146.126 84.5114 148.917 86.5134 150.009C88.5154 151.101 89.2434 151.768 89.2434 151.768Z" fill="#E1ECFF"/>
<path d="M89.2434 151.768C89.2434 151.768 89.0614 152.799 88.6367 154.195C87.7267 153.709 86.0887 152.678 83.9047 151.101C81.0534 149.099 76.9887 147.036 75.7147 146.369C77.7167 145.337 80.0221 146.126 80.0221 146.126C80.0221 146.126 84.5114 148.917 86.5134 150.009C88.5154 151.101 89.2434 151.768 89.2434 151.768Z" fill="#F8FBFF"/>
<path d="M84.8754 160.747C83.2374 162.203 81.7207 162.567 81.7207 162.567C81.7207 162.567 77.0494 158.017 75.7147 156.561C74.38 155.105 73.288 153.527 73.288 153.527C73.288 153.527 72.924 151.829 73.288 150.009C75.1687 152.132 80.204 157.592 83.7227 159.897C84.1474 160.261 84.572 160.504 84.8754 160.747Z" fill="#C5DFFF"/>
<path d="M67.5249 145.216C66.6149 145.155 66.0689 144.852 66.0082 144.852C65.6442 144.67 65.5229 144.184 65.7049 143.82C65.8869 143.456 66.3115 143.274 66.6755 143.456C66.7362 143.517 68.4349 144.306 70.6795 142.85C72.9242 141.394 73.2882 139.574 73.2882 139.513C73.3489 139.088 73.7129 138.785 74.1375 138.906C74.5015 138.967 74.8049 139.392 74.7442 139.816C74.7442 139.938 74.3195 142.364 71.4682 144.245C69.8302 145.155 68.4955 145.276 67.5249 145.216Z" fill="#C5DFFF"/>
<path d="M61.0335 133.022C59.7595 132.9 58.9101 132.476 58.8495 132.476C58.4855 132.294 58.3641 131.808 58.5461 131.444C58.7281 131.08 59.1528 130.898 59.4561 131.08C59.5168 131.141 61.6401 132.172 64.4308 130.898C67.1608 129.685 67.6461 127.926 67.6461 127.804C67.7675 127.38 68.1315 127.137 68.4955 127.258C68.8595 127.38 69.1021 127.804 68.9808 128.229C68.9808 128.35 68.3134 130.777 64.9161 132.354C63.3995 133.022 62.0648 133.143 61.0335 133.022Z" fill="#C5DFFF"/>
<path d="M56.4228 119.372C54.6635 119.25 53.7535 118.522 53.6928 118.462C53.3895 118.219 53.3288 117.734 53.5715 117.37C53.8142 117.006 54.2388 116.945 54.6028 117.248C54.6635 117.248 55.9982 118.28 58.9708 117.673C62.7322 116.884 63.7635 115.428 63.8242 115.368C64.0668 115.004 64.4915 114.943 64.8555 115.186C65.1588 115.428 65.2195 115.914 64.9768 116.278C64.8555 116.46 63.5208 118.219 59.2742 119.19C58.1215 119.432 57.2115 119.432 56.4228 119.372Z" fill="#C5DFFF"/>
<path d="M65.4014 109.24C65.4014 109.24 61.7614 111.121 56.6047 111.06C54.0567 111 52.2974 110.514 51.1447 109.968C49.9314 109.422 49.3854 108.876 49.3854 108.876C49.3854 108.876 49.446 107.784 49.264 104.205C48.6574 92.9211 53.7534 91.4651 57.09 91.3438C57.8787 91.3438 58.728 91.4651 59.456 91.7078C61.8827 92.5571 63.9454 94.7411 64.734 97.4104C65.7654 101.111 65.4014 109.24 65.4014 109.24Z" fill="#417837"/>
<path d="M57.9394 98.3204C54.1174 100.383 52.5401 99.0484 52.5401 99.0484C52.5401 99.0484 51.6301 102.142 51.2054 108.27C51.1447 108.876 51.1447 109.483 51.0841 109.968C49.8707 109.422 49.3247 108.876 49.3247 108.876C49.3247 108.876 49.3854 107.784 49.2034 104.205C48.5967 92.9211 53.6927 91.4651 57.0294 91.3438C57.8181 91.3438 58.6674 91.4651 59.3954 91.7078C60.3661 93.3458 61.4581 96.4397 57.9394 98.3204Z" fill="#417837"/>
<path d="M135.411 117.249C135.229 118.22 135.047 119.13 134.804 120.04C133.348 125.682 130.8 130.232 127.221 133.204C116.968 141.758 102.893 146.308 84.8146 134.6C70.3759 125.257 57.0899 104.084 52.2973 95.8944C51.0839 93.8317 50.4166 92.5577 50.4166 92.5577C50.4166 92.5577 58.7279 92.133 71.8319 86.127C77.2312 83.6397 83.4799 80.1817 90.3352 75.4497C102.165 67.199 109.021 59.4944 112.964 53.4884C117.635 46.451 118.303 41.8404 118.303 41.8404C118.303 41.8404 119.455 43.9637 121.457 48.635C123.884 54.3984 127.524 63.9837 131.649 78.1797C136.078 93.4677 137.291 106.996 135.411 117.249Z" fill="#E1ECFF"/>
<path d="M121.457 48.6349C120.062 51.4255 118.121 54.7015 115.573 58.2809C110.598 65.0755 103.197 72.9015 92.2766 79.9389C85.5426 84.3069 79.5366 87.4615 74.2586 89.7669C63.4599 94.5595 55.9979 95.6515 52.2366 95.8335C51.0233 93.7709 50.3559 92.4969 50.3559 92.4969C50.3559 92.4969 58.6673 92.0722 71.7713 86.0662C77.1706 83.5789 83.4193 80.1209 90.2746 75.3889C102.105 67.1382 108.96 59.4335 112.903 53.4275C117.575 46.3902 118.242 41.7795 118.242 41.7795C118.242 41.7795 119.516 44.0242 121.457 48.6349Z" fill="#417837"/>
<path d="M134.804 120.04C133.348 125.682 130.8 130.232 127.221 133.204C116.968 141.758 102.893 146.308 84.8146 134.6C70.3759 125.257 57.0899 104.084 52.2973 95.8944C51.0839 93.8317 50.4166 92.5577 50.4166 92.5577C50.4166 92.5577 58.7279 92.133 71.8319 86.127C76.9886 94.135 88.3939 110.697 99.6172 120.464C112.661 131.87 127.524 125.136 134.804 120.04Z" fill="#C5DFFF"/>
<path d="M74.2586 89.8277C63.4599 94.6204 55.9979 95.7124 52.2366 95.8944C51.0233 93.8317 50.3559 92.5577 50.3559 92.5577C50.3559 92.5577 58.6673 92.133 71.7713 86.127C72.4993 87.219 73.3486 88.493 74.2586 89.8277Z" fill="#142966"/>
<path d="M133.712 111.364C132.195 105.116 130.133 97.229 127.524 88.857C123.338 75.2677 118.606 64.7724 115.997 60.2224C119.637 54.7017 120.305 52.457 120.305 52.457C120.305 52.457 121.215 54.1557 122.792 57.7957C124.673 62.285 127.524 69.8077 130.739 80.9097C134.258 92.8004 135.229 103.356 133.712 111.364Z" fill="#F8FBFF"/>
<path d="M121.457 48.6349C120.062 51.4255 118.121 54.7015 115.573 58.2809C114.602 56.4002 113.753 54.7622 112.964 53.4275C117.635 46.3902 118.303 41.7795 118.303 41.7795C118.303 41.7795 119.516 44.0242 121.457 48.6349Z" fill="#417837"/>
<path d="M102.469 116.461C102.469 116.461 97.0087 120.586 85.9067 125.197C82.8127 126.471 79.7793 127.563 77.0493 128.473C76.8067 128.23 76.564 127.987 76.3213 127.745C68.556 120.283 61.5793 110.637 56.8473 103.357C56.544 102.932 56.3013 102.507 56.0587 102.143C56.544 102.022 64.6733 99.9592 74.562 95.5305C84.8147 90.9805 87.4233 88.9179 87.4233 88.9179L102.469 116.461Z" fill="#E1ECFF"/>
<path d="M100.77 116.4C100.77 116.4 95.8559 120.343 85.4212 124.469C82.2059 125.743 78.9906 126.835 76.2606 127.745C68.4952 120.283 61.5186 110.637 56.7866 103.357L57.7572 103.114C57.7572 103.114 65.4012 101.173 74.8652 96.9865C84.3292 92.7399 86.9986 91.3445 86.9986 91.3445L100.77 116.4Z" fill="#417837"/>
<path d="M73.7126 118.766C73.5306 118.766 73.2879 118.705 73.1666 118.584L66.4932 112.639L66.0686 113.913C65.8866 114.337 65.4619 114.58 65.0372 114.398C64.6126 114.216 64.3699 113.791 64.5519 113.367L65.4012 110.94C65.5226 110.697 65.7046 110.455 65.9472 110.394C66.1899 110.333 66.4932 110.394 66.7359 110.576L72.6206 115.793L72.3172 113.427C72.2566 113.063 72.4386 112.699 72.8026 112.578L92.8832 103.903C93.3079 103.721 93.7932 103.903 93.9752 104.327C94.1572 104.752 93.9752 105.237 93.5506 105.419L74.0159 113.852L74.5619 117.795C74.6226 118.159 74.4406 118.463 74.1372 118.645C73.9552 118.705 73.8339 118.766 73.7126 118.766Z" fill="#FFCE94"/>
<path d="M118.303 41.8402C118.303 41.8402 117.393 48.3316 110.416 57.3709C106.412 62.5882 100.345 68.6549 91.2453 74.8429C76.3213 85.0349 64.5519 89.3422 57.5146 91.2229C52.9039 92.4362 50.3559 92.5576 50.3559 92.5576C50.3559 92.5576 35.1286 66.5922 37.6159 43.0536C38.2833 36.9262 40.1639 31.8302 43.0153 27.6442C45.0779 24.5502 47.6259 22.0022 50.5379 19.8789C58.9706 13.8122 70.3153 11.6889 81.3566 13.0236C101.498 15.5109 118.303 41.8402 118.303 41.8402Z" fill="#FEC272"/>
<path d="M118.303 41.8404C118.303 41.8404 117.878 44.7524 115.573 49.363C114.42 51.6684 112.782 54.3984 110.416 57.4317C106.412 62.649 100.345 68.7157 91.2453 74.9037C75.1686 85.8237 62.7319 90.0097 55.9979 91.6477C52.3579 92.497 50.3559 92.6184 50.3559 92.6184C50.3559 92.4364 50.4166 78.483 73.1059 60.7684C95.9166 42.8717 118.303 41.8404 118.303 41.8404Z" fill="#FCAD4F"/>
<path d="M115.573 49.3629C114.42 51.6682 112.782 54.3982 110.416 57.4315C106.412 62.6489 100.345 68.7155 91.2454 74.9035C75.1687 85.8235 62.732 90.0095 55.998 91.6475C58.546 85.8235 64.1274 77.2089 76.6854 67.3809C92.0947 55.3082 107.322 50.9402 115.573 49.3629Z" fill="#F99D3A"/>
<path d="M118.303 41.8402C118.303 41.8402 117.393 48.3316 110.416 57.3709C106.533 50.6976 103.075 46.5116 103.075 46.5116C103.075 46.5116 94.1572 54.5802 86.8772 48.8169C79.5972 42.9929 85.0572 32.3156 85.0572 32.3156C85.0572 32.3156 77.7165 24.4289 65.7652 21.8809C59.8199 20.6069 54.4205 20.0609 50.4772 19.8789C58.9099 13.8122 70.2545 11.6889 81.2959 13.0236C101.498 15.5109 118.303 41.8402 118.303 41.8402Z" fill="#FFDBB3"/>
<path d="M57.5752 91.2232C52.9646 92.4365 50.4166 92.5579 50.4166 92.5579C50.4166 92.5579 35.1892 66.5925 37.6766 43.0539C38.3439 36.9265 40.2246 31.8305 43.0759 27.6445C42.4086 34.6212 41.8626 50.7585 47.4439 68.1699C50.2346 77.0272 53.9959 84.9139 57.5752 91.2232Z" fill="#FFDBB3"/>
<path d="M126.857 196.904C126.857 197.268 126.857 197.632 126.796 198.057C126.553 201.636 115.573 202.303 107.929 202.667C100.406 203.031 92.4587 200.908 95.1887 198.421C95.2494 198.36 95.2494 198.36 95.31 198.299C97.2514 196.661 101.013 194.781 105.199 193.264C107.625 192.354 110.113 191.626 112.6 191.019C115.876 190.231 122.549 188.653 124.733 190.291C125.158 190.595 125.522 191.08 125.825 191.626C126.493 192.9 126.857 194.781 126.857 196.904Z" fill="#417837"/>
<path d="M126.857 196.904C126.857 197.268 126.857 197.632 126.796 198.057C126.553 201.636 115.573 202.303 107.929 202.667C100.406 203.031 92.4587 200.908 95.1887 198.421C96.8267 199.391 100.406 200.544 107.868 200.241C118.06 199.816 124.248 198.117 126.857 196.904Z" fill="#417837"/>
<path d="M125.765 191.626C125.279 192.111 124.491 192.597 123.581 193.082C120.669 194.538 111.811 196.115 106.412 195.205C104.046 194.781 104.228 194.053 105.138 193.264C107.565 192.354 110.052 191.626 112.539 191.019C115.815 190.231 122.489 188.653 124.673 190.291C125.097 190.595 125.461 191.08 125.765 191.626Z" fill="#142966"/>
<path d="M112.115 162.506C114.541 178.037 123.399 189.927 123.399 189.927C123.399 189.927 122.549 191.141 120.851 192.233C120.123 192.718 119.273 193.082 118.242 193.446C116.665 193.931 114.966 193.931 113.51 193.81C111.751 193.628 110.477 193.264 110.477 193.264C110.477 193.264 95.3706 173.79 93.4899 151.586C91.6093 129.382 103.561 118.219 103.561 118.219C103.561 118.219 103.682 118.159 103.803 118.037C105.017 117.249 110.355 114.337 116.786 117.977C117.271 118.219 117.696 118.523 118.06 118.765C122.974 121.981 123.702 125.257 123.702 125.257C123.702 125.257 120.365 128.169 117.878 132.537C115.391 136.783 109.688 146.975 112.115 162.506Z" fill="#E1ECFF"/>
<path d="M112.115 162.506C114.541 178.037 123.399 189.928 123.399 189.928C123.399 189.928 122.549 191.141 120.851 192.233C116.422 186.106 105.805 167.542 106.169 149.888C106.473 133.75 114.845 122.527 118.121 118.766C123.035 121.981 123.763 125.257 123.763 125.257C123.763 125.257 120.426 128.169 117.939 132.537C115.391 136.784 109.688 146.976 112.115 162.506Z" fill="#C5DFFF"/>
<path d="M113.449 193.749C111.69 193.567 110.416 193.203 110.416 193.203C110.416 193.203 95.3099 173.729 93.4293 151.525C91.5486 129.321 103.5 118.158 103.5 118.158C103.5 118.158 103.621 118.098 103.743 117.976C101.437 122.708 96.2806 134.963 96.7659 148.795C97.3726 166.57 105.077 180.281 110.477 189.017C111.508 190.776 112.539 192.354 113.449 193.749Z" fill="#F8FBFF"/>
<path d="M101.923 177.976C101.741 177.976 101.498 177.915 101.377 177.733C101.073 177.43 101.013 176.884 101.316 176.581C101.377 176.52 103.136 174.7 106.655 173.608C110.234 172.516 114.177 173.729 114.359 173.79C114.784 173.911 115.027 174.397 114.905 174.821C114.784 175.246 114.299 175.489 113.874 175.367C113.813 175.367 110.234 174.275 107.14 175.185C104.046 176.156 102.529 177.673 102.529 177.733C102.408 177.915 102.165 177.976 101.923 177.976Z" fill="#C5DFFF"/>
<path d="M95.6738 158.563C95.3705 158.563 95.1278 158.441 94.9458 158.138C94.7031 157.713 94.8245 157.228 95.2491 156.985C95.3705 156.925 98.9498 154.862 103.014 154.68C107.14 154.437 110.598 156.803 110.719 156.925C111.083 157.167 111.204 157.713 110.901 158.077C110.658 158.441 110.112 158.563 109.748 158.259C109.688 158.259 106.654 156.136 103.075 156.318C99.3745 156.5 96.0985 158.381 96.0378 158.441C95.9771 158.563 95.7951 158.563 95.6738 158.563Z" fill="#C5DFFF"/>
<path d="M112.297 142.546C112.115 142.546 111.872 142.486 111.751 142.304C111.69 142.243 107.201 138.178 102.711 137.632C98.3432 137.086 95.6739 138.967 95.6739 139.028C95.3099 139.27 94.7639 139.21 94.5212 138.846C94.2785 138.482 94.3392 137.936 94.7032 137.693C94.8245 137.572 97.9185 135.327 102.954 135.994C107.929 136.662 112.661 140.908 112.903 141.09C113.267 141.394 113.267 141.94 112.964 142.243C112.721 142.425 112.479 142.546 112.297 142.546Z" fill="#C5DFFF"/>
<path d="M165.259 125.316C165.259 125.316 164.106 129.259 160.466 131.625C156.826 133.991 154.763 134.234 154.763 134.234C154.763 134.234 152.397 133.87 152.397 132.353C152.397 132.293 152.397 132.232 152.397 132.171C152.519 130.533 153.671 129.077 153.671 129.077C153.671 129.077 156.765 128.531 158.464 127.682C160.163 126.833 161.983 124.103 163.317 123.799C163.985 123.678 164.409 123.981 164.773 124.406C165.137 124.831 165.259 125.316 165.259 125.316Z" fill="#E1ECFF"/>
<path d="M165.259 125.316C165.259 125.316 164.106 129.259 160.466 131.625C156.826 133.991 154.763 134.234 154.763 134.234C154.763 134.234 152.397 133.87 152.397 132.353C154.035 132.232 157.918 131.746 160.648 129.562C162.893 127.803 164.167 125.68 164.773 124.345C165.137 124.83 165.259 125.316 165.259 125.316Z" fill="#C5DFFF"/>
<path d="M163.014 125.013C160.83 127.986 158.343 129.138 156.28 129.866C154.217 130.594 152.822 130.291 152.822 130.291C152.822 130.291 151.73 129.26 151.912 127.986C151.973 127.258 152.458 126.469 153.732 125.741C153.732 125.741 157.19 125.316 159.374 121.07C161.558 116.823 160.648 116.398 161.194 115.549C161.558 114.942 162.893 115.003 163.803 115.549C164.227 115.792 164.591 116.216 164.713 116.702C165.259 118.218 165.198 122.04 163.014 125.013Z" fill="#E1ECFF"/>
<path d="M163.014 125.013C160.83 127.986 158.343 129.138 156.28 129.866C154.217 130.594 152.822 130.291 152.822 130.291C152.822 130.291 151.73 129.26 151.912 127.986C154.157 127.864 158.767 127.258 161.012 123.921C163.257 120.645 163.742 117.187 163.803 115.549C164.227 115.792 164.591 116.216 164.713 116.702C165.259 118.218 165.198 122.04 163.014 125.013Z" fill="#C5DFFF"/>
<path d="M158.949 123.132C156.887 125.923 154.521 127.076 152.519 127.743C150.577 128.41 149.243 128.107 149.243 128.107C149.243 128.107 148.211 127.136 148.393 125.923C148.454 125.256 148.939 124.467 150.153 123.8C150.153 123.8 153.429 123.436 155.491 119.371C157.554 115.367 156.705 114.942 157.19 114.093C157.554 113.547 158.767 113.547 159.677 114.093C160.102 114.336 160.405 114.7 160.587 115.185C161.073 116.702 161.012 120.342 158.949 123.132Z" fill="#E1ECFF"/>
<path d="M158.949 123.132C156.887 125.923 154.521 127.075 152.519 127.743C150.577 128.41 149.243 128.107 149.243 128.107C149.243 128.107 148.211 127.136 148.393 125.923C150.517 125.801 154.885 125.255 157.069 122.101C159.192 119.007 159.617 115.731 159.738 114.153C160.163 114.396 160.466 114.76 160.648 115.245C161.073 116.701 161.012 120.341 158.949 123.132Z" fill="#C5DFFF"/>
<path d="M157.311 128.532C157.372 130.291 156.947 131.747 156.462 132.839C155.795 134.234 155.067 134.962 155.067 134.962C155.067 134.962 139.718 140.362 123.581 126.894C115.269 119.978 108.596 110.938 104.107 103.84C99.8599 97.1063 97.4939 92.071 97.4939 92.071C97.4939 92.071 96.2199 88.1277 98.5859 84.7303C99.3139 83.6383 100.406 82.607 102.105 81.7576C104.956 80.3016 107.322 80.1803 109.203 80.6656C112.357 81.4543 114.117 83.8203 114.117 83.8203C114.117 83.8203 116.483 89.0376 120.001 95.4683C124.127 102.93 129.829 112.03 135.289 116.277C145.421 124.164 153.853 121.13 153.853 121.13C153.853 121.13 154.763 122.04 155.673 123.436C156.341 124.71 157.251 126.53 157.311 128.532Z" fill="#E1ECFF"/>
<path d="M119.819 95.3472C118.545 97.3492 116.058 100.322 111.447 102.021C108.475 103.173 105.866 103.598 103.985 103.78C99.7386 97.0459 97.3726 92.0105 97.3726 92.0105C97.3726 92.0105 95.1886 85.1552 101.923 81.6365C109.506 77.6932 113.935 83.6992 113.935 83.6992C113.935 83.6992 116.301 88.9772 119.819 95.3472Z" fill="#C5DFFF"/>
<path d="M156.401 132.779C155.734 134.174 155.006 134.902 155.006 134.902C155.006 134.902 139.657 140.301 123.52 126.833C115.209 119.917 108.535 110.878 104.046 103.78C99.7993 97.046 97.4333 92.0106 97.4333 92.0106C97.4333 92.0106 96.1593 88.0673 98.5253 84.67C100.527 89.22 109.081 107.784 119.941 118.461C132.377 130.655 139.111 132.172 151.063 132.657C153.004 132.718 154.824 132.779 156.401 132.779Z" fill="#C5DFFF"/>
<path d="M155.491 123.375C152.397 124.285 148.09 124.952 143.601 123.557C135.229 120.948 128.373 115.67 121.639 105.539C116.119 97.167 110.78 84.791 109.081 80.605C112.236 81.3936 113.995 83.7597 113.995 83.7597C113.995 83.7597 116.361 88.977 119.88 95.4076C124.005 102.87 129.708 111.97 135.168 116.216C145.299 124.103 153.732 121.07 153.732 121.07C153.732 121.07 154.581 121.919 155.491 123.375Z" fill="#F8FBFF"/>
<path d="M113.449 113.851C111.933 113.851 110.962 113.487 110.901 113.487C110.477 113.305 110.234 112.819 110.416 112.395C110.598 111.97 111.083 111.727 111.508 111.909C111.629 111.97 114.481 112.941 118.303 110.878C122.125 108.755 123.035 104.993 123.035 104.993C123.156 104.569 123.581 104.265 124.005 104.387C124.43 104.508 124.733 104.933 124.612 105.357C124.551 105.539 123.581 109.847 119.031 112.334C116.907 113.547 114.905 113.851 113.449 113.851Z" fill="#C5DFFF"/>
<path d="M125.037 127.44C124.551 127.44 124.187 127.076 124.187 126.591C124.187 126.106 124.551 125.742 125.037 125.742C125.097 125.742 128.859 125.681 130.982 123.072C133.166 120.403 132.741 116.642 132.741 116.581C132.681 116.096 133.045 115.732 133.469 115.671C133.894 115.61 134.319 115.974 134.379 116.399C134.379 116.581 134.865 120.888 132.256 124.104C129.647 127.44 125.219 127.44 125.037 127.44Z" fill="#C5DFFF"/>
<path d="M138.383 134.538C138.08 134.538 137.716 134.356 137.595 133.992C137.413 133.567 137.655 133.082 138.08 132.9C138.141 132.9 141.538 131.505 142.448 127.804C143.358 124.043 142.084 121.859 142.023 121.798C141.781 121.434 141.902 120.888 142.266 120.645C142.63 120.403 143.176 120.524 143.419 120.888C143.479 121.009 145.178 123.739 144.025 128.168C142.873 132.718 138.808 134.356 138.626 134.417C138.565 134.538 138.505 134.538 138.383 134.538Z" fill="#C5DFFF"/>
<path d="M120.305 88.067C120.305 88.067 120.183 88.795 119.759 89.887C118.909 91.9496 116.907 95.347 112.357 98.3196C105.32 102.87 99.0713 100.928 99.0713 100.928C99.0713 100.928 94.582 95.0436 93.672 86.9143C93.126 82.243 96.22 78.603 100.224 76.8436C103.197 75.5696 106.655 75.327 109.445 76.5403C116.058 79.513 120.305 88.067 120.305 88.067Z" fill="#417837"/>
<path d="M120.305 88.067C120.305 88.067 120.183 88.795 119.759 89.887C119.759 89.8263 119.698 89.8263 119.698 89.7656C114.056 82.3036 109.627 80.787 109.627 80.787C109.627 80.787 107.989 84.6696 102.59 82.425C98.8287 80.9083 99.496 78.239 100.285 76.8436C103.257 75.5696 106.715 75.327 109.506 76.5403C116.058 79.513 120.305 88.067 120.305 88.067Z" fill="#417837"/>
<path d="M46.5946 55.9751C45.442 55.7931 44.35 56.5211 44.1073 57.6131C43.5613 59.9185 42.712 63.8618 42.348 66.8951C42.0446 69.4431 41.9233 71.5665 41.8626 73.0225C41.802 74.0538 42.5906 75.0245 43.622 75.2065C44.8353 75.3885 45.9273 74.5391 46.0486 73.3258C46.17 71.4451 46.4733 68.5938 47.1406 65.3178C47.7473 62.2238 48.172 60.0398 48.4753 58.5838C48.6573 57.3705 47.808 56.2178 46.5946 55.9751Z" fill="#417837"/>
<path d="M36.0994 62.4664C36.4027 61.2531 37.6767 60.5857 38.8294 61.1317C40.6494 61.9204 43.3187 63.0731 45.8667 63.9831C48.4754 64.8931 50.9021 65.8031 52.4187 66.4097C53.4501 66.7737 53.9961 67.8657 53.7534 68.9577C53.4501 70.1104 52.2367 70.8384 51.0841 70.4744C49.0821 69.9284 45.9274 68.8971 42.5907 67.5017C39.618 66.2277 37.9194 65.2571 36.888 64.6504C36.2207 64.1651 35.9174 63.3157 36.0994 62.4664Z" fill="#417837"/>
<path d="M72.6813 41.1739C71.2253 40.9312 69.83 41.9019 69.466 43.3579C68.7987 46.3912 67.828 51.4872 67.4033 55.4912C67.1 58.8279 66.918 61.5579 66.918 63.4386C66.8573 64.8339 67.8887 65.9866 69.2233 66.1686C70.8007 66.4112 72.196 65.2585 72.3173 63.6812C72.4387 61.2545 72.8027 57.5539 73.47 53.3072C74.1373 49.2425 74.6833 46.3912 74.9867 44.5105C75.3507 42.9332 74.2587 41.4165 72.6813 41.1739Z" fill="#417837"/>
<path d="M59.2133 49.91C59.5773 48.3327 61.276 47.4833 62.732 48.09C65.098 49.0607 68.556 50.456 71.8927 51.6087C75.29 52.7613 78.4447 53.8533 80.4467 54.5813C81.7814 55.0667 82.57 56.462 82.206 57.8573C81.842 59.374 80.2647 60.3447 78.748 59.92C76.1393 59.2527 72.0747 58.0393 67.7067 56.28C63.824 54.7027 61.5793 53.4893 60.3053 52.7007C59.456 52.0333 58.9707 50.9413 59.2133 49.91Z" fill="#417837"/>
<path d="M278.038 157.107C278.038 157.107 281.132 158.017 283.377 160.626C285.621 163.295 285.925 167.602 285.925 167.602L298.179 161.9C298.179 161.9 291.991 164.266 289.929 160.14C287.866 156.015 294.721 149.463 294.721 149.463C294.721 149.463 287.138 155.651 284.165 154.741C281.193 153.831 280.707 150.13 280.707 150.13L278.038 157.107Z" fill="#FEC272"/>
<path d="M266.45 155.712L268.634 155.773L272.032 130.899L264.327 129.443L266.45 155.712Z" fill="#F4F9F2"/>
<path d="M271.789 155.834L276.885 132.538L284.226 136.117L273.124 156.44L271.789 155.834Z" fill="#F4F9F2"/>
<path d="M29.0015 38.2614L27.7275 41.0521L1.09486 32.8621L4.6742 22.3667L29.0015 38.2614Z" fill="#FEC272"/>
<path d="M33.0055 29.0401L30.6395 32.4374L0.548828 9.50541L8.86016 0.830078L33.0055 29.0401Z" fill="#FEC272"/>
</svg>
