<svg width="164" height="164" viewBox="0 0 164 164" fill="none" xmlns="http://www.w3.org/2000/svg">
<path d="M82.0141 148.479C80.8209 148.479 79.6518 148.26 78.5393 147.828C71.5652 145.123 58.137 139.051 46.5584 128.778C31.8179 115.701 24.3438 100.07 24.3438 82.3203V38.0855C24.3438 34.6719 26.1782 31.4867 29.1308 29.7737C33.5082 27.2343 37.1639 23.5782 39.7034 19.2011C41.4164 16.2485 44.6016 14.4141 48.0152 14.4141H115.985C119.398 14.4141 122.583 16.2485 124.296 19.2011C126.836 23.5782 130.491 27.2343 134.869 29.7737C137.822 31.487 139.656 34.6719 139.656 38.0855V82.3203C139.656 100.111 132.206 115.749 117.512 128.798C105.932 139.083 92.4656 145.14 85.469 147.836C84.3623 148.262 83.2002 148.479 82.0141 148.479Z" fill="url(#paint0_linear)"/>
<path d="M149.266 19.2188C141.318 19.2188 134.852 12.7526 134.852 4.80469C134.852 2.15122 132.7 0 130.047 0H33.9531C31.2997 0 29.1484 2.15122 29.1484 4.80469C29.1484 12.7526 22.6823 19.2188 14.7344 19.2188C12.0809 19.2188 9.92969 21.37 9.92969 24.0234V82.3203C9.92969 96.4 13.7187 109.493 21.1912 121.235C27.1032 130.525 35.3068 138.954 45.5747 146.288C61.0272 157.326 79.368 164 82 164C84.4952 164 102.749 157.486 118.426 146.289C128.694 138.954 136.897 130.525 142.809 121.235C150.281 109.493 154.07 96.4 154.07 82.3203V24.0234C154.07 21.37 151.919 19.2188 149.266 19.2188ZM134.852 82.3203C134.852 98.679 127.944 113.107 114.322 125.205C103.308 134.987 90.4345 140.774 83.7415 143.353C82.6265 143.782 81.3914 143.781 80.2764 143.349C73.6033 140.76 60.7639 134.958 49.7471 125.185C36.0787 113.058 29.1484 98.637 29.1484 82.3203V38.0855C29.1484 36.3724 30.0604 34.7891 31.5421 33.9297C36.6415 30.971 40.901 26.7118 43.8594 21.6124C44.7188 20.1307 46.3025 19.2188 48.0152 19.2188H115.985C117.698 19.2188 119.281 20.1307 120.141 21.6124C123.099 26.7118 127.358 30.9713 132.458 33.9297C133.939 34.7895 134.852 36.3728 134.852 38.0855V82.3203ZM82 43.8828C63.4549 43.8828 48.3672 58.9705 48.3672 77.5156C48.3672 96.0608 63.4549 111.148 82 111.148C100.545 111.148 115.633 96.0608 115.633 77.5156C115.633 58.9705 100.545 43.8828 82 43.8828ZM95.9675 73.7061L81.5535 88.1202C79.6774 89.9963 76.6351 89.9966 74.7587 88.1202L67.5517 80.9132C65.6753 79.0368 65.6753 75.9948 67.5517 74.1184C69.4277 72.242 72.4701 72.242 74.3465 74.1184L78.1562 77.9279L89.1731 66.9114C91.0492 65.035 94.0915 65.035 95.9679 66.9114C97.8439 68.7874 97.8439 71.8298 95.9675 73.7061Z" fill="url(#paint1_linear)"/>
<defs>
<linearGradient id="paint0_linear" x1="82" y1="148.479" x2="82" y2="14.4141" gradientUnits="userSpaceOnUse">
<stop stop-color="#C3FFE8"/>
<stop offset="0.9973" stop-color="#F0FFF4"/>
</linearGradient>
<linearGradient id="paint1_linear" x1="82" y1="164" x2="82" y2="0" gradientUnits="userSpaceOnUse">
<stop stop-color="#00B59C"/>
<stop offset="1" stop-color="#9CFFAC"/>
</linearGradient>
</defs>
</svg>
