<svg width="177" height="47" viewBox="0 0 177 47" fill="none" xmlns="http://www.w3.org/2000/svg">
<path d="M10.1796 26.6685C10.0344 26.1098 9.86675 25.5511 9.75501 24.9813C9.26338 22.4672 8.51475 19.9867 8.64883 17.3833C8.73822 15.6178 9.26338 13.953 10.4143 12.6233C11.6769 11.1596 13.3417 10.3216 15.3083 10.0534C17.6771 9.74055 19.9788 9.87463 22.0906 11.059C23.3979 11.7853 24.37 12.858 24.9957 14.277C25.6103 15.6849 25.7891 17.1374 25.7444 18.6459C25.7332 18.8805 25.8785 19.1934 26.0461 19.361C26.8059 20.0649 26.9735 21.1376 26.4148 21.9756C25.9343 22.6907 24.5935 23.0259 23.8449 22.5008C22.7275 21.7074 22.4482 20.1767 23.8337 19.2716C24.37 18.914 24.5265 18.5788 24.5153 17.9755C24.4929 16.4559 24.2248 15.0033 23.3644 13.7295C22.5599 12.5339 21.3979 11.8077 20.0012 11.4166C17.9676 10.8467 15.9675 10.8914 13.9563 11.573C12.1685 12.1764 10.9953 13.372 10.3472 15.0592C9.8444 16.3776 9.72149 17.8079 9.93379 19.2157C10.1908 20.9141 10.5372 22.6125 10.8724 24.2997C11.5875 27.8752 12.2467 31.462 12.0903 35.1492C12.0344 36.5795 12.973 37.194 14.4591 37.0376C13.8557 35.9314 13.8334 34.7358 13.8445 33.5291C13.8669 31.3837 13.7887 29.2496 13.3306 27.1378C13.1071 26.1322 12.8613 25.1265 12.6601 24.1209C12.2467 22.0873 11.9003 20.0649 12.4478 17.9643C12.7607 16.7575 13.3417 15.7296 14.3138 15.0815C15.8669 14.0424 17.5877 13.8636 19.3643 14.6904C21.4314 15.6625 21.9901 17.495 22.2024 19.5286C22.37 21.1823 21.9901 22.7913 21.666 24.4003C21.6213 24.6237 21.6995 24.9366 21.8336 25.1154C22.5711 26.0316 22.6046 26.6685 22.1018 27.54C21.6995 28.2328 20.4705 28.6239 19.7218 28.2551C18.895 27.8529 18.4816 27.0149 18.6492 26.0651C18.7832 25.2942 19.3196 24.9701 19.9453 24.6796C20.1017 24.6014 20.2917 24.4897 20.3475 24.3444C21.0627 22.3779 21.4426 20.3666 20.8168 18.3107C20.6045 17.5844 20.3475 16.8581 19.6771 16.3218C18.0905 15.0703 15.7105 15.115 14.392 16.6011C13.5652 17.5285 13.2635 18.7576 13.2747 19.9755C13.2859 21.0705 13.3752 22.1991 13.6881 23.2382C14.6826 26.5679 14.9842 29.9647 14.9619 33.4173C14.9619 33.9984 14.9731 34.5906 15.0401 35.1604C15.1854 36.3783 15.7776 36.8476 17.1072 36.8141C16.3586 34.8922 16.5709 32.9033 16.5597 30.9256C16.5485 28.1769 16.5485 25.4282 16.5597 22.6684C16.5597 22.2549 16.5374 21.9421 16.0346 21.7745C15.4982 21.5957 15.1407 20.4672 15.3194 19.8415C15.7552 18.2883 17.2972 17.8861 18.5263 18.8247C19.4313 19.5062 19.2078 21.3052 18.2134 21.8415C18.0123 21.9533 17.8111 22.2549 17.8111 22.4672C17.7888 26.2998 17.8 30.1323 17.8111 33.9648C17.8111 34.4788 17.867 35.004 17.9117 35.518C17.9788 36.4565 18.7497 37.0487 19.9453 37.0934C20.6939 37.1158 21.4537 37.0041 22.1577 37.4398C23.4873 38.2443 23.6884 39.7416 22.9286 40.7248C22.3364 41.4958 21.5766 41.7193 20.6828 41.7193C18.8615 41.7193 17.0402 41.7081 15.2189 41.7193C14.2244 41.7305 13.744 42.3338 14.0233 43.2836C14.0904 43.5182 14.3697 43.8199 14.582 43.8423C15.4312 43.9428 16.3027 43.954 17.1631 43.954C17.3195 43.954 17.5206 43.7417 17.6324 43.5741C18.381 42.535 19.6436 42.3785 20.6157 43.2054C21.1409 43.6523 21.2973 44.8479 20.9174 45.563C20.5822 46.1999 19.5207 46.6804 18.8615 46.4345C18.4704 46.2893 18.0458 46.0658 17.8111 45.753C17.4983 45.3395 17.1743 45.1719 16.6714 45.2054C16.1351 45.239 15.5876 45.2278 15.0513 45.2054C13.9563 45.1608 13.1965 44.5127 12.8054 43.5518C12.4031 42.5685 12.8277 41.7193 13.5428 41.1271C13.9451 40.7919 14.6043 40.6355 15.1518 40.6243C17.029 40.5684 18.9173 40.5684 20.8057 40.6131C21.7666 40.6355 22.5599 39.641 21.9007 38.7695C21.7219 38.546 21.3532 38.3449 21.0738 38.3449C18.7832 38.3114 16.4815 38.3337 14.1909 38.3225C12.9506 38.3114 11.9115 37.8532 11.2634 36.7247C11.1182 36.4789 11.0065 36.166 11.0065 35.8867C11.0176 33.909 10.7271 31.9648 10.1684 30.0764C9.88909 29.1379 9.43098 28.244 8.97286 27.3724C7.9002 25.2942 6.62641 23.3164 5.73253 21.1711C4.88334 19.1487 4.69339 16.981 5.33028 14.7687C5.87779 12.858 6.79402 11.2043 8.09015 9.74055C9.62093 8.00865 11.5651 6.81307 13.7887 6.26557C15.7329 5.78511 17.7441 5.72924 19.7665 6.10914C21.8672 6.50022 23.7108 7.36058 25.2974 8.72375C27.8003 10.8691 29.2752 13.629 29.454 16.9363C29.5099 18.009 29.2194 19.1152 28.9959 20.1878C28.6048 22.0426 27.6104 23.6405 26.7276 25.2942C25.9232 26.7914 25.2416 28.3445 24.4929 29.8641C24.3142 30.2217 24.3812 30.4675 24.6717 30.758C25.2527 31.3279 25.2974 32.5793 24.8393 33.2386C24.4259 33.8419 23.3644 34.1548 22.6828 33.8978C21.7554 33.5402 21.2191 32.6911 21.3867 31.7636C21.5208 31.015 21.9789 30.4675 22.7275 30.2887C23.1968 30.177 23.3085 29.8418 23.465 29.4842C23.8896 28.501 24.2806 27.5065 24.7611 26.5568C25.9343 24.2215 27.4763 22.0426 28.0238 19.4616C28.4037 17.6291 28.3702 15.7743 27.6104 13.9418C26.7053 11.7406 25.2751 10.0199 23.3421 8.72375C21.856 7.72931 20.1464 7.23767 18.3698 7.03655C15.8669 6.75721 13.487 7.30471 11.3528 8.56732C9.86675 9.43886 8.58179 10.6233 7.75494 12.1987C7.45326 12.7909 7.16275 13.3831 6.86106 13.9753C6.44764 14.8022 6.29121 15.6625 6.23534 16.5899C6.1236 18.3107 6.39177 19.9644 7.10688 21.5063C7.66556 22.7131 8.38066 23.8416 9.02873 25.0036C9.36394 25.5958 9.69914 26.188 10.0344 26.7691C10.0567 26.7355 10.1126 26.702 10.1796 26.6685ZM20.4928 25.6964C19.9341 25.6964 19.6101 25.9869 19.6101 26.5009C19.6101 27.0149 19.99 27.3613 20.5263 27.3724C20.9844 27.3724 21.342 26.9814 21.3532 26.5009C21.3532 26.0204 21.0068 25.6964 20.4928 25.6964ZM24.1577 32.0542C24.1466 31.5513 23.6884 31.1603 23.1521 31.1826C22.7163 31.205 22.3811 31.6296 22.4147 32.1212C22.4593 32.6575 22.761 32.9145 23.2974 32.8922C23.8225 32.8698 24.1801 32.5123 24.1577 32.0542ZM18.0011 20.2214C18.0011 19.6068 17.8 19.3945 17.1966 19.4169C16.705 19.4392 16.3139 19.5733 16.3586 20.2102C16.3921 20.8024 16.6491 21.1152 17.1966 21.1152C17.7776 21.1264 18.0011 20.8694 18.0011 20.2214ZM24.0348 20.7353C24.0348 21.3499 24.3589 21.741 24.817 21.7521C25.2639 21.7633 25.8114 21.2381 25.7779 20.8024C25.722 20.2437 25.3086 20.0426 24.8393 20.0202C24.3142 19.9979 24.0572 20.3219 24.0348 20.7353ZM19.219 45.4289C19.7665 45.4289 20.1576 45.0937 20.1688 44.6021C20.1799 44.144 19.8112 43.8199 19.2972 43.7752C18.705 43.7305 18.4704 44.0322 18.4369 44.5462C18.4033 45.0714 18.7386 45.4289 19.219 45.4289Z" fill="#417837"/>
<path d="M17.7777 2.38833C17.7777 2.8241 17.8447 3.27104 17.7554 3.68447C17.6995 3.94146 17.3866 4.13141 17.1855 4.35488C16.9844 4.13141 16.638 3.91911 16.6156 3.68447C16.5486 2.80175 16.5486 1.90787 16.6156 1.02516C16.6268 0.824033 16.9844 0.5 17.1855 0.5C17.3866 0.5 17.7107 0.801686 17.7554 1.02516C17.8447 1.46093 17.7777 1.93022 17.7777 2.38833Z" fill="#417837"/>
<path d="M20.9175 4.28782C21.1633 3.40511 21.3533 2.60061 21.6215 1.84081C21.6773 1.67321 22.0796 1.52795 22.2919 1.56147C22.4371 1.58382 22.6606 1.95255 22.6271 2.12015C22.4818 2.87995 22.2919 3.62858 22.0349 4.35486C21.9678 4.54481 21.6215 4.74594 21.4092 4.74594C21.2527 4.75711 21.0851 4.45543 20.9175 4.28782Z" fill="#417837"/>
<path d="M9.5092 6.00857C9.30807 6.33261 9.21869 6.64547 9.07343 6.66781C8.87231 6.70133 8.5371 6.5896 8.42536 6.42199C7.96725 5.79628 7.55382 5.14821 7.1851 4.46662C7.09571 4.29902 7.16275 3.94146 7.29683 3.77386C7.39739 3.65095 7.84434 3.60626 7.91138 3.69565C8.47006 4.44428 8.97287 5.22642 9.5092 6.00857Z" fill="#417837"/>
<path d="M24.8841 5.96379C25.4092 5.20399 25.9009 4.44418 26.4484 3.7179C26.5266 3.61734 26.9624 3.62851 27.0629 3.75142C27.197 3.90785 27.2864 4.27658 27.197 4.44418C26.8283 5.13694 26.4037 5.80736 25.9456 6.44425C25.8338 6.60068 25.4763 6.73476 25.2975 6.66772C25.1299 6.61186 25.0517 6.28782 24.8841 5.96379Z" fill="#417837"/>
<path d="M13.4311 4.25431C13.2859 4.43309 13.163 4.7236 13.0065 4.74595C12.8054 4.77947 12.4255 4.63421 12.3808 4.47778C12.1126 3.66211 11.9115 2.83527 11.7327 1.99725C11.7104 1.86317 11.9562 1.55031 12.0568 1.55031C12.3026 1.56148 12.6825 1.67322 12.7384 1.84082C13.0177 2.60062 13.1965 3.39394 13.4311 4.25431Z" fill="#417837"/>
<path d="M6.06778 8.92483C6.09013 9.33825 5.58732 9.6958 5.26328 9.46116C4.61522 8.98069 4.01184 8.42202 3.44199 7.85216C3.3526 7.76278 3.40847 7.3717 3.53138 7.23762C3.65429 7.10353 4.03419 6.98063 4.13475 7.05884C4.79399 7.59517 5.40854 8.18737 6.03426 8.75722C6.05661 8.80192 6.05661 8.89131 6.06778 8.92483Z" fill="#417837"/>
<path d="M31.0184 7.47227C31.0184 8.0086 29.2418 9.62877 28.8507 9.52821C28.6496 9.47234 28.415 9.29356 28.3367 9.11479C28.2809 8.9807 28.4038 8.70136 28.5379 8.56728C28.9848 8.10916 29.4541 7.67339 29.9457 7.27115C30.1245 7.12589 30.415 7.02533 30.6273 7.07002C30.8061 7.10354 30.929 7.37171 31.0184 7.47227Z" fill="#417837"/>
<path d="M3.09561 13.4389C2.39168 13.0926 1.68774 12.7685 1.01733 12.3998C0.916764 12.3439 0.849723 11.9752 0.916764 11.897C1.07319 11.7294 1.37488 11.5171 1.54248 11.573C2.19055 11.7853 2.82744 12.0646 3.44199 12.3775C3.58725 12.4557 3.72133 12.802 3.67664 12.9697C3.63194 13.1373 3.3526 13.2378 3.09561 13.4389Z" fill="#417837"/>
<path d="M31.2418 13.4279C31.0072 13.238 30.7279 13.1263 30.6832 12.9586C30.6385 12.791 30.7614 12.4447 30.9066 12.3664C31.5212 12.0536 32.1469 11.7742 32.8061 11.5731C32.9737 11.5173 33.2978 11.7631 33.443 11.953C33.4989 12.0312 33.3313 12.4223 33.1749 12.5005C32.5715 12.8357 31.9234 13.1151 31.2418 13.4279Z" fill="#417837"/>
<path d="M33.0854 18.0313C32.8284 18.0313 32.5379 18.0983 32.3145 18.0089C32.0686 17.9196 31.8787 17.6849 31.6664 17.5173C31.8563 17.305 32.0239 16.9475 32.2251 16.9139C32.7949 16.8469 33.3871 16.8804 33.9458 16.9698C34.1246 17.0033 34.3481 17.3497 34.3592 17.562C34.3592 17.7073 34.0575 17.9307 33.8452 17.9978C33.6218 18.0872 33.3424 18.0201 33.0854 18.0313Z" fill="#417837"/>
<path d="M1.29663 18.0537C0.994939 18.0314 0.682079 18.0649 0.40274 17.9867C0.235137 17.942 0.000491762 17.7297 0.000491762 17.5844C-0.0106818 17.3945 0.168095 17.0369 0.291005 17.0258C0.961419 16.9587 1.64301 16.9475 2.31342 16.9922C2.45868 17.0034 2.67097 17.361 2.68215 17.5621C2.68215 17.6962 2.40281 17.9196 2.21286 17.9755C1.91117 18.0649 1.58714 18.0314 1.29663 18.0537Z" fill="#417837"/>
<path d="M31.7446 21.0259C32.3368 21.2158 32.8285 21.3164 33.2642 21.5287C33.4318 21.6181 33.6106 21.9644 33.5659 22.1432C33.5212 22.322 33.1972 22.5678 33.0184 22.5566C32.4709 22.4896 31.9122 22.3555 31.3983 22.1656C31.2307 22.0985 31.0184 21.6739 31.0854 21.5622C31.2083 21.3275 31.5212 21.1935 31.7446 21.0259Z" fill="#417837"/>
<path d="M2.65981 21.0371C2.87211 21.2047 3.25201 21.35 3.26318 21.5287C3.28553 21.7522 3.05088 22.1098 2.83858 22.1991C2.36929 22.4003 1.85531 22.512 1.3525 22.5567C1.17372 22.579 0.849689 22.3332 0.804995 22.1544C0.760301 21.9757 0.927904 21.6181 1.09551 21.5399C1.55362 21.3276 2.05643 21.2159 2.65981 21.0371Z" fill="#417837"/>
<path d="M4.92813 25.2942C4.72701 25.5624 4.63762 25.7747 4.48119 25.8753C4.19068 26.0541 3.87782 26.2552 3.55378 26.2999C3.30797 26.3334 2.96159 26.1993 2.81633 26.0205C2.72694 25.8976 2.83868 25.4283 2.99511 25.3389C3.38618 25.0931 3.83312 24.9255 4.28007 24.8473C4.44767 24.8138 4.67114 25.1043 4.92813 25.2942Z" fill="#417837"/>
<path d="M31.0519 26.4674C30.5491 26.2104 30.1133 26.0316 29.7334 25.7523C29.6105 25.6629 29.5881 25.3165 29.644 25.1154C29.6775 24.9813 29.968 24.7913 30.0798 24.836C30.5379 24.9701 31.0072 25.1489 31.4206 25.3947C31.5547 25.4729 31.6441 25.8416 31.5882 25.9981C31.5212 26.188 31.253 26.2998 31.0519 26.4674Z" fill="#417837"/>
<path d="M28.3367 28.0317C29.0854 28.0652 29.6776 28.4898 29.5658 28.8697C29.4988 29.1044 29.2195 29.3725 28.9848 29.4284C28.5826 29.529 27.8228 28.825 27.9233 28.501C28.0015 28.2887 28.2474 28.1322 28.3367 28.0317Z" fill="#417837"/>
<path d="M6.45881 28.367C6.46998 28.8809 5.81074 29.4955 5.40849 29.4061C5.17385 29.3502 4.87216 29.0597 4.80512 28.8139C4.71573 28.4787 5.40849 27.987 5.90013 28.0429C6.1236 28.0764 6.32473 28.2887 6.45881 28.367Z" fill="#417837"/>
<g clip-path="url(#clip0)">
<path d="M83.542 21.3457C85.9497 19.0611 88.6132 18.6471 91.2316 20.0731C92.0743 20.5331 92.6913 21.269 93.3384 21.959C93.5791 22.2196 93.6845 22.419 93.9854 22.005C96.2427 18.8925 100.306 18.3098 103.21 20.855C104.594 22.0663 105.272 23.5842 105.287 25.3935C105.317 27.9234 105.287 30.4686 105.302 32.9985C105.302 33.5351 105.196 33.9491 104.579 33.9644C103.947 33.9644 103.872 33.5045 103.872 32.9985C103.872 30.6219 103.812 28.2607 103.887 25.8841C103.947 24.1516 103.255 22.7869 102.051 21.7597C101.314 21.131 100.306 20.809 99.2674 20.7937C96.5135 20.7477 94.3315 22.8176 94.3616 25.5622C94.3917 28.0154 94.3616 30.4686 94.3616 32.9218C94.3616 33.3665 94.3616 33.8418 93.8049 33.9798C93.2481 34.1178 92.8418 33.7345 92.8418 33.0138C92.8418 30.6679 92.8267 28.322 92.8568 25.9915C92.8869 24.3355 92.4957 22.8023 91.1714 21.821C88.7186 19.9811 85.5735 20.7784 84.2041 22.8636C83.7075 23.6149 83.5269 24.4735 83.5269 25.3782C83.5119 27.9387 83.5269 30.4993 83.5119 33.0598C83.5119 33.7958 83.0604 34.1484 82.4435 33.9644C81.8716 33.7958 81.9318 33.3358 81.9318 32.8912C81.9318 29.0887 81.9318 25.2862 81.9318 21.4837C81.9318 21.039 81.9168 20.5944 81.9469 20.1651C81.9619 19.6591 82.1876 19.3218 82.7294 19.3218C83.2711 19.3218 83.4968 19.6438 83.5119 20.1651C83.557 20.4871 83.542 20.855 83.542 21.3457Z" fill="#427938"/>
<path d="M164.546 23.4769C164.546 20.3951 164.546 17.3132 164.546 14.216C164.546 13.848 164.471 13.4187 164.862 13.1734C165.434 12.8208 166.006 13.2041 166.006 13.9707C166.021 16.2246 166.006 18.4938 166.021 20.7477C166.021 22.8636 166.036 24.9949 166.051 27.1108C166.051 27.2948 165.961 27.5401 166.172 27.6321C166.382 27.7241 166.533 27.5248 166.638 27.3868C167.526 26.2368 168.685 25.3629 169.693 24.3509C170.701 23.339 171.694 22.281 172.808 21.3917C173.425 20.9011 173.861 20.2111 174.463 19.7051C174.734 19.4751 175.005 19.2605 175.336 19.1225C175.682 18.9845 175.998 19.1071 176.209 19.3678C176.434 19.6438 176.269 19.9351 176.073 20.1804C174.99 21.4224 173.771 22.557 172.537 23.6303C171.8 24.2742 171.333 25.1942 170.46 25.7002C170.25 25.8228 170.43 26.0528 170.551 26.1908C172.116 28.0461 173.666 29.932 175.261 31.7412C175.592 32.1092 175.802 32.5539 176.134 32.9065C176.329 33.1059 176.404 33.4125 176.209 33.6732C176.013 33.9338 175.727 34.0105 175.411 33.9338C175.08 33.8418 174.839 33.6425 174.629 33.3818C172.913 31.3733 171.198 29.3647 169.497 27.3408C169.287 27.0955 169.151 27.0955 168.895 27.2641C167.842 27.9541 167.195 29.104 166.172 29.8247C165.991 29.9627 166.036 30.2233 166.036 30.4533C166.036 31.2813 166.006 32.1092 166.021 32.9372C166.021 33.4892 165.946 33.9798 165.284 33.9645C164.652 33.9491 164.531 33.4585 164.531 32.9065C164.546 31.6952 164.531 30.484 164.531 29.2727C164.546 27.3254 164.546 25.4089 164.546 23.4769Z" fill="#6C903D"/>
<path d="M156.345 19.2758C158.061 19.1224 159.46 20.0117 160.86 20.9164C161.176 21.1157 161.401 21.4377 161.146 21.821C160.89 22.2196 160.498 22.3576 160.092 22.097C159.46 21.683 158.783 21.3457 158.076 21.0544C156.496 20.4257 154.991 20.6097 153.546 21.4223C152.899 21.7903 152.508 22.4343 152.523 23.1856C152.538 23.9676 153.08 24.5042 153.697 24.8569C154.404 25.2555 155.156 25.4855 155.999 25.5622C157.805 25.7155 159.535 26.1601 160.89 27.4941C162.319 28.8893 162.094 30.9132 161.055 32.0939C159.656 33.6885 157.835 34.0564 155.833 33.9644C153.983 33.8724 152.372 33.2438 150.958 32.0172C150.627 31.7259 150.386 31.4806 150.687 31.0666C150.988 30.6373 151.379 30.6833 151.755 30.9592C153.05 31.8792 154.479 32.4312 156.044 32.5692C157.414 32.6765 158.678 32.3085 159.716 31.3426C160.243 30.8519 160.604 30.2693 160.363 29.518C160.092 28.6747 159.565 27.9847 158.708 27.7241C157.383 27.3254 156.044 27.0188 154.705 26.7121C153.682 26.4821 152.794 25.9455 151.936 25.3782C150.898 24.7035 150.717 22.3116 151.545 21.3303C152.794 19.8431 154.389 19.1838 156.345 19.2758Z" fill="#6C903D"/>
<path d="M77.5979 24.3969C77.5979 25.5468 77.5678 26.7121 77.5979 27.862C77.6731 30.4686 75.8673 33.0138 73.4747 33.6731C71.2927 34.2711 69.0505 34.2711 67.1093 32.4312C65.6947 31.0972 65.1982 29.564 65.1831 27.7547C65.1681 25.3628 65.1831 22.9556 65.1831 20.5637C65.1831 20.395 65.1831 20.2264 65.1831 20.0731C65.1982 19.6131 65.3637 19.2604 65.8904 19.2604C66.402 19.2604 66.6127 19.5977 66.6277 20.0577C66.6428 21.2997 66.6428 22.5416 66.6428 23.7836C66.6428 25.2402 66.6428 26.6968 66.6428 28.1687C66.6428 29.4566 67.1996 30.5453 68.0573 31.3886C69.3665 32.6765 71.7291 32.8912 73.3844 32.0939C75.145 31.2506 75.9426 29.84 75.9426 27.8927C75.9275 25.3782 75.9426 22.8789 75.9426 20.3644C75.9426 19.9504 75.9426 19.5057 76.394 19.3064C77.0411 19.0304 77.5527 19.3984 77.5678 20.1651C77.6129 21.591 77.5979 22.9863 77.5979 24.3969Z" fill="#427938"/>
<path d="M60.3828 23.4003C60.3828 20.2877 60.3828 17.1752 60.3828 14.078C60.3828 13.5567 60.458 13.1427 61.075 13.0814C61.5114 13.0354 61.8274 13.1887 61.8725 13.6794C61.9026 13.9247 61.9026 14.17 61.9026 14.4153C61.9026 20.4717 61.9026 26.5281 61.9026 32.5692C61.9026 33.1365 62.0832 33.9338 61.1803 33.9491C60.2473 33.9798 60.3677 33.1825 60.3677 32.5692C60.3828 29.5026 60.3828 26.4515 60.3828 23.4003Z" fill="#427938"/>
<path d="M55.1911 23.4769C55.1911 20.3644 55.1911 17.2519 55.1911 14.1393C55.1911 13.572 55.2062 12.9741 56.0188 13.0661C56.41 13.1121 56.6809 13.296 56.6959 13.7407C56.6959 13.94 56.726 14.124 56.726 14.3233C56.726 20.4717 56.726 26.6048 56.726 32.7532C56.726 32.9985 56.711 33.2438 56.6658 33.4891C56.5906 33.9185 56.2144 33.9338 55.9134 33.9798C55.5824 34.0258 55.3266 33.8418 55.2664 33.4891C55.2062 33.1978 55.2062 32.8912 55.2062 32.5845C55.1911 29.5486 55.1911 26.5128 55.1911 23.4769Z" fill="#427938"/>
<path d="M50.9476 26.7122C50.9476 28.7821 50.9325 30.8366 50.9626 32.9065C50.9777 33.5812 50.7519 33.9798 50.0597 33.9645C49.4277 33.9492 49.2923 33.5199 49.2923 32.9525C49.3073 28.7361 49.3073 24.5349 49.2923 20.3184C49.2923 19.7205 49.4277 19.2605 50.1199 19.2758C50.8121 19.2912 50.9325 19.7665 50.9325 20.3491C50.9476 22.465 50.9476 24.5809 50.9476 26.7122Z" fill="#427938"/>
<path d="M109.169 26.6355C109.169 24.5502 109.169 22.4497 109.169 20.3644C109.169 19.7971 109.214 19.2605 109.952 19.2758C110.629 19.2911 110.644 19.8431 110.644 20.3644C110.644 24.5656 110.644 28.782 110.659 32.9832C110.659 33.5045 110.569 33.9491 109.952 33.9645C109.305 33.9798 109.169 33.5658 109.169 32.9832C109.184 30.8673 109.169 28.7514 109.169 26.6355Z" fill="#427938"/>
<path d="M129.048 17.0219C127.468 15.044 125.496 13.7867 123.149 13.2654C120.982 12.7901 118.74 12.9894 116.528 13.0508C115.835 13.0661 115.745 13.5567 115.745 14.1547C115.76 17.2672 115.745 20.3798 115.745 23.4923C115.745 26.6048 115.745 29.7173 115.745 32.8299C115.745 33.8112 115.911 33.9798 116.889 33.9798C118.183 33.9951 119.477 34.0105 120.786 33.9798C122.532 33.9491 124.217 33.7038 125.767 32.7992C128.235 31.3579 130.146 29.472 130.929 26.5895C131.892 23.063 131.38 19.9045 129.048 17.0219ZM129.785 24.9489C129.409 26.8808 128.596 28.5521 127.091 29.9627C125.135 31.8026 122.908 32.4465 120.395 32.5232C119.612 32.5539 118.83 32.5079 118.047 32.5385C117.446 32.5692 117.25 32.3086 117.265 31.7106C117.28 28.966 117.28 26.2062 117.28 23.4463C117.28 20.7477 117.295 18.0492 117.265 15.3507C117.265 14.676 117.461 14.446 118.138 14.446C120.229 14.4154 122.291 14.4614 124.292 15.1513C124.624 15.2587 124.924 15.458 125.225 15.6266C128.687 17.6199 130.477 21.3917 129.785 24.9489Z" fill="#6C903D"/>
<path d="M148.941 25.7308C148.415 22.7563 146.714 20.6711 143.96 19.6438C139.657 18.0492 134.706 21.0851 134.254 25.9915C134.059 28.0614 134.585 30.024 136.03 31.5572C137.324 32.9219 138.859 33.8571 140.83 33.9645C143.599 34.1331 145.857 33.2898 147.527 30.9899C147.798 30.622 148.039 30.1466 147.587 29.8247C147.136 29.4873 146.684 29.6407 146.338 30.1466C145.646 31.1739 144.698 31.8026 143.539 32.2319C140.484 33.3358 136.647 31.7412 135.789 27.8621C135.639 27.2028 135.804 26.9728 136.481 26.9881C138.378 27.0188 140.259 27.0035 142.155 27.0035C144.066 27.0035 145.992 27.0188 147.903 27.0035C148.806 26.9728 149.092 26.6355 148.941 25.7308ZM146.323 25.5469C144.698 25.5469 143.088 25.5469 141.462 25.5469C139.822 25.5469 138.167 25.5315 136.527 25.5622C135.94 25.5775 135.744 25.4242 135.955 24.8109C137.053 21.683 139.928 20.3798 142.862 20.9164C144.608 21.2384 145.766 22.373 146.744 23.7683C146.895 23.9829 147.015 24.2589 147.09 24.5196C147.331 25.3169 147.166 25.5469 146.323 25.5469Z" fill="#6C903D"/>
<path d="M109.921 13.6641C108.943 13.6947 108.266 14.446 108.251 15.504C108.251 16.7152 108.778 17.2826 109.952 17.2826C111.02 17.2826 111.772 16.5773 111.787 15.55C111.818 14.5993 110.87 13.6334 109.921 13.6641ZM109.997 16.2399C109.59 16.1479 109.32 15.9333 109.335 15.504C109.335 15.0593 109.651 14.86 110.027 14.8753C110.373 14.8907 110.659 15.1207 110.629 15.5193C110.584 15.8873 110.403 16.2093 109.997 16.2399Z" fill="#427938"/>
<path d="M50.1349 13.664C49.2922 13.6487 48.3893 14.5687 48.3592 15.4733C48.3291 16.4853 49.0815 17.2826 50.0898 17.2826C51.1281 17.2826 51.8805 16.5773 51.9106 15.55C51.9407 14.63 51.0378 13.664 50.1349 13.664ZM50.1349 16.2553C49.7136 16.2093 49.4126 15.9639 49.3825 15.5346C49.3524 15.0287 49.7738 14.8907 50.15 14.8907C50.5111 14.8907 50.8572 15.0593 50.8572 15.504C50.8572 15.9486 50.5563 16.1786 50.1349 16.2553Z" fill="#427938"/>
</g>
<defs>
<clipPath id="clip0">
<rect width="128" height="21.0824" fill="white" transform="translate(48.3593 12.9587)"/>
</clipPath>
</defs>
</svg>
