<svg width="25" height="16" viewBox="0 0 25 16" fill="none" xmlns="http://www.w3.org/2000/svg">
<path d="M15.6189 8.02001C15.6189 12.3353 12.1231 15.8318 7.80944 15.8318C3.49574 15.8318 0 12.3345 0 8.02001C0 3.70553 3.4966 0.208252 7.80944 0.208252C12.1223 0.208252 15.6189 3.70553 15.6189 8.02001Z" fill="#E2574C"/>
<path d="M17.1883 0.208984C15.4369 0.208984 13.8246 0.792536 12.5216 1.76669L12.5278 1.76746C12.7841 2.01507 13.0668 2.18934 13.2848 2.47439L11.6599 2.50018C11.4053 2.75721 11.1733 3.03686 10.9545 3.32748H13.8198C14.0378 3.58914 14.2393 3.81653 14.4222 4.10552H10.4351C10.289 4.35707 10.1539 4.61565 10.0359 4.88434H14.8761C15.0026 5.15225 15.1159 5.35462 15.212 5.63821H9.7492C9.6625 5.90776 9.5883 6.18347 9.53201 6.46466H15.4409C15.4987 6.73498 15.5432 6.9849 15.5737 7.23962H9.4148C9.38901 7.49665 9.37573 7.75754 9.37573 8.02083H15.6181C15.6181 8.29739 15.5986 8.55357 15.5705 8.80204H9.4148C9.44136 9.06687 9.48043 9.32699 9.53201 9.58325H15.4314C15.3705 9.83634 15.3002 10.091 15.2119 10.355H9.73121C9.81397 10.6222 9.91482 10.8815 10.0249 11.1346H14.8761C14.7417 11.419 14.5894 11.6463 14.4215 11.9127H10.4211C10.5789 12.1861 10.7531 12.4469 10.9421 12.6969L13.8199 12.7399C13.5746 13.0343 13.2598 13.2117 12.9731 13.4695C12.9887 13.482 12.5145 13.468 11.581 13.4531C13.0012 14.9187 14.9862 15.8326 17.1883 15.8326C21.5027 15.8326 25 12.3352 25 8.02083C25 3.70644 21.5035 0.208984 17.1883 0.208984Z" fill="#F4B459"/>
</svg>
