<svg width="110" height="110" viewBox="0 0 110 110" fill="none" xmlns="http://www.w3.org/2000/svg">
<path d="M99.2388 16.6653C99.5688 18.8653 99.8621 21.1936 100.1 23.6503C100.412 27.0236 100.559 30.1953 100.577 33.1653C98.3038 32.5603 95.9205 31.9919 93.4088 31.5153C83.4721 29.5903 74.3788 29.2786 66.6055 29.7186C74.4888 20.6803 81.4921 16.0419 85.7638 13.6769C86.5888 13.2186 92.4555 9.95526 95.3888 11.6969C96.1221 12.1186 96.8371 12.8153 96.8371 12.8153C98.2855 14.1719 98.9271 15.7486 99.2388 16.6653Z" fill="#475569"/>
<path d="M76.544 99.3479L33.3324 77.3479C32.2874 70.3446 24.294 13.0713 45.304 3.68461C46.6424 3.07961 48.1457 2.65794 49.7957 2.47461C60.1174 4.25294 68.129 5.49961 73.0057 6.25128C86.829 8.34128 96.3074 9.51461 98.8007 15.6013C99.0207 16.1146 99.1307 16.5729 99.1857 16.8479C98.8007 15.6379 97.829 13.1446 95.6107 12.2829C95.6107 12.2829 92.8424 11.1829 88.4424 14.1163C80.1557 19.6346 77.2224 83.2879 76.544 99.3479Z" fill="#F7F7F7"/>
<path d="M44.8633 8.85352L80.6499 15.3985" stroke="#D5E1FA" stroke-miterlimit="10"/>
<path d="M41.1055 13.4023L69.7788 18.939" stroke="#D5E1FA" stroke-miterlimit="10"/>
<path d="M47.0625 20.7715L78.0092 27.0598" stroke="#D5E1FA" stroke-miterlimit="10"/>
<path d="M36.4688 29.1133L74.8037 37.4549" stroke="#D5E1FA" stroke-miterlimit="10"/>
<path d="M36.4688 34.832L53.4454 38.8287" stroke="#D5E1FA" stroke-miterlimit="10"/>
<path d="M41.1055 40.9941L73.7755 48.1991" stroke="#D5E1FA" stroke-miterlimit="10"/>
<path d="M37.5664 48.0703L70.8047 55.8436" stroke="#D5E1FA" stroke-miterlimit="10"/>
<path d="M54.999 29.8652L48.7656 85.1952L79.0156 98.6519L86.9906 34.4852L54.999 29.8652Z" fill="#EB506E"/>
<path d="M68.456 36.7587L55.5859 34.8703L55.8609 31.5703L68.731 33.4587L68.456 36.7587Z" fill="#B1CEFC"/>
<path d="M30.0117 78.8874L30.4151 78.6491C39.8017 76.4674 51.1867 72.9657 63.5067 67.2457C73.7551 62.4791 82.335 57.2541 89.2467 52.4141C87.9634 70.5457 86.6617 88.6958 85.3784 106.827" fill="white"/>
<path d="M30.0117 78.8874L30.4151 78.6491C39.8017 76.4674 51.1867 72.9657 63.5067 67.2457C73.755 62.4791 82.335 57.2541 89.2467 52.4141C87.9634 70.5457 86.6617 88.6958 85.3784 106.827" stroke="#CBD5E1" stroke-width="0.75" stroke-miterlimit="10"/>
<path d="M29.3516 41.8184L30.0116 78.8883L85.3782 106.847L29.3516 41.8184Z" fill="white" stroke="#CBD5E1" stroke-width="0.75" stroke-miterlimit="10"/>
<path d="M36.3901 58.0078L30.3952 55.0744L30.2852 48.6211L36.3901 51.4994V58.0078Z" fill="#5185EC"/>
<path d="M35.7315 56.9798L31.0382 54.6882L30.9648 49.6465L35.7315 51.9015V56.9798Z" fill="#D5E1FA"/>
<path d="M71.4282 69.9973C76.0665 71.2257 80.7232 72.4723 85.3615 73.7007C85.7099 73.7923 85.8565 73.2607 85.5082 73.169C80.8699 71.9407 76.2132 70.694 71.5749 69.4657C71.2449 69.374 71.0982 69.9057 71.4282 69.9973Z" fill="#D5E1FA"/>
<path d="M68.9882 71.7749C71.0049 72.1966 73.0032 72.7649 74.9465 73.4799C75.2765 73.6083 75.4232 73.0766 75.0932 72.9483C73.1499 72.2516 71.1516 71.6833 69.1349 71.2433C68.7866 71.1699 68.6399 71.7016 68.9882 71.7749Z" fill="#D5E1FA"/>
<path d="M70.397 74.7262C74.1553 75.8996 77.8953 77.0729 81.6537 78.2279C81.9837 78.3379 82.1303 77.8062 81.8003 77.6962C78.042 76.5229 74.302 75.3496 70.5436 74.1946C70.2136 74.0846 70.067 74.6162 70.397 74.7262Z" fill="#D5E1FA"/>
<path d="M24.5664 77.1465C23.6864 77.2932 23.0814 77.4032 22.6414 77.4765C21.9631 77.5865 21.3764 77.6965 20.6431 78.0265C20.5697 78.0632 20.5147 78.0815 20.4597 78.1182C20.0381 78.3382 19.4697 78.7415 18.9381 79.4748C18.4431 79.6215 18.0581 79.8048 17.8014 79.9332C17.1964 80.2448 15.9131 80.8865 15.2164 82.2432C15.0697 82.5365 14.9781 82.7931 14.9414 82.9398C15.0331 83.1965 15.2164 83.5632 15.5647 83.8015C16.1881 84.2231 16.9764 83.9848 17.5997 83.8015C19.6714 83.1782 20.7164 82.8665 21.7797 82.2981C22.7514 81.7848 24.0164 81.0332 25.3914 79.9515C25.4281 79.6398 25.4464 79.1265 25.2814 78.5398C25.1347 77.8615 24.7864 77.3848 24.5664 77.1465Z" fill="#F7CD5B"/>
<path d="M47.3731 57.8603C46.8964 56.0269 43.8897 55.3669 42.9181 55.1836C42.7714 55.3853 42.5331 55.6969 42.2764 56.1003C41.4331 57.4019 40.9564 58.4653 40.7181 58.9969C40.0397 60.5369 38.6464 63.5803 36.8681 67.6136C35.7864 68.4203 34.7047 69.2269 33.6231 70.0519C33.0547 70.4919 31.8081 71.4269 30.3597 72.5636C28.8564 73.7369 26.8947 75.2769 24.5664 77.1469C24.7681 77.3853 25.0797 77.8069 25.2814 78.4119C25.4831 79.0719 25.4647 79.6403 25.4281 79.9519C27.2981 79.1453 28.8564 78.4119 29.9931 77.8619C34.8147 75.4969 38.1881 73.3153 39.2697 72.5819C40.4614 71.7936 41.4147 71.1153 42.0747 70.6386C42.4964 70.0519 43.0097 69.3003 43.5597 68.3836C44.0731 67.5219 44.7514 66.2753 45.4297 64.7169C46.0897 63.1586 46.4197 62.0036 46.8964 60.4086C47.4647 58.3919 47.4281 58.0803 47.3731 57.8603Z" fill="#040844"/>
<path d="M23.4127 77.2381C21.6343 77.6048 19.526 77.8981 18.7377 79.7681C18.7193 79.8048 18.7377 79.8598 18.7743 79.8781C19.6543 80.1898 20.3143 79.4381 21.176 79.3465C21.2677 79.3465 21.2677 79.1998 21.176 79.1998C20.7177 79.2548 20.3877 79.4381 19.966 79.6215C19.636 79.7681 19.031 79.9515 19.031 79.4565C19.031 79.1448 19.5993 78.7415 19.8377 78.5765C20.8827 77.7881 22.221 77.6231 23.4493 77.3665C23.541 77.3481 23.5043 77.2198 23.4127 77.2381Z" fill="#202124"/>
<path d="M15.4364 83.3994C16.2064 82.4644 17.1597 81.7494 18.2781 81.2911C18.3514 81.2544 18.3147 81.1261 18.2414 81.1628C17.1047 81.6211 16.1147 82.3544 15.3447 83.3078C15.2714 83.3811 15.3814 83.4728 15.4364 83.3994Z" fill="#202124"/>
<path d="M15.9667 83.6368C16.4434 83.3251 16.9017 82.9768 17.3967 82.6834C17.8184 82.4268 18.3134 82.3718 18.7534 82.1701C18.8267 82.1334 18.7717 82.0234 18.68 82.0601C18.24 82.2618 17.745 82.3168 17.3234 82.5734C16.8284 82.8668 16.37 83.2151 15.8934 83.5268C15.82 83.5818 15.875 83.6918 15.9667 83.6368Z" fill="#202124"/>
<path d="M16.662 83.8194C17.2853 83.5628 17.927 83.3428 18.587 83.1594C18.6787 83.1411 18.642 83.0128 18.5503 83.0311C17.8903 83.2144 17.2303 83.4344 16.5887 83.7094C16.5153 83.7461 16.5703 83.8561 16.662 83.8194Z" fill="#202124"/>
<path d="M10.9805 87.0864C15.7655 85.2714 20.5688 83.4381 25.3538 81.623C25.4638 82.6131 25.5738 83.6214 25.6838 84.6114C20.7888 85.4364 15.8938 86.2614 10.9805 87.0864Z" fill="white"/>
<path d="M6.92969 87.7644C12.228 85.3627 17.508 82.9427 22.8064 80.541C23.668 80.9077 24.548 81.2744 25.4097 81.641C21.4497 83.1627 17.4897 84.6844 13.5297 86.206C12.998 86.4077 12.4664 86.6094 11.9347 86.811C13.0347 86.6277 14.1347 86.4077 15.2714 86.1694C19.5614 85.2527 23.4847 84.0977 27.0597 82.8144C27.738 83.0527 28.453 83.3277 29.2047 83.676C30.488 84.2627 31.588 84.9227 32.5047 85.546C30.873 85.8577 29.2047 86.1327 27.518 86.4077C27.133 86.4627 26.7664 86.536 26.3814 86.591C26.3264 87.416 26.2714 88.241 26.2164 89.0844C20.9914 88.6444 15.7847 88.2044 10.5597 87.7644C9.34969 87.7277 8.13969 87.746 6.92969 87.7644Z" fill="#EB506E"/>
<path d="M25.3534 81.6215C25.3167 82.1898 25.2984 82.7765 25.2617 83.3448C25.2617 83.4365 25.3901 83.4365 25.4084 83.3448C25.4451 82.7765 25.4634 82.1898 25.5001 81.6215C25.5001 81.5298 25.3534 81.5298 25.3534 81.6215Z" fill="#202124"/>
<path d="M6.92812 87.8197C14.0781 87.5447 21.3381 87.5814 28.3965 86.2981C28.4881 86.2798 28.4515 86.1514 28.3598 86.1698C21.3198 87.4714 14.0598 87.4164 6.92812 87.6914C6.83646 87.6914 6.83646 87.8197 6.92812 87.8197Z" fill="white"/>
<path d="M27.4796 82.9611C28.7629 83.5111 30.0096 84.1345 31.2379 84.8128C31.3113 84.8495 31.3846 84.7395 31.3113 84.7028C30.1013 84.0245 28.8363 83.4011 27.5529 82.8511C27.4796 82.8145 27.4063 82.9245 27.4796 82.9611Z" fill="#202124"/>
<path d="M26.4177 86.7191C26.3627 87.4341 26.2894 88.1307 26.2344 88.8457C26.2344 88.9374 26.3627 88.9374 26.381 88.8457C26.436 88.1307 26.5094 87.4341 26.5644 86.7191C26.5644 86.6457 26.436 86.6457 26.4177 86.7191Z" fill="#202124"/>
<path d="M42.9556 54.5804C42.6989 55.0754 42.6806 55.552 42.6439 56.2854C42.5889 58.027 43.2306 59.3837 43.6156 60.0804C43.8539 60.4104 44.2206 60.887 44.7339 61.437C45.5773 62.3537 46.4206 63.0504 47.3006 63.6737C50.7839 66.167 55.1106 67.9087 56.9256 68.587C57.7689 68.8987 58.4656 69.137 58.8689 69.2837C60.6106 68.8254 62.7189 68.1104 64.9739 66.992C66.6973 66.1304 68.1639 65.2137 69.3556 64.352C68.6406 63.1054 67.5589 61.5287 66.0373 59.9154C63.5073 57.2387 61.0139 55.8454 59.1439 54.8554C57.1823 53.8104 55.8623 53.1137 53.8639 52.747C52.3606 52.472 51.2606 52.527 49.7939 52.582C46.6589 52.7653 43.8539 52.8754 42.9556 54.5804Z" fill="#040844"/>
<path d="M43.5603 60.135C44.7703 61.73 46.237 63.105 47.9236 64.2049C47.997 64.2599 48.0703 64.1316 47.997 64.0949C46.3286 62.995 44.8986 61.6566 43.6886 60.0616C43.6336 59.9883 43.5053 60.0616 43.5603 60.135Z" fill="white"/>
<path d="M31.2026 81.8048C30.8909 81.7682 30.4876 81.7682 29.9926 81.8048C29.8092 81.8232 29.1309 81.8965 28.2876 82.2082C27.8292 82.3732 27.4992 82.5015 27.1509 82.7948C26.9126 82.9965 26.5092 83.3448 26.5826 83.6198C26.6926 84.0598 27.8292 83.9132 27.9576 84.3532C28.0126 84.5365 27.8109 84.7565 27.4259 85.1965C26.9126 85.7832 26.5826 86.1498 26.0142 86.4065C25.7026 86.5532 25.4092 86.5898 24.8409 86.6815C23.8142 86.8282 23.4292 86.6999 23.0992 87.0299C22.8426 87.2865 22.8242 87.6349 22.8242 87.7265C22.8242 88.2949 23.3192 88.6982 23.6492 88.9549C24.6209 89.7432 25.7392 89.7982 26.0142 89.8165C27.1509 89.8532 27.9942 89.4315 28.3792 89.2299C29.7542 88.5149 30.4509 87.3782 31.0559 86.4065C31.5876 85.5265 31.9176 84.7382 32.1192 84.1515C31.8076 83.3632 31.4959 82.5748 31.2026 81.8048Z" fill="#F7CD5B"/>
<path d="M53.4943 54.3416C53.3843 54.4149 53.0726 54.6349 52.7793 54.9649C52.4126 55.3866 52.266 55.7716 52.0093 56.3582C51.496 57.5682 51.551 57.2932 51.221 58.0999C50.4326 60.0799 49.846 62.3166 49.846 62.3166C48.8193 66.2582 47.8293 71.1716 47.6826 71.8682C45.4093 73.0416 43.4843 74.1049 42.0176 74.9482C39.726 76.2499 37.1227 77.7532 33.9327 79.9532C32.8327 80.7049 31.9343 81.3649 31.3477 81.8049C31.3477 82.1349 31.3843 82.6116 31.586 83.1432C31.7327 83.5649 31.9343 83.8949 32.0993 84.1332C32.906 84.0416 34.0427 83.8766 35.381 83.6382C38.076 83.1432 40.2943 82.4649 44.731 81.1266C44.731 81.1266 46.2893 80.6499 48.911 79.5499C49.4976 79.2932 49.9926 79.0916 50.5793 78.6699C50.8176 78.5049 51.6243 77.8999 52.6326 76.5799C53.256 75.7732 53.586 75.0949 54.026 74.2149C55.346 71.5382 56.0243 70.2182 56.1893 69.7966C57.876 65.9832 59.1226 62.0416 59.5993 60.4466C59.7643 60.0982 60.241 59.0349 59.911 57.8066C59.691 56.9449 59.196 56.4316 58.811 56.0282C57.326 54.5066 54.7776 53.5349 53.4943 54.3416Z" fill="#040844"/>
<path d="M52.7267 54.9269C50.6551 57.9885 50.1784 61.6552 49.1151 65.1202C49.0967 65.2119 49.2251 65.2485 49.2434 65.1569C50.3067 61.7102 50.7834 58.0435 52.8551 55.0002C52.8917 54.9269 52.7817 54.8535 52.7267 54.9269Z" fill="white"/>
<path d="M22.8971 87.5809C23.2455 87.8193 23.6855 87.8009 24.1071 87.8009C24.6571 87.8009 25.2255 87.7459 25.7755 87.6726C25.8671 87.6543 25.8305 87.5259 25.7388 87.5443C25.0055 87.6543 23.6488 87.9109 22.9888 87.4893C22.8971 87.4159 22.8238 87.5259 22.8971 87.5809Z" fill="#202124"/>
<path d="M22.9718 88.0757C23.8701 88.5157 24.8418 88.6074 25.8134 88.6624C25.9051 88.6624 25.9051 88.534 25.8134 88.5157C24.8601 88.4607 23.9068 88.3874 23.0451 87.9474C22.9718 87.929 22.8984 88.039 22.9718 88.0757Z" fill="#202124"/>
<path d="M23.2979 88.679C23.8112 89.1006 24.4162 89.3573 25.0762 89.4123C25.1679 89.4123 25.1679 89.2839 25.0762 89.2656C24.4529 89.2106 23.8662 88.9723 23.3895 88.569C23.3345 88.5323 23.2245 88.624 23.2979 88.679Z" fill="#202124"/>
<path d="M59.6737 60.0999C58.977 62.3549 58.2254 64.5916 57.4004 66.8099C57.3637 66.9016 57.5104 66.9199 57.5287 66.8466C58.3537 64.6283 59.1237 62.3916 59.802 60.1366C59.8387 60.0449 59.7104 60.0266 59.6737 60.0999Z" fill="white"/>
<path d="M47.1673 56.9274C47.2223 56.9824 47.3507 57.074 47.3507 57.074C47.3873 57.1107 47.6623 57.2941 47.9373 57.3124C48.2307 57.3491 48.469 57.2024 48.7807 57.0191C49.239 56.7257 49.4774 56.3774 49.569 56.249C49.6424 56.139 49.7707 55.9374 49.844 55.6624C49.9724 55.1857 49.9907 54.324 49.5507 54.0674C49.0373 53.774 48.194 54.5257 48.0473 54.654C47.204 55.4057 46.8557 56.5974 47.1673 56.9274Z" fill="#F7CD5B"/>
<path d="M47.6625 56.7814C47.8091 56.8181 47.9558 56.8364 48.1208 56.8364C48.2125 56.8364 48.2125 56.7081 48.1208 56.6898C47.9741 56.6898 47.8458 56.6714 47.6991 56.6348C47.6075 56.6348 47.5708 56.7631 47.6625 56.7814Z" fill="#202124"/>
<path d="M43.0642 54.0494C43.0825 54.2327 43.1742 54.4527 43.2659 54.691C43.3759 54.966 43.5775 55.461 43.9992 55.9194C44.2192 56.1577 44.6409 56.6344 45.3559 56.8727C46.1809 57.166 46.8959 56.9827 47.1525 56.9094C47.7575 56.7444 48.1609 56.4694 48.3809 56.286C48.6375 56.0844 49.0959 55.7544 49.4075 55.1494C49.4442 55.076 49.6275 54.7094 49.7192 54.196C49.7742 53.866 49.8842 53.2427 49.6092 52.5644C49.5359 52.3994 49.3159 51.886 48.8209 51.5194C47.8675 50.8044 46.6025 51.1344 46.0892 51.2627C44.4942 51.7027 42.9175 53.041 43.0642 54.0494Z" fill="#F7CD5B"/>
<path d="M44.2908 54.6897C44.4009 55.1114 44.5292 55.533 44.7308 55.918C44.8592 56.1747 45.0242 56.3947 45.3359 56.3947C45.4275 56.3947 45.4275 56.2664 45.3359 56.248C44.9509 56.2297 44.7859 55.7347 44.6575 55.423C44.5475 55.1664 44.4742 54.9097 44.4192 54.6347C44.4008 54.5614 44.2725 54.598 44.2908 54.6897Z" fill="#202124"/>
<path d="M44.8974 54.1953C45.0624 53.9387 45.3924 54.0487 45.594 54.177C45.6674 54.2137 45.7407 54.1037 45.6674 54.067C45.374 53.902 44.989 53.8103 44.769 54.1403C44.7324 54.2136 44.8424 54.2686 44.8974 54.1953Z" fill="#202124"/>
<path d="M43.5742 54.5984C43.6659 54.4334 43.8492 54.3417 44.0325 54.4701C44.1059 54.5251 44.1792 54.3967 44.1059 54.3601C43.8859 54.1951 43.5925 54.3234 43.4642 54.5434C43.4092 54.5984 43.5192 54.6717 43.5742 54.5984Z" fill="#202124"/>
<path d="M45.6891 55.2454C45.7931 55.2057 45.8424 55.0815 45.799 54.968C45.7557 54.8544 45.6362 54.7946 45.5322 54.8343C45.4281 54.8741 45.3789 54.9983 45.4222 55.1118C45.4655 55.2253 45.585 55.2851 45.6891 55.2454Z" fill="#202124"/>
<path d="M44.236 55.597C44.34 55.5573 44.3892 55.4331 44.3459 55.3195C44.3026 55.206 44.1831 55.1462 44.079 55.1859C43.975 55.2256 43.9258 55.3498 43.9691 55.4634C44.0124 55.5769 44.1319 55.6367 44.236 55.597Z" fill="#202124"/>
<path d="M53.5496 49.5381C53.4212 51.7931 50.5612 53.4981 48.1045 53.3515C45.3545 53.1681 42.9345 50.6381 43.1545 48.7131C43.2462 47.9798 43.7595 47.0081 44.5295 46.7881C45.3912 46.5498 45.9962 47.4298 46.7112 47.1365C47.5179 46.8065 47.2246 45.5781 47.8846 45.1565C49.1496 44.3498 53.7329 46.5865 53.5496 49.5381Z" fill="#5185EC"/>
<path d="M43.0619 54.2862C43.0619 54.1395 43.0986 53.7545 43.3736 53.3878C43.4836 53.2595 43.7953 52.8745 44.3086 52.8195C44.8036 52.7645 45.1886 53.0028 45.4636 53.1862C45.9403 53.4978 45.9403 53.7362 46.4169 53.9562C46.5819 54.0295 46.8569 54.1762 47.2053 54.1578C47.3153 54.1578 47.5169 54.1212 48.5803 53.5162C48.9286 53.3145 49.1119 53.2228 49.3319 53.2228C49.6253 53.2228 49.8453 53.3695 49.9919 53.4978C50.0469 53.2228 50.1019 52.8195 50.0286 52.3245C49.7903 50.8578 48.5619 50.0878 48.4336 49.9962C47.1686 49.2262 45.8486 49.6112 45.3719 49.7395C44.5653 49.9595 44.0336 50.3628 43.5936 50.7112C42.3103 51.7012 40.9536 53.4428 41.3753 54.0845C41.5036 54.3228 41.9069 54.5062 43.0619 54.2862Z" fill="#5185EC"/>
<path d="M45.1914 49.9045C45.2464 49.8495 46.1814 48.9511 47.4464 49.2628C48.4914 49.5195 48.9314 50.4361 48.9864 50.5645C48.7664 50.3445 48.2164 49.8678 47.3731 49.6845C46.3281 49.4278 45.4664 49.7761 45.1914 49.9045Z" fill="#EB506E"/>
</svg>
