<svg width="177" height="46" viewBox="0 0 177 46" fill="none" xmlns="http://www.w3.org/2000/svg">
<path d="M10.1796 26.1681C10.0343 25.6094 9.86673 25.0507 9.755 24.4809C9.26336 21.9668 8.51473 19.4863 8.64881 16.8828C8.7382 15.1174 9.26336 13.4525 10.4142 12.1229C11.6768 10.6592 13.3417 9.82114 15.3083 9.55297C17.6771 9.24011 19.9788 9.3742 22.0906 10.5586C23.3979 11.2849 24.37 12.3575 24.9957 13.7766C25.6103 15.1845 25.7891 16.637 25.7444 18.1454C25.7332 18.3801 25.8784 18.693 26.046 18.8606C26.8058 19.5645 26.9735 20.6372 26.4148 21.4752C25.9343 22.1903 24.5935 22.5255 23.8449 22.0003C22.7275 21.207 22.4482 19.6762 23.8337 18.7712C24.37 18.4136 24.5264 18.0784 24.5153 17.475C24.4929 15.9554 24.2248 14.5029 23.3644 13.2291C22.5599 12.0335 21.3978 11.3072 20.0012 10.9161C17.9676 10.3463 15.9675 10.391 13.9563 11.0726C12.1685 11.676 10.9953 12.8715 10.3472 14.5587C9.84438 15.8772 9.72148 17.3074 9.93377 18.7153C10.1908 20.4137 10.5371 22.1121 10.8724 23.7993C11.5875 27.3748 12.2467 30.9615 12.0903 34.6488C12.0344 36.079 12.973 36.6936 14.4591 36.5371C13.8557 35.431 13.8333 34.2354 13.8445 33.0286C13.8669 30.8833 13.7887 28.7492 13.3305 26.6374C13.1071 25.6317 12.8612 24.6261 12.6601 23.6205C12.2467 21.5869 11.9003 19.5645 12.4478 17.4639C12.7607 16.2571 13.3417 15.2291 14.3138 14.5811C15.8669 13.5419 17.5877 13.3632 19.3643 14.19C21.4314 15.1621 21.99 16.9946 22.2023 19.0282C22.3699 20.6818 21.99 22.2908 21.666 23.8998C21.6213 24.1233 21.6995 24.4362 21.8336 24.6149C22.5711 25.5312 22.6046 26.1681 22.1018 27.0396C21.6995 27.7324 20.4704 28.1234 19.7218 27.7547C18.895 27.3525 18.4815 26.5144 18.6491 25.5647C18.7832 24.7937 19.3196 24.4697 19.9453 24.1792C20.1017 24.101 20.2917 23.9892 20.3475 23.844C21.0626 21.8774 21.4425 19.8662 20.8168 17.8102C20.6045 17.084 20.3475 16.3577 19.6771 15.8213C18.0905 14.5699 15.7105 14.6146 14.392 16.1007C13.5652 17.0281 13.2635 18.2572 13.2747 19.4751C13.2858 20.5701 13.3752 21.6986 13.6881 22.7378C14.6825 26.0675 14.9842 29.4643 14.9619 32.9169C14.9619 33.4979 14.973 34.0901 15.0401 34.66C15.1853 35.8779 15.7775 36.3472 17.1072 36.3137C16.3586 34.3918 16.5709 32.4029 16.5597 30.4252C16.5485 27.6765 16.5485 24.9278 16.5597 22.1679C16.5597 21.7545 16.5373 21.4416 16.0345 21.274C15.4982 21.0953 15.1407 19.9667 15.3194 19.341C15.7552 17.7879 17.2971 17.3856 18.5262 18.3242C19.4313 19.0058 19.2078 20.8048 18.2134 21.3411C18.0123 21.4528 17.8111 21.7545 17.8111 21.9668C17.7888 25.7993 17.8 29.6319 17.8111 33.4644C17.8111 33.9784 17.867 34.5035 17.9117 35.0175C17.9787 35.9561 18.7497 36.5483 19.9453 36.593C20.6939 36.6154 21.4537 36.5036 22.1576 36.9394C23.4873 37.7439 23.6884 39.2411 22.9286 40.2244C22.3364 40.9954 21.5766 41.2189 20.6827 41.2189C18.8614 41.2189 17.0402 41.2077 15.2189 41.2189C14.2244 41.23 13.744 41.8334 14.0233 42.7832C14.0903 43.0178 14.3697 43.3195 14.582 43.3418C15.4312 43.4424 16.3027 43.4536 17.1631 43.4536C17.3195 43.4536 17.5206 43.2413 17.6324 43.0737C18.381 42.0345 19.6436 41.8781 20.6157 42.7049C21.1409 43.1519 21.2973 44.3475 20.9174 45.0626C20.5822 45.6995 19.5207 46.1799 18.8614 45.9341C18.4704 45.7888 18.0458 45.5654 17.8111 45.2525C17.4983 44.8391 17.1742 44.6715 16.6714 44.705C16.1351 44.7385 15.5876 44.7274 15.0513 44.705C13.9563 44.6603 13.1965 44.0122 12.8054 43.0513C12.4031 42.0681 12.8277 41.2189 13.5428 40.6267C13.9451 40.2915 14.6043 40.135 15.1518 40.1239C17.029 40.068 18.9173 40.068 20.8056 40.1127C21.7666 40.135 22.5599 39.1406 21.9007 38.269C21.7219 38.0456 21.3532 37.8444 21.0738 37.8444C18.7832 37.8109 16.4815 37.8333 14.1909 37.8221C12.9506 37.8109 11.9115 37.3528 11.2634 36.2243C11.1182 35.9785 11.0064 35.6656 11.0064 35.3863C11.0176 33.4085 10.7271 31.4643 10.1684 29.576C9.88908 28.6374 9.43096 27.7435 8.97285 26.872C7.90019 24.7937 6.6264 22.816 5.73251 20.6707C4.88332 18.6483 4.69337 16.4806 5.33027 14.2682C5.87777 12.3575 6.794 10.7039 8.09014 9.24011C9.62091 7.50821 11.5651 6.31264 13.7887 5.76514C15.7329 5.28467 17.7441 5.2288 19.7665 5.60871C21.8671 5.99978 23.7108 6.86014 25.2974 8.22332C27.8003 10.3686 29.2752 13.1285 29.454 16.4359C29.5099 17.5086 29.2193 18.6147 28.9959 19.6874C28.6048 21.5422 27.6103 23.14 26.7276 24.7937C25.9231 26.291 25.2416 27.8441 24.4929 29.3637C24.3141 29.7213 24.3812 29.9671 24.6717 30.2576C25.2527 30.8274 25.2974 32.0789 24.8393 32.7381C24.4259 33.3415 23.3644 33.6544 22.6828 33.3974C21.7554 33.0398 21.2191 32.1906 21.3867 31.2632C21.5208 30.5146 21.9789 29.9671 22.7275 29.7883C23.1968 29.6766 23.3085 29.3414 23.465 28.9838C23.8895 28.0005 24.2806 27.0061 24.7611 26.0563C25.9343 23.7211 27.4763 21.5422 28.0238 18.9611C28.4037 17.1287 28.3701 15.2738 27.6103 13.4414C26.7053 11.2402 25.2751 9.51945 23.342 8.22332C21.856 7.22887 20.1464 6.73724 18.3698 6.53611C15.8669 6.25677 13.487 6.80428 11.3528 8.06689C9.86673 8.93843 8.58177 10.1228 7.75493 11.6983C7.45324 12.2905 7.16273 12.8827 6.86104 13.4749C6.44762 14.3017 6.29119 15.1621 6.23533 16.0895C6.12359 17.8102 6.39175 19.4639 7.10686 21.0059C7.66554 22.2126 8.38065 23.3412 9.02872 24.5032C9.36392 25.0954 9.69913 25.6876 10.0343 26.2686C10.0567 26.2351 10.1125 26.2016 10.1796 26.1681ZM20.4928 25.196C19.9341 25.196 19.6101 25.4865 19.6101 26.0005C19.6101 26.5144 19.99 26.8608 20.5263 26.872C20.9844 26.872 21.342 26.4809 21.3532 26.0005C21.3532 25.52 21.0068 25.196 20.4928 25.196ZM24.1577 31.5537C24.1465 31.0509 23.6884 30.6598 23.1521 30.6822C22.7163 30.7045 22.3811 31.1291 22.4146 31.6208C22.4593 32.1571 22.761 32.4141 23.2974 32.3917C23.8225 32.3694 24.1801 32.0118 24.1577 31.5537ZM18.0011 19.7209C18.0011 19.1064 17.8 18.8941 17.1966 18.9164C16.705 18.9388 16.3139 19.0729 16.3586 19.7097C16.3921 20.3019 16.6491 20.6148 17.1966 20.6148C17.7776 20.626 18.0011 20.369 18.0011 19.7209ZM24.0348 20.2349C24.0348 20.8495 24.3588 21.2405 24.817 21.2517C25.2639 21.2629 25.8114 20.7377 25.7779 20.3019C25.722 19.7433 25.3086 19.5421 24.8393 19.5198C24.3141 19.4974 24.0572 19.8215 24.0348 20.2349ZM19.219 44.9285C19.7665 44.9285 20.1576 44.5933 20.1688 44.1016C20.1799 43.6435 19.8112 43.3195 19.2972 43.2748C18.705 43.2301 18.4704 43.5318 18.4369 44.0458C18.4033 44.5709 18.7385 44.9285 19.219 44.9285Z" fill="white"/>
<path d="M17.7777 1.88833C17.7777 2.3241 17.8447 2.77104 17.7554 3.18447C17.6995 3.44146 17.3866 3.63141 17.1855 3.85488C16.9844 3.63141 16.638 3.41911 16.6156 3.18447C16.5486 2.30175 16.5486 1.40787 16.6156 0.525157C16.6268 0.324033 16.9844 0 17.1855 0C17.3866 0 17.7107 0.301686 17.7554 0.525157C17.8447 0.960926 17.7777 1.43022 17.7777 1.88833Z" fill="white"/>
<path d="M20.9175 3.78784C21.1634 2.90513 21.3533 2.10063 21.6215 1.34083C21.6773 1.17323 22.0796 1.02797 22.2919 1.06149C22.4371 1.08384 22.6606 1.45257 22.6271 1.62017C22.4818 2.37997 22.2919 3.1286 22.0349 3.85488C21.9679 4.04483 21.6215 4.24596 21.4092 4.24596C21.2527 4.25713 21.0851 3.95544 20.9175 3.78784Z" fill="white"/>
<path d="M9.50921 5.50838C9.30809 5.83241 9.2187 6.14527 9.07344 6.16762C8.87232 6.20114 8.53711 6.0894 8.42538 5.9218C7.96726 5.29608 7.55384 4.64801 7.18511 3.96643C7.09572 3.79882 7.16276 3.44127 7.29685 3.27367C7.39741 3.15076 7.84435 3.10606 7.91139 3.19545C8.47007 3.94408 8.97288 4.72623 9.50921 5.50838Z" fill="white"/>
<path d="M24.8841 5.46416C25.4093 4.70435 25.9009 3.94455 26.4484 3.21827C26.5266 3.11771 26.9624 3.12888 27.0629 3.25179C27.197 3.40822 27.2864 3.77695 27.197 3.94455C26.8283 4.63731 26.4037 5.30773 25.9456 5.94462C25.8338 6.10105 25.4763 6.23513 25.2975 6.16809C25.1299 6.11222 25.0517 5.78819 24.8841 5.46416Z" fill="white"/>
<path d="M13.4311 3.75478C13.2859 3.93356 13.163 4.22407 13.0065 4.24642C12.8054 4.27994 12.4255 4.13468 12.3808 3.97825C12.1127 3.16258 11.9115 2.33574 11.7328 1.49772C11.7104 1.36364 11.9562 1.05078 12.0568 1.05078C12.3026 1.06195 12.6825 1.17369 12.7384 1.34129C13.0177 2.1011 13.1965 2.89442 13.4311 3.75478Z" fill="white"/>
<path d="M6.0678 8.42461C6.09014 8.83804 5.58733 9.19559 5.2633 8.96095C4.61523 8.48048 4.01186 7.9218 3.44201 7.35195C3.35262 7.26256 3.40849 6.87149 3.5314 6.7374C3.65431 6.60332 4.03421 6.48041 4.13477 6.55863C4.79401 7.09496 5.40855 7.68716 6.03427 8.25701C6.05662 8.3017 6.05662 8.39109 6.0678 8.42461Z" fill="white"/>
<path d="M31.0184 6.97253C31.0184 7.50886 29.2418 9.12903 28.8507 9.02847C28.6496 8.9726 28.415 8.79382 28.3368 8.61505C28.2809 8.48096 28.4038 8.20162 28.5379 8.06754C28.9848 7.60943 29.4541 7.17366 29.9458 6.77141C30.1245 6.62615 30.4151 6.52559 30.6274 6.57028C30.8061 6.6038 30.929 6.87197 31.0184 6.97253Z" fill="white"/>
<path d="M3.0956 12.9386C2.39167 12.5922 1.68773 12.2682 1.01732 11.8994C0.916757 11.8436 0.849715 11.4748 0.916757 11.3966C1.07319 11.229 1.37487 11.0167 1.54248 11.0726C2.19054 11.2849 2.82744 11.5642 3.44198 11.8771C3.58724 11.9553 3.72132 12.3017 3.67663 12.4693C3.63193 12.6369 3.35259 12.7375 3.0956 12.9386Z" fill="white"/>
<path d="M31.2418 12.9283C31.0072 12.7384 30.7278 12.6266 30.6831 12.459C30.6385 12.2914 30.7614 11.945 30.9066 11.8668C31.5212 11.554 32.1469 11.2746 32.8061 11.0735C32.9737 11.0176 33.2978 11.2635 33.443 11.4534C33.4989 11.5316 33.3313 11.9227 33.1749 12.0009C32.5715 12.3361 31.9234 12.6155 31.2418 12.9283Z" fill="white"/>
<path d="M33.0854 17.5317C32.8284 17.5317 32.5379 17.5987 32.3144 17.5093C32.0686 17.4199 31.8787 17.1853 31.6664 17.0177C31.8563 16.8054 32.0239 16.4478 32.2251 16.4143C32.7949 16.3473 33.3871 16.3808 33.9458 16.4702C34.1246 16.5037 34.348 16.8501 34.3592 17.0624C34.3592 17.2076 34.0575 17.4311 33.8452 17.4981C33.6218 17.5875 33.3424 17.5205 33.0854 17.5317Z" fill="white"/>
<path d="M1.29663 17.5541C0.994947 17.5318 0.682087 17.5653 0.402748 17.4871C0.235144 17.4424 0.000499391 17.2301 0.000499391 17.0848C-0.0106742 16.8949 0.168103 16.5373 0.291012 16.5262C0.961426 16.4591 1.64301 16.4479 2.31343 16.4926C2.45868 16.5038 2.67098 16.8614 2.68216 17.0625C2.68216 17.1966 2.40282 17.42 2.21287 17.4759C1.91118 17.5653 1.58715 17.5318 1.29663 17.5541Z" fill="white"/>
<path d="M31.7446 20.5254C32.3368 20.7153 32.8285 20.8159 33.2642 21.0282C33.4318 21.1176 33.6106 21.464 33.5659 21.6428C33.5212 21.8215 33.1972 22.0674 33.0184 22.0562C32.4709 21.9891 31.9122 21.8551 31.3982 21.6651C31.2306 21.5981 31.0183 21.1735 31.0854 21.0617C31.2083 20.8271 31.5212 20.693 31.7446 20.5254Z" fill="white"/>
<path d="M2.65981 20.5371C2.87211 20.7047 3.25201 20.85 3.26318 21.0287C3.28553 21.2522 3.05088 21.6098 2.83858 21.6992C2.36929 21.9003 1.85531 22.012 1.3525 22.0567C1.17372 22.0791 0.849689 21.8332 0.804995 21.6545C0.760301 21.4757 0.927904 21.1181 1.09551 21.0399C1.55362 20.8276 2.05643 20.7159 2.65981 20.5371Z" fill="white"/>
<path d="M4.92813 24.7943C4.72701 25.0625 4.63762 25.2748 4.48119 25.3754C4.19068 25.5541 3.87782 25.7553 3.55378 25.8C3.30797 25.8335 2.96159 25.6994 2.81633 25.5206C2.72694 25.3977 2.83868 24.9284 2.99511 24.839C3.38618 24.5932 3.83312 24.4256 4.28007 24.3474C4.44767 24.3139 4.67114 24.6044 4.92813 24.7943Z" fill="white"/>
<path d="M31.0519 25.9671C30.5491 25.7101 30.1133 25.5313 29.7334 25.252C29.6105 25.1626 29.5882 24.8162 29.644 24.6151C29.6776 24.481 29.9681 24.2911 30.0798 24.3358C30.5379 24.4698 31.0072 24.6486 31.4206 24.8944C31.5547 24.9727 31.6441 25.3414 31.5882 25.4978C31.5212 25.6878 31.253 25.7995 31.0519 25.9671Z" fill="white"/>
<path d="M28.3367 27.5312C29.0854 27.5648 29.6776 27.9894 29.5658 28.3693C29.4988 28.6039 29.2195 28.8721 28.9848 28.928C28.5826 29.0285 27.8228 28.3246 27.9233 28.0005C28.0015 27.7882 28.2474 27.6318 28.3367 27.5312Z" fill="white"/>
<path d="M6.45879 27.8665C6.46996 28.3805 5.81072 28.995 5.40847 28.9056C5.17383 28.8498 4.87214 28.5593 4.8051 28.3134C4.71571 27.9782 5.40847 27.4866 5.90011 27.5425C6.12358 27.576 6.3247 27.7883 6.45879 27.8665Z" fill="white"/>
<g clip-path="url(#clip0)">
<path d="M83.542 20.8458C85.9497 18.5612 88.6132 18.1472 91.2316 19.5731C92.0743 20.0331 92.6913 20.7691 93.3384 21.4591C93.5791 21.7197 93.6845 21.919 93.9854 21.5051C96.2427 18.3925 100.306 17.8099 103.21 20.3551C104.594 21.5664 105.272 23.0843 105.287 24.8936C105.317 27.4235 105.287 29.9687 105.302 32.4986C105.302 33.0352 105.196 33.4492 104.579 33.4645C103.947 33.4645 103.872 33.0045 103.872 32.4986C103.872 30.122 103.812 27.7608 103.887 25.3842C103.947 23.6516 103.255 22.287 102.051 21.2597C101.314 20.6311 100.306 20.3091 99.2674 20.2938C96.5135 20.2478 94.3315 22.3177 94.3616 25.0622C94.3917 27.5155 94.3616 29.9687 94.3616 32.4219C94.3616 32.8665 94.3616 33.3419 93.8048 33.4798C93.2481 33.6178 92.8418 33.2345 92.8418 32.5139C92.8418 30.168 92.8267 27.8221 92.8568 25.4915C92.8869 23.8356 92.4957 22.3024 91.1714 21.3211C88.7185 19.4811 85.5735 20.2784 84.2041 22.3637C83.7075 23.115 83.5269 23.9736 83.5269 24.8782C83.5119 27.4388 83.5269 29.9993 83.5119 32.5599C83.5119 33.2959 83.0604 33.6485 82.4434 33.4645C81.8716 33.2959 81.9318 32.8359 81.9318 32.3912C81.9318 28.5887 81.9318 24.7862 81.9318 20.9837C81.9318 20.5391 81.9168 20.0945 81.9468 19.6651C81.9619 19.1592 82.1876 18.8218 82.7294 18.8218C83.2711 18.8218 83.4968 19.1438 83.5119 19.6651C83.557 19.9871 83.542 20.3551 83.542 20.8458Z" fill="white"/>
<path d="M164.546 22.9776C164.546 19.8957 164.546 16.8139 164.546 13.7167C164.546 13.3487 164.471 12.9194 164.862 12.674C165.434 12.3214 166.006 12.7047 166.006 13.4713C166.021 15.7252 166.006 17.9945 166.021 20.2484C166.021 22.3643 166.036 24.4955 166.051 26.6114C166.051 26.7954 165.961 27.0407 166.172 27.1327C166.382 27.2247 166.533 27.0254 166.638 26.8874C167.526 25.7375 168.685 24.8635 169.693 23.8515C170.701 22.8396 171.694 21.7816 172.808 20.8923C173.425 20.4017 173.861 19.7117 174.463 19.2058C174.734 18.9758 175.005 18.7611 175.336 18.6231C175.682 18.4851 175.998 18.6078 176.209 18.8684C176.435 19.1444 176.269 19.4357 176.073 19.6811C174.99 20.923 173.771 22.0576 172.537 23.1309C171.8 23.7749 171.333 24.6948 170.46 25.2008C170.25 25.3235 170.43 25.5535 170.551 25.6915C172.116 27.5467 173.666 29.4326 175.261 31.2419C175.592 31.6099 175.802 32.0545 176.134 32.4072C176.329 32.6065 176.404 32.9131 176.209 33.1738C176.013 33.4345 175.727 33.5111 175.411 33.4345C175.08 33.3425 174.839 33.1431 174.629 32.8825C172.913 30.8739 171.198 28.8653 169.497 26.8414C169.287 26.5961 169.151 26.5961 168.895 26.7648C167.842 27.4547 167.195 28.6047 166.172 29.3253C165.991 29.4633 166.036 29.724 166.036 29.9539C166.036 30.7819 166.006 31.6099 166.021 32.4378C166.021 32.9898 165.946 33.4804 165.284 33.4651C164.652 33.4498 164.531 32.9591 164.531 32.4072C164.546 31.1959 164.531 29.9846 164.531 28.7733C164.546 26.8261 164.546 24.9095 164.546 22.9776Z" fill="white"/>
<path d="M156.345 18.7761C158.061 18.6228 159.46 19.5121 160.86 20.4167C161.176 20.616 161.401 20.938 161.145 21.3213C160.89 21.72 160.498 21.858 160.092 21.5973C159.46 21.1834 158.783 20.846 158.076 20.5547C156.496 19.9261 154.991 20.1101 153.546 20.9227C152.899 21.2907 152.508 21.9347 152.523 22.686C152.538 23.4679 153.08 24.0046 153.697 24.3572C154.404 24.7559 155.156 24.9858 155.999 25.0625C157.805 25.2158 159.535 25.6605 160.89 26.9944C162.319 28.3897 162.094 30.4136 161.055 31.5942C159.656 33.1888 157.835 33.5568 155.833 33.4648C153.983 33.3728 152.372 32.7442 150.958 31.5176C150.627 31.2262 150.386 30.9809 150.687 30.5669C150.988 30.1376 151.379 30.1836 151.755 30.4596C153.05 31.3796 154.479 31.9315 156.044 32.0695C157.414 32.1769 158.678 31.8089 159.716 30.8429C160.243 30.3523 160.604 29.7696 160.363 29.0183C160.092 28.175 159.565 27.4851 158.708 27.2244C157.383 26.8258 156.044 26.5191 154.705 26.2125C153.682 25.9825 152.794 25.4458 151.936 24.8785C150.898 24.2039 150.717 21.812 151.545 20.8307C152.794 19.3434 154.389 18.6841 156.345 18.7761Z" fill="white"/>
<path d="M77.5978 23.8976C77.5978 25.0475 77.5677 26.2128 77.5978 27.3627C77.6731 29.9693 75.8673 32.5145 73.4746 33.1738C71.2926 33.7718 69.0505 33.7718 67.1092 31.9319C65.6947 30.5979 65.1981 29.0647 65.1831 27.2554C65.168 24.8635 65.1831 22.4563 65.1831 20.0644C65.1831 19.8957 65.1831 19.7271 65.1831 19.5737C65.1981 19.1138 65.3637 18.7611 65.8903 18.7611C66.402 18.7611 66.6127 19.0984 66.6277 19.5584C66.6428 20.8004 66.6428 22.0423 66.6428 23.2842C66.6428 24.7408 66.6428 26.1974 66.6428 27.6694C66.6428 28.9573 67.1995 30.0459 68.0573 30.8892C69.3665 32.1772 71.729 32.3918 73.3843 31.5945C75.145 30.7513 75.9425 29.3406 75.9425 27.3934C75.9275 24.8788 75.9425 22.3796 75.9425 19.8651C75.9425 19.4511 75.9425 19.0064 76.394 18.8071C77.0411 18.5311 77.5527 18.8991 77.5677 19.6657C77.6129 21.0917 77.5978 22.4869 77.5978 23.8976Z" fill="white"/>
<path d="M60.3828 22.9008C60.3828 19.7883 60.3828 16.6758 60.3828 13.5786C60.3828 13.0573 60.458 12.6433 61.075 12.582C61.5114 12.536 61.8274 12.6893 61.8726 13.18C61.9026 13.4253 61.9026 13.6706 61.9026 13.9159C61.9026 19.9723 61.9026 26.0287 61.9026 32.0698C61.9026 32.6371 62.0832 33.4344 61.1803 33.4497C60.2474 33.4804 60.3677 32.6831 60.3677 32.0698C60.3828 29.0032 60.3828 25.952 60.3828 22.9008Z" fill="white"/>
<path d="M55.1911 22.9769C55.1911 19.8644 55.1911 16.7519 55.1911 13.6394C55.1911 13.072 55.2061 12.4741 56.0188 12.5661C56.41 12.6121 56.6809 12.7961 56.6959 13.2407C56.6959 13.44 56.726 13.624 56.726 13.8233C56.726 19.9717 56.726 26.1048 56.726 32.2532C56.726 32.4985 56.711 32.7438 56.6658 32.9891C56.5906 33.4185 56.2144 33.4338 55.9134 33.4798C55.5824 33.5258 55.3265 33.3418 55.2663 32.9891C55.2061 32.6978 55.2061 32.3912 55.2061 32.0845C55.1911 29.0487 55.1911 26.0128 55.1911 22.9769Z" fill="white"/>
<path d="M50.9476 26.2121C50.9476 28.282 50.9325 30.3366 50.9626 32.4065C50.9777 33.0811 50.752 33.4798 50.0598 33.4644C49.4277 33.4491 49.2923 33.0198 49.2923 32.4525C49.3073 28.236 49.3073 24.0349 49.2923 19.8184C49.2923 19.2204 49.4277 18.7604 50.1199 18.7758C50.8122 18.7911 50.9325 19.2664 50.9325 19.849C50.9476 21.965 50.9476 24.0809 50.9476 26.2121Z" fill="white"/>
<path d="M109.169 26.1354C109.169 24.0501 109.169 21.9496 109.169 19.8643C109.169 19.297 109.214 18.7604 109.952 18.7757C110.629 18.791 110.644 19.343 110.644 19.8643C110.644 24.0655 110.644 28.2819 110.659 32.4831C110.659 33.0044 110.569 33.449 109.952 33.4644C109.304 33.4797 109.169 33.0657 109.169 32.4831C109.184 30.3672 109.169 28.2513 109.169 26.1354Z" fill="white"/>
<path d="M129.048 16.5221C127.468 14.5442 125.496 13.287 123.149 12.7656C120.982 12.2903 118.74 12.4897 116.528 12.551C115.835 12.5663 115.745 13.057 115.745 13.6549C115.76 16.7675 115.745 19.88 115.745 22.9925C115.745 26.105 115.745 29.2176 115.745 32.3301C115.745 33.3114 115.911 33.48 116.889 33.48C118.183 33.4954 119.477 33.5107 120.786 33.48C122.532 33.4494 124.217 33.204 125.767 32.2994C128.235 30.8581 130.146 28.9722 130.929 26.0897C131.892 22.5632 131.38 19.4047 129.048 16.5221ZM129.785 24.4491C129.409 26.381 128.596 28.0523 127.091 29.4629C125.135 31.3028 122.908 31.9468 120.395 32.0234C119.612 32.0541 118.83 32.0081 118.047 32.0388C117.446 32.0694 117.25 31.8088 117.265 31.2108C117.28 28.4663 117.28 25.7064 117.28 22.9465C117.28 20.248 117.295 17.5494 117.265 14.8509C117.265 14.1762 117.461 13.9463 118.138 13.9463C120.229 13.9156 122.291 13.9616 124.292 14.6516C124.624 14.7589 124.924 14.9582 125.225 15.1269C128.687 17.1201 130.477 20.8919 129.785 24.4491Z" fill="white"/>
<path d="M148.941 25.231C148.415 22.2565 146.714 20.1712 143.96 19.1439C139.657 17.5494 134.706 20.5852 134.254 25.4917C134.059 27.5616 134.585 29.5241 136.03 31.0574C137.324 32.422 138.859 33.3573 140.83 33.4646C143.599 33.6333 145.857 32.79 147.527 30.4901C147.798 30.1221 148.039 29.6468 147.587 29.3248C147.136 28.9875 146.684 29.1408 146.338 29.6468C145.646 30.6741 144.698 31.3027 143.539 31.732C140.484 32.836 136.647 31.2414 135.789 27.3622C135.639 26.7029 135.804 26.4729 136.481 26.4883C138.378 26.5189 140.259 26.5036 142.155 26.5036C144.066 26.5036 145.992 26.5189 147.903 26.5036C148.806 26.4729 149.092 26.1356 148.941 25.231ZM146.323 25.047C144.698 25.047 143.088 25.047 141.462 25.047C139.822 25.047 138.167 25.0317 136.527 25.0623C135.94 25.0777 135.744 24.9243 135.955 24.311C137.053 21.1832 139.928 19.8799 142.862 20.4166C144.608 20.7385 145.766 21.8732 146.744 23.2684C146.895 23.4831 147.015 23.7591 147.09 24.0197C147.331 24.817 147.166 25.047 146.323 25.047Z" fill="white"/>
<path d="M109.922 13.1648C108.943 13.1954 108.266 13.9467 108.251 15.0047C108.251 16.216 108.778 16.7833 109.952 16.7833C111.02 16.7833 111.772 16.078 111.787 15.0507C111.818 14.1001 110.87 13.1341 109.922 13.1648ZM109.997 15.7407C109.59 15.6487 109.32 15.434 109.335 15.0047C109.335 14.56 109.651 14.3607 110.027 14.3761C110.373 14.3914 110.659 14.6214 110.629 15.02C110.584 15.388 110.403 15.71 109.997 15.7407Z" fill="white"/>
<path d="M50.1349 13.1643C49.2922 13.1489 48.3893 14.0689 48.3592 14.9735C48.3291 15.9855 49.0815 16.7828 50.0898 16.7828C51.1281 16.7828 51.8805 16.0775 51.9106 15.0502C51.9407 14.1302 51.0378 13.1643 50.1349 13.1643ZM50.1349 15.7555C49.7135 15.7095 49.4126 15.4641 49.3825 15.0348C49.3524 14.5289 49.7737 14.3909 50.1499 14.3909C50.5111 14.3909 50.8572 14.5595 50.8572 15.0042C50.8572 15.4488 50.5562 15.6788 50.1349 15.7555Z" fill="white"/>
</g>
<defs>
<clipPath id="clip0">
<rect width="128" height="21.0824" fill="white" transform="translate(48.3593 12.459)"/>
</clipPath>
</defs>
</svg>
