<svg width="589" height="820" viewBox="0 0 589 820" fill="none" xmlns="http://www.w3.org/2000/svg">
<mask id="mask0" mask-type="alpha" maskUnits="userSpaceOnUse" x="0" y="0" width="589" height="820">
<rect width="589" height="820" fill="#417837"/>
</mask>
<g mask="url(#mask0)">
<g opacity="0.2">
<g opacity="0.504511">
<path fill-rule="evenodd" clip-rule="evenodd" d="M48.2793 659.584C41.0269 713.869 216.91 749.276 368.296 724.566C519.682 699.856 589.131 603.359 516.892 551.942C444.653 500.525 55.5316 605.3 48.2793 659.584Z" fill="#F2F2F2"/>
</g>
<path fill-rule="evenodd" clip-rule="evenodd" d="M265.856 433.379C263.119 431.285 258.874 432.62 256.119 433.855C255.057 434.332 252.344 435.856 250.332 437.571C250.598 436.382 250.835 435.183 251.042 433.974C251.894 429.002 252.48 423.937 252.762 418.9C252.835 417.587 252.74 416.119 252.643 414.633L252.643 414.632L252.643 414.632C252.61 414.128 252.577 413.622 252.55 413.12C252.661 413.001 252.735 412.837 252.766 412.614C252.778 412.707 252.784 412.78 252.789 412.837C252.798 412.929 252.802 412.975 252.816 412.978C252.831 412.982 252.856 412.943 252.907 412.865C252.927 412.835 252.951 412.799 252.979 412.757C255.015 409.709 256.725 406.274 256.959 402.499C257.158 399.297 254.53 393.238 250.805 397.432C249.138 399.305 249.571 412.46 252.074 413.266C251.405 417.626 250.565 421.977 249.511 426.274C249.353 426.246 249.192 426.243 249.033 426.265C249.048 425.197 249.05 424.031 249.006 423.63C248.631 420.178 245.75 413.168 241.164 414.529C237.64 415.575 239.8 419.881 240.999 421.765C242.93 424.799 245.114 426.113 247.879 427.69C247.935 428.342 248.355 428.721 248.851 428.845C246.999 435.783 244.566 442.55 241.381 448.943L241.297 448.536C240.892 446.596 240.421 444.334 240.123 443.859C238.562 441.372 235.107 438.335 231.921 439.806C225.23 442.9 232.493 451.794 238.19 452.762C238.426 453.089 238.677 453.353 238.943 453.504C237.837 455.433 236.654 457.323 235.388 459.163C233.49 461.932 231.45 464.692 229.311 467.436C229.245 465.289 228.398 460.506 228.158 459.992C226.698 456.871 222.488 453.66 219.072 455.877C215.231 458.377 218.714 463.101 220.905 465.238C221.803 466.115 226.245 469.327 227.812 469.342C222.644 475.811 216.941 482.171 211.142 488.3C211.622 485.556 212.25 477.999 212.18 477.161C211.82 472.832 208.979 465.908 203.381 467.595C197.95 469.229 200.352 476.422 202.211 479.851C203.337 481.926 204.894 484.035 206.772 485.482C207.111 485.743 207.553 485.956 207.994 486.168C208.526 486.425 209.057 486.68 209.404 487.019C209.713 487.321 209.808 487.667 209.902 488.011C210.001 488.373 210.1 488.733 210.449 489.033C207.315 492.331 204.16 495.561 201.049 498.7C199.581 500.182 198.087 501.635 196.578 503.07C195.752 502.727 194.575 503.178 194.636 504.349C194.645 504.519 194.684 504.666 194.737 504.8C193.594 505.866 192.443 506.923 191.283 507.97C191.309 507.665 191.302 507.235 191.248 506.642C192.084 507.831 192.049 506.098 192.022 504.778C192.013 504.311 192.004 503.896 192.036 503.679C192.158 502.83 192.317 501.99 192.476 501.151L192.476 501.15C192.814 499.358 193.152 497.571 193.135 495.721C193.098 491.794 190.615 485.211 185.389 487.549C180.583 489.696 182.331 495.516 184.144 499.165C185.292 501.474 186.862 503.536 188.504 505.509C188.796 505.862 189.121 506.339 189.443 506.811C189.92 507.512 190.39 508.203 190.738 508.46C186.276 512.466 181.71 516.353 177.142 520.241L177.142 520.242C175.096 521.983 173.051 523.725 171.014 525.477C170.925 525.092 170.852 524.711 170.789 524.354C170.916 524.498 171.09 524.566 171.312 524.553C171.371 524.258 171.457 523.866 171.56 523.396C172.818 517.652 176.648 500.159 166.276 503.55C158.677 506.041 164.041 521.273 169.709 526.601C166.269 529.576 162.862 532.589 159.535 535.692C157.128 537.937 154.791 540.259 152.544 542.658C153.707 539.551 154.802 535.529 154.083 532.328C153.036 527.67 148.129 523.272 143.339 525.922C137.367 529.241 141.961 533.773 146.27 538.024C148.47 540.194 150.595 542.29 151.201 544.114C144.057 551.985 137.957 560.729 133.881 570.69C129.449 581.522 125.334 596.077 127.61 608.196C127.189 602.868 128.986 596.177 130.249 591.478C130.42 590.838 130.582 590.235 130.727 589.678C132.624 582.39 135.318 575.299 138.868 568.662C144.554 558.032 152.066 549.009 160.737 540.816C162.712 541.505 164.857 542.782 166.633 543.839C167.723 544.487 168.673 545.053 169.361 545.35C172.68 546.784 179.05 548.84 181.164 544.323C183.242 539.881 177.937 537.397 174.65 536.401C171.472 535.44 168.608 535.556 165.644 536.344C170.234 532.267 174.936 528.319 179.638 524.371L179.638 524.371C180.502 523.645 181.367 522.919 182.231 522.193C183.426 523.174 184.746 524.593 186.147 526.1C190.595 530.882 195.864 536.547 200.57 531.919C207.672 524.934 194.089 517.834 188.302 518.389C187.592 518.456 186.905 518.606 186.234 518.811C192.136 513.791 197.946 508.669 203.441 503.186C204.427 503.366 205.997 504.82 207.883 506.566L207.883 506.566C212.121 510.491 217.955 515.894 222.35 511.64C225.522 508.569 224.436 503.786 221.37 501.051C218.291 498.305 213.828 498.309 210.034 499.234C208.394 499.632 206.881 500.392 205.471 501.317L205.381 501.322L205.296 501.327C210.703 495.875 216.143 490.3 221.383 484.535C221.474 484.565 221.568 484.595 221.662 484.626C221.979 485.015 222.509 485.157 222.995 485.071C223.131 485.118 223.268 485.165 223.407 485.213C223.542 485.259 223.678 485.307 223.816 485.354L223.816 485.354C227.966 486.789 233.3 488.634 237.437 487.839C240.481 487.253 243.244 484.773 240.667 481.72C238.572 479.237 232.887 479.594 230.115 480.182C228.762 480.469 227.29 481.302 225.812 482.137L225.812 482.137C225.191 482.488 224.569 482.84 223.955 483.151C223.796 482.829 223.518 482.622 223.201 482.523C228.375 476.73 233.312 470.736 237.79 464.482C239.145 464.693 240.648 465.289 242.199 465.905L242.199 465.905C245.93 467.385 249.934 468.974 252.807 465.552C257.05 460.499 249.071 457.55 245.279 458.03C243.998 458.191 242.735 458.555 241.516 459.035C244.774 453.887 247.263 448.383 249.011 442.603C249.028 442.612 249.044 442.621 249.06 442.629L249.06 442.63C249.084 442.643 249.109 442.657 249.139 442.67C249.113 442.656 249.09 442.641 249.066 442.626L249.066 442.626C249.049 442.615 249.032 442.604 249.014 442.594C249.189 442.015 249.356 441.435 249.515 440.852C249.812 440.686 250.089 440.565 250.221 440.515C248.498 441.705 255.768 442.288 257.129 442.397C260.139 442.637 264.171 442.727 266.38 440.257C268.234 438.181 268.126 435.115 265.856 433.379ZM127.285 608.213C127.413 609.969 127.73 611.577 128.321 612.903C127.878 611.394 127.537 609.824 127.285 608.213Z" fill="#F2F2F2"/>
<path opacity="0.2" fill-rule="evenodd" clip-rule="evenodd" d="M402.518 321.222C404.515 319.71 407.615 320.676 409.627 321.57C410.402 321.915 412.384 323.018 413.853 324.259C413.659 323.4 413.485 322.532 413.334 321.658C412.71 318.063 412.28 314.4 412.073 310.758C412.018 309.808 412.088 308.747 412.158 307.671L412.158 307.671C412.182 307.307 412.206 306.941 412.225 306.578C412.144 306.492 412.09 306.373 412.067 306.212C412.059 306.279 412.054 306.333 412.05 306.373C412.044 306.44 412.041 306.473 412.031 306.475C412.02 306.478 412.001 306.45 411.964 306.394C411.95 306.372 411.932 306.346 411.912 306.315C410.424 304.111 409.175 301.626 409.002 298.896C408.855 296.581 410.772 292.201 413.494 295.235C414.711 296.59 414.4 306.102 412.573 306.684C413.062 309.836 413.678 312.983 414.449 316.091C414.564 316.07 414.681 316.069 414.798 316.084C414.786 315.312 414.785 314.469 414.816 314.179C415.089 311.683 417.19 306.616 420.539 307.601C423.113 308.359 421.537 311.471 420.662 312.833C419.254 315.027 417.659 315.976 415.641 317.116C415.601 317.587 415.294 317.861 414.932 317.95C416.287 322.968 418.066 327.862 420.393 332.485L420.455 332.192C420.749 330.789 421.092 329.153 421.31 328.81C422.449 327.012 424.97 324.817 427.297 325.882C432.183 328.122 426.884 334.551 422.725 335.248C422.552 335.485 422.369 335.675 422.175 335.785C422.984 337.18 423.848 338.547 424.773 339.878C426.16 341.881 427.65 343.877 429.213 345.862C429.26 344.31 429.877 340.852 430.052 340.48C431.117 338.224 434.19 335.903 436.684 337.508C439.49 339.317 436.949 342.731 435.35 344.276C434.694 344.91 431.452 347.231 430.308 347.241C434.084 351.921 438.25 356.522 442.486 360.956C442.135 358.971 441.674 353.507 441.725 352.901C441.986 349.771 444.058 344.765 448.146 345.987C452.112 347.171 450.36 352.371 449.004 354.85C448.183 356.35 447.046 357.874 445.676 358.92C445.429 359.108 445.106 359.262 444.784 359.416L444.784 359.416L444.784 359.416C444.396 359.601 444.008 359.785 443.755 360.03C443.529 360.248 443.46 360.499 443.392 360.747C443.319 361.009 443.247 361.269 442.993 361.486C445.282 363.872 447.587 366.208 449.86 368.48C450.932 369.552 452.023 370.603 453.126 371.641C453.729 371.394 454.588 371.72 454.544 372.567C454.537 372.69 454.509 372.796 454.47 372.893C455.306 373.664 456.146 374.429 456.994 375.186C456.974 374.966 456.98 374.655 457.018 374.226C456.409 375.086 456.434 373.833 456.453 372.878C456.46 372.54 456.466 372.24 456.443 372.083C456.353 371.469 456.236 370.862 456.12 370.255C455.872 368.958 455.625 367.666 455.637 366.328C455.662 363.489 457.473 358.73 461.29 360.423C464.799 361.976 463.525 366.184 462.203 368.822C461.365 370.491 460.22 371.982 459.022 373.408C458.808 373.663 458.572 374.008 458.337 374.349C457.989 374.856 457.645 375.355 457.392 375.541C460.651 378.439 463.986 381.252 467.322 384.065L467.323 384.065C468.817 385.325 470.312 386.585 471.799 387.853C471.864 387.575 471.917 387.299 471.963 387.042C471.87 387.146 471.744 387.194 471.581 387.185C471.538 386.972 471.475 386.688 471.4 386.348L471.4 386.348C470.479 382.195 467.676 369.544 475.25 371.999C480.8 373.804 476.889 384.816 472.753 388.666C475.265 390.819 477.754 392.999 480.184 395.244C481.943 396.868 483.65 398.548 485.292 400.284C484.441 398.037 483.64 395.128 484.164 392.814C484.927 389.446 488.507 386.267 492.006 388.186C496.368 390.587 493.015 393.863 489.871 396.935C488.265 398.503 486.714 400.018 486.272 401.337C491.492 407.031 495.949 413.356 498.928 420.561C502.168 428.395 505.178 438.921 503.521 447.683C503.826 443.83 502.511 438.991 501.588 435.593C501.462 435.131 501.344 434.694 501.238 434.291C499.851 429.021 497.881 423.892 495.286 419.092C491.131 411.404 485.643 404.876 479.308 398.949C477.867 399.446 476.301 400.368 475.005 401.132L475.005 401.132C474.209 401.601 473.515 402.009 473.013 402.224C470.591 403.26 465.94 404.744 464.395 401.477C462.876 398.264 466.749 396.47 469.149 395.751C471.468 395.058 473.56 395.142 475.724 395.713C472.372 392.763 468.937 389.907 465.503 387.051L465.503 387.051L465.491 387.041C464.863 386.519 464.236 385.997 463.608 385.474C462.736 386.184 461.773 387.209 460.75 388.298L460.75 388.298C457.504 391.754 453.659 395.849 450.221 392.5C445.033 387.447 454.948 382.318 459.174 382.721C459.692 382.77 460.194 382.879 460.684 383.027C456.373 379.396 452.129 375.689 448.115 371.723C447.395 371.853 446.249 372.903 444.873 374.165C441.78 377.002 437.522 380.907 434.312 377.829C431.994 375.607 432.786 372.149 435.024 370.172C437.27 368.187 440.529 368.192 443.299 368.863C444.497 369.151 445.602 369.701 446.632 370.371L446.697 370.374L446.76 370.378C442.81 366.433 438.836 362.4 435.008 358.23C434.941 358.251 434.873 358.273 434.804 358.295C434.573 358.576 434.186 358.679 433.831 358.617C433.636 358.683 433.436 358.751 433.233 358.821L433.232 358.821C430.202 359.857 426.308 361.189 423.287 360.612C421.064 360.188 419.046 358.394 420.927 356.187C422.456 354.392 426.606 354.652 428.63 355.079C429.618 355.287 430.694 355.889 431.773 356.494C432.227 356.748 432.681 357.002 433.129 357.228C433.245 356.995 433.448 356.845 433.68 356.774C429.9 352.583 426.293 348.247 423.021 343.724C422.031 343.875 420.934 344.306 419.802 344.75C417.079 345.819 414.156 346.967 412.057 344.491C408.957 340.836 414.782 338.706 417.551 339.055C418.486 339.172 419.408 339.436 420.299 339.783C417.917 336.059 416.098 332.079 414.82 327.899C414.807 327.905 414.796 327.911 414.785 327.918C414.772 327.924 414.76 327.931 414.747 327.938C414.741 327.941 414.734 327.944 414.726 327.947C414.746 327.937 414.763 327.926 414.779 327.915C414.792 327.907 414.804 327.899 414.818 327.892C414.69 327.473 414.568 327.053 414.451 326.632C414.235 326.512 414.032 326.424 413.936 326.388C415.194 327.249 409.886 327.668 408.892 327.746C406.695 327.919 403.751 327.983 402.138 326.195C400.783 324.694 400.861 322.477 402.518 321.222ZM503.85 447.338C503.753 448.508 503.464 449.576 502.896 450.451C503.313 449.451 503.626 448.409 503.85 447.338Z" fill="#C1DEE2"/>
<g opacity="0.2">
<path fill-rule="evenodd" clip-rule="evenodd" d="M188.16 525.567C177.296 525.003 163.861 531.344 162.702 543.153C161.86 551.733 162.121 560.289 160.818 568.856C159.776 575.703 157.572 582.276 154.567 588.513C151.677 594.51 145.683 599.616 144.124 606.023C143.13 610.105 143.686 615.848 145.057 619.842C146.723 624.697 145.838 624.313 142.517 628.387C136.01 636.371 130.151 644.558 126.007 654.093C120.039 667.828 116.126 683.882 118.341 698.916C118.623 700.825 118.957 707.676 121.586 708.155C124.522 708.69 123.149 704.772 122.992 703.506C121.993 695.43 121.106 688.371 122.311 680.169C126.961 648.522 149.663 627.671 164.446 600.812C165.259 599.427 166.974 596.129 168.167 593.953C170.05 590.517 171.944 583.98 174.493 581.433C179.294 576.634 174.88 586.282 173.945 588.124C172.762 590.453 171.46 592.929 170.248 594.971C164.702 604.433 158.511 614.762 152.783 624.517C177.557 630.161 195.004 600.378 201.652 580.797C207.13 564.665 213.684 526.947 188.16 525.567" fill="#69A1AC"/>
<path fill-rule="evenodd" clip-rule="evenodd" d="M42.5543 495.609C60.715 497.049 72.3739 509.033 77.8011 525.794C80.7262 534.827 81.0614 544.106 82.6869 553.389C85.1322 567.354 90.3934 577.938 100.676 587.887C103.86 590.969 106.207 594.133 107.876 597.518C111.188 600.897 114.07 604.722 116.188 609.397C118.894 615.369 119.66 622.533 116.536 628.486C115.696 630.087 113.601 633.299 111.429 634.759C119.559 652.074 124.029 671.038 123.526 689.977C123.221 701.41 122.663 712.848 122.012 724.267C121.837 727.333 120.838 732.396 119.338 727.254C117.966 722.55 119.687 715.167 119.846 710.253C120.621 686.317 121.284 664.553 111.43 642.19C110.397 639.846 109.302 637.521 108.161 635.215C108.094 635.176 108.032 635.129 107.969 635.083C107.925 635.117 107.886 635.153 107.842 635.186C107.769 635.056 107.67 634.901 107.553 634.728C107.226 634.391 106.94 633.964 106.668 633.488C105.794 632.277 104.805 630.854 104.8 630.075C104.8 630.069 104.803 630.059 104.803 630.053C98.7036 620.096 91.7171 610.688 84.5808 601.463C84.6343 601.53 76.8401 590.918 78.0453 596.787C78.6262 599.615 84.3592 605.001 86.6747 607.997C91.7967 614.661 97.8115 623.106 102.81 631.272C103.482 631.658 104.433 633.556 105.12 634.969C105.499 635.686 105.853 636.408 106.201 637.037C88.4909 642.888 74.7141 631.102 65.3198 617.392C65.3084 617.376 65.2984 617.36 65.2877 617.343C62.4289 613.555 59.5004 609.794 55.8419 606.8C49.7381 601.803 43.2014 600.921 36.0048 598.462C16.3791 591.757 8.03488 566.322 5.38485 547.449C2.39486 526.158 17.0202 493.509 42.5543 495.609" fill="#89C5CC"/>
<path fill-rule="evenodd" clip-rule="evenodd" d="M78.4279 435.984C97.067 455.383 106.072 482.29 113.202 507.585C121.166 535.837 126.426 564.525 126.628 593.898C126.76 613.197 127.285 632.616 126.159 651.892C125.759 658.738 125.077 665.596 123.992 672.368C123.902 672.924 121.475 688.046 119.152 684.522C117.831 682.518 121.64 668.836 121.928 666.557C123.548 653.721 123.924 640.791 123.845 627.863C123.715 606.576 124.343 585.399 122.185 564.191C121.863 561.025 121.609 557.699 120.857 554.601C120.058 551.308 121.075 552.746 118.474 551.442C115.947 550.175 112.823 550.356 110.201 548.766C99.7985 542.458 94.4773 526.255 90.3358 515.625C85.5987 503.468 82.7198 490.504 80.4202 477.71C78.7319 468.311 77.5246 458.968 76.8415 449.447C76.6262 446.447 76.6134 443.309 76.0237 440.358C75.8649 439.563 75.0678 438.155 75.0967 437.45C75.1579 435.958 76.0583 435.081 76.132 433.828C76.9123 434.53 77.6783 435.249 78.4279 435.984" fill="#89C5CC"/>
<path fill-rule="evenodd" clip-rule="evenodd" d="M180.061 694.445C180.061 726.526 154.054 752.533 121.973 752.533C89.8912 752.533 63.8842 726.526 63.8842 694.445" fill="#89C5CC"/>
<path fill-rule="evenodd" clip-rule="evenodd" d="M82.164 643.586C67.7875 642.526 51.7324 654.124 44.7977 666.194C39.2073 675.925 40.1491 688.704 43.602 699.043C45.9143 705.964 50.9608 715.833 59.3765 715.929C69.9055 716.049 70.4133 703.036 70.6169 695.429C70.8875 685.314 72.1655 676.504 80.1351 669.61C81.1191 668.759 82.1516 667.962 83.184 667.166C84.1004 666.459 85.0167 665.752 85.899 665.007C86.04 664.888 86.1818 664.769 86.3238 664.649C89.142 662.281 92.1017 659.793 92.462 655.889C92.9845 650.231 89.7907 649.213 84.9144 650.264C84.7571 650.298 84.3297 650.46 83.7484 650.68C81.2582 651.624 75.9442 653.638 76.9494 651.23C77.3279 650.323 78.7104 649.604 80.4553 649.065C84.9706 648.575 90.3554 648.005 91.904 648.345C108.611 652.01 115.116 675.153 116.843 689.856C117.029 691.443 117.18 693.035 117.312 694.63H120.381C120.168 690.779 119.887 686.935 119.243 683.127C116.781 668.563 109.082 647.172 92.1961 644.808C91.5731 644.72 89.2816 644.705 86.5059 644.868C85.1903 644.133 83.7167 643.688 82.164 643.586Z" fill="#69A1AC"/>
</g>
<path fill-rule="evenodd" clip-rule="evenodd" d="M551.268 722.658C551.268 739.597 549.931 753.329 531.989 753.329C514.047 753.329 512.71 739.597 512.71 722.658" fill="#F2F2F2"/>
<path fill-rule="evenodd" clip-rule="evenodd" d="M526.652 712.09C527.309 713.227 527.896 714.387 528.414 715.564C528.432 713.14 528.298 710.697 527.932 708.221C527.306 703.981 526.35 699.762 525.452 695.55C524.807 692.523 524.847 687.086 522.398 684.674C521.726 684.153 521.564 685.175 521.564 685.619C521.556 685.713 521.566 683.808 522.218 684.14C526.094 686.141 527.35 692.435 528.591 695.587C530.401 700.186 531.941 704.888 532.575 709.674C532.736 710.883 532.823 712.091 532.843 713.298C532.975 712.975 533.099 712.65 533.235 712.328C535.472 707.082 538.491 701.963 542.256 697.241C543.183 696.08 554.836 684.617 555.748 686.372C555.658 686.627 555.47 686.838 555.182 687.006C555.165 687.025 555.165 687.015 555.175 686.986C554.49 688.092 552.545 689.799 551.939 690.768C550.413 693.206 549.228 695.793 548.023 698.33C545.478 703.693 543.116 709.109 540.828 714.538C540.295 715.802 539.739 717.059 539.172 718.312C545.014 709.886 552.808 702.236 563.537 697.857C559.872 699.721 557.47 703.228 554.995 705.913C552.011 709.152 548.867 712.304 545.877 715.54C542.35 719.357 538.2 723.376 534.808 727.6C531.522 734.499 528.328 741.405 526.357 748.657C527.165 746.152 526.421 742.689 526.559 740.059C526.669 737.966 526.913 735.89 527.248 733.818C526.834 734.753 526.477 735.688 526.315 736.558C526.463 735.099 526.633 733.649 526.816 732.207C526.347 730.856 525.886 729.596 525.575 728.558C523.979 723.234 522.08 718.001 519.493 712.9C517.1 708.182 514.354 703.524 511.363 699.009C509.967 696.903 508.552 694.805 507.147 692.704C506.226 691.329 505.35 689.126 504.069 687.808C512.35 695.379 521.398 703.005 526.652 712.09" fill="#F2F2F2"/>
<path fill-rule="evenodd" clip-rule="evenodd" d="M29.1637 370.533C31.5375 362.615 37.1113 356.417 42.8972 350.739C54.1607 339.684 60.2186 332.848 64.2331 316.677C66.5937 307.166 68.9966 297.088 76.4846 290.187C81.9367 285.163 91.3205 280.941 98.6119 284.539C109.829 291.234 112.842 304.974 111.71 317.277C110.308 332.526 103.185 341.929 89.5013 347.545C81.7909 350.709 76.6655 354.882 72.48 362.155C69.1321 367.971 67.18 375.253 62.9729 380.525C56.6831 388.407 48.812 391.91 39.1101 390.601C48.1972 373.881 58.8146 357.005 71.6207 342.928C72.8193 341.512 79.8898 336.096 78.4638 333.684C76.8928 331.028 69.6345 341.004 69.6859 340.944C65.9643 345.216 62.5206 349.755 59.1389 354.338C59.1475 354.343 59.1576 354.345 59.1669 354.35C55.6852 359.053 52.2312 363.825 48.8431 368.657C47.4728 370.701 46.1392 372.771 44.8624 374.893C42.9889 378.007 40.0154 386.844 36.9494 388.758C36.2935 389.168 35.687 389.397 35.12 389.491C33.0282 392.916 30.9927 396.369 29.057 399.862C24.0016 408.986 19.6625 418.619 17.6709 428.92C17.0898 431.927 17.5011 443.173 15.4488 445.344C11.6966 449.313 12.7958 441.669 13.0201 439.361C14.8839 420.253 21.7438 403.973 31.7041 387.909C28.6442 383.913 28.2024 373.742 29.1637 370.533" fill="#F2F2F2"/>
<path fill-rule="evenodd" clip-rule="evenodd" d="M157.677 379.766C153.721 375.105 144.212 374.314 138.396 374.626C131.2 375.012 123.808 376.764 116.961 378.882C105.683 382.371 94.7238 388.739 84.7908 394.901C83.5938 395.644 68.8463 404.513 70.1517 406.069C71.4449 407.611 85.9222 397.076 89.1487 395.261C96.0338 391.385 102.348 386.802 109.938 384.242C117.796 381.592 126.107 380.542 134.37 380.615C135.431 380.624 138.89 379.885 138.965 381.454C139.038 382.988 133.314 382.187 132.304 382.197C128.135 382.235 123.941 382.627 119.831 383.35C112.131 384.703 104.892 387.43 98.2974 391.612C100.137 395.891 104.549 397.863 109.176 396.793C113.175 395.867 117.074 393.584 120.99 392.924C123.688 392.47 126.388 392.74 129.004 393.5C135.903 395.505 139.881 399.612 147.467 396.755C153.413 394.516 163.358 386.469 157.677 379.766" fill="#F2F2F2"/>
<path fill-rule="evenodd" clip-rule="evenodd" d="M174.688 304.666C183.471 304.025 193.28 311.035 197.517 318.33C200.932 324.212 200.357 331.935 198.247 338.184C196.835 342.367 193.751 348.332 188.61 348.39C182.177 348.463 181.867 340.597 181.742 335.999C181.577 329.886 180.796 324.561 175.927 320.395C175.326 319.88 174.695 319.399 174.065 318.917C173.505 318.49 172.945 318.063 172.406 317.613C172.32 317.541 172.233 317.469 172.146 317.397C170.425 315.965 168.616 314.461 168.396 312.102C168.077 308.682 170.028 308.067 173.007 308.702C173.104 308.723 173.365 308.82 173.72 308.954C175.241 309.524 178.488 310.741 177.874 309.286C177.642 308.738 176.798 308.303 175.732 307.978C172.973 307.681 169.683 307.337 168.737 307.542C158.53 309.758 154.556 323.745 153.501 332.631C153.381 333.638 153.286 334.647 153.203 335.659H151.331C151.462 333.284 151.633 330.913 152.034 328.564C153.539 319.762 158.242 306.833 168.559 305.404C168.939 305.351 170.339 305.342 172.035 305.441C172.839 304.996 173.739 304.728 174.688 304.666Z" fill="#F2F2F2"/>
</g>
</g>
<path d="M131 416.595C131 407.821 138.748 401.066 147.44 402.263L292.028 422.161C293.336 422.341 294.664 422.341 295.972 422.161L440.56 402.263C449.252 401.066 457 407.821 457 416.595V648.069C457 657.356 448.406 664.289 439.307 662.432C408.01 656.041 341.694 643.768 294 643.768C246.306 643.768 179.99 656.041 148.693 662.432C139.594 664.289 131 657.356 131 648.069V416.595Z" fill="#B9FF99"/>
<rect x="175.367" y="443.402" width="73.3018" height="84.8757" rx="1.92899" fill="#55A630"/>
<path d="M175.367 515.74H248.669V526.349C248.669 527.414 247.805 528.278 246.74 528.278H177.296C176.23 528.278 175.367 527.414 175.367 526.349V515.74Z" fill="#007F5F"/>
<rect x="207.195" y="452.083" width="9.64497" height="3.85799" rx="1.92899" fill="#8CE08C"/>
<rect x="192.728" y="474.266" width="38.5799" height="3.85799" rx="1.92899" fill="#8CE08C"/>
<rect x="201.408" y="481.018" width="21.2189" height="3.85799" rx="1.92899" fill="#8CE08C"/>
<rect x="180.189" y="520.562" width="21.2189" height="3.85799" rx="1.92899" fill="#8CE08C"/>
<rect x="230.343" y="520.562" width="14.4675" height="3.85799" rx="1.92899" fill="#8CE08C"/>
<rect x="339.331" y="443.402" width="73.3018" height="84.8757" rx="1.92899" fill="#55A630"/>
<path d="M339.331 515.74H412.633V526.349C412.633 527.414 411.77 528.278 410.704 528.278H341.26C340.195 528.278 339.331 527.414 339.331 526.349V515.74Z" fill="#007F5F"/>
<rect x="371.16" y="452.083" width="9.64497" height="3.85799" rx="1.92899" fill="#8CE08C"/>
<rect x="356.692" y="474.266" width="38.5799" height="3.85799" rx="1.92899" fill="#8CE08C"/>
<rect x="365.373" y="481.018" width="21.2189" height="3.85799" rx="1.92899" fill="#8CE08C"/>
<rect x="344.154" y="520.562" width="21.2189" height="3.85799" rx="1.92899" fill="#8CE08C"/>
<rect x="394.308" y="520.562" width="14.4675" height="3.85799" rx="1.92899" fill="#8CE08C"/>
<rect x="174.402" y="537.923" width="73.3018" height="84.8757" rx="1.92899" fill="#55A630"/>
<path d="M174.403 610.26H247.704V620.87C247.704 621.935 246.841 622.799 245.775 622.799H176.332C175.266 622.799 174.403 621.935 174.403 620.87V610.26Z" fill="#007F5F"/>
<rect x="206.231" y="546.604" width="9.64497" height="3.85799" rx="1.92899" fill="#8CE08C"/>
<rect x="191.763" y="568.787" width="38.5799" height="3.85799" rx="1.92899" fill="#8CE08C"/>
<rect x="200.444" y="575.538" width="21.2189" height="3.85799" rx="1.92899" fill="#8CE08C"/>
<rect x="179.225" y="615.083" width="21.2189" height="3.85799" rx="1.92899" fill="#8CE08C"/>
<rect x="229.379" y="615.083" width="14.4675" height="3.85799" rx="1.92899" fill="#8CE08C"/>
<rect x="340.296" y="537.923" width="73.3018" height="84.8757" rx="1.92899" fill="#55A630"/>
<path d="M340.296 610.26H413.598V620.87C413.598 621.935 412.734 622.799 411.669 622.799H342.225C341.159 622.799 340.296 621.935 340.296 620.87V610.26Z" fill="#007F5F"/>
<rect x="372.124" y="546.604" width="9.64497" height="3.85799" rx="1.92899" fill="#8CE08C"/>
<rect x="357.657" y="568.787" width="38.5799" height="3.85799" rx="1.92899" fill="#8CE08C"/>
<rect x="366.337" y="575.538" width="21.2189" height="3.85799" rx="1.92899" fill="#8CE08C"/>
<rect x="345.118" y="615.083" width="21.2189" height="3.85799" rx="1.92899" fill="#8CE08C"/>
<rect x="395.272" y="615.083" width="14.4675" height="3.85799" rx="1.92899" fill="#8CE08C"/>
<rect x="257.349" y="537.923" width="73.3018" height="84.8757" rx="1.92899" fill="#55A630"/>
<path d="M257.349 610.26H330.651V620.87C330.651 621.935 329.787 622.799 328.722 622.799H259.278C258.213 622.799 257.349 621.935 257.349 620.87V610.26Z" fill="#007F5F"/>
<rect x="289.177" y="546.604" width="9.64497" height="3.85799" rx="1.92899" fill="#8CE08C"/>
<rect x="274.71" y="568.787" width="38.5799" height="3.85799" rx="1.92899" fill="#8CE08C"/>
<rect x="283.39" y="575.538" width="21.2189" height="3.85799" rx="1.92899" fill="#8CE08C"/>
<rect x="262.171" y="615.083" width="21.2189" height="3.85799" rx="1.92899" fill="#8CE08C"/>
<rect x="312.325" y="615.083" width="14.4675" height="3.85799" rx="1.92899" fill="#8CE08C"/>
<g filter="url(#filter0_dd)">
<rect x="247.704" y="407.716" width="100.79" height="116.704" rx="2.65237" fill="#EEEF20"/>
<path d="M247.704 507.18H348.494V521.768C348.494 523.233 347.307 524.42 345.842 524.42H250.357C248.892 524.42 247.704 523.233 247.704 521.768V507.18Z" fill="#DDDF00"/>
<rect x="291.468" y="419.652" width="13.2618" height="5.30473" rx="2.65237" fill="#2B9348"/>
<rect x="271.575" y="450.154" width="53.0473" height="5.30473" rx="2.65237" fill="#2B9348"/>
<rect x="283.511" y="459.437" width="29.176" height="5.30473" rx="2.65237" fill="#2B9348"/>
<rect x="254.335" y="513.811" width="29.176" height="5.30473" rx="2.65237" fill="#BFD200"/>
<rect x="323.297" y="513.811" width="19.8928" height="5.30473" rx="2.65237" fill="#BFD200"/>
</g>
<defs>
<filter id="filter0_dd" x="236.13" y="405.787" width="123.938" height="139.852" filterUnits="userSpaceOnUse" color-interpolation-filters="sRGB">
<feFlood flood-opacity="0" result="BackgroundImageFix"/>
<feColorMatrix in="SourceAlpha" type="matrix" values="0 0 0 0 0 0 0 0 0 0 0 0 0 0 0 0 0 0 127 0"/>
<feMorphology radius="1.92899" operator="erode" in="SourceAlpha" result="effect1_dropShadow"/>
<feOffset dy="3.85799"/>
<feGaussianBlur stdDeviation="2.89349"/>
<feColorMatrix type="matrix" values="0 0 0 0 0 0 0 0 0 0 0 0 0 0 0 0 0 0 0.05 0"/>
<feBlend mode="normal" in2="BackgroundImageFix" result="effect1_dropShadow"/>
<feColorMatrix in="SourceAlpha" type="matrix" values="0 0 0 0 0 0 0 0 0 0 0 0 0 0 0 0 0 0 127 0"/>
<feMorphology radius="2.89349" operator="erode" in="SourceAlpha" result="effect2_dropShadow"/>
<feOffset dy="9.64497"/>
<feGaussianBlur stdDeviation="7.23373"/>
<feColorMatrix type="matrix" values="0 0 0 0 0 0 0 0 0 0 0 0 0 0 0 0 0 0 0.1 0"/>
<feBlend mode="normal" in2="effect1_dropShadow" result="effect2_dropShadow"/>
<feBlend mode="normal" in="SourceGraphic" in2="effect2_dropShadow" result="shape"/>
</filter>
</defs>
</svg>
