<svg width="14" height="14" viewBox="0 0 14 14" fill="none" xmlns="http://www.w3.org/2000/svg">
<path fill-rule="evenodd" clip-rule="evenodd" d="M9.06867 2.66864C9.21626 2.51582 9.39282 2.39393 9.58802 2.31008C9.78323 2.22622 9.99318 2.18208 10.2056 2.18024C10.4181 2.17839 10.6288 2.21887 10.8254 2.29932C11.022 2.37977 11.2007 2.49858 11.3509 2.64881C11.5011 2.79903 11.6199 2.97768 11.7004 3.17431C11.7808 3.37095 11.8213 3.58163 11.8195 3.79408C11.8176 4.00653 11.7735 4.21648 11.6896 4.41169C11.6058 4.60689 11.4839 4.78344 11.3311 4.93104L8.93107 7.33104C8.63102 7.63099 8.22413 7.7995 7.79987 7.7995C7.37561 7.7995 6.96871 7.63099 6.66867 7.33104C6.51779 7.18531 6.31571 7.10468 6.10595 7.1065C5.89619 7.10832 5.69554 7.19246 5.54721 7.34078C5.39889 7.48911 5.31475 7.68976 5.31293 7.89952C5.31111 8.10927 5.39174 8.31136 5.53747 8.46224C6.13756 9.06215 6.95134 9.39915 7.79987 9.39915C8.64839 9.39915 9.46218 9.06215 10.0623 8.46224L12.4623 6.06224C13.0452 5.45871 13.3677 4.65038 13.3604 3.81135C13.3531 2.97232 13.0166 2.16972 12.4233 1.57642C11.83 0.983113 11.0274 0.646572 10.1884 0.639281C9.34932 0.63199 8.541 0.954532 7.93747 1.53744L6.73747 2.73744C6.66106 2.81124 6.60012 2.89951 6.55819 2.99711C6.51626 3.09472 6.49419 3.19969 6.49327 3.30592C6.49235 3.41214 6.51259 3.51748 6.55281 3.6158C6.59304 3.71412 6.65244 3.80344 6.72755 3.87855C6.80267 3.95367 6.89199 4.01307 6.99031 4.0533C7.08862 4.09352 7.19397 4.11376 7.30019 4.11284C7.40641 4.11192 7.51139 4.08985 7.60899 4.04792C7.7066 4.00599 7.79487 3.94505 7.86867 3.86864L9.06867 2.66864ZM5.06867 6.66864C5.36871 6.36868 5.77561 6.20018 6.19987 6.20018C6.62413 6.20018 7.03102 6.36868 7.33107 6.66864C7.40487 6.74505 7.49314 6.80599 7.59075 6.84792C7.68835 6.88985 7.79332 6.91192 7.89955 6.91284C8.00577 6.91376 8.11112 6.89352 8.20943 6.8533C8.30775 6.81307 8.39707 6.75367 8.47218 6.67855C8.5473 6.60344 8.6067 6.51412 8.64693 6.4158C8.68715 6.31748 8.70739 6.21214 8.70647 6.10592C8.70555 5.99969 8.68348 5.89472 8.64155 5.79711C8.59962 5.69951 8.53868 5.61124 8.46227 5.53744C7.86218 4.93753 7.04839 4.60052 6.19987 4.60052C5.35134 4.60052 4.53756 4.93753 3.93747 5.53744L1.53747 7.93744C1.23184 8.23263 0.988054 8.58573 0.820345 8.97614C0.652636 9.36656 0.56436 9.78646 0.560668 10.2114C0.556975 10.6362 0.637941 11.0576 0.79884 11.4509C0.959739 11.8442 1.19735 12.2014 1.49781 12.5019C1.79826 12.8024 2.15555 13.04 2.54882 13.2009C2.94208 13.3618 3.36346 13.4427 3.78835 13.439C4.21325 13.4353 4.63315 13.3471 5.02356 13.1794C5.41398 13.0117 5.76708 12.7679 6.06227 12.4622L7.26227 11.2622C7.33868 11.1884 7.39962 11.1002 7.44155 11.0026C7.48348 10.905 7.50555 10.8 7.50647 10.6938C7.50739 10.5875 7.48715 10.4822 7.44693 10.3839C7.4067 10.2856 7.3473 10.1962 7.27218 10.1211C7.19707 10.046 7.10775 9.9866 7.00943 9.94638C6.91112 9.90616 6.80577 9.88591 6.69955 9.88684C6.59332 9.88776 6.48835 9.90983 6.39075 9.95176C6.29314 9.99368 6.20487 10.0546 6.13107 10.131L4.93107 11.331C4.78347 11.4839 4.60692 11.6057 4.41172 11.6896C4.21651 11.7735 4.00656 11.8176 3.79411 11.8194C3.58166 11.8213 3.37098 11.7808 3.17434 11.7004C2.97771 11.6199 2.79907 11.5011 2.64884 11.3509C2.49861 11.2006 2.3798 11.022 2.29935 10.8254C2.21891 10.6287 2.17842 10.418 2.18027 10.2056C2.18211 9.99315 2.22625 9.7832 2.31011 9.58799C2.39396 9.39278 2.51585 9.21623 2.66867 9.06864L5.06867 6.66864Z" fill="#417837"/>
</svg>
