<svg width="14" height="14" viewBox="0 0 14 14" fill="none" xmlns="http://www.w3.org/2000/svg">
<path fill-rule="evenodd" clip-rule="evenodd" d="M7.0001 13.4001C8.69748 13.4001 10.3253 12.7258 11.5256 11.5256C12.7258 10.3253 13.4001 8.69748 13.4001 7.0001C13.4001 5.30271 12.7258 3.67485 11.5256 2.47461C10.3253 1.27438 8.69748 0.600098 7.0001 0.600098C5.30271 0.600098 3.67485 1.27438 2.47461 2.47461C1.27438 3.67485 0.600098 5.30271 0.600098 7.0001C0.600098 8.69748 1.27438 10.3253 2.47461 11.5256C3.67485 12.7258 5.30271 13.4001 7.0001 13.4001ZM7.8001 4.6001C7.8001 4.38792 7.71581 4.18444 7.56578 4.03441C7.41575 3.88438 7.21227 3.8001 7.0001 3.8001C6.78792 3.8001 6.58444 3.88438 6.43441 4.03441C6.28438 4.18444 6.2001 4.38792 6.2001 4.6001V6.2001H4.6001C4.38792 6.2001 4.18444 6.28438 4.03441 6.43441C3.88438 6.58444 3.8001 6.78792 3.8001 7.0001C3.8001 7.21227 3.88438 7.41575 4.03441 7.56578C4.18444 7.71581 4.38792 7.8001 4.6001 7.8001H6.2001V9.4001C6.2001 9.61227 6.28438 9.81575 6.43441 9.96578C6.58444 10.1158 6.78792 10.2001 7.0001 10.2001C7.21227 10.2001 7.41575 10.1158 7.56578 9.96578C7.71581 9.81575 7.8001 9.61227 7.8001 9.4001V7.8001H9.4001C9.61227 7.8001 9.81575 7.71581 9.96578 7.56578C10.1158 7.41575 10.2001 7.21227 10.2001 7.0001C10.2001 6.78792 10.1158 6.58444 9.96578 6.43441C9.81575 6.28438 9.61227 6.2001 9.4001 6.2001H7.8001V4.6001Z" fill="#417837"/>
</svg>
