<svg width="20" height="19" viewBox="0 0 20 19" fill="none" xmlns="http://www.w3.org/2000/svg">
<path d="M17 8.5H3M17 8.5C17.5304 8.5 18.0391 8.71071 18.4142 9.08579C18.7893 9.46086 19 9.96957 19 10.5V16.5C19 17.0304 18.7893 17.5391 18.4142 17.9142C18.0391 18.2893 17.5304 18.5 17 18.5H3C2.46957 18.5 1.96086 18.2893 1.58579 17.9142C1.21071 17.5391 1 17.0304 1 16.5V10.5C1 9.96957 1.21071 9.46086 1.58579 9.08579C1.96086 8.71071 2.46957 8.5 3 8.5M17 8.5V6.5C17 5.96957 16.7893 5.46086 16.4142 5.08579C16.0391 4.71071 15.5304 4.5 15 4.5M3 8.5V6.5C3 5.96957 3.21071 5.46086 3.58579 5.08579C3.96086 4.71071 4.46957 4.5 5 4.5M15 4.5V2.5C15 1.96957 14.7893 1.46086 14.4142 1.08579C14.0391 0.710714 13.5304 0.5 13 0.5H7C6.46957 0.5 5.96086 0.710714 5.58579 1.08579C5.21071 1.46086 5 1.96957 5 2.5V4.5M15 4.5H5" stroke="#417837" stroke-linecap="round" stroke-linejoin="round"/>
</svg>
