<svg width="22" height="17" viewBox="0 0 22 17" fill="none" xmlns="http://www.w3.org/2000/svg">
<path d="M16 16.5H21V14.5C21 13.8765 20.8057 13.2686 20.4441 12.7606C20.0826 12.2527 19.5718 11.87 18.9827 11.6658C18.3937 11.4615 17.7556 11.4459 17.1573 11.621C16.5589 11.7962 16.03 12.1534 15.644 12.643M16 16.5H6M16 16.5V14.5C16 13.844 15.874 13.217 15.644 12.643M15.644 12.643C15.2726 11.715 14.6318 10.9195 13.804 10.3591C12.9762 9.79878 11.9996 9.4993 11 9.4993C10.0004 9.4993 9.02376 9.79878 8.196 10.3591C7.36825 10.9195 6.72736 11.715 6.356 12.643M6 16.5H1V14.5C1.00005 13.8765 1.19434 13.2686 1.55586 12.7606C1.91739 12.2527 2.42819 11.87 3.01725 11.6658C3.60632 11.4615 4.24438 11.4459 4.84274 11.621C5.4411 11.7962 5.97003 12.1534 6.356 12.643M6 16.5V14.5C6 13.844 6.126 13.217 6.356 12.643M14 3.5C14 4.29565 13.6839 5.05871 13.1213 5.62132C12.5587 6.18393 11.7956 6.5 11 6.5C10.2044 6.5 9.44129 6.18393 8.87868 5.62132C8.31607 5.05871 8 4.29565 8 3.5C8 2.70435 8.31607 1.94129 8.87868 1.37868C9.44129 0.816071 10.2044 0.5 11 0.5C11.7956 0.5 12.5587 0.816071 13.1213 1.37868C13.6839 1.94129 14 2.70435 14 3.5ZM20 6.5C20 7.03043 19.7893 7.53914 19.4142 7.91421C19.0391 8.28929 18.5304 8.5 18 8.5C17.4696 8.5 16.9609 8.28929 16.5858 7.91421C16.2107 7.53914 16 7.03043 16 6.5C16 5.96957 16.2107 5.46086 16.5858 5.08579C16.9609 4.71071 17.4696 4.5 18 4.5C18.5304 4.5 19.0391 4.71071 19.4142 5.08579C19.7893 5.46086 20 5.96957 20 6.5ZM6 6.5C6 7.03043 5.78929 7.53914 5.41421 7.91421C5.03914 8.28929 4.53043 8.5 4 8.5C3.46957 8.5 2.96086 8.28929 2.58579 7.91421C2.21071 7.53914 2 7.03043 2 6.5C2 5.96957 2.21071 5.46086 2.58579 5.08579C2.96086 4.71071 3.46957 4.5 4 4.5C4.53043 4.5 5.03914 4.71071 5.41421 5.08579C5.78929 5.46086 6 5.96957 6 6.5Z" stroke="#417837" stroke-linecap="round" stroke-linejoin="round"/>
</svg>
